<svg xmlns="http://www.w3.org/2000/svg" xmlns:xlink="http://www.w3.org/1999/xlink" width="1024" zoomAndPan="magnify" viewBox="0 0 768 767.999994" height="1024" preserveAspectRatio="xMidYMid meet" version="1.0"><defs><clipPath id="311eb0f02c"><path d="M 121.636719 121.636719 L 646.363281 121.636719 L 646.363281 646.363281 L 121.636719 646.363281 Z M 121.636719 121.636719 " clip-rule="nonzero"/></clipPath><clipPath id="e8c18f5b68"><path d="M 384 121.636719 C 239.101562 121.636719 121.636719 239.101562 121.636719 384 C 121.636719 528.898438 239.101562 646.363281 384 646.363281 C 528.898438 646.363281 646.363281 528.898438 646.363281 384 C 646.363281 239.101562 528.898438 121.636719 384 121.636719 Z M 384 121.636719 " clip-rule="nonzero"/></clipPath><clipPath id="df01ae22b0"><path d="M 213 150 L 557.972656 150 L 557.972656 599 L 213 599 Z M 213 150 " clip-rule="nonzero"/></clipPath></defs><g clip-path="url(#311eb0f02c)"><g clip-path="url(#e8c18f5b68)"><path fill="#c7d1d2" d="M 121.636719 121.636719 L 646.363281 121.636719 L 646.363281 646.363281 L 121.636719 646.363281 Z M 121.636719 121.636719 " fill-opacity="1" fill-rule="nonzero"/></g></g><g clip-path="url(#df01ae22b0)"><path fill="#f1a298" d="M 337.042969 185.070312 C 336.953125 186.960938 337.132812 188.941406 337.675781 190.742188 C 338.035156 192.183594 338.664062 193.53125 338.933594 194.972656 C 339.476562 198.125 338.214844 201.277344 336.683594 204.066406 C 335.152344 206.859375 333.167969 209.46875 332.085938 212.441406 C 331.816406 213.074219 331.636719 213.703125 331.816406 214.332031 C 332.085938 215.054688 332.808594 215.503906 333.4375 215.863281 C 335.332031 216.855469 337.222656 217.933594 339.117188 219.105469 C 339.207031 220.097656 339.027344 221.085938 338.664062 221.988281 C 338.394531 222.527344 338.035156 223.066406 337.765625 223.605469 C 337.492188 224.148438 337.222656 224.777344 337.402344 225.410156 C 337.492188 226.039062 337.945312 226.667969 338.484375 227.027344 C 339.027344 227.390625 339.65625 227.660156 340.105469 227.75 C 339.925781 228.558594 339.476562 229.28125 339.207031 230.089844 C 338.933594 230.902344 338.84375 231.800781 339.386719 232.523438 C 340.105469 233.332031 341.457031 233.332031 342.179688 234.140625 C 342.539062 236.394531 342.898438 238.554688 343.261719 240.804688 C 343.351562 241.707031 343.53125 242.515625 343.980469 243.238281 C 344.792969 244.496094 346.324219 244.949219 347.765625 245.21875 C 353.082031 246.296875 358.667969 245.667969 363.625 243.148438 C 363.625 246.207031 363.535156 249.179688 363.535156 252.242188 C 363.535156 253.050781 363.535156 253.863281 363.261719 254.582031 C 362.902344 255.664062 362.089844 256.472656 361.28125 257.195312 C 355.785156 262.507812 349.566406 267.097656 342.71875 271.058594 C 335.511719 273.222656 328.394531 275.292969 321.183594 277.453125 C 318.84375 278.171875 316.5 278.804688 314.335938 279.882812 C 306.046875 283.757812 300.460938 292.21875 298.300781 301.132812 C 296.136719 310.050781 297.128906 319.503906 299.109375 327.878906 C 298.027344 335.890625 294.875 343.457031 292.261719 351.109375 C 285.957031 369.207031 281.902344 388.207031 280.460938 407.117188 C 275.59375 423.144531 267.484375 438.089844 261.898438 453.847656 C 256.222656 470.054688 253.160156 487.074219 250.183594 503.730469 C 247.210938 506.253906 236.488281 508.144531 235.046875 508.863281 C 230.09375 511.296875 228.289062 518.230469 223.0625 520.121094 C 220.542969 521.109375 217.566406 520.660156 215.136719 521.921875 C 212.972656 523.089844 213.0625 525.433594 214.863281 526.511719 C 215.765625 527.054688 216.757812 527.234375 217.75 527.234375 C 222.972656 527.59375 228.199219 526.242188 232.523438 523.363281 C 234.058594 522.28125 236.21875 522.011719 236.039062 525.074219 C 235.859375 527.144531 226.578125 540.648438 221.53125 546.773438 C 219.460938 549.292969 217.207031 551.90625 215.855469 554.878906 C 215.136719 556.40625 214.683594 559.019531 216.488281 560.007812 C 217.929688 560.820312 219.640625 559.738281 220.902344 558.660156 C 227.027344 553.4375 230.992188 546.144531 236.941406 540.738281 C 237.480469 540.199219 238.382812 539.75 239.011719 540.199219 C 239.464844 540.648438 239.191406 541.460938 238.921875 542.089844 C 235.589844 548.753906 233.066406 555.6875 230.632812 562.710938 C 230.183594 564.0625 229.640625 565.503906 229.640625 567.03125 C 229.640625 568.113281 229.914062 569.285156 230.8125 569.914062 C 231.714844 570.453125 232.886719 570.273438 233.695312 569.644531 C 234.507812 569.015625 235.046875 568.113281 235.589844 567.214844 C 239.914062 559.738281 243.15625 551.726562 247.480469 544.34375 C 247.753906 543.980469 248.023438 543.53125 248.472656 543.441406 C 248.921875 543.351562 249.105469 544.703125 249.195312 544.972656 C 249.824219 549.292969 247.300781 562.261719 247.570312 568.382812 C 247.664062 569.285156 247.664062 570.273438 248.023438 571.175781 C 248.382812 572.074219 249.105469 572.886719 250.003906 573.066406 C 251.265625 573.425781 252.527344 572.707031 253.25 571.625 C 253.96875 570.542969 254.238281 569.285156 254.417969 568.023438 C 255.5 560.730469 255.320312 553.347656 256.851562 546.144531 C 257.03125 545.242188 257.664062 543.441406 258.472656 543.351562 C 259.464844 543.261719 260.277344 545.242188 260.636719 546.503906 C 261.269531 548.933594 261.71875 551.367188 262.078125 554.066406 C 262.527344 557.039062 262.890625 560.097656 263.878906 562.980469 C 264.152344 563.882812 264.601562 564.691406 265.320312 565.320312 C 266.042969 565.863281 267.214844 566.042969 267.84375 565.320312 C 268.207031 564.960938 268.386719 564.332031 268.476562 563.882812 C 269.648438 556.585938 266.492188 549.292969 266.855469 541.910156 C 267.035156 537.410156 268.566406 533.085938 269.46875 528.675781 C 270.1875 525.074219 270.546875 521.382812 270.1875 517.238281 C 293.253906 486.625 309.652344 450.875 318.03125 412.699219 C 322.808594 400.453125 326.5 387.757812 329.023438 375.152344 C 329.382812 392.980469 328.933594 418.28125 328.664062 436.46875 C 326.230469 446.824219 325.238281 449.796875 324.070312 461.140625 C 309.742188 501.75 304.246094 548.125 309.292969 586.84375 C 309.742188 590.082031 310.644531 595.757812 311.183594 598.636719 C 333.621094 598.636719 354.074219 598.546875 376.148438 598.546875 C 379.480469 578.199219 382.542969 553.074219 384.886719 532.546875 C 385.699219 532.457031 386.507812 532.367188 387.5 532.546875 C 388.941406 553.527344 391.285156 577.929688 393.988281 598.726562 C 419.394531 598.726562 434.894531 598.726562 458.410156 598.726562 C 459.042969 593.777344 460.300781 581.800781 460.84375 575.945312 C 464.355469 538.039062 462.195312 496.167969 447.597656 460.511719 C 446.695312 453.308594 446.246094 447.363281 443.453125 436.109375 C 442.824219 415.667969 442.824219 395.230469 443.273438 374.609375 C 447.238281 387.304688 451.023438 400.003906 455.257812 413.960938 C 457.058594 432.867188 463.003906 451.148438 471.113281 468.34375 C 479.222656 485.542969 489.40625 501.570312 500.308594 517.867188 C 501.207031 525.433594 502.832031 532.90625 505.261719 540.921875 C 504.632812 547.582031 504.183594 554.335938 503.820312 561 C 503.730469 562.621094 503.730469 564.511719 504.902344 565.683594 C 505.351562 566.222656 506.074219 566.492188 506.796875 566.3125 C 507.605469 566.042969 507.964844 565.140625 508.148438 564.421875 C 510.039062 558.027344 509.769531 551.09375 511.570312 544.703125 C 511.660156 544.433594 511.75 544.070312 512.109375 543.980469 C 512.5625 543.890625 512.832031 544.433594 512.921875 544.882812 C 514.273438 552.804688 515.714844 560.820312 517.066406 568.742188 C 517.246094 569.914062 517.515625 571.085938 518.148438 572.074219 C 518.777344 573.066406 520.039062 573.785156 521.121094 573.515625 C 522.742188 573.066406 523.375 571.085938 523.464844 569.375 C 524.09375 561.089844 521.933594 552.894531 521.660156 544.613281 C 521.660156 543.890625 521.84375 542.902344 522.5625 542.902344 C 523.011719 542.902344 523.375 543.261719 523.644531 543.621094 C 529.140625 551.003906 531.121094 560.550781 536.4375 568.113281 C 536.980469 568.921875 537.609375 569.644531 538.421875 570.183594 C 539.230469 570.632812 540.3125 570.816406 541.125 570.363281 C 541.84375 569.914062 542.296875 569.105469 542.386719 568.203125 C 542.476562 567.304688 542.296875 566.492188 542.023438 565.683594 C 539.503906 556.859375 533.285156 549.113281 532.203125 540.199219 C 533.195312 539.570312 534.457031 540.46875 535.359375 541.28125 C 539.953125 545.691406 543.648438 550.914062 547.703125 555.777344 C 548.78125 557.039062 549.953125 558.390625 551.304688 559.289062 C 552.207031 559.917969 553.199219 560.371094 554.1875 560.371094 C 555.269531 560.371094 556.351562 559.828125 556.710938 558.839844 C 556.980469 558.207031 556.890625 557.488281 556.710938 556.859375 C 556.082031 554.425781 554.460938 552.355469 552.835938 550.464844 C 549.144531 545.960938 545.449219 541.460938 541.84375 536.957031 C 538.871094 533.355469 535.898438 529.664062 534.636719 525.164062 C 534.457031 524.621094 534.367188 523.992188 534.546875 523.453125 C 534.726562 522.910156 535.265625 522.460938 535.808594 522.191406 C 537.609375 521.472656 539.683594 522.460938 541.304688 523.542969 C 543.105469 524.710938 544.910156 526.0625 546.890625 526.964844 C 548.871094 527.863281 551.125 528.496094 553.289062 528.222656 C 555.449219 527.953125 557.613281 526.511719 557.882812 524.351562 C 557.972656 523.902344 557.882812 523.363281 557.523438 522.910156 C 557.164062 522.550781 556.710938 522.371094 556.171875 522.28125 C 551.664062 521.109375 546.710938 520.210938 543.285156 517.058594 C 541.125 514.988281 539.773438 512.105469 537.339844 510.394531 C 532.925781 506.882812 527.339844 504.8125 521.933594 504.273438 C 510.21875 471.046875 508.148438 434.398438 490.578125 402.34375 C 487.511719 380.644531 484.539062 358.761719 477.601562 337.871094 C 476.070312 333.191406 474.269531 328.417969 473.90625 323.464844 C 473.636719 318.964844 474.539062 314.550781 474.539062 310.050781 C 474.71875 295.550781 464.898438 281.414062 451.203125 276.554688 C 444.804688 274.300781 437.957031 273.851562 431.289062 271.332031 C 425.433594 266.828125 419.667969 262.234375 414.082031 257.375 C 412.730469 256.203125 411.105469 255.121094 410.296875 253.5 C 406.871094 246.929688 407.503906 241.707031 407.414062 234.773438 C 407.324219 227.300781 413.359375 220.457031 416.964844 213.972656 C 420.566406 207.398438 422.910156 200.105469 423.8125 192.632812 C 424.261719 189.121094 424.351562 185.519531 423.902344 182.007812 C 423.269531 176.964844 421.378906 172.191406 419.035156 167.691406 C 417.863281 165.441406 416.511719 163.277344 414.710938 161.476562 C 412.820312 159.585938 410.566406 158.054688 408.222656 156.796875 C 393.265625 148.691406 374.433594 147.882812 358.847656 154.8125 C 352.632812 157.605469 346.953125 161.566406 342.808594 166.878906 C 338.664062 172.28125 337.492188 179.035156 337.042969 185.070312 Z M 337.042969 185.070312 " fill-opacity="1" fill-rule="nonzero"/></g></svg>