<svg xmlns="http://www.w3.org/2000/svg" xmlns:xlink="http://www.w3.org/1999/xlink" width="1024" zoomAndPan="magnify" viewBox="0 0 768 767.999994" height="1024" preserveAspectRatio="xMidYMid meet" version="1.0"><defs><clipPath id="6d66d9ab8b"><path d="M 121.554688 121.554688 L 646.445312 121.554688 L 646.445312 646.445312 L 121.554688 646.445312 Z M 121.554688 121.554688 " clip-rule="nonzero"/></clipPath><clipPath id="8ee5188ee3"><path d="M 384 121.554688 C 239.054688 121.554688 121.554688 239.054688 121.554688 384 C 121.554688 528.945312 239.054688 646.445312 384 646.445312 C 528.945312 646.445312 646.445312 528.945312 646.445312 384 C 646.445312 239.054688 528.945312 121.554688 384 121.554688 Z M 384 121.554688 " clip-rule="nonzero"/></clipPath><clipPath id="2aa1038657"><path d="M 226.023438 299.652344 L 541.773438 299.652344 L 541.773438 503.652344 L 226.023438 503.652344 Z M 226.023438 299.652344 " clip-rule="nonzero"/></clipPath></defs><g clip-path="url(#6d66d9ab8b)"><g clip-path="url(#8ee5188ee3)"><path fill="#cd9341" d="M 121.554688 121.554688 L 646.445312 121.554688 L 646.445312 646.445312 L 121.554688 646.445312 Z M 121.554688 121.554688 " fill-opacity="1" fill-rule="nonzero"/></g></g><g clip-path="url(#2aa1038657)"><path fill="#99aab5" d="M 542.320312 401.652344 C 542.320312 432.277344 471.558594 503.609375 384.285156 503.609375 C 297.007812 503.609375 226.253906 441.035156 226.253906 401.652344 C 226.253906 370.949219 297.015625 299.699219 384.285156 299.699219 C 471.558594 299.699219 542.320312 370.9375 542.320312 401.652344 Z M 542.320312 401.652344 " fill-opacity="1" fill-rule="nonzero"/></g><path fill="#f5f8fa" d="M 530.820312 401.652344 C 530.820312 428.570312 465.195312 491.253906 384.277344 491.253906 C 303.347656 491.253906 237.746094 436.246094 237.746094 401.652344 C 237.746094 374.664062 303.347656 312.0625 384.277344 312.0625 C 465.195312 312.054688 530.820312 374.664062 530.820312 401.652344 Z M 530.820312 401.652344 " fill-opacity="1" fill-rule="nonzero"/><path fill="#55acee" d="M 462.675781 401.652344 C 462.675781 402.9375 462.644531 404.21875 462.582031 405.5 C 462.519531 406.78125 462.425781 408.0625 462.300781 409.339844 C 462.175781 410.613281 462.019531 411.886719 461.828125 413.15625 C 461.640625 414.425781 461.421875 415.691406 461.171875 416.949219 C 460.921875 418.207031 460.640625 419.457031 460.332031 420.703125 C 460.019531 421.945312 459.675781 423.183594 459.304688 424.410156 C 458.933594 425.636719 458.53125 426.855469 458.097656 428.0625 C 457.667969 429.273438 457.207031 430.46875 456.714844 431.652344 C 456.226562 432.839844 455.707031 434.011719 455.160156 435.171875 C 454.609375 436.332031 454.035156 437.476562 453.429688 438.609375 C 452.824219 439.738281 452.195312 440.855469 451.535156 441.957031 C 450.875 443.058594 450.191406 444.140625 449.480469 445.207031 C 448.765625 446.273438 448.027344 447.324219 447.265625 448.351562 C 446.5 449.382812 445.714844 450.394531 444.902344 451.386719 C 444.085938 452.378906 443.25 453.347656 442.390625 454.300781 C 441.527344 455.25 440.644531 456.179688 439.738281 457.085938 C 438.832031 457.992188 437.90625 458.878906 436.957031 459.738281 C 436.003906 460.601562 435.035156 461.4375 434.042969 462.253906 C 433.054688 463.066406 432.042969 463.855469 431.015625 464.621094 C 429.984375 465.382812 428.9375 466.125 427.871094 466.835938 C 426.804688 467.546875 425.722656 468.234375 424.625 468.894531 C 423.523438 469.554688 422.410156 470.1875 421.277344 470.792969 C 420.148438 471.394531 419.003906 471.972656 417.84375 472.519531 C 416.6875 473.070312 415.515625 473.589844 414.332031 474.082031 C 413.148438 474.570312 411.953125 475.03125 410.746094 475.464844 C 409.539062 475.898438 408.320312 476.300781 407.09375 476.671875 C 405.867188 477.042969 404.632812 477.386719 403.390625 477.699219 C 402.148438 478.011719 400.898438 478.292969 399.640625 478.542969 C 398.382812 478.792969 397.121094 479.011719 395.851562 479.199219 C 394.585938 479.386719 393.3125 479.542969 392.035156 479.671875 C 390.761719 479.796875 389.484375 479.890625 388.203125 479.953125 C 386.921875 480.015625 385.640625 480.046875 384.359375 480.046875 C 383.078125 480.046875 381.796875 480.015625 380.519531 479.953125 C 379.238281 479.890625 377.960938 479.796875 376.683594 479.671875 C 375.410156 479.542969 374.136719 479.386719 372.867188 479.199219 C 371.601562 479.011719 370.339844 478.792969 369.082031 478.542969 C 367.824219 478.292969 366.574219 478.011719 365.332031 477.699219 C 364.085938 477.386719 362.851562 477.042969 361.625 476.671875 C 360.398438 476.300781 359.183594 475.898438 357.976562 475.464844 C 356.769531 475.03125 355.574219 474.570312 354.390625 474.082031 C 353.207031 473.589844 352.035156 473.070312 350.875 472.519531 C 349.71875 471.972656 348.574219 471.394531 347.441406 470.792969 C 346.3125 470.1875 345.195312 469.554688 344.097656 468.894531 C 343 468.234375 341.914062 467.546875 340.851562 466.835938 C 339.785156 466.125 338.738281 465.382812 337.707031 464.621094 C 336.675781 463.855469 335.667969 463.066406 334.675781 462.253906 C 333.6875 461.4375 332.714844 460.601562 331.765625 459.738281 C 330.816406 458.878906 329.886719 457.992188 328.980469 457.085938 C 328.074219 456.179688 327.191406 455.25 326.332031 454.300781 C 325.46875 453.347656 324.632812 452.378906 323.820312 451.386719 C 323.007812 450.394531 322.21875 449.382812 321.457031 448.351562 C 320.691406 447.324219 319.953125 446.273438 319.242188 445.207031 C 318.53125 444.140625 317.84375 443.058594 317.1875 441.957031 C 316.527344 440.855469 315.894531 439.738281 315.292969 438.609375 C 314.6875 437.476562 314.109375 436.332031 313.5625 435.171875 C 313.015625 434.011719 312.496094 432.839844 312.003906 431.652344 C 311.515625 430.46875 311.054688 429.273438 310.621094 428.0625 C 310.191406 426.855469 309.789062 425.636719 309.414062 424.410156 C 309.042969 423.183594 308.703125 421.945312 308.390625 420.703125 C 308.078125 419.457031 307.796875 418.207031 307.546875 416.949219 C 307.296875 415.691406 307.078125 414.425781 306.890625 413.15625 C 306.703125 411.886719 306.546875 410.613281 306.421875 409.339844 C 306.296875 408.0625 306.199219 406.78125 306.136719 405.5 C 306.074219 404.21875 306.042969 402.9375 306.042969 401.652344 C 306.042969 400.371094 306.074219 399.089844 306.136719 397.808594 C 306.199219 396.527344 306.296875 395.246094 306.421875 393.96875 C 306.546875 392.695312 306.703125 391.421875 306.890625 390.152344 C 307.078125 388.882812 307.296875 387.617188 307.546875 386.359375 C 307.796875 385.101562 308.078125 383.851562 308.390625 382.605469 C 308.703125 381.363281 309.042969 380.125 309.414062 378.898438 C 309.789062 377.671875 310.191406 376.453125 310.621094 375.246094 C 311.054688 374.035156 311.515625 372.839844 312.003906 371.652344 C 312.496094 370.46875 313.015625 369.296875 313.5625 368.136719 C 314.109375 366.976562 314.6875 365.832031 315.292969 364.699219 C 315.894531 363.566406 316.527344 362.453125 317.1875 361.351562 C 317.84375 360.25 318.53125 359.167969 319.242188 358.101562 C 319.953125 357.035156 320.691406 355.984375 321.457031 354.957031 C 322.21875 353.925781 323.007812 352.914062 323.820312 351.921875 C 324.632812 350.929688 325.46875 349.957031 326.332031 349.007812 C 327.191406 348.058594 328.074219 347.128906 328.980469 346.222656 C 329.886719 345.3125 330.816406 344.429688 331.765625 343.570312 C 332.714844 342.707031 333.6875 341.867188 334.675781 341.054688 C 335.667969 340.242188 336.675781 339.453125 337.707031 338.6875 C 338.738281 337.921875 339.785156 337.183594 340.851562 336.472656 C 341.914062 335.757812 343 335.074219 344.097656 334.414062 C 345.195312 333.753906 346.3125 333.121094 347.441406 332.515625 C 348.574219 331.914062 349.71875 331.335938 350.875 330.789062 C 352.035156 330.238281 353.207031 329.71875 354.390625 329.226562 C 355.574219 328.738281 356.769531 328.277344 357.976562 327.84375 C 359.183594 327.410156 360.398438 327.007812 361.625 326.636719 C 362.851562 326.265625 364.085938 325.921875 365.332031 325.609375 C 366.574219 325.296875 367.824219 325.015625 369.082031 324.765625 C 370.339844 324.515625 371.601562 324.296875 372.867188 324.109375 C 374.136719 323.921875 375.410156 323.765625 376.683594 323.636719 C 377.960938 323.511719 379.238281 323.417969 380.519531 323.355469 C 381.796875 323.292969 383.078125 323.261719 384.359375 323.261719 C 385.640625 323.261719 386.921875 323.292969 388.203125 323.355469 C 389.484375 323.417969 390.761719 323.511719 392.035156 323.636719 C 393.3125 323.765625 394.585938 323.921875 395.851562 324.109375 C 397.121094 324.296875 398.382812 324.515625 399.640625 324.765625 C 400.898438 325.015625 402.148438 325.296875 403.390625 325.609375 C 404.632812 325.921875 405.867188 326.265625 407.09375 326.636719 C 408.320312 327.007812 409.539062 327.410156 410.746094 327.84375 C 411.953125 328.277344 413.148438 328.738281 414.332031 329.226562 C 415.515625 329.71875 416.6875 330.238281 417.84375 330.789062 C 419.003906 331.335938 420.148438 331.914062 421.277344 332.515625 C 422.410156 333.121094 423.523438 333.753906 424.625 334.414062 C 425.722656 335.074219 426.804688 335.757812 427.871094 336.472656 C 428.9375 337.183594 429.984375 337.921875 431.015625 338.6875 C 432.042969 339.453125 433.054688 340.242188 434.042969 341.054688 C 435.035156 341.867188 436.003906 342.707031 436.953125 343.570312 C 437.90625 344.429688 438.832031 345.3125 439.738281 346.222656 C 440.644531 347.128906 441.527344 348.058594 442.390625 349.007812 C 443.25 349.957031 444.085938 350.929688 444.902344 351.921875 C 445.714844 352.914062 446.5 353.925781 447.265625 354.957031 C 448.027344 355.984375 448.765625 357.035156 449.480469 358.101562 C 450.191406 359.167969 450.875 360.25 451.535156 361.351562 C 452.195312 362.453125 452.824219 363.566406 453.429688 364.699219 C 454.035156 365.832031 454.609375 366.976562 455.160156 368.136719 C 455.707031 369.296875 456.226562 370.46875 456.714844 371.652344 C 457.207031 372.839844 457.667969 374.035156 458.097656 375.246094 C 458.53125 376.453125 458.933594 377.671875 459.304688 378.898438 C 459.675781 380.125 460.019531 381.363281 460.332031 382.605469 C 460.640625 383.851562 460.921875 385.101562 461.171875 386.359375 C 461.421875 387.617188 461.640625 388.882812 461.828125 390.152344 C 462.019531 391.421875 462.175781 392.695312 462.300781 393.96875 C 462.425781 395.246094 462.519531 396.527344 462.582031 397.808594 C 462.644531 399.089844 462.675781 400.371094 462.675781 401.652344 Z M 462.675781 401.652344 " fill-opacity="1" fill-rule="nonzero"/><path fill="#292f33" d="M 427.953125 401.652344 C 427.953125 403.082031 427.882812 404.507812 427.746094 405.929688 C 427.605469 407.355469 427.394531 408.765625 427.117188 410.167969 C 426.839844 411.570312 426.492188 412.953125 426.078125 414.320312 C 425.664062 415.6875 425.183594 417.03125 424.636719 418.351562 C 424.089844 419.671875 423.480469 420.964844 422.808594 422.222656 C 422.132812 423.484375 421.402344 424.707031 420.609375 425.898438 C 419.8125 427.085938 418.964844 428.230469 418.058594 429.335938 C 417.152344 430.441406 416.195312 431.5 415.1875 432.511719 C 414.175781 433.519531 413.121094 434.480469 412.015625 435.386719 C 410.914062 436.292969 409.765625 437.140625 408.578125 437.9375 C 407.394531 438.730469 406.167969 439.464844 404.910156 440.136719 C 403.652344 440.8125 402.363281 441.421875 401.042969 441.96875 C 399.722656 442.515625 398.382812 442.996094 397.015625 443.410156 C 395.648438 443.828125 394.265625 444.171875 392.867188 444.453125 C 391.464844 444.730469 390.054688 444.941406 388.632812 445.082031 C 387.210938 445.21875 385.789062 445.289062 384.359375 445.289062 C 382.933594 445.289062 381.507812 445.21875 380.085938 445.082031 C 378.667969 444.941406 377.257812 444.730469 375.855469 444.453125 C 374.457031 444.171875 373.070312 443.828125 371.707031 443.410156 C 370.339844 442.996094 368.996094 442.515625 367.679688 441.96875 C 366.359375 441.421875 365.070312 440.8125 363.808594 440.136719 C 362.550781 439.464844 361.328125 438.730469 360.140625 437.9375 C 358.953125 437.140625 357.808594 436.292969 356.703125 435.386719 C 355.601562 434.480469 354.542969 433.519531 353.535156 432.511719 C 352.527344 431.5 351.566406 430.441406 350.660156 429.335938 C 349.757812 428.230469 348.90625 427.085938 348.113281 425.898438 C 347.320312 424.707031 346.585938 423.484375 345.914062 422.222656 C 345.242188 420.964844 344.632812 419.671875 344.085938 418.351562 C 343.539062 417.03125 343.058594 415.6875 342.644531 414.320312 C 342.230469 412.953125 341.882812 411.570312 341.605469 410.167969 C 341.324219 408.765625 341.117188 407.355469 340.976562 405.929688 C 340.835938 404.507812 340.765625 403.082031 340.765625 401.652344 C 340.765625 400.226562 340.835938 398.800781 340.976562 397.378906 C 341.117188 395.953125 341.324219 394.542969 341.605469 393.140625 C 341.882812 391.738281 342.230469 390.355469 342.644531 388.988281 C 343.058594 387.621094 343.539062 386.277344 344.085938 384.957031 C 344.632812 383.636719 345.242188 382.34375 345.914062 381.085938 C 346.585938 379.824219 347.320312 378.597656 348.113281 377.410156 C 348.90625 376.222656 349.757812 375.078125 350.660156 373.972656 C 351.566406 372.867188 352.527344 371.808594 353.535156 370.796875 C 354.542969 369.789062 355.601562 368.828125 356.703125 367.921875 C 357.808594 367.015625 358.953125 366.164062 360.140625 365.371094 C 361.328125 364.578125 362.550781 363.84375 363.808594 363.171875 C 365.070312 362.496094 366.359375 361.886719 367.679688 361.339844 C 368.996094 360.792969 370.339844 360.3125 371.707031 359.898438 C 373.070312 359.480469 374.457031 359.136719 375.855469 358.855469 C 377.257812 358.578125 378.667969 358.367188 380.085938 358.226562 C 381.507812 358.085938 382.933594 358.019531 384.359375 358.019531 C 385.789062 358.019531 387.210938 358.085938 388.632812 358.226562 C 390.054688 358.367188 391.464844 358.578125 392.867188 358.855469 C 394.265625 359.136719 395.648438 359.480469 397.015625 359.898438 C 398.382812 360.3125 399.722656 360.792969 401.042969 361.339844 C 402.363281 361.886719 403.652344 362.496094 404.910156 363.171875 C 406.167969 363.84375 407.394531 364.578125 408.578125 365.371094 C 409.765625 366.164062 410.914062 367.015625 412.015625 367.921875 C 413.121094 368.828125 414.175781 369.789062 415.1875 370.796875 C 416.195312 371.808594 417.152344 372.867188 418.058594 373.972656 C 418.964844 375.078125 419.8125 376.222656 420.609375 377.410156 C 421.402344 378.597656 422.132812 379.824219 422.808594 381.085938 C 423.480469 382.34375 424.089844 383.636719 424.636719 384.957031 C 425.183594 386.277344 425.664062 387.621094 426.078125 388.988281 C 426.492188 390.355469 426.839844 391.738281 427.117188 393.140625 C 427.394531 394.542969 427.605469 395.953125 427.746094 397.378906 C 427.882812 398.800781 427.953125 400.226562 427.953125 401.652344 Z M 427.953125 401.652344 " fill-opacity="1" fill-rule="nonzero"/><path fill="#f5f8fa" d="M 430.660156 373.847656 C 430.660156 374.457031 430.628906 375.0625 430.570312 375.664062 C 430.507812 376.269531 430.421875 376.871094 430.300781 377.464844 C 430.183594 378.058594 430.035156 378.648438 429.859375 379.230469 C 429.683594 379.808594 429.480469 380.382812 429.25 380.941406 C 429.015625 381.503906 428.757812 382.050781 428.472656 382.585938 C 428.1875 383.121094 427.875 383.640625 427.539062 384.148438 C 427.199219 384.652344 426.839844 385.140625 426.453125 385.609375 C 426.070312 386.078125 425.664062 386.527344 425.234375 386.957031 C 424.804688 387.386719 424.355469 387.792969 423.886719 388.179688 C 423.417969 388.5625 422.933594 388.925781 422.429688 389.261719 C 421.921875 389.597656 421.402344 389.910156 420.867188 390.195312 C 420.335938 390.484375 419.785156 390.742188 419.226562 390.972656 C 418.664062 391.207031 418.09375 391.410156 417.515625 391.585938 C 416.933594 391.761719 416.347656 391.910156 415.753906 392.03125 C 415.15625 392.148438 414.558594 392.238281 413.953125 392.296875 C 413.351562 392.355469 412.746094 392.386719 412.140625 392.386719 C 411.53125 392.386719 410.925781 392.355469 410.324219 392.296875 C 409.71875 392.238281 409.121094 392.148438 408.527344 392.03125 C 407.929688 391.910156 407.34375 391.761719 406.761719 391.585938 C 406.183594 391.410156 405.613281 391.207031 405.050781 390.972656 C 404.492188 390.742188 403.945312 390.484375 403.410156 390.195312 C 402.875 389.910156 402.355469 389.597656 401.851562 389.261719 C 401.347656 388.925781 400.859375 388.5625 400.390625 388.179688 C 399.921875 387.792969 399.472656 387.386719 399.042969 386.957031 C 398.617188 386.527344 398.207031 386.078125 397.824219 385.609375 C 397.4375 385.140625 397.078125 384.652344 396.742188 384.148438 C 396.402344 383.640625 396.09375 383.121094 395.808594 382.585938 C 395.519531 382.050781 395.261719 381.503906 395.03125 380.941406 C 394.796875 380.382812 394.59375 379.808594 394.417969 379.230469 C 394.242188 378.648438 394.09375 378.058594 393.976562 377.464844 C 393.859375 376.871094 393.769531 376.269531 393.710938 375.664062 C 393.648438 375.0625 393.621094 374.457031 393.621094 373.847656 C 393.621094 373.242188 393.648438 372.636719 393.710938 372.03125 C 393.769531 371.425781 393.859375 370.828125 393.976562 370.230469 C 394.09375 369.636719 394.242188 369.046875 394.417969 368.46875 C 394.59375 367.886719 394.796875 367.316406 395.03125 366.753906 C 395.261719 366.195312 395.519531 365.644531 395.808594 365.109375 C 396.09375 364.574219 396.402344 364.054688 396.742188 363.550781 C 397.078125 363.046875 397.4375 362.558594 397.824219 362.089844 C 398.207031 361.621094 398.617188 361.171875 399.042969 360.742188 C 399.472656 360.3125 399.921875 359.902344 400.390625 359.519531 C 400.859375 359.132812 401.347656 358.773438 401.851562 358.433594 C 402.355469 358.097656 402.875 357.785156 403.410156 357.5 C 403.945312 357.214844 404.492188 356.953125 405.050781 356.722656 C 405.613281 356.488281 406.183594 356.285156 406.761719 356.109375 C 407.34375 355.933594 407.929688 355.785156 408.527344 355.667969 C 409.121094 355.550781 409.71875 355.460938 410.324219 355.402344 C 410.925781 355.339844 411.53125 355.3125 412.140625 355.3125 C 412.746094 355.3125 413.351562 355.339844 413.953125 355.402344 C 414.558594 355.460938 415.15625 355.550781 415.753906 355.667969 C 416.347656 355.785156 416.933594 355.933594 417.515625 356.109375 C 418.09375 356.285156 418.664062 356.488281 419.226562 356.722656 C 419.785156 356.953125 420.335938 357.214844 420.867188 357.5 C 421.402344 357.785156 421.921875 358.097656 422.429688 358.433594 C 422.933594 358.773438 423.417969 359.132812 423.886719 359.519531 C 424.355469 359.902344 424.804688 360.3125 425.234375 360.742188 C 425.664062 361.171875 426.070312 361.621094 426.453125 362.089844 C 426.839844 362.558594 427.199219 363.046875 427.539062 363.550781 C 427.875 364.054688 428.1875 364.574219 428.472656 365.109375 C 428.757812 365.644531 429.015625 366.195312 429.25 366.753906 C 429.480469 367.316406 429.683594 367.886719 429.859375 368.46875 C 430.035156 369.046875 430.183594 369.636719 430.300781 370.230469 C 430.421875 370.828125 430.507812 371.425781 430.570312 372.03125 C 430.628906 372.636719 430.660156 373.242188 430.660156 373.847656 Z M 430.660156 373.847656 " fill-opacity="1" fill-rule="nonzero"/></svg>