<svg xmlns="http://www.w3.org/2000/svg" xmlns:xlink="http://www.w3.org/1999/xlink" width="1024" zoomAndPan="magnify" viewBox="0 0 768 767.999994" height="1024" preserveAspectRatio="xMidYMid meet" version="1.0"><defs><clipPath id="cb8c8b573e"><path d="M 121.472656 121.472656 L 646.527344 121.472656 L 646.527344 646.527344 L 121.472656 646.527344 Z M 121.472656 121.472656 " clip-rule="nonzero"/></clipPath><clipPath id="ac089fef76"><path d="M 384 121.472656 C 239.011719 121.472656 121.472656 239.011719 121.472656 384 C 121.472656 528.988281 239.011719 646.527344 384 646.527344 C 528.988281 646.527344 646.527344 528.988281 646.527344 384 C 646.527344 239.011719 528.988281 121.472656 384 121.472656 Z M 384 121.472656 " clip-rule="nonzero"/></clipPath><clipPath id="a790eeb003"><path d="M 216 218.207031 L 505 218.207031 L 505 547 L 216 547 Z M 216 218.207031 " clip-rule="nonzero"/></clipPath><clipPath id="7d38eaef49"><path d="M 239 218.207031 L 489 218.207031 L 489 523 L 239 523 Z M 239 218.207031 " clip-rule="nonzero"/></clipPath><clipPath id="c0132c3cca"><path d="M 451 319 L 552.828125 319 L 552.828125 421 L 451 421 Z M 451 319 " clip-rule="nonzero"/></clipPath></defs><g clip-path="url(#cb8c8b573e)"><g clip-path="url(#ac089fef76)"><path fill="#3d5967" d="M 121.472656 121.472656 L 646.527344 121.472656 L 646.527344 646.527344 L 121.472656 646.527344 Z M 121.472656 121.472656 " fill-opacity="1" fill-rule="nonzero"/></g></g><path fill="#efaa7b" d="M 259.40625 543.296875 C 266.769531 547.597656 275.902344 547.734375 283.425781 543.554688 L 296.292969 536.203125 L 288.496094 525.199219 L 267.136719 528.941406 L 259.402344 543.296875 Z M 259.40625 543.296875 " fill-opacity="1" fill-rule="nonzero"/><g clip-path="url(#a790eeb003)"><path fill="#fdc99f" d="M 234.277344 495.890625 L 221.535156 500.378906 C 218.703125 501.375 216.726562 503.953125 216.503906 506.945312 C 216.015625 513.398438 219.011719 519.199219 223.785156 522.683594 C 223.160156 527.582031 225.652344 532.566406 230.359375 534.867188 C 235.898438 546.320312 250.476562 549.949219 260.746094 542.441406 C 266.058594 538.5625 272.121094 535.832031 278.542969 534.421875 L 287.449219 532.46875 C 313.03125 545.5625 344.148438 540.578125 364.351562 520.144531 C 404.367188 479.664062 450.90625 446.199219 502.03125 421.144531 L 503.855469 420.253906 L 500.273438 319.257812 C 490.5625 308.699219 484.828125 294.996094 484.207031 280.542969 C 483.804688 271.203125 485.554688 261.898438 489.3125 253.34375 L 504.65625 218.449219 L 391.890625 218.449219 L 388.671875 235.71875 C 384.757812 256.71875 377.601562 276.984375 367.460938 295.792969 C 348.421875 331.109375 334.070312 368.753906 324.765625 407.777344 L 316.570312 442.128906 C 315.246094 447.683594 312.160156 452.65625 307.765625 456.308594 L 286.898438 473.652344 C 282.355469 477.425781 276.820312 479.808594 270.953125 480.5 L 244.320312 483.65625 C 240.761719 484.078125 237.664062 486.269531 236.082031 489.484375 C 235.066406 491.542969 234.496094 493.71875 234.324219 495.902344 L 234.269531 495.902344 Z M 234.277344 495.890625 " fill-opacity="1" fill-rule="nonzero"/></g><g clip-path="url(#7d38eaef49)"><path fill="#fddab8" d="M 239.960938 501.21875 C 241.933594 509.722656 248.1875 517.121094 256.25 520.476562 C 265.914062 524.5 277.226562 522.691406 286.617188 518.070312 C 296.011719 513.449219 303.875 506.289062 311.597656 499.222656 C 329.320312 511.234375 353.917969 510.792969 370.023438 496.691406 C 376.324219 491.171875 381.097656 484.128906 385.28125 476.871094 C 393.914062 461.875 400.261719 445.703125 406.578125 429.597656 C 411.714844 416.492188 417.378906 402.058594 426.855469 391.636719 C 436.332031 381.222656 448.003906 373.0625 458.265625 363.421875 C 468.527344 353.773438 477.679688 341.933594 479.847656 328.023438 C 482.289062 312.351562 475.566406 296.875 473.171875 281.199219 C 469.828125 259.3125 475.984375 236.5625 488.621094 218.433594 L 391.890625 218.433594 L 388.671875 235.699219 C 384.757812 256.699219 377.601562 276.96875 367.460938 295.777344 C 348.421875 331.089844 334.070312 368.734375 324.757812 407.757812 L 316.566406 442.113281 C 315.242188 447.664062 312.152344 452.640625 307.757812 456.292969 L 286.890625 473.636719 C 282.347656 477.410156 276.8125 479.789062 270.945312 480.484375 L 244.316406 483.636719 C 243.296875 483.757812 242.332031 484.0625 241.410156 484.457031 C 239.257812 489.734375 238.664062 495.65625 239.949219 501.214844 Z M 239.960938 501.21875 " fill-opacity="1" fill-rule="nonzero"/></g><path fill="#efaa7b" d="M 405.78125 425.296875 L 404.3125 427.710938 C 396.5 440.613281 390.527344 454.523438 386.5625 469.054688 C 382.769531 482.972656 373.632812 494.328125 360.84375 501.019531 C 348.054688 507.707031 333.507812 508.75 319.90625 503.945312 L 317.992188 509.339844 C 324.261719 511.554688 330.695312 512.652344 337.101562 512.652344 C 346.164062 512.652344 355.164062 510.449219 363.496094 506.09375 C 377.503906 498.757812 387.933594 485.808594 392.085938 470.554688 C 395.910156 456.535156 401.671875 443.121094 409.207031 430.671875 L 410.675781 428.257812 L 405.773438 425.285156 Z M 405.78125 425.296875 " fill-opacity="1" fill-rule="nonzero"/><g clip-path="url(#c0132c3cca)"><path fill="#c0272d" d="M 552.28125 369.707031 C 552.28125 371.363281 552.199219 373.019531 552.035156 374.667969 C 551.875 376.316406 551.632812 377.953125 551.308594 379.578125 C 550.984375 381.203125 550.582031 382.804688 550.101562 384.390625 C 549.621094 385.976562 549.0625 387.535156 548.425781 389.066406 C 547.792969 390.597656 547.085938 392.09375 546.304688 393.554688 C 545.523438 395.015625 544.671875 396.433594 543.75 397.8125 C 542.828125 399.1875 541.84375 400.519531 540.789062 401.796875 C 539.738281 403.078125 538.625 404.304688 537.453125 405.476562 C 536.28125 406.648438 535.054688 407.757812 533.773438 408.808594 C 532.492188 409.859375 531.160156 410.847656 529.785156 411.765625 C 528.40625 412.6875 526.984375 413.539062 525.523438 414.320312 C 524.058594 415.101562 522.5625 415.808594 521.03125 416.441406 C 519.5 417.074219 517.941406 417.632812 516.355469 418.113281 C 514.769531 418.59375 513.160156 418.996094 511.535156 419.320312 C 509.910156 419.644531 508.273438 419.886719 506.621094 420.046875 C 504.972656 420.210938 503.316406 420.292969 501.660156 420.292969 C 500.003906 420.292969 498.347656 420.210938 496.699219 420.046875 C 495.046875 419.886719 493.410156 419.644531 491.785156 419.320312 C 490.15625 418.996094 488.550781 418.59375 486.964844 418.113281 C 485.378906 417.632812 483.820312 417.074219 482.289062 416.441406 C 480.757812 415.808594 479.257812 415.101562 477.796875 414.320312 C 476.335938 413.539062 474.914062 412.6875 473.535156 411.765625 C 472.15625 410.847656 470.828125 409.859375 469.546875 408.808594 C 468.265625 407.757812 467.039062 406.648438 465.867188 405.476562 C 464.691406 404.304688 463.582031 403.078125 462.53125 401.796875 C 461.476562 400.519531 460.492188 399.1875 459.570312 397.8125 C 458.648438 396.433594 457.796875 395.015625 457.015625 393.554688 C 456.234375 392.09375 455.527344 390.597656 454.890625 389.066406 C 454.257812 387.535156 453.699219 385.976562 453.21875 384.390625 C 452.738281 382.804688 452.335938 381.203125 452.011719 379.578125 C 451.6875 377.953125 451.445312 376.316406 451.28125 374.667969 C 451.121094 373.019531 451.039062 371.363281 451.039062 369.707031 C 451.039062 368.050781 451.121094 366.398438 451.28125 364.75 C 451.445312 363.101562 451.6875 361.464844 452.011719 359.839844 C 452.335938 358.214844 452.738281 356.609375 453.21875 355.023438 C 453.699219 353.4375 454.257812 351.882812 454.890625 350.351562 C 455.527344 348.820312 456.234375 347.324219 457.015625 345.863281 C 457.796875 344.402344 458.648438 342.984375 459.570312 341.605469 C 460.492188 340.226562 461.476562 338.898438 462.53125 337.617188 C 463.582031 336.335938 464.691406 335.113281 465.867188 333.941406 C 467.039062 332.769531 468.265625 331.65625 469.546875 330.605469 C 470.828125 329.554688 472.15625 328.570312 473.535156 327.648438 C 474.914062 326.730469 476.335938 325.878906 477.796875 325.097656 C 479.257812 324.316406 480.757812 323.609375 482.289062 322.976562 C 483.820312 322.339844 485.378906 321.785156 486.964844 321.300781 C 488.550781 320.820312 490.15625 320.417969 491.785156 320.097656 C 493.410156 319.773438 495.046875 319.53125 496.699219 319.367188 C 498.347656 319.207031 500.003906 319.125 501.660156 319.125 C 503.316406 319.125 504.972656 319.207031 506.621094 319.367188 C 508.273438 319.53125 509.910156 319.773438 511.535156 320.097656 C 513.160156 320.417969 514.769531 320.820312 516.355469 321.300781 C 517.941406 321.785156 519.5 322.339844 521.03125 322.976562 C 522.5625 323.609375 524.058594 324.316406 525.523438 325.097656 C 526.984375 325.878906 528.40625 326.730469 529.785156 327.648438 C 531.160156 328.570312 532.492188 329.554688 533.773438 330.605469 C 535.054688 331.65625 536.28125 332.769531 537.453125 333.941406 C 538.625 335.113281 539.738281 336.335938 540.789062 337.617188 C 541.84375 338.898438 542.828125 340.226562 543.75 341.605469 C 544.671875 342.984375 545.523438 344.402344 546.304688 345.863281 C 547.085938 347.324219 547.792969 348.820312 548.425781 350.351562 C 549.0625 351.882812 549.621094 353.4375 550.101562 355.023438 C 550.582031 356.609375 550.984375 358.214844 551.308594 359.839844 C 551.632812 361.464844 551.875 363.101562 552.035156 364.75 C 552.199219 366.398438 552.28125 368.050781 552.28125 369.707031 Z M 552.28125 369.707031 " fill-opacity="1" fill-rule="nonzero"/></g><path fill="#e5485b" d="M 530.628906 369.707031 C 530.628906 370.65625 530.582031 371.601562 530.488281 372.546875 C 530.394531 373.488281 530.257812 374.425781 530.070312 375.355469 C 529.886719 376.285156 529.65625 377.203125 529.382812 378.109375 C 529.105469 379.019531 528.785156 379.910156 528.421875 380.785156 C 528.058594 381.660156 527.65625 382.519531 527.207031 383.355469 C 526.761719 384.191406 526.273438 385.003906 525.746094 385.789062 C 525.21875 386.578125 524.65625 387.339844 524.054688 388.074219 C 523.449219 388.804688 522.816406 389.507812 522.144531 390.175781 C 521.472656 390.847656 520.769531 391.484375 520.039062 392.085938 C 519.304688 392.6875 518.542969 393.25 517.753906 393.777344 C 516.964844 394.304688 516.152344 394.789062 515.316406 395.238281 C 514.480469 395.683594 513.621094 396.089844 512.746094 396.453125 C 511.871094 396.816406 510.976562 397.132812 510.070312 397.410156 C 509.160156 397.683594 508.242188 397.914062 507.3125 398.097656 C 506.378906 398.285156 505.445312 398.421875 504.5 398.515625 C 503.554688 398.609375 502.609375 398.65625 501.660156 398.65625 C 500.710938 398.65625 499.765625 398.609375 498.820312 398.515625 C 497.875 398.421875 496.9375 398.285156 496.007812 398.097656 C 495.078125 397.914062 494.160156 397.683594 493.25 397.410156 C 492.34375 397.132812 491.449219 396.816406 490.574219 396.453125 C 489.699219 396.089844 488.839844 395.683594 488.003906 395.238281 C 487.167969 394.789062 486.355469 394.304688 485.566406 393.777344 C 484.777344 393.25 484.015625 392.6875 483.28125 392.085938 C 482.550781 391.484375 481.847656 390.847656 481.175781 390.175781 C 480.503906 389.507812 479.867188 388.804688 479.265625 388.074219 C 478.664062 387.339844 478.101562 386.578125 477.574219 385.789062 C 477.046875 385.003906 476.558594 384.191406 476.113281 383.355469 C 475.664062 382.519531 475.257812 381.660156 474.894531 380.785156 C 474.53125 379.910156 474.214844 379.019531 473.9375 378.109375 C 473.664062 377.203125 473.433594 376.285156 473.246094 375.355469 C 473.0625 374.425781 472.921875 373.488281 472.832031 372.546875 C 472.738281 371.601562 472.691406 370.65625 472.691406 369.707031 C 472.691406 368.761719 472.738281 367.8125 472.832031 366.871094 C 472.921875 365.925781 473.0625 364.992188 473.246094 364.0625 C 473.433594 363.132812 473.664062 362.210938 473.9375 361.304688 C 474.214844 360.398438 474.53125 359.507812 474.894531 358.628906 C 475.257812 357.753906 475.664062 356.898438 476.113281 356.0625 C 476.558594 355.226562 477.046875 354.414062 477.574219 353.625 C 478.101562 352.835938 478.664062 352.078125 479.265625 351.34375 C 479.867188 350.609375 480.503906 349.910156 481.175781 349.238281 C 481.847656 348.570312 482.550781 347.933594 483.28125 347.332031 C 484.015625 346.730469 484.777344 346.164062 485.566406 345.640625 C 486.355469 345.113281 487.167969 344.625 488.003906 344.179688 C 488.839844 343.730469 489.699219 343.328125 490.574219 342.964844 C 491.449219 342.601562 492.34375 342.28125 493.25 342.007812 C 494.160156 341.730469 495.078125 341.5 496.007812 341.316406 C 496.9375 341.132812 497.875 340.992188 498.820312 340.898438 C 499.765625 340.808594 500.710938 340.761719 501.660156 340.761719 C 502.609375 340.761719 503.554688 340.808594 504.5 340.898438 C 505.445312 340.992188 506.378906 341.132812 507.3125 341.316406 C 508.242188 341.5 509.160156 341.730469 510.070312 342.007812 C 510.976562 342.28125 511.871094 342.601562 512.746094 342.964844 C 513.621094 343.328125 514.480469 343.730469 515.316406 344.179688 C 516.152344 344.625 516.964844 345.113281 517.753906 345.640625 C 518.542969 346.164062 519.304688 346.730469 520.039062 347.332031 C 520.769531 347.933594 521.472656 348.570312 522.144531 349.238281 C 522.816406 349.910156 523.449219 350.609375 524.054688 351.34375 C 524.65625 352.078125 525.21875 352.835938 525.746094 353.625 C 526.273438 354.414062 526.761719 355.226562 527.207031 356.0625 C 527.65625 356.898438 528.058594 357.753906 528.421875 358.628906 C 528.785156 359.507812 529.105469 360.398438 529.382812 361.304688 C 529.65625 362.210938 529.886719 363.132812 530.070312 364.0625 C 530.257812 364.992188 530.394531 365.925781 530.488281 366.871094 C 530.582031 367.8125 530.628906 368.761719 530.628906 369.707031 Z M 530.628906 369.707031 " fill-opacity="1" fill-rule="nonzero"/><path fill="#efaa7b" d="M 258.433594 533.414062 L 259.609375 533.082031 C 265.417969 531.445312 271.421875 530.734375 277.449219 530.96875 L 277.671875 525.25 C 271.050781 524.992188 264.433594 525.769531 258.03125 527.582031 L 256.210938 528.105469 C 255.773438 528.234375 255.375 528.460938 255.042969 528.769531 C 248.773438 534.664062 239.371094 536.078125 231.617188 532.292969 L 230.359375 534.863281 C 231.078125 536.355469 231.96875 537.695312 232.972656 538.917969 C 235.507812 539.695312 238.121094 540.113281 240.734375 540.113281 C 247.140625 540.113281 253.5 537.8125 258.433594 533.414062 Z M 258.433594 533.414062 " fill-opacity="1" fill-rule="nonzero"/><path fill="#efaa7b" d="M 465.398438 273.746094 L 465.398438 279.46875 L 468.203125 279.46875 C 473.296875 279.46875 478.367188 280.71875 482.914062 283.089844 L 484.5 283.894531 C 484.390625 282.78125 484.253906 281.664062 484.207031 280.535156 C 484.160156 279.492188 484.242188 278.460938 484.253906 277.425781 C 479.25 275.050781 473.75 273.75 468.203125 273.75 L 465.398438 273.75 Z M 465.398438 273.746094 " fill-opacity="1" fill-rule="nonzero"/><path fill="#efaa7b" d="M 459.328125 286.800781 L 455.738281 287.066406 L 456.160156 292.777344 L 459.753906 292.507812 C 468.226562 291.871094 476.746094 292.394531 485.074219 294.03125 L 486.453125 294.304688 C 485.898438 292.3125 485.445312 290.285156 485.089844 288.234375 C 476.609375 286.667969 467.964844 286.15625 459.328125 286.800781 Z M 459.328125 286.800781 " fill-opacity="1" fill-rule="nonzero"/><path fill="#fddab8" d="M 230.328125 516.660156 C 232.21875 517.945312 234.28125 519.152344 236.5625 519.289062 C 238.84375 519.425781 241.359375 518.171875 241.941406 515.96875 C 242.578125 513.558594 240.824219 511.25 239.371094 509.230469 C 236.5625 505.320312 234.582031 500.859375 233.417969 496.195312 L 221.527344 500.378906 C 219.585938 501.066406 218.097656 502.519531 217.25 504.3125 C 220.972656 509.050781 225.339844 513.277344 230.328125 516.660156 Z M 230.328125 516.660156 " fill-opacity="1" fill-rule="nonzero"/><path fill="#efaa7b" d="M 236.191406 528.855469 C 243.164062 528.203125 249.828125 526.207031 256.003906 522.90625 L 257.480469 522.117188 C 261.640625 523.199219 265.871094 523.898438 270.132812 523.898438 C 280.539062 523.898438 290.960938 520.664062 299.910156 514.183594 C 306.886719 509.128906 312.332031 502.257812 315.65625 494.304688 L 310.371094 492.09375 C 307.449219 499.074219 302.664062 505.101562 296.546875 509.546875 C 280.410156 521.230469 258.890625 521.011719 242.992188 509 C 238.964844 505.957031 236.792969 501.132812 237.171875 496.109375 L 234.265625 495.882812 L 231.445312 496.875 C 231.328125 503.40625 234.265625 509.578125 239.53125 513.5625 C 242.78125 516.019531 246.285156 517.882812 249.878906 519.460938 C 245.359375 521.425781 240.589844 522.683594 235.640625 523.148438 C 232.042969 523.496094 228.394531 522.5 225.464844 520.359375 L 223.773438 522.671875 C 223.625 523.820312 223.6875 524.964844 223.871094 526.085938 C 227.027344 527.921875 230.585938 528.941406 234.242188 528.941406 C 234.882812 528.941406 235.53125 528.914062 236.179688 528.851562 Z M 236.191406 528.855469 " fill-opacity="1" fill-rule="nonzero"/></svg>