<svg xmlns="http://www.w3.org/2000/svg" xmlns:xlink="http://www.w3.org/1999/xlink" width="1024" zoomAndPan="magnify" viewBox="0 0 768 767.999994" height="1024" preserveAspectRatio="xMidYMid meet" version="1.0"><defs><clipPath id="f2c8b2b48f"><path d="M 121.5 121.5 L 646.5 121.5 L 646.5 646.5 L 121.5 646.5 Z M 121.5 121.5 " clip-rule="nonzero"/></clipPath><clipPath id="66c624bb03"><path d="M 384 121.5 C 239.023438 121.5 121.5 239.023438 121.5 384 C 121.5 528.976562 239.023438 646.5 384 646.5 C 528.976562 646.5 646.5 528.976562 646.5 384 C 646.5 239.023438 528.976562 121.5 384 121.5 Z M 384 121.5 " clip-rule="nonzero"/></clipPath><clipPath id="6371256d2b"><path d="M 394 308 L 502.898438 308 L 502.898438 470 L 394 470 Z M 394 308 " clip-rule="nonzero"/></clipPath><clipPath id="e2de44f516"><path d="M 369 462 L 406 462 L 406 510.894531 L 369 510.894531 Z M 369 462 " clip-rule="nonzero"/></clipPath></defs><g clip-path="url(#f2c8b2b48f)"><g clip-path="url(#66c624bb03)"><path fill="#cd9341" d="M 121.5 121.5 L 646.5 121.5 L 646.5 646.5 L 121.5 646.5 Z M 121.5 121.5 " fill-opacity="1" fill-rule="nonzero"/></g></g><path fill="#ffbdb6" d="M 491.480469 349.203125 C 490.628906 336.089844 493.324219 328.609375 484.042969 327.035156 C 474.761719 325.464844 462.917969 332.605469 462.917969 332.605469 C 462.917969 332.605469 458.277344 325.429688 451.113281 324.644531 C 443.945312 323.859375 434.902344 308.457031 434.902344 310.847656 C 434.902344 310.847656 426.609375 323.859375 419.035156 324.644531 C 411.460938 325.429688 404.257812 334.585938 404.257812 334.585938 C 404.257812 334.585938 403.816406 322.664062 393.273438 320.273438 C 382.726562 317.882812 372.832031 316.003906 371.296875 310.8125 L 359.488281 321.46875 C 359.488281 321.46875 328.640625 308.011719 319.359375 317.953125 C 310.078125 327.890625 295.882812 357.503906 298.40625 365.425781 L 306.902344 373.453125 C 300.148438 377.824219 313.386719 395.039062 314.992188 401.015625 C 318.949219 415.703125 332.496094 420.347656 332.496094 420.347656 C 332.496094 420.347656 324.238281 418.539062 320.449219 424.105469 C 316.664062 429.671875 320.65625 436.605469 324.886719 438.210938 C 329.117188 439.816406 330.789062 438.996094 334.613281 439.40625 C 338.433594 439.816406 347.273438 447.332031 359.933594 448.152344 C 372.59375 448.972656 389.484375 444.976562 389.484375 444.976562 C 389.484375 444.976562 402.554688 447.332031 414.394531 447.332031 C 426.234375 447.332031 439.714844 434.625 448.144531 432.234375 C 456.570312 429.84375 472.644531 424.722656 476.875 417.546875 C 481.105469 410.375 487.421875 407.234375 486.976562 396.917969 C 486.53125 386.605469 485.714844 381.410156 490.796875 376.253906 C 495.882812 371.097656 492.335938 362.285156 491.480469 349.203125 Z M 491.480469 349.203125 " fill-opacity="1" fill-rule="nonzero"/><path fill="#ff7375" d="M 348.089844 345.480469 C 347.75 344.695312 345.601562 353.816406 356.726562 361.398438 C 367.847656 368.980469 384.195312 362.695312 384.195312 362.695312 C 384.195312 362.695312 391.121094 373.144531 404.429688 371.574219 C 417.738281 370.003906 417.773438 367.410156 420.808594 369.730469 C 423.847656 372.054688 426.371094 372.875 426.371094 372.875 C 426.371094 372.875 421.664062 362.183594 415.28125 361.910156 C 408.902344 361.636719 400.847656 369.730469 391.121094 360.882812 C 381.398438 352.039062 381.125 354.875 381.703125 354.085938 C 382.285156 353.300781 356.417969 363.753906 348.089844 345.480469 Z M 348.089844 345.480469 " fill-opacity="1" fill-rule="nonzero"/><path fill="#ff7375" d="M 476.535156 349.886719 C 477.046875 349.339844 485.441406 337.316406 488.683594 342.679688 C 491.925781 348.042969 484.210938 351.765625 482.746094 357.367188 C 481.277344 362.96875 488.410156 367.136719 483.734375 372.496094 C 479.058594 377.859375 477.285156 379.464844 477.285156 379.464844 C 477.285156 379.464844 480.765625 389.472656 475.546875 392.75 C 475.546875 392.75 477.796875 385.304688 473.328125 378.066406 C 473.328125 378.066406 478.785156 372.703125 477.523438 366.417969 C 476.261719 360.132812 470.835938 356.410156 476.535156 349.886719 Z M 476.535156 349.886719 " fill-opacity="1" fill-rule="nonzero"/><path fill="#ff7375" d="M 330.960938 434.386719 C 330.960938 434.386719 331.609375 444.703125 324.886719 438.210938 C 318.164062 431.722656 314.582031 428.820312 320.449219 424.105469 C 326.320312 419.390625 332.019531 431.039062 330.960938 434.386719 Z M 330.960938 434.386719 " fill-opacity="1" fill-rule="nonzero"/><path fill="#ff7375" d="M 344.78125 325.910156 C 344.78125 325.910156 353.414062 325.601562 359.589844 329.972656 C 365.769531 334.347656 376.890625 332.878906 376.890625 332.878906 C 376.890625 332.878906 365.769531 328.230469 362.695312 323.554688 C 359.625 318.875 358.363281 319.214844 357.132812 319.488281 C 355.90625 319.761719 346.625 323.859375 344.78125 325.910156 Z M 344.78125 325.910156 " fill-opacity="1" fill-rule="nonzero"/><path fill="#ff7375" d="M 338.398438 423.253906 C 338.398438 423.253906 346.417969 424.6875 347.546875 427.386719 C 348.671875 430.082031 354.574219 437.597656 368.121094 437.699219 C 372.625 437.769531 378.769531 438.621094 384.261719 436.128906 C 389.757812 433.636719 393.542969 430.253906 393.542969 430.253906 C 393.542969 430.253906 405.386719 439.40625 418.96875 434.726562 C 423.335938 433.226562 431.046875 430.492188 435.246094 424.550781 C 435.246094 424.550781 454.457031 423.082031 462.066406 415.363281 C 469.675781 407.644531 468.582031 406.207031 468.582031 406.207031 L 473.738281 396.507812 C 473.738281 396.507812 468.445312 405.421875 461.246094 404.363281 C 461.246094 404.363281 462.476562 413.382812 454.625 417.515625 C 446.777344 421.648438 434.355469 421.542969 434.355469 421.542969 C 434.355469 421.542969 426.78125 431.519531 412.652344 430.628906 C 398.527344 429.742188 393.953125 424.925781 393.953125 424.925781 C 393.953125 424.925781 382.863281 434.386719 367.578125 431.347656 C 352.289062 428.308594 351.949219 421.988281 349.660156 421.476562 C 347.375 420.964844 338.570312 423.421875 338.398438 423.253906 Z M 338.398438 423.253906 " fill-opacity="1" fill-rule="nonzero"/><path fill="#ff7375" d="M 423.539062 405.59375 C 423.539062 405.59375 408.902344 418.367188 396.105469 406.277344 C 396.105469 406.277344 370.410156 417.957031 362.730469 401.664062 C 362.730469 401.664062 349.320312 413.246094 334.238281 398.832031 C 334.238281 398.832031 337.34375 406.378906 348.023438 409.828125 C 358.703125 413.277344 365.222656 409.007812 365.222656 409.007812 C 365.222656 409.007812 369.589844 416.183594 389.449219 415.738281 C 397.160156 415.566406 401.222656 412.460938 401.222656 412.460938 C 401.222656 412.460938 409.71875 417.480469 419.582031 415.054688 C 429.441406 412.628906 434.289062 409.007812 434.289062 409.007812 Z M 423.539062 405.59375 " fill-opacity="1" fill-rule="nonzero"/><path fill="#ff7375" d="M 406.339844 386.195312 C 405.660156 385.613281 397.570312 379.535156 406.339844 386.195312 Z M 406.339844 386.195312 " fill-opacity="1" fill-rule="nonzero"/><path fill="#ff7375" d="M 406.339844 386.195312 C 407.023438 386.773438 387.777344 391.25 382.726562 386.980469 C 377.675781 382.710938 378.425781 382.300781 378.425781 382.300781 C 378.425781 382.300781 366.722656 386.605469 354.132812 381.273438 C 353.140625 380.832031 352.425781 377.449219 351.433594 376.902344 C 350.445312 376.355469 348.195312 378.066406 346.761719 376.9375 C 346.761719 376.9375 353.242188 387.148438 364.472656 388.617188 C 375.699219 390.085938 377.675781 388.070312 377.675781 388.070312 C 377.675781 388.070312 380.40625 393.605469 392.042969 393.605469 C 403.679688 393.605469 404.839844 390.667969 404.839844 390.667969 C 404.839844 390.667969 410.367188 396.578125 419.035156 394.902344 C 427.703125 393.230469 430.84375 390.667969 430.84375 390.667969 C 430.84375 390.667969 415.109375 392.855469 406.339844 386.195312 Z M 406.339844 386.195312 " fill-opacity="1" fill-rule="nonzero"/><path fill="#be4538" d="M 481.277344 408.839844 C 477.96875 414.816406 473.566406 420.109375 467.492188 423.355469 C 463.15625 425.710938 458.347656 426.734375 453.601562 427.863281 C 448.859375 428.988281 444.9375 430.628906 441.148438 433.5 C 436.8125 436.777344 432.820312 440.398438 427.875 442.789062 C 421.320312 445.964844 414.15625 446.988281 406.921875 446.238281 C 401.769531 445.65625 396.71875 444.566406 391.804688 442.890625 C 390.984375 442.582031 390.234375 442.6875 389.347656 442.824219 C 387.128906 443.164062 384.945312 443.644531 382.796875 444.257812 C 378.5625 445.417969 374.367188 446.75 369.929688 446.886719 C 361.058594 447.125 352.9375 443.507812 345.15625 439.613281 C 341.539062 437.769531 337.445312 435.71875 333.28125 436.332031 C 331.675781 436.574219 330.175781 437.527344 328.605469 437.632812 C 327.035156 437.734375 325.945312 437.699219 324.714844 436.878906 C 322.257812 435.273438 320.824219 432.269531 320.929688 429.332031 C 321.03125 426.394531 323.214844 423.492188 326.011719 422.261719 C 327.035156 421.785156 328.09375 421.511719 329.222656 421.441406 C 331.507812 421.269531 331.507812 417.71875 329.222656 417.890625 C 322.15625 418.402344 316.355469 424.414062 317.550781 431.722656 C 318.128906 435.273438 320.246094 438.382812 323.316406 440.226562 C 324.820312 441.117188 326.457031 441.25 328.195312 441.21875 C 328.914062 441.25 329.628906 441.148438 330.347656 440.980469 C 331.335938 440.671875 332.257812 440.191406 333.28125 439.953125 C 335.191406 439.511719 337.070312 440.023438 338.878906 440.671875 C 340.6875 441.320312 342.972656 442.480469 344.984375 443.507812 C 349.082031 445.589844 353.277344 447.503906 357.714844 448.765625 C 362.152344 450.03125 366.792969 450.710938 371.363281 450.371094 C 375.9375 450.03125 380.542969 448.527344 385.117188 447.332031 L 388.289062 446.582031 L 389.894531 446.308594 C 389.960938 446.308594 390.644531 446.136719 390.335938 446.136719 L 390.40625 446.136719 C 390.847656 446.136719 391.394531 446.445312 391.804688 446.582031 C 394.226562 447.367188 396.683594 447.980469 399.175781 448.527344 C 406.75 450.132812 414.394531 450.679688 421.9375 448.699219 C 428.386719 446.988281 433.949219 443.746094 439.132812 439.578125 C 442.957031 436.539062 446.640625 433.53125 451.28125 432.132812 C 455.921875 430.730469 460.941406 430.015625 465.546875 428.171875 C 471.792969 425.644531 476.875 421.476562 480.867188 416.078125 C 482.132812 414.335938 483.292969 412.492188 484.347656 410.613281 C 485.441406 408.597656 482.371094 406.824219 481.277344 408.839844 Z M 481.277344 408.839844 " fill-opacity="1" fill-rule="nonzero"/><path fill="#be4538" d="M 462.542969 333.289062 C 465.445312 331.613281 468.242188 329.871094 471.519531 328.914062 C 476.808594 327.378906 482.300781 327.925781 487.351562 330.078125 C 488.238281 330.488281 489.261719 330.351562 489.773438 329.460938 C 490.285156 328.574219 490.015625 327.378906 489.125 327.003906 C 483.394531 324.542969 477.183594 323.691406 471.074219 325.328125 C 467.320312 326.355469 464.078125 328.300781 460.734375 330.214844 C 458.757812 331.375 460.566406 334.449219 462.542969 333.289062 Z M 462.542969 333.289062 " fill-opacity="1" fill-rule="nonzero"/><path fill="#be4538" d="M 369.179688 308.796875 C 369.792969 310.882812 370.410156 313.066406 371.839844 314.742188 C 373.273438 316.414062 375.152344 317.132812 377.0625 317.746094 C 384.398438 320.035156 392.726562 320.445312 398.390625 326.320312 C 399.550781 327.480469 400.402344 328.847656 400.949219 330.382812 C 401.359375 331.648438 401.121094 332.707031 401.15625 333.96875 C 401.257812 337.214844 405.898438 337.113281 407.363281 334.890625 C 407.742188 334.277344 408.046875 333.59375 408.253906 332.910156 L 408.457031 332.433594 C 408.253906 332.910156 408.492188 332.363281 408.558594 332.226562 C 408.730469 331.851562 408.933594 331.476562 409.171875 331.101562 L 409.378906 330.828125 C 409.550781 330.589844 409.105469 331.136719 409.414062 330.757812 L 409.855469 330.28125 C 410.199219 329.90625 410.605469 329.597656 411.050781 329.359375 C 412.347656 328.609375 413.746094 328.128906 415.214844 327.925781 C 419.207031 327.207031 423.882812 327.445312 427.53125 329.460938 C 428.691406 330.078125 429.75 330.929688 430.605469 331.921875 C 431.148438 332.535156 431.628906 333.21875 432.003906 333.96875 C 433.027344 336.019531 436.097656 334.210938 435.074219 332.195312 C 432.480469 327.070312 426.917969 324.613281 421.457031 324.132812 C 416 323.65625 408.117188 324.679688 405.386719 330.625 C 405.214844 331.03125 405.011719 331.476562 404.839844 331.921875 L 404.636719 332.433594 C 404.5 332.878906 404.839844 332.160156 404.601562 332.535156 C 404.53125 332.636719 404.464844 332.773438 404.429688 332.910156 C 404.292969 333.152344 404.089844 333.183594 404.464844 332.910156 C 404.15625 333.117188 404.429688 332.910156 404.5 332.878906 C 404.566406 332.84375 404.363281 332.878906 404.703125 332.808594 L 404.191406 332.945312 C 403.953125 333.015625 404.054688 332.910156 404.019531 332.945312 C 404.257812 333.082031 404.464844 333.289062 404.636719 333.527344 L 404.738281 333.832031 C 404.875 334.210938 404.738281 333.832031 404.773438 333.558594 C 404.804688 333.355469 404.839844 333.152344 404.839844 332.945312 C 404.875 332.5 404.875 332.058594 404.804688 331.613281 C 404.636719 329.871094 404.054688 328.230469 403.167969 326.730469 C 401.121094 323.3125 397.742188 320.753906 394.160156 319.042969 C 390.574219 317.335938 385.902344 316.347656 381.667969 315.289062 C 380.167969 314.910156 378.667969 314.535156 377.234375 314.023438 L 376.652344 313.820312 L 375.972656 313.511719 L 375.390625 313.167969 C 375.152344 313.035156 374.878906 312.792969 375.082031 312.964844 L 374.605469 312.519531 L 374.433594 312.316406 C 374.164062 312.042969 374.640625 312.65625 374.402344 312.316406 C 374.164062 311.972656 373.921875 311.53125 373.71875 311.121094 L 373.582031 310.777344 L 373.515625 310.640625 C 373.445312 310.402344 373.34375 310.128906 373.242188 309.855469 L 372.625 307.839844 C 372.011719 305.65625 368.566406 306.578125 369.179688 308.796875 Z M 369.179688 308.796875 " fill-opacity="1" fill-rule="nonzero"/><path fill="#be4538" d="M 370.613281 328.539062 L 370.304688 328.539062 L 369.761719 328.402344 L 368.839844 328.128906 L 368.359375 327.960938 C 368.738281 328.09375 368.226562 327.890625 368.15625 327.855469 L 367.234375 327.34375 L 366.449219 326.796875 L 366.246094 326.628906 L 365.835938 326.285156 C 365.359375 325.808594 364.878906 325.328125 364.4375 324.816406 L 364.128906 324.40625 C 364.0625 324.339844 364.0625 324.339844 364.128906 324.441406 L 363.960938 324.203125 L 363.378906 323.382812 C 362.96875 322.765625 362.59375 322.152344 362.21875 321.503906 C 361.535156 320.238281 360.921875 318.941406 360.34375 317.609375 C 359.761719 316.277344 358.667969 316.515625 357.917969 316.960938 C 357.167969 317.40625 356.894531 318.53125 357.269531 319.421875 C 358.535156 322.324219 360.035156 325.160156 362.117188 327.582031 C 364.265625 330.109375 367.304688 331.75 370.613281 332.160156 C 371.535156 332.261719 372.421875 331.273438 372.386719 330.382812 C 372.355469 329.496094 371.601562 328.710938 370.613281 328.574219 Z M 370.613281 328.539062 " fill-opacity="1" fill-rule="nonzero"/><path fill="#be4538" d="M 353.140625 317.4375 C 347.238281 318.394531 341.300781 319.660156 335.910156 322.390625 C 330.074219 325.296875 325.433594 330.144531 322.769531 336.089844 C 319.800781 342.851562 318.847656 350.058594 321.578125 357.058594 C 322.804688 360.304688 324.546875 363.277344 326.386719 366.210938 C 327.753906 368.363281 329.734375 369.832031 331.746094 371.335938 C 333.757812 372.839844 336.183594 374.511719 338.433594 376.050781 C 342.121094 378.507812 346.589844 379.226562 350.957031 379.191406 C 353.242188 379.191406 353.242188 375.640625 350.957031 375.640625 C 347.441406 375.640625 343.824219 375.195312 340.789062 373.316406 C 338.910156 372.15625 337.136719 370.859375 335.328125 369.558594 C 333.519531 368.261719 331.644531 366.929688 330.074219 365.324219 L 329.902344 365.085938 L 329.972656 365.1875 C 329.765625 364.878906 329.5625 364.574219 329.390625 364.265625 C 329.222656 363.957031 328.402344 362.695312 327.957031 361.945312 C 327.171875 360.578125 326.421875 359.210938 325.738281 357.8125 C 324.511719 355.214844 323.625 352.414062 323.488281 349.546875 C 323.351562 346.675781 324 342.886719 325.125 339.742188 C 327.242188 333.9375 331.0625 329.1875 336.453125 326.148438 C 341.847656 323.109375 348.023438 321.84375 354.097656 320.890625 C 355.050781 320.753906 355.566406 319.558594 355.324219 318.703125 C 355.085938 317.847656 354.097656 317.300781 353.140625 317.4375 Z M 353.140625 317.4375 " fill-opacity="1" fill-rule="nonzero"/><path fill="#be4538" d="M 346.65625 345.855469 C 346.964844 349.648438 349.730469 352.347656 352.835938 354.257812 C 355.941406 356.101562 359.316406 357.402344 362.832031 358.082031 C 370.066406 359.550781 377.609375 358.5625 384.230469 355.25 L 381.566406 353.710938 C 381.667969 356.546875 384.398438 359.28125 386.617188 360.816406 C 389.519531 362.695312 392.65625 364.199219 395.933594 365.257812 C 403.542969 367.75 412.109375 366.554688 419.34375 363.445312 C 420.195312 363.035156 420.402344 361.738281 419.957031 360.988281 C 419.511719 360.234375 418.421875 359.960938 417.535156 360.339844 C 411.390625 363.003906 404.054688 363.925781 397.570312 362.046875 C 394.703125 361.15625 391.976562 359.894531 389.414062 358.324219 C 388.390625 357.707031 387.4375 356.957031 386.652344 356.070312 C 386.277344 355.660156 385.933594 355.214844 385.628906 354.738281 C 385.457031 354.496094 385.285156 354.257812 385.183594 353.984375 C 385.183594 353.984375 385.117188 353.371094 385.117188 353.710938 C 385.082031 352.722656 384.261719 351.9375 383.273438 351.9375 C 382.964844 351.9375 382.691406 352.039062 382.421875 352.175781 C 376.859375 354.941406 370.578125 355.828125 364.472656 354.769531 C 361.46875 354.257812 358.535156 353.300781 355.835938 351.867188 C 353.585938 350.636719 350.445312 348.726562 350.242188 345.855469 C 350.070312 343.566406 346.488281 343.566406 346.65625 345.855469 Z M 346.65625 345.855469 " fill-opacity="1" fill-rule="nonzero"/><path fill="#be4538" d="M 377.710938 333.355469 C 380.816406 333.558594 382.964844 336.191406 384.535156 338.582031 C 386.105469 340.972656 388.015625 344.046875 390.472656 346.230469 C 395.351562 350.570312 401.667969 352.925781 408.183594 352.859375 C 412.074219 352.789062 415.894531 351.9375 419.445312 350.296875 L 417.636719 350.296875 C 421.390625 352.617188 425.621094 354.121094 429.988281 354.703125 C 433.707031 355.179688 437.191406 354.601562 440.773438 353.609375 C 442.617188 353.097656 444.664062 352.515625 446.265625 351.421875 C 447.222656 350.742188 447.9375 349.851562 447.699219 348.621094 C 447.460938 347.394531 446.402344 347.152344 445.515625 347.394531 C 444.628906 347.632812 444.117188 348.621094 444.289062 349.578125 C 444.21875 349.203125 444.21875 348.828125 444.355469 348.453125 C 444.390625 348.417969 444.664062 348.042969 444.390625 348.382812 C 444.117188 348.726562 444.390625 348.382812 444.527344 348.28125 L 444.183594 348.519531 C 442.71875 349.375 441.011719 349.851562 439.132812 350.332031 C 436.0625 351.183594 433.027344 351.628906 429.851562 351.082031 C 427.328125 350.671875 424.835938 349.921875 422.515625 348.828125 C 421.457031 348.351562 420.46875 347.734375 419.445312 347.1875 C 418.421875 346.640625 416.203125 347.835938 414.871094 348.246094 C 413.335938 348.726562 411.734375 349.066406 410.128906 349.203125 C 403.953125 349.714844 397.671875 347.871094 393 343.738281 C 390.234375 341.246094 388.664062 338.070312 386.480469 335.164062 C 384.296875 332.261719 381.429688 330.007812 377.710938 329.804688 C 375.425781 329.667969 375.425781 333.21875 377.710938 333.355469 Z M 377.710938 333.355469 " fill-opacity="1" fill-rule="nonzero"/><path fill="#be4538" d="M 339.253906 372.804688 C 336.660156 372.566406 334.03125 372.292969 331.4375 372.632812 C 328.84375 372.941406 326.320312 373.863281 324.171875 375.367188 C 321.917969 376.871094 319.90625 378.679688 318.097656 380.695312 C 316.21875 382.777344 314.820312 385.269531 313.96875 387.9375 C 312.261719 393.230469 312.566406 398.59375 314.207031 403.851562 C 315.023438 406.550781 316.183594 409.144531 317.6875 411.535156 C 319.085938 413.550781 320.722656 415.394531 322.632812 416.933594 C 326.457031 420.179688 331.027344 423.59375 336.078125 424.34375 C 339.902344 424.925781 343.449219 423.082031 347.273438 423.253906 C 348.875 423.355469 349.867188 423.730469 350.652344 424.960938 C 351.433594 426.085938 352.390625 427.113281 353.484375 427.929688 C 356.757812 430.492188 360.71875 432.167969 364.742188 433.15625 C 370.816406 434.660156 377.675781 434.761719 383.683594 432.882812 C 387.878906 431.585938 391.90625 429.058594 395.21875 426.1875 L 393.066406 426.460938 C 397.503906 429.433594 402.964844 431.414062 408.183594 432.441406 C 416.511719 434.046875 426.609375 433.257812 432.855469 426.839844 C 434.1875 425.472656 435.414062 423.832031 436.0625 422.023438 L 433.4375 423.082031 C 434.699219 423.730469 436.164062 423.933594 437.53125 424.070312 C 441.285156 424.449219 445.207031 423.730469 448.824219 422.773438 C 452.441406 421.816406 456.539062 420.109375 459.164062 416.898438 C 460.972656 414.644531 462.203125 411.945312 462.714844 409.113281 C 463.023438 407.539062 463.15625 405.96875 463.023438 404.363281 L 461.726562 406.105469 C 465.613281 405.253906 469.472656 402.863281 472.132812 399.957031 C 476.636719 394.972656 478.957031 386.46875 475.679688 380.25 C 474.964844 378.917969 473.839844 377.484375 472.472656 376.734375 L 472.472656 379.808594 C 476.023438 377.65625 478.136719 373.453125 478.546875 369.421875 C 478.683594 367.511719 478.546875 365.597656 478.070312 363.753906 C 477.558594 361.703125 476.671875 359.792969 476.535156 357.675781 C 476.398438 355.554688 477.082031 352.378906 478.582031 350.636719 C 478.957031 350.226562 479.296875 349.851562 479.707031 349.476562 L 480.1875 349.101562 L 480.5625 348.828125 C 480.902344 348.589844 481.242188 348.351562 481.621094 348.179688 C 483.667969 347.222656 481.890625 344.113281 479.8125 345.105469 C 476.363281 346.746094 473.769531 350.5 473.15625 354.191406 C 472.847656 356 472.847656 357.84375 473.226562 359.65625 C 473.601562 361.808594 474.554688 363.820312 474.898438 365.972656 C 475.375 368.773438 474.792969 371.644531 473.292969 374.035156 C 472.78125 374.855469 472.132812 375.570312 471.382812 376.1875 L 471.007812 376.527344 C 470.871094 376.664062 471.3125 376.289062 470.972656 376.527344 L 470.664062 376.734375 C 469.539062 377.414062 469.472656 379.15625 470.664062 379.808594 L 470.835938 379.910156 C 471.28125 380.25 470.664062 379.703125 471.039062 380.078125 C 471.417969 380.457031 471.449219 380.457031 471.65625 380.695312 C 471.894531 380.898438 472.0625 381.140625 472.199219 381.410156 C 473.53125 383.425781 473.769531 386.023438 473.464844 388.550781 C 472.746094 394.355469 469.335938 398.933594 464.113281 401.460938 L 463.328125 401.800781 L 462.953125 401.972656 L 461.792969 402.347656 C 461.453125 402.484375 461.109375 402.589844 460.769531 402.65625 C 460.019531 402.863281 459.472656 403.578125 459.472656 404.363281 C 459.574219 405.421875 459.539062 406.480469 459.371094 407.507812 C 459.335938 407.847656 459.371094 407.574219 459.371094 407.507812 C 459.371094 407.4375 459.335938 407.78125 459.335938 407.917969 C 459.335938 408.054688 459.234375 408.429688 459.164062 408.667969 C 459.0625 409.25 458.890625 409.828125 458.722656 410.375 C 458.347656 411.535156 457.835938 412.628906 457.152344 413.621094 C 455.410156 416.285156 452.683594 417.890625 449.679688 418.8125 C 446.128906 419.90625 442.410156 420.722656 438.65625 420.589844 L 437.632812 420.519531 L 437.191406 420.453125 C 437.429688 420.484375 437.292969 420.484375 437.121094 420.453125 C 436.675781 420.382812 436.269531 420.316406 435.859375 420.179688 L 435.109375 419.9375 C 434.835938 419.871094 435.585938 420.179688 435.246094 420.007812 C 434.390625 419.527344 433.265625 419.800781 432.789062 420.691406 C 432.71875 420.828125 432.652344 420.929688 432.617188 421.066406 C 432.515625 421.339844 432.582031 421.132812 432.683594 420.929688 C 432.789062 420.722656 432.445312 421.441406 432.308594 421.714844 C 431.898438 422.464844 431.386719 423.183594 430.808594 423.796875 C 428.660156 426.257812 425.757812 427.792969 422.617188 428.648438 C 414.976562 430.730469 406.613281 429.160156 399.515625 425.882812 C 397.914062 425.164062 396.34375 424.34375 394.875 423.390625 C 394.191406 422.910156 393.273438 423.148438 392.691406 423.660156 C 390.132812 425.882812 387.199219 427.691406 384.058594 428.988281 C 379.246094 430.835938 373.546875 431.109375 368.496094 430.289062 C 364.503906 429.707031 360.648438 428.339844 357.203125 426.222656 C 356.078125 425.539062 355.085938 424.722656 354.199219 423.765625 L 353.890625 423.421875 C 353.585938 423.082031 354.097656 423.730469 353.859375 423.390625 L 353.550781 422.875 C 353.074219 422.058594 352.390625 421.375 351.605469 420.859375 C 348.464844 418.914062 344.097656 419.664062 340.71875 420.484375 C 339.046875 420.894531 337.582031 421.101562 335.875 420.691406 C 333.589844 420.109375 331.472656 418.984375 329.527344 417.71875 C 325.636719 415.191406 321.953125 412.082031 319.734375 407.949219 C 317.515625 403.816406 315.980469 398.421875 316.390625 393.503906 C 316.59375 390.839844 317.378906 388.242188 318.640625 385.886719 C 320.074219 383.394531 322.257812 381.308594 324.511719 379.535156 C 326.765625 377.757812 328.742188 376.628906 331.335938 376.21875 C 333.929688 375.808594 336.660156 376.152344 339.253906 376.390625 C 340.207031 376.460938 341.027344 375.503906 341.027344 374.582031 C 341.027344 373.660156 340.207031 372.90625 339.253906 372.804688 Z M 339.253906 372.804688 " fill-opacity="1" fill-rule="nonzero"/><path fill="#be4538" d="M 326.628906 427.214844 C 326.796875 427.519531 326.96875 427.792969 327.105469 428.101562 C 327.140625 428.238281 327.207031 428.375 327.277344 428.476562 C 327.171875 428.238281 327.171875 428.203125 327.242188 428.375 L 327.34375 428.613281 C 327.546875 429.195312 327.683594 429.777344 327.789062 430.390625 C 327.890625 430.867188 327.789062 430.117188 327.820312 430.492188 C 327.855469 430.867188 327.855469 430.835938 327.855469 431.003906 C 327.890625 431.3125 327.890625 431.585938 327.855469 431.894531 C 327.890625 432.167969 327.890625 432.472656 327.820312 432.746094 C 327.855469 432.507812 327.855469 432.472656 327.820312 432.679688 C 327.789062 432.746094 327.789062 432.851562 327.789062 432.917969 L 327.683594 433.394531 C 327.414062 434.351562 327.957031 435.34375 328.914062 435.617188 C 329.835938 435.820312 330.894531 435.34375 331.097656 434.351562 C 331.8125 431.3125 331.335938 428.101562 329.699219 425.402344 C 329.1875 424.550781 328.09375 424.277344 327.277344 424.753906 C 326.457031 425.234375 326.117188 426.359375 326.628906 427.214844 Z M 326.628906 427.214844 " fill-opacity="1" fill-rule="nonzero"/><path fill="#be4538" d="M 352.972656 381.410156 C 360.476562 386.398438 370.511719 387.390625 378.90625 384.007812 L 376.6875 382.777344 C 377.472656 385.714844 379.894531 387.730469 382.589844 388.859375 C 385.421875 389.949219 388.390625 390.53125 391.429688 390.53125 C 396.617188 390.496094 401.804688 389.097656 406.785156 387.902344 L 405.078125 387.457031 C 408.390625 390.085938 412.109375 392.136719 416.066406 393.535156 C 419.070312 394.597656 422.3125 395.109375 425.484375 394.664062 C 428.660156 394.21875 431.320312 393.160156 434.1875 392.410156 L 435.859375 391.964844 C 438.042969 391.351562 437.121094 387.9375 434.902344 388.515625 L 430.671875 389.644531 C 428.25 390.292969 425.792969 391.25 423.265625 391.28125 C 420.980469 391.25 418.726562 390.769531 416.613281 389.949219 C 413.40625 388.722656 410.402344 387.046875 407.636719 384.964844 C 407.398438 384.726562 407.09375 384.554688 406.785156 384.484375 C 405.796875 384.179688 404.292969 384.863281 403.269531 385.066406 C 400.777344 385.648438 398.253906 386.195312 395.695312 386.605469 C 393.066406 387.046875 390.371094 387.011719 387.742188 386.570312 C 384.878906 386.058594 380.988281 385.066406 380.132812 381.820312 C 379.894531 380.96875 378.835938 380.214844 377.949219 380.59375 C 370.375 383.597656 361.570312 382.847656 354.746094 378.339844 C 352.835938 377.074219 351.058594 380.183594 352.972656 381.410156 Z M 352.972656 381.410156 " fill-opacity="1" fill-rule="nonzero"/><path fill="#be4538" d="M 331.164062 397.5 C 334.304688 401.835938 338.09375 405.183594 343.210938 406.960938 C 346.554688 408.085938 350.242188 408.734375 353.757812 407.949219 C 357.269531 407.164062 360.546875 405.117188 363.617188 403.203125 L 360.992188 402.144531 C 363.070312 408.257812 369.113281 412.152344 375.289062 413.109375 C 382.933594 414.304688 390.472656 411.535156 397.027344 407.8125 L 394.570312 407.164062 C 396.070312 410.035156 399.3125 412.015625 402.210938 413.109375 C 408.492188 415.5 416.785156 414.816406 421.96875 410.375 C 423.199219 409.316406 424.425781 407.949219 425.074219 406.480469 L 422.003906 406.480469 C 423.882812 408.976562 427.15625 410.101562 430.125 410.445312 C 433.09375 410.785156 436.644531 410.136719 439.851562 409.351562 C 443.058594 408.566406 445.71875 407.949219 448.449219 406.585938 C 451.488281 404.980469 454.046875 402.589844 455.789062 399.617188 C 457.425781 396.851562 457.972656 393.46875 458.003906 390.257812 C 458.074219 386.910156 457.597656 383.597656 456.640625 380.386719 C 456.195312 378.917969 455.410156 377.585938 454.355469 376.492188 C 453.398438 375.367188 452.375 374.273438 451.28125 373.28125 C 445.039062 368.089844 434.628906 369.355469 428.761719 374.476562 L 431.285156 374.476562 C 426.507812 368.398438 420.296875 361.703125 411.765625 362.761719 C 410.8125 362.898438 409.992188 363.515625 409.992188 364.574219 C 409.992188 365.632812 410.8125 366.453125 411.765625 366.347656 C 419.34375 365.394531 424.5625 371.644531 428.761719 376.972656 C 429.375 377.792969 430.636719 377.550781 431.285156 376.972656 C 435.550781 373.28125 443.160156 372.257812 448.039062 375.332031 C 449.097656 375.980469 449.917969 376.9375 450.769531 377.859375 C 451.625 378.78125 452.546875 379.566406 452.988281 380.625 C 453.433594 381.683594 453.738281 383.289062 453.980469 384.554688 C 454.21875 385.953125 454.386719 387.355469 454.421875 388.753906 C 454.523438 391.417969 454.355469 394.289062 453.261719 396.746094 C 452.035156 399.378906 450.054688 401.53125 447.5625 402.996094 C 445.378906 404.261719 442.957031 404.945312 440.5 405.527344 C 438.042969 406.105469 434.9375 406.996094 432.070312 406.996094 C 430.910156 406.996094 429.785156 406.859375 428.660156 406.550781 C 427.875 406.378906 427.121094 406.070312 426.441406 405.664062 L 425.585938 405.117188 C 425.554688 405.082031 425.824219 405.320312 425.554688 405.082031 L 425.28125 404.84375 C 425.042969 404.636719 424.5625 403.988281 425.074219 404.671875 C 424.359375 403.75 422.617188 403.304688 422.003906 404.671875 C 421.867188 404.980469 421.695312 405.21875 421.5625 405.492188 L 421.046875 406.242188 C 421.253906 405.933594 420.878906 406.414062 420.808594 406.480469 L 420.265625 407.097656 C 418.386719 408.90625 416 410.101562 413.4375 410.511719 C 410.332031 411.09375 407.125 410.886719 404.089844 410 C 402.28125 409.453125 400.574219 408.496094 399.175781 407.234375 C 398.902344 406.996094 398.664062 406.722656 398.425781 406.414062 C 398.289062 406.3125 398.1875 406.175781 398.082031 406.039062 C 398.152344 406.105469 398.289062 406.3125 398.082031 406.003906 C 397.914062 405.796875 397.777344 405.59375 397.671875 405.355469 C 397.160156 404.5 396.070312 404.226562 395.214844 404.738281 C 389.585938 407.917969 383 410.582031 376.414062 409.691406 C 371.464844 409.042969 366.109375 406.175781 364.4375 401.1875 C 364.09375 400.128906 362.832031 399.480469 361.808594 400.128906 C 359.078125 401.800781 356.316406 403.679688 353.175781 404.433594 C 350.035156 405.183594 347 404.5 344.132812 403.511719 C 339.96875 402.074219 336.796875 399.242188 334.238281 395.722656 C 333.691406 394.9375 332.703125 394.5625 331.8125 395.074219 C 330.925781 395.585938 330.621094 396.714844 331.164062 397.5 Z M 331.164062 397.5 " fill-opacity="1" fill-rule="nonzero"/><path fill="#be4538" d="M 447.632812 373.660156 C 453.464844 370.242188 459.0625 366.109375 462.917969 360.507812 C 466.160156 355.863281 467.628906 350.195312 467.152344 344.558594 C 466.742188 339.84375 465.34375 334.996094 462.613281 331.101562 C 460.769531 328.472656 458.378906 325.703125 455.410156 324.339844 C 453.023438 323.28125 450.429688 322.835938 447.835938 323.007812 C 441.625 323.347656 435.003906 326.492188 432.277344 332.363281 C 431.867188 333.253906 432.035156 334.3125 432.925781 334.824219 C 433.8125 335.335938 434.9375 335.0625 435.347656 334.175781 C 437.394531 329.769531 442 327.277344 446.675781 326.660156 C 448.792969 326.355469 450.976562 326.523438 453.023438 327.207031 C 455.445312 328.027344 457.460938 330.144531 459.0625 332.261719 C 459.8125 333.253906 460.460938 334.277344 461.042969 335.371094 C 461.246094 335.746094 461.453125 336.15625 461.621094 336.566406 C 461.757812 336.90625 461.519531 336.328125 461.691406 336.703125 C 461.726562 336.839844 461.757812 336.976562 461.828125 337.078125 C 462.613281 339.195312 463.15625 341.417969 463.5 343.671875 C 464.183594 348.453125 463.15625 353.300781 460.667969 357.433594 C 457.1875 363.171875 451.523438 367.238281 445.855469 370.585938 C 443.878906 371.746094 445.652344 374.820312 447.632812 373.660156 Z M 447.632812 373.660156 " fill-opacity="1" fill-rule="nonzero"/><path fill="#be4538" d="M 486.464844 340.117188 C 482.675781 343.636719 478.070312 346.164062 473.054688 347.496094 C 470.835938 348.109375 471.757812 351.558594 473.976562 350.945312 C 479.570312 349.441406 484.722656 346.574219 488.957031 342.613281 C 490.660156 341.039062 488.136719 338.546875 486.464844 340.117188 Z M 486.464844 340.117188 " fill-opacity="1" fill-rule="nonzero"/><path fill="#ffffff" d="M 336.660156 346.128906 L 336.660156 346.949219 L 340.207031 346.949219 C 340.140625 341.519531 343.074219 336.292969 347.683594 333.320312 C 348.5 332.808594 348.773438 331.714844 348.296875 330.863281 C 347.785156 330.042969 346.726562 329.734375 345.875 330.214844 C 340.242188 333.867188 336.558594 340.1875 336.660156 346.949219 C 336.695312 349.238281 340.105469 349.238281 340.207031 346.949219 L 340.207031 346.128906 C 340.277344 345.171875 339.355469 344.355469 338.433594 344.355469 C 337.480469 344.386719 336.695312 345.171875 336.660156 346.128906 Z M 336.660156 346.128906 " fill-opacity="1" fill-rule="nonzero"/><path fill="#ffffff" d="M 335.464844 355.761719 L 336.625 360.203125 C 336.761719 360.644531 337.070312 361.019531 337.445312 361.261719 C 337.855469 361.5 338.367188 361.535156 338.808594 361.429688 C 339.765625 361.15625 340.3125 360.203125 340.070312 359.246094 L 338.910156 354.804688 C 338.808594 354.359375 338.503906 353.984375 338.09375 353.746094 C 337.683594 353.507812 337.207031 353.4375 336.726562 353.542969 C 335.773438 353.816406 335.226562 354.804688 335.464844 355.761719 Z M 335.464844 355.761719 " fill-opacity="1" fill-rule="nonzero"/><path fill="#ffffff" d="M 446.675781 333.425781 C 448.996094 333.867188 451.078125 335.234375 452.410156 337.179688 C 454.113281 339.605469 454.933594 342.371094 455.753906 345.171875 C 456.027344 346.128906 457.015625 346.675781 457.972656 346.402344 C 458.925781 346.128906 459.472656 345.140625 459.199219 344.21875 C 458.242188 341.039062 457.289062 337.761719 455.273438 335.0625 C 453.261719 332.363281 450.769531 330.554688 447.632812 329.972656 C 446.675781 329.804688 445.6875 330.246094 445.414062 331.238281 C 445.140625 332.226562 445.71875 333.253906 446.675781 333.425781 Z M 446.675781 333.425781 " fill-opacity="1" fill-rule="nonzero"/><path fill="#ffffff" d="M 456.402344 356.34375 L 457.355469 353.984375 C 457.425781 353.746094 457.425781 353.507812 457.390625 353.269531 C 457.355469 353.027344 457.289062 352.824219 457.152344 352.617188 C 457.050781 352.414062 456.914062 352.242188 456.707031 352.105469 C 456.539062 351.9375 456.332031 351.832031 456.09375 351.800781 C 455.652344 351.664062 455.140625 351.730469 454.730469 351.96875 L 454.355469 352.242188 C 454.148438 352.449219 453.980469 352.722656 453.910156 353.027344 L 452.953125 355.386719 C 452.886719 355.625 452.886719 355.863281 452.921875 356.101562 C 452.953125 356.34375 453.023438 356.546875 453.160156 356.75 C 453.261719 356.957031 453.398438 357.160156 453.601562 357.265625 C 453.773438 357.433594 453.980469 357.539062 454.21875 357.570312 C 454.660156 357.707031 455.171875 357.675781 455.582031 357.402344 L 455.957031 357.128906 C 456.164062 356.921875 456.332031 356.648438 456.402344 356.34375 Z M 456.402344 356.34375 " fill-opacity="1" fill-rule="nonzero"/><path fill="#ffffff" d="M 322.839844 392.582031 C 324.75 386.671875 331.132812 383.015625 337.171875 383.324219 C 338.128906 383.289062 338.910156 382.503906 338.945312 381.546875 C 338.910156 380.558594 338.160156 379.773438 337.171875 379.738281 C 329.527344 379.363281 321.816406 384.246094 319.394531 391.625 C 318.675781 393.808594 322.121094 394.734375 322.839844 392.582031 Z M 322.839844 392.582031 " fill-opacity="1" fill-rule="nonzero"/><path fill="#ffffff" d="M 438.691406 379.808594 L 438.863281 379.808594 L 439.203125 379.875 L 440.054688 380.113281 L 440.429688 380.214844 L 440.671875 380.320312 L 440.910156 380.421875 L 441.351562 380.660156 L 442.035156 381.070312 L 442.375 381.308594 C 442.480469 381.378906 442.648438 381.515625 442.480469 381.34375 C 442.886719 381.71875 443.296875 382.128906 443.671875 382.539062 L 443.742188 382.605469 L 444.015625 382.949219 C 444.152344 383.1875 444.320312 383.425781 444.457031 383.699219 C 444.527344 383.804688 444.59375 383.9375 444.628906 384.074219 C 444.902344 384.554688 444.527344 383.769531 444.730469 384.28125 C 444.832031 384.554688 444.9375 384.828125 445.003906 385.101562 L 445.207031 385.921875 C 445.277344 386.433594 445.175781 385.714844 445.207031 386.023438 C 445.242188 386.332031 445.242188 386.296875 445.242188 386.433594 C 445.277344 386.738281 445.277344 387.082031 445.242188 387.390625 C 445.242188 387.527344 445.242188 387.664062 445.207031 387.800781 C 445.242188 387.492188 445.207031 387.902344 445.175781 388.003906 C 445.039062 388.925781 445.449219 389.949219 446.4375 390.191406 C 447.425781 390.429688 448.449219 389.917969 448.621094 388.960938 C 449.203125 385.816406 448.347656 382.574219 446.300781 380.113281 C 444.390625 377.824219 441.589844 376.5625 438.691406 376.1875 C 437.769531 376.082031 436.882812 377.109375 436.917969 377.960938 C 436.949219 378.816406 437.703125 379.636719 438.691406 379.808594 Z M 438.691406 379.808594 " fill-opacity="1" fill-rule="nonzero"/><path fill="#ff7572" d="M 310.214844 448.046875 C 310.214844 448.046875 313.285156 460.855469 319.460938 460.414062 C 325.636719 459.96875 323.453125 445.382812 323.453125 445.382812 C 323.453125 445.382812 334.476562 437.460938 337.546875 425.097656 C 340.617188 412.730469 336.214844 403.441406 330.484375 400.367188 C 330.484375 400.367188 334.03125 392.855469 329.1875 385.339844 C 324.339844 377.824219 321.679688 376.082031 321.679688 376.082031 C 321.679688 376.082031 327.414062 365.941406 323.453125 357.980469 L 319.460938 350.023438 C 319.460938 350.023438 323.011719 341.210938 321.679688 335.917969 C 320.347656 330.625 319.871094 331.476562 319.871094 331.476562 L 322.804688 324.097656 C 322.804688 324.097656 332.703125 324.40625 336.214844 322.664062 C 336.214844 322.664062 338.367188 333.867188 355.292969 332.125 C 358.636719 331.714844 361.910156 330.726562 364.914062 329.15625 C 364.914062 329.15625 374.164062 336.328125 383 334.585938 C 391.839844 332.84375 396.242188 326.628906 396.242188 326.628906 C 396.242188 326.628906 407.707031 337.214844 422.6875 328.402344 L 432.414062 322.664062 C 432.414062 322.664062 443.878906 326.628906 453.125 323.554688 C 453.125 323.554688 451.691406 331.851562 457.5625 338.445312 C 457.5625 338.445312 448.757812 349.375 459.472656 358.015625 C 459.472656 358.015625 449.609375 370.789062 460.1875 378.269531 C 460.1875 378.269531 452.683594 388.003906 458.414062 395.960938 C 458.414062 395.960938 443.878906 398.148438 438.589844 408.328125 C 438.589844 408.328125 429.75 404.773438 422.242188 408.734375 C 422.242188 408.734375 410.777344 395.519531 397.09375 402.996094 C 397.09375 402.996094 371.089844 399.480469 374.164062 433.464844 C 374.164062 433.464844 363.582031 448.046875 375.492188 463.929688 C 375.492188 463.929688 367.984375 477.628906 373.71875 485.585938 C 379.453125 493.542969 382.558594 494.839844 381.667969 499.691406 C 380.78125 504.542969 379.007812 505.875 383.445312 506.761719 C 387.878906 507.648438 388.734375 507.648438 390.0625 503.6875 C 391.394531 499.726562 392.691406 495.285156 395.796875 492.210938 C 398.902344 489.136719 404.15625 482.921875 403.269531 475.851562 L 402.417969 468.816406 C 402.417969 468.816406 405.042969 466.152344 407.707031 459.523438 C 410.367188 452.898438 409.445312 443.199219 409.445312 443.199219 C 409.445312 443.199219 413.4375 444.941406 419.171875 442.753906 C 419.171875 442.753906 427.089844 448.492188 436.371094 444.53125 C 445.652344 440.570312 447.835938 437.460938 447.835938 437.460938 C 447.835938 437.460938 453.570312 441.421875 467.253906 434.796875 C 480.9375 428.171875 479.164062 418.46875 479.164062 418.46875 C 479.164062 418.46875 491.070312 413.175781 494.585938 406.996094 C 498.101562 400.8125 495.917969 397.703125 495.917969 397.703125 C 495.917969 397.703125 501.648438 388.890625 500.320312 382.710938 L 499.023438 376.527344 C 499.023438 376.527344 501.207031 363.71875 498.136719 359.3125 L 495.03125 354.875 C 495.03125 354.875 499.023438 343.839844 495.472656 338.546875 L 491.957031 333.253906 C 491.957031 333.253906 495.472656 322.222656 492.847656 318.226562 C 490.21875 314.230469 487.964844 311.1875 487.964844 311.1875 C 487.964844 311.1875 495.472656 303.230469 494.144531 298.378906 C 492.8125 293.53125 489.296875 285.128906 486.226562 275.429688 C 483.15625 265.726562 473.871094 258.179688 464.589844 260.398438 C 455.308594 262.621094 447.835938 269.65625 447.835938 274.984375 C 447.835938 274.984375 437.703125 271.363281 428.589844 276.554688 C 425.757812 278.160156 423.164062 282.121094 422.34375 285.402344 C 422.34375 285.402344 410.8125 284.378906 405.660156 284.992188 C 400.507812 285.605469 400.949219 286.050781 396.242188 294.382812 C 396.242188 294.382812 376.6875 281.472656 366.550781 291.652344 C 366.550781 291.652344 355.835938 282.53125 344.609375 288.203125 C 344.609375 288.203125 343.484375 279.800781 323.796875 279.800781 C 323.796875 279.800781 320.074219 271.261719 313.046875 266.617188 C 307.246094 262.824219 298.816406 261.425781 292.230469 265.214844 C 287.144531 268.152344 284.039062 270.953125 282.164062 273.414062 C 280.902344 275.019531 282.09375 276.589844 281.6875 277.785156 C 281.242188 279.117188 280.421875 280.277344 279.332031 281.167969 C 279.332031 281.167969 272.234375 294.589844 279.296875 304.769531 C 279.296875 304.769531 270.9375 312.042969 278.445312 327.070312 C 278.445312 327.070312 270.050781 344.285156 279.332031 350.023438 C 279.332031 350.023438 269.195312 361.5 277.113281 375.640625 C 277.113281 375.640625 265.203125 397.703125 281.957031 410.957031 C 281.957031 410.957031 272.710938 429.058594 281.105469 438.347656 C 289.5 447.640625 310.214844 448.046875 310.214844 448.046875 Z M 310.214844 448.046875 " fill-opacity="1" fill-rule="nonzero"/><path fill="#ed5050" d="M 320.621094 376.734375 C 320.621094 376.734375 326.933594 366.484375 323.761719 359.894531 C 320.585938 353.300781 318.097656 350.84375 318.097656 350.84375 C 318.097656 350.84375 324.921875 343.808594 322.054688 339.332031 C 315.945312 329.804688 320.417969 325.125 320.417969 325.125 C 319.800781 325.125 300.179688 314.023438 300.179688 314.023438 L 293.730469 313.410156 C 287.246094 312.792969 279.773438 305.519531 279.773438 305.519531 C 279.773438 305.519531 276.125 305.929688 274.519531 313.203125 C 272.914062 320.480469 278.546875 325.328125 278.546875 325.328125 C 280.390625 317.644531 291.890625 318.667969 291.890625 318.667969 C 291.890625 318.667969 307.757812 319.453125 309.941406 329.871094 C 309.941406 329.871094 317.140625 340.664062 310.316406 347.359375 C 309.15625 348.554688 309.191406 350.5 310.382812 351.664062 C 310.519531 351.800781 310.65625 351.902344 310.828125 352.003906 C 313.933594 354.191406 317.378906 358.390625 316.015625 366.144531 C 315.332031 369.96875 313.421875 372.085938 311.441406 373.25 C 309.496094 374.375 308.847656 376.871094 310.007812 378.816406 C 310.109375 379.019531 310.246094 379.191406 310.382812 379.363281 C 312.738281 382.230469 315.160156 385.886719 315.296875 388.890625 C 315.367188 390.019531 315.332031 391.113281 315.230469 392.238281 C 314.957031 395.074219 316.867188 397.667969 319.664062 398.25 C 322.839844 398.898438 328.574219 400.574219 329.355469 398.660156 C 334.816406 384.691406 320.621094 376.734375 320.621094 376.734375 Z M 320.621094 376.734375 " fill-opacity="1" fill-rule="nonzero"/><path fill="#ed5050" d="M 470.664062 360.441406 C 470.664062 360.441406 463.875 360.167969 463.566406 352.242188 C 463.261719 344.320312 466.125 340.050781 466.980469 339.777344 C 467.832031 339.503906 462.167969 336.632812 461.316406 331.273438 C 460.460938 325.910156 453.671875 329.835938 455.105469 334.652344 C 456.539062 339.46875 457.050781 338.71875 457.050781 338.71875 C 457.050781 338.71875 450.839844 346.847656 453.398438 351.082031 C 454.832031 353.542969 456.539062 355.863281 458.449219 357.980469 C 458.449219 357.980469 452.820312 366.964844 454.796875 370.925781 C 456.777344 374.886719 458.925781 378.40625 458.925781 378.40625 C 458.925781 378.40625 453.910156 391.964844 457.902344 395.621094 C 457.902344 395.621094 460.460938 400.09375 461.894531 393.84375 C 463.328125 387.59375 460.734375 384.519531 468.378906 380.832031 C 468.378906 380.832031 463.023438 378.269531 464.421875 370.34375 C 465.820312 362.421875 470.664062 360.441406 470.664062 360.441406 Z M 470.664062 360.441406 " fill-opacity="1" fill-rule="nonzero"/><path fill="#ed5050" d="M 374.332031 421.921875 L 374.367188 420.722656 C 374.367188 420.722656 374.332031 421.167969 374.332031 421.921875 Z M 374.332031 421.921875 " fill-opacity="1" fill-rule="nonzero"/><path fill="#ed5050" d="M 409.445312 443.199219 C 409.445312 443.199219 396.683594 437.800781 384.980469 434.933594 C 375.59375 432.644531 374.433594 424.890625 374.332031 421.921875 L 374.164062 433.464844 L 369.386719 448.765625 C 369.386719 448.765625 381.054688 444.15625 391.359375 444.496094 C 401.667969 444.839844 411.222656 452.316406 411.222656 452.316406 Z M 409.445312 443.199219 " fill-opacity="1" fill-rule="nonzero"/><path fill="#ed5050" d="M 274.589844 309.652344 C 275.613281 314.878906 281.34375 317.269531 285.953125 318.496094 C 291.511719 319.933594 297.347656 319.964844 302.910156 318.601562 C 305.84375 317.882812 305.164062 313.375 302.195312 313.339844 C 294.210938 313.273438 287.042969 309.140625 280.285156 305.28125 L 277.589844 309.890625 C 281.175781 311.769531 284.3125 314.398438 287.929688 316.175781 C 291.546875 317.953125 295.882812 319.078125 300.011719 318.019531 C 303.355469 317.164062 301.957031 312.007812 298.613281 312.863281 C 291.820312 314.570312 285.78125 308.148438 280.285156 305.28125 C 277.25 303.675781 274.589844 308.183594 277.589844 309.890625 C 285.199219 314.230469 293.21875 318.601562 302.195312 318.703125 L 301.476562 313.441406 C 297.144531 314.5 292.605469 314.570312 288.238281 313.546875 C 285.304688 312.863281 280.421875 311.667969 279.742188 308.21875 C 279.433594 306.78125 277.761719 305.996094 276.429688 306.339844 C 275.101562 306.679688 274.28125 308.21875 274.589844 309.652344 Z M 274.589844 309.652344 " fill-opacity="1" fill-rule="nonzero"/><path fill="#ed5050" d="M 452.035156 326.96875 C 452.988281 329.359375 454.355469 331.476562 456.367188 333.082031 C 458.378906 334.6875 461.484375 334.277344 462.613281 331.546875 C 463.738281 328.8125 466.058594 326.421875 468.824219 324.816406 C 474.554688 321.503906 481.277344 320.785156 487.523438 318.875 C 488.957031 318.464844 489.773438 316.960938 489.367188 315.527344 C 489.296875 315.320312 489.230469 315.117188 489.125 314.945312 C 488.207031 313.339844 486.601562 312.316406 484.757812 312.144531 C 482.710938 311.90625 481.003906 312.761719 479.164062 313.441406 C 475.921875 314.707031 472.269531 314.433594 469.230469 312.761719 C 467.96875 312.042969 466.332031 312.488281 465.582031 313.714844 C 462.714844 318.15625 459.234375 322.152344 455.273438 325.636719 C 453.261719 327.414062 455.410156 330.863281 457.902344 330.109375 C 465.546875 327.753906 472.609375 323.757812 478.546875 318.363281 C 480.527344 316.585938 478.445312 313.101562 475.953125 313.886719 C 471.859375 315.183594 467.800781 316.550781 464.046875 318.667969 L 466.742188 323.28125 L 472.816406 319.589844 C 475.75 317.816406 473.089844 313.167969 470.121094 314.980469 L 464.046875 318.667969 C 461.109375 320.445312 463.738281 324.988281 466.742188 323.28125 C 469.742188 321.570312 473.703125 320.207031 477.355469 319.042969 L 474.761719 314.570312 C 469.503906 319.351562 463.261719 322.871094 456.46875 324.953125 L 459.0625 329.425781 C 463.363281 325.636719 467.082031 321.230469 470.1875 316.414062 L 466.535156 317.371094 C 469.503906 319.078125 472.953125 319.832031 476.363281 319.523438 C 477.96875 319.386719 479.570312 319.011719 481.074219 318.394531 C 481.890625 318.089844 484.109375 316.925781 484.519531 317.644531 L 486.089844 313.714844 C 475.410156 316.996094 461.554688 318.15625 457.324219 330.488281 L 458.039062 329.324219 L 457.800781 329.53125 L 458.996094 328.847656 C 459.710938 328.710938 459.8125 329.085938 459.164062 328.4375 C 458.890625 328.199219 458.652344 327.890625 458.414062 327.617188 C 457.902344 327.003906 457.492188 326.320312 457.1875 325.566406 C 456.640625 324.203125 455.410156 323.28125 453.875 323.691406 C 452.339844 324.097656 451.488281 325.636719 452.035156 326.96875 Z M 452.035156 326.96875 " fill-opacity="1" fill-rule="nonzero"/><path fill="#be4538" d="M 462.886719 309.652344 C 466.742188 313.304688 471.585938 315.96875 477.046875 315.492188 C 482.507812 315.015625 487.558594 312.519531 491.480469 309.140625 C 494.792969 306.269531 496.667969 302.070312 495.269531 297.699219 C 494.449219 295.066406 492.914062 292.710938 491.890625 290.148438 C 490.867188 287.585938 490.183594 285.742188 489.46875 283.488281 C 488.410156 280.140625 488.511719 276.691406 487.179688 273.105469 C 485.851562 269.519531 483.394531 265.625 480.117188 263.0625 C 474.214844 258.453125 466.296875 257.394531 459.371094 260.230469 C 452.953125 262.894531 446.472656 268.734375 445.890625 276.144531 L 448.554688 274.609375 C 447.699219 273.992188 446.539062 273.652344 445.515625 273.378906 C 442.445312 272.59375 439.203125 272.59375 436.097656 272.902344 C 432.414062 273.207031 428.554688 273.824219 425.519531 276.113281 C 423.574219 277.546875 422.140625 279.59375 421.390625 281.882812 C 420.980469 283.113281 420.808594 284.378906 420.878906 285.675781 L 423.539062 284.105469 C 422.449219 283.625 421.289062 283.316406 420.09375 283.113281 C 416.75 282.566406 413.371094 282.363281 409.992188 282.601562 C 406.476562 282.839844 402.894531 283.285156 399.960938 285.402344 C 396.855469 287.621094 394.875 291.039062 394.433594 294.828125 L 397.503906 293.566406 C 394.976562 291.070312 391.464844 289.398438 388.222656 288.101562 C 384.980469 286.800781 381.773438 285.914062 378.324219 286.152344 C 373.855469 286.5625 369.519531 288.03125 365.734375 290.457031 L 368.191406 291.105469 C 362.800781 283.625 352.21875 283.660156 344.335938 286.769531 L 346.351562 287.585938 C 343.3125 280.757812 335.464844 278.914062 328.675781 278.570312 L 325.160156 278.503906 L 324.035156 278.503906 C 323.589844 278.503906 324.136719 278.535156 324.066406 278.535156 L 323.929688 278.535156 C 324.613281 278.808594 325.46875 279.152344 325.023438 280.550781 C 325.5 279.117188 324.238281 277.066406 323.625 275.871094 C 320.722656 270.269531 315.914062 265.589844 310.007812 263.304688 C 305.878906 261.699219 301.445312 261.59375 297.109375 262.3125 C 292.777344 263.03125 288.886719 264.464844 285.542969 267.09375 C 282.199219 269.722656 279.773438 273.824219 280.046875 277.988281 L 280.558594 276.726562 C 274.996094 282.804688 273.019531 291.753906 275.339844 299.644531 C 276.5 303.675781 278.820312 307.535156 282.230469 310.0625 C 284.109375 311.429688 286.429688 312.488281 288.542969 313.339844 C 292.945312 315.082031 297.792969 315.96875 302.535156 315.425781 L 301.273438 314.878906 C 304.71875 317.917969 308.507812 320.511719 312.566406 322.664062 C 315.671875 324.304688 318.984375 325.671875 322.5 326.082031 C 326.011719 326.492188 329.699219 325.5 333.179688 324.988281 L 335.839844 324.578125 L 333.65625 323.347656 C 334.542969 326.867188 337.921875 329.734375 340.960938 331.375 C 347.441406 334.824219 355.835938 335.574219 362.628906 332.636719 C 364.0625 332.058594 365.425781 331.203125 366.585938 330.179688 L 363.789062 329.804688 C 366.175781 333.046875 370.410156 334.890625 374.230469 335.609375 C 378.050781 336.328125 382.863281 336.054688 387.0625 335.027344 C 389.960938 334.3125 392.828125 333.117188 395.183594 331.203125 C 396.136719 330.453125 397.160156 329.496094 397.707031 328.367188 L 394.910156 328.746094 C 398.59375 331.648438 403.746094 332.742188 408.320312 332.910156 C 412.894531 333.082031 418.011719 332.09375 422.617188 330.589844 C 425.585938 329.632812 428.589844 328.402344 431.148438 326.558594 C 432.171875 325.808594 433.367188 324.886719 434.015625 323.757812 L 431.558594 324.40625 C 436.300781 327.070312 442.617188 327.171875 447.871094 326.523438 C 453.464844 325.839844 458.722656 323.554688 463.054688 319.964844 C 465.648438 317.816406 467.765625 315.015625 468.652344 311.734375 C 469.230469 309.515625 465.785156 308.558594 465.207031 310.777344 C 463.875 315.730469 459.0625 318.976562 454.660156 321.027344 C 450.257812 323.074219 445.449219 323.484375 440.703125 323.144531 C 438.214844 322.972656 435.550781 322.5625 433.367188 321.332031 C 432.515625 320.820312 431.457031 321.128906 430.945312 321.949219 C 430.636719 322.460938 431.183594 321.742188 430.84375 322.085938 C 430.433594 322.527344 429.988281 322.972656 429.511719 323.347656 C 429.308594 323.519531 429.75 323.175781 429.546875 323.347656 L 429.238281 323.554688 L 428.691406 323.929688 L 427.121094 324.886719 C 425.792969 325.601562 424.425781 326.183594 423.027344 326.695312 C 415.929688 329.257812 407.945312 330.589844 400.710938 327.855469 C 399.824219 327.550781 398.96875 327.140625 398.152344 326.628906 L 397.367188 326.148438 C 397.160156 326.011719 396.785156 325.703125 397.433594 326.21875 C 396.617188 325.566406 395.183594 325.429688 394.636719 326.558594 C 394.535156 326.761719 394.398438 326.933594 394.296875 327.105469 C 394.191406 327.277344 394.5 326.898438 394.328125 327.070312 L 394.054688 327.378906 C 393.816406 327.652344 393.578125 327.890625 393.304688 328.128906 C 392.65625 328.710938 391.976562 329.222656 391.191406 329.632812 C 389.996094 330.316406 388.734375 330.828125 387.4375 331.203125 C 381.566406 332.980469 374.46875 333.253906 369.144531 329.871094 L 368.429688 329.394531 L 368.191406 329.222656 L 368.15625 329.222656 L 367.304688 328.472656 C 367.097656 328.265625 366.347656 327.34375 366.894531 328.0625 C 366.175781 327.105469 364.984375 326.832031 364.09375 327.6875 L 363.925781 327.824219 C 363.550781 328.128906 364.199219 327.652344 363.753906 327.960938 C 363.105469 328.402344 362.457031 328.8125 361.773438 329.15625 C 359.488281 330.246094 356.964844 330.828125 354.4375 330.894531 C 350.789062 331.03125 347.136719 330.316406 343.792969 328.847656 C 342.597656 328.300781 341.472656 327.617188 340.449219 326.832031 L 339.21875 325.703125 L 338.742188 325.191406 L 338.503906 324.917969 C 338.296875 324.679688 338.535156 324.953125 338.433594 324.816406 C 337.992188 324.203125 337.582031 323.554688 337.238281 322.871094 C 337.070312 322.527344 337.375 323.28125 337.238281 322.871094 C 337.238281 322.800781 337.207031 322.699219 337.171875 322.628906 C 337.136719 322.5625 337.101562 322.496094 337.101562 322.425781 C 336.832031 321.402344 335.839844 321.027344 334.917969 321.164062 L 332.769531 321.503906 L 327.789062 322.253906 C 325.980469 322.527344 324.308594 322.800781 322.5 322.5625 C 319.085938 322.050781 315.878906 320.511719 312.910156 318.804688 C 310.417969 317.335938 307.996094 315.730469 305.710938 313.957031 L 303.96875 312.554688 L 303.421875 312.109375 C 302.773438 311.734375 302.058594 311.941406 301.375 312.007812 L 299.464844 312.007812 C 295.574219 311.941406 291.753906 311.019531 288.238281 309.34375 C 285.710938 308.148438 283.359375 306.78125 281.652344 304.527344 C 279.195312 301.148438 277.898438 297.046875 277.933594 292.847656 C 277.933594 288.78125 279.160156 284.785156 281.378906 281.40625 C 282.128906 280.3125 283.527344 279.253906 283.597656 277.886719 C 283.628906 277.546875 283.628906 277.203125 283.664062 276.863281 C 283.699219 276.519531 283.628906 277.035156 283.664062 276.863281 C 283.699219 276.691406 283.699219 276.554688 283.734375 276.417969 C 283.765625 276.28125 283.902344 275.703125 284.007812 275.359375 C 284.109375 274.949219 284.246094 274.574219 284.382812 274.199219 C 284.210938 274.644531 284.484375 273.960938 284.550781 273.855469 C 284.621094 273.753906 284.792969 273.414062 284.894531 273.207031 C 286.085938 271.191406 287.792969 269.519531 289.839844 268.390625 C 293.152344 266.515625 297.179688 265.523438 300.964844 265.386719 C 304.308594 265.183594 307.652344 265.898438 310.621094 267.402344 C 315.128906 269.722656 318.539062 273.550781 320.722656 277.957031 L 321.03125 278.535156 L 321.167969 278.878906 L 321.269531 279.117188 L 321.441406 279.59375 C 321.472656 279.800781 321.507812 279.972656 321.578125 280.175781 C 321.644531 280.3125 321.542969 279.628906 321.542969 279.9375 C 321.542969 279.5625 321.507812 279.21875 321.542969 280.074219 C 321.542969 282.363281 324.441406 282.054688 325.980469 282.089844 C 330.996094 282.121094 336.898438 282.363281 340.824219 285.949219 C 341.847656 286.90625 342.699219 288.066406 343.28125 289.363281 C 343.554688 290.046875 344.609375 290.457031 345.292969 290.183594 C 351.402344 287.792969 360.71875 286.800781 365.121094 292.914062 C 365.632812 293.632812 366.6875 294.109375 367.542969 293.53125 C 370.441406 291.582031 373.753906 290.355469 377.199219 289.84375 C 382.589844 289.054688 388.1875 291.414062 392.625 294.28125 L 393.816406 295.136719 C 393.921875 295.203125 394.296875 295.476562 393.988281 295.273438 C 394.125 295.339844 394.226562 295.441406 394.328125 295.546875 L 394.976562 296.09375 C 396.136719 297.253906 397.878906 296.332031 398.015625 294.828125 L 398.015625 294.65625 C 397.945312 295.410156 398.015625 294.792969 398.050781 294.554688 C 398.1875 293.972656 398.320312 293.394531 398.527344 292.847656 C 398.628906 292.539062 398.765625 292.265625 398.902344 291.992188 C 399.105469 291.582031 399.347656 291.175781 399.585938 290.765625 C 400.097656 289.976562 400.746094 289.261719 401.496094 288.679688 C 403.714844 286.871094 406.582031 286.425781 409.378906 286.222656 C 412.175781 286.015625 415.65625 285.980469 418.558594 286.460938 C 419.445312 286.597656 420.332031 286.769531 421.21875 287.042969 L 421.902344 287.28125 C 422.3125 287.382812 421.832031 287.246094 421.765625 287.210938 C 422.855469 287.722656 424.53125 287.144531 424.425781 285.675781 L 424.425781 284.992188 C 424.425781 284.753906 424.460938 284.511719 424.496094 284.273438 C 424.460938 284.378906 424.425781 284.582031 424.496094 284.171875 C 424.5625 283.96875 424.597656 283.796875 424.632812 283.589844 C 424.699219 283.25 424.800781 282.910156 424.9375 282.566406 C 425.042969 282.191406 425.179688 281.847656 425.382812 281.542969 C 425.824219 280.722656 426.40625 280.003906 427.089844 279.390625 C 429.308594 277.410156 432.445312 276.863281 435.3125 276.519531 C 438.179688 276.179688 441.25 276.113281 444.046875 276.691406 L 445.449219 277.066406 L 445.925781 277.238281 C 446.402344 277.410156 445.652344 277.101562 446.0625 277.308594 C 446.300781 277.410156 446.539062 277.511719 446.746094 277.683594 C 447.9375 278.535156 449.335938 277.339844 449.441406 276.144531 C 449.472656 275.703125 449.335938 276.519531 449.40625 276.246094 C 449.472656 275.976562 449.542969 275.667969 449.609375 275.394531 C 449.714844 274.949219 449.816406 274.507812 449.953125 274.0625 C 450.121094 273.582031 450.328125 273.105469 450.566406 272.628906 C 452.101562 269.484375 454.523438 266.855469 457.5625 265.113281 C 463.261719 261.664062 470.152344 261.117188 475.988281 264.53125 C 478.855469 266.242188 481.175781 268.734375 482.710938 271.707031 C 483.597656 273.414062 484.246094 275.257812 484.691406 277.136719 C 485.066406 278.878906 485.03125 280.722656 485.441406 282.429688 C 486.292969 286.015625 487.761719 289.535156 489.195312 292.914062 C 490.628906 296.296875 493.5625 300.054688 491.34375 303.878906 C 490.21875 305.792969 488.375 307.226562 486.5 308.386719 C 484.210938 309.824219 481.722656 310.914062 479.128906 311.597656 C 473.839844 312.863281 469.230469 310.710938 465.410156 307.125 C 463.738281 305.554688 461.214844 308.046875 462.886719 309.652344 Z M 462.886719 309.652344 " fill-opacity="1" fill-rule="nonzero"/><path fill="#be4538" d="M 315.980469 304.972656 L 319.9375 297.390625 C 320.347656 296.535156 320.179688 295.410156 319.289062 294.929688 C 318.402344 294.453125 317.3125 294.691406 316.832031 295.578125 L 312.910156 303.164062 C 312.433594 304.015625 312.703125 305.109375 313.558594 305.621094 C 314.375 306.066406 315.535156 305.859375 315.980469 304.972656 Z M 315.980469 304.972656 " fill-opacity="1" fill-rule="nonzero"/><path fill="#be4538" d="M 341.265625 316.175781 C 342.460938 314.230469 343.347656 312.144531 343.894531 309.925781 C 344.097656 308.96875 343.554688 308.011719 342.632812 307.738281 C 341.675781 307.5 340.71875 308.046875 340.449219 309.003906 C 340.207031 310.027344 339.867188 311.050781 339.457031 312.042969 L 339.628906 311.632812 C 339.21875 312.589844 338.742188 313.511719 338.195312 314.398438 C 337.683594 315.253906 337.992188 316.3125 338.808594 316.824219 C 339.664062 317.300781 340.753906 317.03125 341.265625 316.175781 Z M 341.265625 316.175781 " fill-opacity="1" fill-rule="nonzero"/><path fill="#be4538" d="M 428.828125 299.0625 C 430.808594 301.898438 432.652344 304.871094 434.289062 307.945312 C 434.800781 308.796875 435.894531 309.070312 436.710938 308.558594 C 437.566406 308.046875 437.835938 306.953125 437.359375 306.132812 C 435.722656 303.058594 433.914062 300.121094 431.898438 297.289062 C 431.355469 296.503906 430.332031 296.09375 429.476562 296.640625 C 428.625 297.183594 428.25 298.242188 428.828125 299.0625 Z M 428.828125 299.0625 " fill-opacity="1" fill-rule="nonzero"/><path fill="#be4538" d="M 452.476562 287.964844 C 453.332031 291.6875 454.898438 295.203125 457.015625 298.347656 C 457.527344 299.097656 458.585938 299.507812 459.4375 298.960938 C 460.292969 298.414062 460.632812 297.355469 460.085938 296.535156 C 459.0625 295.066406 458.210938 293.496094 457.492188 291.855469 L 457.390625 291.582031 C 457.425781 291.753906 457.425781 291.71875 457.355469 291.550781 L 457.082031 290.867188 L 456.640625 289.636719 C 456.367188 288.78125 456.09375 287.894531 455.890625 287.007812 C 455.683594 286.050781 454.730469 285.4375 453.773438 285.675781 C 452.820312 285.878906 452.203125 286.835938 452.441406 287.792969 C 452.441406 287.828125 452.441406 287.894531 452.476562 287.964844 Z M 452.476562 287.964844 " fill-opacity="1" fill-rule="nonzero"/><path fill="#be4538" d="M 382.25 464.820312 C 376.960938 462.632812 372.933594 458.160156 371.328125 452.660156 C 370.511719 449.757812 370.441406 446.714844 371.089844 443.78125 C 371.398438 442.34375 371.875 440.945312 372.488281 439.613281 C 372.832031 438.859375 373.242188 438.144531 373.683594 437.460938 L 374.296875 436.605469 L 374.640625 436.128906 C 375.082031 435.71875 374.914062 435.683594 374.128906 436.027344 L 373.34375 435.582031 L 373.445312 435.683594 L 372.898438 434.421875 L 372.898438 434.589844 L 376.378906 434.113281 C 373.992188 428.339844 373.921875 421.648438 376.6875 415.976562 C 378.972656 411.332031 382.796875 407.644531 387.46875 405.457031 C 388.050781 405.183594 388.628906 404.945312 389.246094 404.773438 C 390.269531 404.398438 391.359375 404.195312 392.453125 404.089844 C 393.03125 404.058594 393.648438 404.058594 394.226562 404.160156 C 394.875 404.296875 395.523438 404.535156 396.136719 404.773438 C 396.511719 404.875 398.082031 404.363281 397.160156 404.738281 L 397.671875 404.535156 C 401.632812 402.996094 406.203125 402.109375 410.402344 402.996094 C 412.246094 403.40625 413.816406 404.195312 415.417969 405.082031 C 417.773438 406.414062 420.058594 407.917969 421.765625 410.035156 C 422.242188 410.613281 423.335938 410.683594 423.949219 410.308594 C 425.210938 409.488281 426.371094 409.113281 427.941406 408.734375 C 431.25 408.019531 434.699219 408.566406 437.597656 410.308594 C 438.453125 410.785156 439.542969 410.511719 440.054688 409.660156 C 440.398438 409.078125 440.808594 408.53125 441.214844 407.984375 C 441.320312 407.847656 441.320312 407.847656 441.183594 408.019531 L 441.386719 407.746094 L 441.695312 407.371094 C 441.96875 407.0625 442.238281 406.722656 442.546875 406.414062 C 443.160156 405.695312 443.84375 405.046875 444.558594 404.433594 C 448.074219 401.257812 452.511719 399.34375 457.324219 399.582031 C 458.484375 399.652344 459.335938 398.386719 459.027344 397.328125 C 457.425781 391.625 457.460938 384.453125 461.007812 379.398438 C 461.484375 378.714844 461.214844 377.792969 460.734375 377.246094 L 460.394531 376.835938 C 460.15625 376.5625 460.667969 377.210938 460.429688 376.871094 L 460.1875 376.5625 L 459.746094 375.945312 C 458.890625 374.648438 458.246094 373.28125 457.730469 371.8125 C 456.195312 367.273438 457.21875 362.730469 460.257812 359.007812 C 460.804688 358.324219 461.042969 357.160156 460.257812 356.511719 C 458.722656 355.214844 457.527344 353.574219 456.777344 351.695312 C 454.898438 347.289062 456.300781 342.816406 459.097656 339.128906 C 459.4375 338.582031 459.4375 337.863281 459.097656 337.316406 C 458.246094 335.882812 457.460938 334.378906 456.8125 332.84375 C 455.820312 330.453125 454.695312 327.480469 455.242188 324.886719 C 455.789062 322.289062 452.273438 321.675781 451.792969 323.929688 C 451.113281 327.207031 452.066406 330.589844 453.332031 333.628906 C 454.082031 335.542969 454.96875 337.386719 456.027344 339.128906 L 456.027344 337.316406 C 452.714844 341.722656 451.214844 347.289062 453.296875 352.550781 C 454.25 354.941406 455.753906 357.367188 457.730469 359.007812 L 457.730469 356.511719 C 454.011719 361.019531 452.441406 366.589844 454.113281 372.292969 C 454.933594 375.023438 456.332031 377.585938 458.210938 379.738281 L 457.9375 377.585938 C 453.875 383.359375 453.738281 391.660156 455.617188 398.285156 L 457.324219 396.03125 C 449.097656 395.585938 441.113281 400.878906 436.984375 407.847656 L 439.40625 407.234375 C 434.253906 404.261719 427.292969 403.921875 422.140625 407.234375 L 424.289062 407.507812 C 422.34375 405.117188 419.617188 403.339844 416.917969 401.835938 C 414.90625 400.710938 412.824219 399.789062 410.539062 399.410156 C 405.589844 398.625 400.265625 399.515625 395.695312 401.496094 L 397.503906 401.496094 C 392.554688 399.171875 386.652344 401.359375 382.351562 404.261719 C 376.242188 408.359375 372.183594 414.882812 371.226562 422.160156 C 370.679688 426.53125 371.261719 431.003906 372.96875 435.070312 C 373.71875 436.878906 376.3125 436.710938 376.449219 434.589844 C 376.585938 432.472656 374.402344 432.0625 373.003906 432.851562 C 371.601562 433.636719 370.785156 435.34375 370.066406 436.574219 C 368.464844 439.375 367.507812 442.515625 367.199219 445.726562 C 366.621094 451.910156 368.738281 458.023438 372.933594 462.566406 C 375.253906 465.058594 378.121094 467.003906 381.292969 468.269531 C 382.179688 468.609375 383.273438 467.859375 383.476562 467.003906 C 383.683594 466.152344 383.136719 465.160156 382.25 464.820312 Z M 382.25 464.820312 " fill-opacity="1" fill-rule="nonzero"/><path fill="#be4538" d="M 383.511719 441.21875 C 385.695312 441.765625 387.914062 442.039062 390.167969 442.003906 C 391.15625 442.003906 391.941406 441.21875 391.941406 440.226562 C 391.941406 439.238281 391.15625 438.449219 390.167969 438.449219 C 388.972656 438.449219 387.777344 438.382812 386.582031 438.210938 L 387.0625 438.28125 C 386.175781 438.179688 385.320312 438.007812 384.46875 437.769531 C 383.546875 437.5625 382.488281 438.074219 382.285156 439.03125 C 382.011719 439.988281 382.558594 440.945312 383.511719 441.21875 Z M 383.511719 441.21875 " fill-opacity="1" fill-rule="nonzero"/><path fill="#be4538" d="M 465.648438 341.074219 L 477.046875 338.445312 C 478.003906 338.171875 478.546875 337.214844 478.308594 336.257812 C 478.003906 335.335938 477.046875 334.757812 476.089844 334.996094 L 464.695312 337.625 C 463.738281 337.898438 463.191406 338.855469 463.464844 339.8125 C 463.738281 340.765625 464.695312 341.3125 465.648438 341.074219 Z M 465.648438 341.074219 " fill-opacity="1" fill-rule="nonzero"/><path fill="#be4538" d="M 467.421875 360.851562 C 471.449219 361.636719 475.613281 361.429688 479.503906 360.167969 C 480.390625 359.894531 481.074219 358.9375 480.765625 357.980469 C 480.492188 357.023438 479.539062 356.480469 478.582031 356.75 C 476.945312 357.296875 475.238281 357.605469 473.53125 357.742188 C 472.644531 357.777344 471.757812 357.777344 470.871094 357.742188 C 470.015625 357.707031 469.199219 357.570312 468.378906 357.402344 C 467.457031 357.230469 466.398438 357.675781 466.195312 358.664062 C 465.992188 359.65625 466.46875 360.644531 467.421875 360.851562 Z M 467.421875 360.851562 " fill-opacity="1" fill-rule="nonzero"/><path fill="#be4538" d="M 465.921875 381.34375 C 470.121094 381.207031 474.351562 381.273438 478.546875 381.546875 C 479.503906 381.617188 480.324219 380.695312 480.324219 379.773438 C 480.324219 378.78125 479.539062 377.996094 478.546875 377.996094 C 474.351562 377.722656 470.121094 377.65625 465.921875 377.757812 C 464.933594 377.792969 464.183594 378.578125 464.148438 379.566406 C 464.183594 380.523438 464.964844 381.308594 465.921875 381.34375 Z M 465.921875 381.34375 " fill-opacity="1" fill-rule="nonzero"/><path fill="#be4538" d="M 463.191406 401.9375 L 463.875 402.453125 L 464.011719 402.589844 C 463.910156 402.484375 463.910156 402.484375 464.011719 402.554688 L 464.316406 402.828125 L 465.613281 403.851562 L 468.105469 406.140625 C 469.710938 407.710938 471.210938 409.386719 472.609375 411.160156 C 473.191406 411.914062 474.519531 411.808594 475.136719 411.160156 C 475.75 410.511719 475.75 409.417969 475.136719 408.632812 C 472.199219 404.945312 468.789062 401.632812 464.964844 398.867188 C 464.214844 398.320312 462.953125 398.730469 462.542969 399.515625 C 462.066406 400.367188 462.375 401.425781 463.191406 401.9375 Z M 463.191406 401.9375 " fill-opacity="1" fill-rule="nonzero"/><path fill="#be4538" d="M 439.816406 418.027344 C 439.75 418.574219 439.75 419.121094 439.886719 419.632812 C 439.953125 419.972656 440.054688 420.28125 440.191406 420.589844 L 440.839844 422.535156 L 442.101562 426.429688 C 442.410156 427.316406 443.367188 427.964844 444.289062 427.65625 C 445.207031 427.351562 445.855469 426.429688 445.550781 425.472656 L 444.355469 421.851562 L 443.777344 420.042969 L 443.503906 419.222656 C 443.433594 419.085938 443.398438 418.949219 443.367188 418.8125 C 443.398438 418.640625 443.296875 418.46875 443.128906 418.4375 C 442.957031 418.402344 442.785156 418.503906 442.75 418.675781 C 442.71875 418.847656 442.820312 419.015625 442.992188 419.050781 C 443.09375 419.085938 443.195312 419.050781 443.261719 418.984375 C 443.367188 418.503906 443.332031 418.027344 443.09375 417.582031 C 442.855469 417.171875 442.480469 416.898438 442.035156 416.761719 C 441.183594 416.59375 439.988281 417.035156 439.816406 418.027344 Z M 439.816406 418.027344 " fill-opacity="1" fill-rule="nonzero"/><path fill="#be4538" d="M 420.128906 418.574219 C 420.503906 421.785156 420.503906 425.027344 420.128906 428.238281 C 419.992188 429.160156 421.015625 430.050781 421.902344 430.015625 C 422.789062 429.980469 423.574219 429.230469 423.675781 428.238281 C 424.050781 425.027344 424.050781 421.785156 423.675781 418.574219 C 423.574219 417.652344 422.960938 416.761719 421.902344 416.796875 C 420.84375 416.832031 420.023438 417.582031 420.128906 418.574219 Z M 420.128906 418.574219 " fill-opacity="1" fill-rule="nonzero"/><g clip-path="url(#6371256d2b)"><path fill="#be4538" d="M 395.796875 469.636719 C 401.734375 469.292969 406.546875 465.878906 409.414062 460.6875 C 412.277344 455.496094 413.984375 448.457031 411.253906 442.960938 L 408.832031 445.382812 C 413.167969 447.46875 418.183594 446.171875 421.664062 443.128906 L 419.136719 443.128906 C 421.492188 445.929688 425.894531 446.957031 429.339844 447.09375 C 433.402344 447.296875 437.566406 446.308594 441.386719 444.941406 C 443.570312 444.15625 446.0625 443.164062 447.664062 441.386719 C 448.519531 440.464844 449.03125 439.40625 448.859375 438.144531 L 446.234375 440.160156 C 447.289062 440.910156 448.792969 441.148438 450.054688 441.320312 C 453.398438 441.730469 456.878906 441.011719 460.050781 439.988281 C 465.273438 438.246094 470.597656 435.617188 474.691406 431.894531 C 477.285156 429.535156 479.503906 426.429688 480.152344 422.945312 C 480.425781 421.339844 480.5625 419.425781 480.015625 417.855469 L 478.273438 420.109375 C 481.652344 419.90625 485.03125 417.820312 487.761719 416.011719 C 490.492188 414.199219 493.9375 411.605469 495.953125 408.359375 C 497.316406 406.105469 498.101562 403.542969 498.238281 400.914062 C 498.339844 399.546875 498.203125 398.148438 497.828125 396.816406 L 497.351562 398.558594 C 499.023438 396.644531 500.320312 394.425781 501.105469 392 C 502.84375 387.117188 502.296875 381.890625 499.875 377.3125 L 500.046875 378.714844 C 500.660156 375.46875 500.933594 372.191406 500.863281 368.878906 C 500.832031 364.027344 500.113281 358.015625 496.121094 354.667969 L 496.394531 356.855469 C 499.570312 349.546875 500.148438 339.570312 493.664062 333.867188 L 494.109375 335.609375 C 495.472656 329.085938 495.40625 321.539062 492.640625 315.390625 C 491.550781 312.898438 489.808594 310.710938 487.589844 309.105469 C 486.839844 308.523438 485.613281 308.96875 485.167969 309.71875 C 484.722656 310.472656 485.03125 311.597656 485.816406 312.179688 C 491.824219 316.722656 491.824219 326.113281 490.96875 332.84375 C 490.933594 333.183594 491.003906 332.570312 490.96875 332.980469 C 490.933594 333.152344 490.902344 333.289062 490.902344 333.457031 C 490.867188 333.664062 490.832031 333.902344 490.765625 334.105469 L 490.660156 334.6875 C 490.558594 335.269531 490.628906 335.984375 491.140625 336.394531 C 494.621094 339.46875 495.4375 343.910156 494.996094 348.351562 C 494.792969 350.023438 494.449219 351.628906 493.9375 353.234375 C 493.765625 353.78125 493.597656 354.292969 493.390625 354.839844 C 493.1875 355.386719 493.015625 355.796875 493.324219 355.042969 C 493.015625 355.726562 492.949219 356.648438 493.597656 357.195312 C 497.417969 360.40625 497.453125 366.726562 497.28125 371.335938 C 497.214844 372.496094 497.144531 373.660156 497.007812 374.820312 C 496.976562 375.265625 496.90625 375.707031 496.871094 376.117188 C 496.839844 376.527344 496.90625 375.808594 496.871094 376.082031 C 496.839844 376.355469 496.839844 376.253906 496.839844 376.324219 L 496.734375 376.902344 C 496.703125 377.175781 496.667969 377.449219 496.601562 377.757812 C 496.429688 378.882812 497.179688 379.773438 497.589844 380.796875 C 497.964844 381.789062 498.273438 382.8125 498.441406 383.835938 C 498.851562 386.808594 498.410156 389.8125 497.078125 392.511719 C 496.601562 393.433594 496.085938 394.324219 495.507812 395.175781 C 495.40625 395.347656 495.269531 395.519531 495.132812 395.65625 C 494.960938 395.929688 495.40625 395.382812 495.097656 395.6875 L 494.859375 396.03125 C 494.246094 396.78125 494.347656 397.429688 494.519531 398.285156 C 494.519531 398.421875 494.550781 398.523438 494.585938 398.660156 C 494.65625 399.105469 494.550781 398.351562 494.621094 398.832031 C 494.6875 399.308594 494.6875 399.753906 494.6875 400.230469 C 494.65625 402.964844 493.734375 405.628906 492.027344 407.78125 C 490.527344 409.691406 488.511719 411.160156 486.53125 412.527344 C 484.996094 413.621094 483.359375 414.578125 481.6875 415.394531 C 480.800781 415.804688 479.878906 416.113281 478.957031 416.386719 L 478.136719 416.558594 C 477.796875 416.660156 478.683594 416.523438 478.273438 416.558594 C 477.21875 416.625 476.160156 417.652344 476.570312 418.8125 C 476.671875 419.085938 476.738281 419.390625 476.773438 419.664062 C 476.875 420.074219 476.738281 419.222656 476.773438 419.699219 C 476.808594 420.179688 476.808594 420.042969 476.808594 420.210938 C 476.84375 420.65625 476.808594 421.132812 476.773438 421.578125 C 476.738281 422.054688 476.84375 421.203125 476.738281 421.679688 C 476.738281 421.785156 476.738281 421.886719 476.707031 421.988281 C 476.671875 422.261719 476.601562 422.5 476.535156 422.773438 C 476.398438 423.355469 476.195312 423.902344 475.953125 424.414062 C 475.273438 425.882812 474.351562 427.179688 473.226562 428.339844 C 469.742188 431.925781 464.964844 434.386719 460.324219 436.09375 C 457.21875 437.253906 454.046875 438.074219 450.769531 437.835938 L 450.328125 437.835938 L 449.644531 437.699219 C 449.269531 437.632812 448.894531 437.496094 448.519531 437.390625 C 448.144531 437.289062 448.417969 437.324219 448.484375 437.390625 L 448.007812 437.117188 C 446.574219 436.128906 445.207031 437.769531 445.414062 439.132812 C 445.3125 438.382812 445.34375 438.585938 445.34375 438.757812 C 445.34375 438.929688 445.480469 438.179688 445.34375 438.585938 C 445.207031 438.996094 445.414062 438.109375 445.34375 438.621094 C 445.3125 438.722656 445.242188 438.792969 445.175781 438.859375 C 445.105469 439.03125 445.480469 438.585938 445.175781 438.859375 C 444.96875 439.101562 444.765625 439.304688 444.527344 439.476562 C 444.355469 439.648438 444.765625 439.304688 444.558594 439.476562 L 444.355469 439.613281 L 443.707031 440.054688 C 442.71875 440.636719 441.660156 441.113281 440.566406 441.492188 C 437.222656 442.6875 433.640625 443.609375 430.058594 443.574219 C 427.875 443.574219 425.484375 443.097656 423.746094 442.175781 L 422.722656 441.558594 C 422.652344 441.523438 422.210938 441.183594 422.414062 441.355469 C 422.617188 441.523438 422.3125 441.25 422.242188 441.183594 C 422.039062 441.011719 421.832031 440.84375 421.664062 440.636719 C 421.015625 439.851562 419.820312 440.023438 419.136719 440.636719 C 417.464844 442.175781 415.246094 442.960938 412.996094 442.855469 C 412.347656 442.824219 411.734375 442.6875 411.117188 442.515625 L 410.539062 442.3125 L 410.640625 442.3125 C 409.753906 441.832031 408.660156 442.175781 408.183594 443.0625 C 407.910156 443.574219 407.910156 444.222656 408.183594 444.734375 C 409.582031 447.605469 409.070312 450.917969 408.285156 453.890625 C 407.84375 455.632812 407.195312 457.304688 406.339844 458.910156 C 404.125 462.941406 400.507812 465.773438 395.796875 466.082031 C 393.511719 466.21875 393.476562 469.769531 395.796875 469.636719 Z M 395.796875 469.636719 " fill-opacity="1" fill-rule="nonzero"/></g><path fill="#be4538" d="M 294.3125 412.425781 C 298.203125 411.503906 301.988281 410.171875 305.574219 408.460938 C 306.390625 408.054688 306.699219 406.789062 306.1875 406.003906 C 305.675781 405.183594 304.617188 404.910156 303.765625 405.390625 C 300.421875 406.960938 296.9375 408.15625 293.355469 408.976562 C 292.402344 409.25 291.855469 410.238281 292.09375 411.195312 C 292.367188 412.152344 293.355469 412.699219 294.3125 412.425781 Z M 294.3125 412.425781 " fill-opacity="1" fill-rule="nonzero"/><path fill="#be4538" d="M 288.167969 379.15625 C 293.253906 379.566406 298.371094 379.636719 303.492188 379.328125 C 304.480469 379.292969 305.230469 378.507812 305.265625 377.519531 C 305.265625 376.597656 304.445312 375.675781 303.492188 375.742188 C 298.371094 376.050781 293.253906 376.015625 288.167969 375.570312 C 287.214844 375.503906 286.394531 376.460938 286.394531 377.382812 C 286.429688 378.339844 287.214844 379.125 288.167969 379.15625 Z M 288.167969 379.15625 " fill-opacity="1" fill-rule="nonzero"/><path fill="#be4538" d="M 284.175781 352.652344 C 289.191406 353.882812 294.449219 353.847656 299.464844 352.515625 C 301.683594 351.9375 300.761719 348.484375 298.542969 349.066406 C 294.140625 350.226562 289.535156 350.296875 285.132812 349.238281 C 282.914062 348.691406 281.957031 352.140625 284.175781 352.652344 Z M 284.175781 352.652344 " fill-opacity="1" fill-rule="nonzero"/><path fill="#be4538" d="M 286.292969 328.4375 C 290.421875 329.121094 294.585938 329.425781 298.78125 329.292969 C 299.738281 329.257812 300.523438 328.472656 300.554688 327.515625 C 300.554688 326.523438 299.773438 325.738281 298.78125 325.738281 C 294.925781 325.875 291.035156 325.636719 287.214844 325.023438 C 286.292969 324.851562 285.304688 325.261719 285.03125 326.25 C 284.757812 327.242188 285.335938 328.300781 286.292969 328.4375 Z M 286.292969 328.4375 " fill-opacity="1" fill-rule="nonzero"/><path fill="#be4538" d="M 330.515625 399.753906 C 332.703125 395.757812 333.179688 391.042969 331.746094 386.707031 C 330.210938 382.128906 326.628906 378.40625 323.25 375.058594 L 323.554688 377.210938 C 325.023438 374 325.773438 370.378906 326.320312 366.929688 C 326.867188 363.480469 327.070312 361.054688 326.183594 358.152344 C 325.5 356.101562 324.441406 354.191406 323.011719 352.550781 C 322.257812 351.664062 321.371094 350.878906 320.417969 350.195312 L 321.03125 352.617188 C 323.417969 349.136719 324.273438 344.355469 324.101562 340.222656 C 323.964844 337.011719 323.25 332.226562 320.179688 330.382812 L 320.828125 332.808594 L 322.941406 328.09375 C 323.316406 327.242188 323.179688 326.183594 322.292969 325.671875 C 321.40625 325.160156 320.246094 325.429688 319.871094 326.320312 L 317.722656 331.03125 C 317.34375 331.921875 317.480469 332.910156 318.371094 333.457031 L 318.472656 333.527344 C 317.890625 333.082031 318.371094 333.457031 318.503906 333.59375 C 318.640625 333.730469 319.019531 334.210938 318.746094 333.832031 C 318.949219 334.105469 319.121094 334.378906 319.257812 334.652344 C 320.28125 336.496094 320.554688 338.890625 320.554688 341.007812 C 320.585938 344.355469 319.835938 348.042969 317.960938 350.84375 C 317.414062 351.664062 317.855469 352.753906 318.609375 353.269531 L 318.847656 353.4375 C 318.300781 353.027344 318.984375 353.574219 319.121094 353.679688 C 319.769531 354.222656 320.347656 354.839844 320.859375 355.523438 C 322.328125 357.433594 323.148438 359.757812 323.25 362.148438 C 323.28125 365.425781 322.464844 368.84375 321.609375 371.984375 C 321.339844 372.941406 321.03125 373.863281 320.691406 374.785156 C 320.621094 375.023438 320.519531 375.265625 320.417969 375.503906 C 320.347656 375.742188 320.621094 375.023438 320.449219 375.402344 C 320.28125 375.777344 320.144531 376.972656 320.757812 377.585938 C 323.554688 380.386719 326.765625 383.53125 328.195312 387.320312 C 329.492188 390.804688 329.222656 394.664062 327.445312 397.941406 C 326.355469 399.957031 329.425781 401.769531 330.515625 399.753906 Z M 330.515625 399.753906 " fill-opacity="1" fill-rule="nonzero"/><path fill="#be4538" d="M 363.207031 305.828125 C 363.039062 310.949219 363.277344 316.074219 363.960938 321.128906 C 364.09375 322.050781 364.710938 322.902344 365.734375 322.902344 C 366.757812 322.902344 367.644531 322.085938 367.542969 321.128906 C 366.859375 316.074219 366.585938 310.949219 366.757812 305.828125 C 366.824219 303.539062 363.277344 303.539062 363.207031 305.828125 Z M 363.207031 305.828125 " fill-opacity="1" fill-rule="nonzero"/><path fill="#be4538" d="M 392.625 307.191406 L 394.125 317.847656 C 394.261719 318.769531 395.488281 319.386719 396.308594 319.113281 C 397.128906 318.839844 397.707031 317.917969 397.570312 316.894531 L 396.070312 306.234375 C 395.933594 305.3125 394.703125 304.734375 393.886719 305.007812 C 393.066406 305.28125 392.488281 306.203125 392.625 307.191406 Z M 392.625 307.191406 " fill-opacity="1" fill-rule="nonzero"/><g clip-path="url(#e2de44f516)"><path fill="#be4538" d="M 374.402344 462.941406 C 372.113281 466.5625 370.679688 470.660156 370.101562 474.894531 C 369.589844 478.789062 369.691406 483.160156 371.910156 486.542969 C 373.683594 489.238281 376.621094 491.117188 378.050781 494.023438 C 379.484375 496.925781 378.667969 499.964844 378.667969 502.730469 C 378.667969 504.199219 378.699219 505.703125 379.316406 507.070312 C 380.066406 508.675781 381.464844 509.902344 383.171875 510.417969 C 385.117188 510.894531 387.128906 510.824219 389.039062 510.210938 C 390.78125 509.5625 392.144531 508.128906 392.65625 506.351562 C 393.578125 503.105469 392.382812 499.417969 394.601562 496.515625 C 395.386719 495.492188 396.410156 494.601562 397.265625 493.644531 C 398.117188 492.691406 399.277344 491.324219 400.164062 490.09375 C 402.484375 487.019531 404.328125 483.46875 405.011719 479.640625 C 405.828125 474.894531 404.839844 470.25 402.554688 466.015625 C 401.460938 464 398.390625 465.808594 399.480469 467.824219 C 401.222656 471.035156 402.144531 474.621094 401.632812 478.308594 C 401.222656 481.316406 399.890625 484.152344 398.21875 486.679688 C 396.785156 488.796875 395.183594 490.742188 393.410156 492.585938 C 392.28125 493.75 391.257812 494.910156 390.609375 496.378906 C 389.960938 497.847656 389.621094 499.894531 389.519531 501.773438 C 389.449219 503.003906 389.585938 504.40625 389.144531 505.601562 C 388.699219 506.796875 387.300781 507.035156 386.039062 507.070312 C 384.773438 507.101562 383.339844 507.035156 382.589844 505.667969 C 382.488281 505.496094 382.421875 505.328125 382.386719 505.15625 C 382.351562 505.019531 382.316406 504.882812 382.316406 504.746094 C 382.25 504.0625 382.25 503.414062 382.25 502.730469 C 382.214844 499.929688 382.726562 496.890625 381.941406 494.160156 C 381.15625 491.425781 378.699219 488.964844 376.617188 486.710938 C 375.492188 485.515625 374.433594 484.21875 373.957031 482.613281 C 373.410156 480.699219 373.273438 478.6875 373.480469 476.703125 C 373.820312 472.4375 375.1875 468.304688 377.507812 464.714844 C 378.734375 462.769531 375.628906 460.992188 374.402344 462.941406 Z M 374.402344 462.941406 " fill-opacity="1" fill-rule="nonzero"/></g><path fill="#be4538" d="M 278.785156 302.957031 C 274.417969 304.5625 273.394531 310.234375 273.257812 314.332031 C 273.050781 319.078125 274.347656 323.792969 276.910156 327.789062 L 277.179688 325.636719 C 275.203125 328.027344 274.109375 331.238281 273.632812 334.277344 C 273.15625 337.453125 273.1875 340.699219 273.699219 343.875 C 273.972656 346.027344 274.589844 348.109375 275.507812 350.089844 C 275.851562 350.910156 276.363281 351.628906 277.011719 352.242188 L 277.011719 349.75 C 274.28125 352.722656 272.402344 356.34375 271.515625 360.269531 C 270.730469 363.855469 271.175781 367.203125 272.265625 370.652344 C 272.949219 372.839844 273.734375 375.230469 275.101562 377.109375 C 275.75 377.996094 276.636719 378.917969 277.796875 378.917969 L 276.53125 375.878906 C 273.394531 379.054688 271.3125 383.734375 270.664062 388.105469 C 269.570312 395.347656 272.164062 402.792969 276.53125 408.566406 C 277.558594 409.964844 278.683594 411.296875 279.980469 412.460938 L 279.707031 410.308594 C 278.375 412.972656 277.351562 415.738281 276.566406 418.605469 C 275.371094 422.910156 274.691406 427.625 275.78125 431.996094 C 277.625 439.40625 283.800781 444.871094 290.660156 447.671875 C 296.222656 449.960938 302.363281 450.578125 308.335938 450.167969 L 306.800781 449.277344 C 308.917969 452.113281 311 454.980469 313.148438 457.78125 C 315.296875 460.582031 317.480469 461.847656 320.585938 460.753906 C 327.171875 458.433594 326.117188 449.585938 324.035156 444.496094 L 323.214844 446.511719 C 328.09375 444.324219 332.460938 441.082031 335.636719 436.742188 C 338.332031 433.089844 339.765625 428.785156 340.277344 424.277344 C 340.6875 420.554688 340.550781 416.761719 339.96875 413.074219 C 339.425781 409.488281 338.367188 405.695312 336.25 402.691406 C 334.132812 399.683594 330.140625 397.191406 325.875 397.566406 C 324.886719 397.667969 324.066406 398.320312 324.066406 399.34375 C 324.066406 400.367188 324.886719 401.222656 325.875 401.152344 C 328.84375 400.878906 331.234375 401.90625 332.941406 404.160156 C 334.644531 406.414062 335.808594 409.929688 336.386719 413.074219 C 337.617188 420.042969 337.308594 427.625 333.453125 433.667969 C 330.585938 438.144531 326.183594 441.285156 321.40625 443.4375 C 320.691406 443.847656 320.347656 444.667969 320.585938 445.453125 C 321.78125 448.355469 323.011719 452.761719 321.339844 455.699219 C 320.691406 456.828125 319.394531 457.816406 317.992188 457.441406 C 316.59375 457.066406 315.535156 455.050781 314.683594 453.921875 L 310.964844 448.902344 C 310.417969 448.183594 309.871094 447.125 309.019531 446.75 C 308.167969 446.375 306.800781 446.683594 305.84375 446.714844 C 302.433594 446.820312 298.988281 446.445312 295.675781 445.589844 C 290.730469 444.324219 286.121094 441.832031 282.777344 437.90625 C 280.082031 434.832031 278.683594 430.835938 278.820312 426.734375 C 278.957031 421.714844 280.59375 416.421875 282.777344 412.082031 C 283.117188 411.433594 283.117188 410.476562 282.503906 409.929688 C 279.605469 407.402344 277.351562 403.886719 275.851562 400.367188 C 273.292969 394.289062 273.292969 387.558594 276.636719 381.789062 C 276.941406 381.242188 277.25 380.730469 277.589844 380.214844 L 278 379.671875 C 278.308594 379.261719 277.964844 379.671875 278.207031 379.398438 C 278.476562 379.054688 278.75 378.714844 279.058594 378.40625 C 280.148438 377.3125 279.332031 375.402344 277.796875 375.367188 C 277.691406 375.367188 278.410156 375.46875 278.207031 375.402344 C 278 375.332031 278.71875 375.675781 278.375 375.503906 C 278.035156 375.332031 278.648438 375.808594 278.375 375.503906 C 278.101562 375.195312 277.933594 374.992188 278.035156 375.128906 C 278.136719 375.265625 277.761719 374.71875 277.691406 374.546875 C 277.453125 374.171875 277.25 373.796875 277.078125 373.386719 C 276.566406 372.292969 276.15625 371.199219 275.816406 370.039062 C 274.894531 367.167969 274.28125 364.402344 274.929688 361.398438 C 275.40625 359.144531 276.292969 357.023438 277.488281 355.078125 L 278.339844 353.78125 L 278.71875 353.269531 L 278.851562 353.097656 C 278.988281 352.890625 278.683594 353.300781 278.886719 353.0625 L 279.535156 352.242188 C 280.148438 351.59375 280.320312 350.363281 279.535156 349.75 C 279.398438 349.613281 279.023438 349.066406 279.367188 349.578125 C 278.988281 349.03125 278.648438 348.453125 278.375 347.835938 C 277.386719 345.617188 276.941406 342.234375 276.839844 339.539062 C 276.703125 336.53125 277.179688 333.558594 278.308594 330.761719 C 278.582031 330.007812 278.921875 329.324219 279.367188 328.640625 L 279.773438 328.0625 C 280.015625 327.652344 279.535156 328.335938 279.707031 328.128906 C 280.253906 327.550781 280.355469 326.695312 279.980469 325.976562 C 277.933594 322.835938 276.839844 319.179688 276.804688 315.425781 C 276.773438 313.578125 277.011719 311.769531 277.488281 309.992188 C 277.828125 308.765625 278.375 306.917969 279.742188 306.40625 C 281.855469 305.621094 280.933594 302.171875 278.785156 302.957031 Z M 278.785156 302.957031 " fill-opacity="1" fill-rule="nonzero"/><path fill="#ffffff" d="M 324.238281 409.863281 C 328.503906 415.292969 329.085938 423.285156 325.773438 429.296875 C 324.683594 431.3125 327.753906 433.121094 328.84375 431.109375 C 332.972656 423.558594 332.054688 414.0625 326.765625 407.371094 C 326.148438 406.585938 324.851562 406.722656 324.238281 407.371094 C 323.625 408.019531 323.625 409.113281 324.238281 409.863281 Z M 324.238281 409.863281 " fill-opacity="1" fill-rule="nonzero"/><path fill="#ffffff" d="M 292.539062 274.265625 C 300.691406 269.65625 311.03125 272.355469 315.878906 280.378906 C 317.074219 282.328125 320.179688 280.550781 318.984375 278.570312 C 313.078125 268.90625 300.589844 265.625 290.730469 271.191406 C 288.714844 272.320312 290.523438 275.429688 292.539062 274.265625 Z M 292.539062 274.265625 " fill-opacity="1" fill-rule="nonzero"/><path fill="#ffffff" d="M 325.5 287.757812 L 327.480469 287.929688 L 328.230469 287.929688 C 328.027344 287.894531 328.027344 287.894531 328.128906 287.929688 L 329.117188 288.066406 C 330.414062 288.304688 331.746094 288.613281 333.007812 288.988281 C 333.929688 289.296875 334.953125 288.816406 335.261719 287.859375 C 335.566406 286.90625 335.089844 285.914062 334.132812 285.605469 C 334.066406 285.574219 334 285.574219 333.964844 285.539062 C 331.199219 284.71875 328.367188 284.242188 325.5 284.105469 C 324.511719 284.105469 323.726562 284.890625 323.691406 285.878906 C 323.726562 286.871094 324.511719 287.621094 325.5 287.65625 Z M 325.5 287.757812 " fill-opacity="1" fill-rule="nonzero"/><path fill="#ffffff" d="M 455.992188 274.300781 C 459.8125 271.261719 464.964844 270.511719 469.503906 272.25 C 473.667969 273.925781 476.707031 277.714844 477.695312 282.054688 C 478.207031 284.273438 481.652344 283.351562 481.140625 281.097656 C 479.8125 275.496094 475.816406 270.886719 470.460938 268.800781 C 464.726562 266.582031 458.175781 267.984375 453.464844 271.773438 C 452.714844 272.386719 452.851562 273.652344 453.464844 274.300781 C 454.082031 274.949219 455.242188 274.914062 455.992188 274.300781 Z M 455.992188 274.300781 " fill-opacity="1" fill-rule="nonzero"/><path fill="#ffffff" d="M 481.242188 293.359375 C 482.027344 294.519531 482.746094 295.714844 483.359375 296.980469 C 483.53125 297.289062 483.667969 297.59375 483.804688 297.902344 C 483.941406 298.210938 483.972656 298.242188 484.042969 298.378906 L 484.179688 298.6875 C 484.074219 298.449219 484.28125 298.925781 484.28125 298.996094 L 484.484375 299.507812 C 484.621094 299.847656 484.757812 300.191406 484.859375 300.53125 C 485.167969 301.421875 486.089844 302.070312 487.042969 301.761719 C 488 301.453125 488.613281 300.53125 488.308594 299.574219 C 487.316406 296.742188 485.988281 294.042969 484.316406 291.550781 C 483.769531 290.796875 482.710938 290.386719 481.859375 290.933594 C 481.003906 291.480469 480.664062 292.539062 481.242188 293.359375 Z M 481.242188 293.359375 " fill-opacity="1" fill-rule="nonzero"/><path fill="#ffffff" d="M 383.339844 422.980469 C 384.742188 416.457031 391.734375 411.671875 398.253906 412.9375 C 399.210938 413.175781 400.164062 412.628906 400.4375 411.707031 C 400.675781 410.820312 400.128906 409.691406 399.210938 409.523438 C 390.78125 407.847656 381.738281 413.550781 379.894531 422.023438 C 379.691406 422.980469 380.234375 423.933594 381.15625 424.207031 C 382.042969 424.449219 383.136719 423.933594 383.339844 422.980469 Z M 383.339844 422.980469 " fill-opacity="1" fill-rule="nonzero"/><path fill="#ffffff" d="M 407.605469 411.671875 C 409.242188 412.324219 410.980469 412.628906 412.722656 412.5625 C 413.199219 412.5625 413.644531 412.355469 413.984375 412.015625 C 414.328125 411.671875 414.496094 411.230469 414.53125 410.75 C 414.460938 409.828125 413.746094 408.941406 412.722656 408.976562 C 412.074219 409.007812 411.425781 408.976562 410.777344 408.90625 L 411.253906 408.90625 C 410.332031 408.804688 409.414062 408.53125 408.558594 408.191406 C 408.117188 408.054688 407.605469 408.121094 407.195312 408.359375 C 406.339844 408.871094 406.066406 409.964844 406.546875 410.820312 L 406.820312 411.160156 C 407.023438 411.398438 407.296875 411.535156 407.605469 411.640625 Z M 407.605469 411.671875 " fill-opacity="1" fill-rule="nonzero"/><path fill="#ffffff" d="M 283.734375 425.097656 C 285.78125 434.011719 295.984375 439.886719 304.71875 437.152344 C 306.902344 436.46875 305.949219 433.019531 303.765625 433.703125 C 296.835938 435.890625 288.785156 431.246094 287.179688 424.140625 C 286.667969 421.921875 283.222656 422.875 283.734375 425.097656 Z M 283.734375 425.097656 " fill-opacity="1" fill-rule="nonzero"/></svg>