<svg xmlns="http://www.w3.org/2000/svg" xmlns:xlink="http://www.w3.org/1999/xlink" width="1024" zoomAndPan="magnify" viewBox="0 0 768 767.999994" height="1024" preserveAspectRatio="xMidYMid meet" version="1.0"><defs><clipPath id="632ecbb744"><path d="M 121.390625 121.390625 L 646.609375 121.390625 L 646.609375 646.609375 L 121.390625 646.609375 Z M 121.390625 121.390625 " clip-rule="nonzero"/></clipPath><clipPath id="8800b0e306"><path d="M 384 121.390625 C 238.964844 121.390625 121.390625 238.964844 121.390625 384 C 121.390625 529.035156 238.964844 646.609375 384 646.609375 C 529.035156 646.609375 646.609375 529.035156 646.609375 384 C 646.609375 238.964844 529.035156 121.390625 384 121.390625 Z M 384 121.390625 " clip-rule="nonzero"/></clipPath><clipPath id="fda3853e10"><path d="M 238.492188 182.414062 L 529.492188 182.414062 L 529.492188 464 L 238.492188 464 Z M 238.492188 182.414062 " clip-rule="nonzero"/></clipPath><clipPath id="f80c5cc016"><path d="M 267 327 L 497 327 L 497 585.914062 L 267 585.914062 Z M 267 327 " clip-rule="nonzero"/></clipPath></defs><g clip-path="url(#632ecbb744)"><g clip-path="url(#8800b0e306)"><path fill="#c7d1d2" d="M 121.390625 121.390625 L 646.609375 121.390625 L 646.609375 646.609375 L 121.390625 646.609375 Z M 121.390625 121.390625 " fill-opacity="1" fill-rule="nonzero"/></g></g><path fill="#971f1f" d="M 522.644531 308.957031 C 522.582031 315.898438 521.6875 322.746094 520.261719 329.523438 C 518.085938 339.851562 515.144531 349.964844 511.148438 359.746094 C 509.109375 364.738281 506.746094 369.570312 503.554688 373.941406 C 499.800781 379.085938 495.179688 383.351562 489.992188 387.019531 C 481.511719 393.015625 472.203125 397.421875 462.597656 401.234375 C 443.203125 408.933594 423.179688 414.375 402.578125 417.636719 C 395.8125 418.707031 389 419.441406 382.148438 419.820312 C 378.75 420.007812 375.355469 420.027344 372.710938 420.097656 C 359.613281 420.1875 347.453125 418.769531 335.519531 415.542969 C 325.410156 412.808594 315.816406 408.792969 306.640625 403.765625 C 294.4375 397.078125 283.007812 389.230469 272.050781 380.671875 C 267.8125 377.359375 263.726562 373.863281 260.445312 369.539062 C 257.972656 366.28125 256.214844 362.625 254.585938 358.890625 C 250.148438 348.703125 247.398438 338.070312 246.015625 327.050781 C 245.164062 320.304688 244.472656 313.539062 243.855469 306.765625 C 243.523438 303.109375 243.414062 299.433594 243.394531 295.75 C 243.378906 291.988281 244.414062 288.644531 246.394531 285.496094 C 249.617188 280.375 253.28125 275.589844 257.230469 271.011719 C 268.234375 258.253906 281.335938 248.035156 295.679688 239.335938 C 306.539062 232.75 318.144531 227.914062 330.402344 224.613281 C 340.210938 221.972656 350.113281 219.804688 360.183594 218.46875 C 364.3125 217.921875 368.464844 217.59375 372.625 217.34375 C 380.34375 216.882812 388.070312 216.734375 395.800781 216.613281 C 403.699219 216.488281 411.578125 216.648438 419.421875 217.679688 C 425.597656 218.492188 431.585938 220.097656 437.347656 222.425781 C 451.140625 228.003906 464.675781 234.152344 477.324219 242.054688 C 486.679688 247.898438 494.984375 255.027344 502.28125 263.332031 C 508.519531 270.429688 513.386719 278.441406 518 286.621094 C 520.75 291.5 521.808594 296.875 522.304688 302.382812 C 522.5 304.566406 522.664062 306.753906 522.644531 308.957031 Z M 522.644531 308.957031 " fill-opacity="1" fill-rule="nonzero"/><path fill="#b03e30" d="M 525.089844 329.148438 C 523.996094 333.625 523.101562 338.148438 522.105469 342.652344 C 520.597656 349.464844 518.351562 356.074219 516.609375 362.824219 C 515.726562 366.230469 514.59375 369.550781 513.183594 372.777344 C 510.640625 378.589844 507.601562 384.101562 503.382812 388.882812 C 501.773438 390.707031 499.949219 392.304688 497.609375 393.128906 C 496.449219 393.535156 496.296875 393.675781 496.328125 395.222656 C 496.335938 395.667969 496.390625 396.105469 496.605469 396.496094 C 497.578125 398.253906 497.492188 400.101562 496.988281 401.9375 C 496.628906 403.234375 496.503906 404.480469 496.792969 405.820312 C 497.175781 407.617188 496.71875 409.429688 496.554688 411.226562 C 496.308594 413.953125 495.878906 416.667969 495.511719 419.386719 C 495.445312 419.875 495.265625 420.382812 495.464844 420.847656 C 496.027344 422.152344 495.714844 423.429688 495.441406 424.722656 C 494.691406 428.324219 493.648438 431.863281 492.90625 435.457031 C 491.453125 442.519531 488.359375 448.953125 485.617188 455.527344 C 485.339844 456.1875 485.011719 456.820312 484.511719 457.347656 C 483.054688 458.882812 480.855469 458.410156 480.199219 456.417969 C 480.007812 455.835938 480.203125 454.894531 479.269531 454.921875 C 478.242188 454.953125 478.5625 456 478.34375 456.601562 C 478.0625 457.371094 477.949219 458.199219 477.746094 458.996094 C 477.59375 459.585938 477.378906 460.152344 476.996094 460.632812 C 476.296875 461.511719 475.402344 462 474.265625 461.761719 C 473.195312 461.539062 472.578125 460.8125 472.300781 459.765625 C 472.207031 459.40625 472.324219 458.988281 472 458.691406 C 471.617188 458.605469 471.410156 458.9375 471.121094 459.066406 C 469.746094 459.667969 468.667969 459.363281 467.867188 458.097656 C 467.578125 457.640625 467.398438 457.105469 466.90625 456.792969 C 465.789062 456.082031 465.492188 454.980469 465.621094 453.78125 C 465.972656 450.398438 465.972656 446.992188 466.394531 443.613281 C 466.984375 438.878906 467.433594 434.125 467.929688 429.378906 C 468.4375 424.582031 468.9375 419.78125 469.425781 414.976562 C 469.804688 411.265625 470.152344 407.554688 470.546875 403.84375 C 470.839844 401.0625 471.128906 398.277344 471.746094 395.542969 C 471.867188 395.011719 472.003906 394.464844 472.253906 393.988281 C 472.726562 393.089844 473.535156 392.636719 474.546875 392.648438 C 475.570312 392.660156 476.324219 393.152344 476.769531 394.082031 C 476.910156 394.378906 477.015625 394.691406 477.105469 395.007812 C 477.234375 395.476562 477.472656 395.566406 477.957031 395.460938 C 479.113281 395.207031 480.34375 395.195312 481.058594 393.96875 C 481.273438 393.601562 481.808594 393.339844 482.210938 393.421875 C 483.625 393.707031 484.71875 392.894531 485.917969 392.460938 C 486.804688 392.140625 487.644531 391.917969 488.628906 392.066406 C 489.84375 392.246094 490.453125 391.265625 489.835938 390.195312 C 488.226562 387.414062 487.753906 384.324219 487.359375 381.214844 C 486.972656 378.160156 486.964844 375.082031 486.96875 372.011719 C 486.980469 363.664062 487.019531 355.320312 487.015625 346.976562 C 487.015625 344.378906 486.355469 341.867188 485.785156 339.355469 C 484.484375 333.652344 482.226562 328.289062 479.855469 322.972656 C 478.734375 320.464844 477.601562 317.964844 476.246094 315.574219 C 472.152344 308.363281 466.152344 303.082031 459.222656 298.742188 C 452.359375 294.449219 444.800781 292.152344 436.859375 290.929688 C 433.710938 290.445312 430.535156 290.070312 427.371094 290.046875 C 417.699219 289.976562 408.511719 291.742188 400.449219 297.589844 C 398.007812 299.363281 396.488281 301.632812 395.664062 304.457031 C 394.457031 308.574219 394.570312 312.679688 395.8125 316.777344 C 396.246094 318.191406 396.707031 319.609375 396.988281 321.0625 C 397.863281 325.59375 397.179688 329.835938 394.164062 333.464844 C 391.625 336.527344 388.339844 338.230469 384.3125 338.359375 C 382.109375 338.425781 379.941406 338.304688 377.824219 337.550781 C 374.039062 336.203125 371.757812 333.578125 370.851562 329.683594 C 370.421875 327.835938 370.40625 325.972656 370.574219 324.113281 C 370.730469 322.367188 370.933594 320.625 371.3125 318.902344 C 372.234375 314.667969 372.390625 310.417969 371.441406 306.164062 C 370.710938 302.886719 369.339844 299.941406 366.882812 297.574219 C 365.964844 296.6875 364.929688 295.984375 363.792969 295.410156 C 358.9375 292.960938 353.753906 291.621094 348.386719 290.933594 C 339.675781 289.816406 331.222656 291.285156 322.875 293.585938 C 316.691406 295.285156 310.910156 297.867188 305.746094 301.75 C 297.882812 307.660156 292.09375 315.148438 288.300781 324.230469 C 286.195312 329.269531 284.550781 334.417969 283.84375 339.851562 C 283.328125 343.839844 283.402344 347.835938 283.472656 351.84375 C 283.511719 354.085938 283.507812 356.328125 283.789062 358.550781 C 284.140625 361.347656 284.113281 364.132812 283.6875 366.914062 C 283.386719 368.890625 282.816406 370.769531 281.609375 372.402344 C 279.859375 374.769531 277.519531 375.46875 274.789062 374.386719 C 272.984375 373.667969 271.414062 372.570312 269.972656 371.277344 C 266.0625 367.761719 262.894531 363.648438 260.15625 359.175781 C 253.765625 348.746094 249.75 337.453125 247.664062 325.414062 C 246.445312 318.378906 245.542969 311.308594 244.863281 304.210938 C 244.570312 301.152344 244.664062 298.066406 244.796875 294.992188 C 244.824219 294.386719 244.910156 293.777344 245.199219 293.242188 C 245.519531 292.65625 246.027344 292.585938 246.445312 293.164062 C 246.855469 293.730469 247.375 293.992188 247.777344 293.476562 C 248.71875 292.253906 250.285156 292.019531 251.339844 291.011719 C 252.378906 290.019531 253.578125 289.25 254.84375 288.578125 C 255.035156 288.476562 255.242188 288.363281 255.375 288.203125 C 256.117188 287.296875 257.097656 286.828125 258.101562 286.253906 C 259.703125 285.332031 261.492188 284.640625 262.890625 283.421875 C 264.121094 282.347656 265.628906 281.847656 266.96875 281.015625 C 267.015625 280.988281 267.082031 280.988281 267.117188 280.953125 C 268.863281 279.195312 271.347656 278.605469 273.246094 277.070312 C 274.554688 276.011719 275.960938 275.054688 277.5625 274.449219 C 278.292969 274.171875 278.96875 273.742188 279.46875 273.199219 C 280.242188 272.367188 281.191406 271.707031 282.148438 271.347656 C 283.808594 270.726562 284.957031 269.484375 286.339844 268.535156 C 286.839844 268.191406 287.304688 267.863281 287.902344 267.675781 C 288.632812 267.445312 289.316406 267.027344 289.722656 266.339844 C 290.15625 265.609375 290.765625 265.269531 291.585938 265.167969 C 292.667969 265.035156 293.492188 264.28125 294.265625 263.675781 C 296.414062 261.980469 298.875 260.765625 301.003906 259.054688 C 301.640625 258.546875 302.375 258.167969 303.039062 257.691406 C 304.847656 256.394531 306.5625 254.949219 308.691406 254.171875 C 309.488281 252.894531 311.34375 252.945312 312.019531 251.507812 C 312.121094 251.296875 312.367188 251.273438 312.585938 251.230469 C 313.671875 251.011719 314.453125 250.390625 314.964844 249.410156 C 315.039062 249.265625 315.152344 249.039062 315.257812 249.03125 C 317.0625 248.933594 317.667969 246.964844 319.300781 246.488281 C 320.164062 246.238281 321.070312 245.636719 321.613281 244.742188 C 321.75 244.519531 321.984375 244.21875 322.191406 244.203125 C 323.382812 244.113281 323.847656 243.035156 324.683594 242.496094 C 326.804688 241.121094 328.527344 239.289062 330.496094 237.757812 C 331.914062 236.65625 333.464844 235.71875 334.894531 234.617188 C 336.054688 233.726562 337.300781 233.476562 338.855469 233.675781 C 342.28125 234.105469 345.523438 235.207031 348.753906 236.242188 C 350.605469 236.835938 352.570312 237.105469 354.339844 237.976562 C 354.660156 238.136719 355.089844 238.097656 355.472656 238.121094 C 356.824219 238.195312 358.195312 238.175781 359.457031 238.792969 C 359.652344 238.886719 359.882812 238.992188 360.085938 238.972656 C 361.832031 238.804688 363.5 239.113281 365.195312 239.53125 C 365.894531 239.707031 366.710938 239.621094 367.441406 239.863281 C 367.867188 240.003906 368.277344 240.097656 368.726562 239.976562 C 369.496094 239.769531 370.269531 239.914062 371 240.105469 C 372.183594 240.414062 373.375 240.320312 374.5625 240.390625 C 375.972656 240.476562 377.367188 240.675781 378.757812 240.238281 C 379.035156 240.148438 379.28125 240.347656 379.488281 240.535156 C 379.746094 240.761719 380.0625 240.960938 380.382812 240.832031 C 381.460938 240.410156 382.566406 240.851562 383.640625 240.679688 C 384.089844 240.609375 384.5 240.570312 384.902344 240.828125 C 385.191406 241.007812 385.519531 241.066406 385.855469 240.980469 C 387.972656 240.453125 390.101562 241.007812 392.199219 240.921875 C 394.460938 240.828125 396.789062 241.007812 399.007812 240.316406 C 399.589844 240.132812 400.136719 239.953125 400.765625 240.039062 C 401.582031 240.148438 402.390625 240.136719 403.164062 239.714844 C 403.957031 239.277344 404.84375 239.824219 405.730469 239.449219 C 407.328125 238.773438 409.148438 239.125 410.832031 238.527344 C 411.671875 238.226562 412.769531 238.800781 413.691406 238.269531 C 414.511719 237.796875 415.414062 237.652344 416.300781 237.394531 C 418.515625 236.761719 420.808594 236.628906 423.019531 236.066406 C 424.546875 235.679688 426.042969 235.15625 427.542969 234.671875 C 428.917969 234.226562 429.90625 234.640625 431.109375 235.511719 C 432.9375 236.835938 434.476562 238.597656 436.574219 239.515625 C 439.9375 240.984375 442.277344 243.878906 445.375 245.710938 C 445.847656 245.988281 446.257812 246.351562 446.835938 246.394531 C 446.941406 246.402344 447.078125 246.398438 447.152344 246.460938 C 448.738281 247.792969 450.835938 248.398438 452.210938 250.019531 C 452.460938 250.3125 452.636719 250.6875 453.050781 250.753906 C 454.472656 250.984375 455.28125 252.234375 456.492188 252.835938 C 456.992188 253.082031 457.417969 253.535156 458.019531 253.683594 C 458.386719 253.773438 458.8125 253.894531 459.058594 254.152344 C 461.105469 256.292969 463.980469 257.128906 466.316406 258.804688 C 466.445312 258.898438 466.636719 258.921875 466.75 259.03125 C 469.273438 261.402344 472.46875 262.714844 475.390625 264.449219 C 476.429688 265.066406 477.328125 265.808594 478.304688 266.46875 C 480.3125 267.835938 482.15625 269.46875 484.5 270.367188 C 485.5625 270.773438 486.414062 271.734375 487.367188 272.433594 C 487.71875 272.691406 488.066406 273.058594 488.460938 273.136719 C 490.652344 273.566406 491.960938 275.273438 493.558594 276.5625 C 493.769531 276.730469 493.914062 277.054688 494.140625 277.117188 C 496.671875 277.792969 498.285156 280.109375 500.792969 280.820312 C 501.183594 280.929688 501.394531 281.273438 501.597656 281.605469 C 501.769531 281.898438 502.019531 282.082031 502.347656 282.207031 C 504.039062 282.847656 505.605469 283.683594 506.902344 285 C 507.347656 285.453125 507.996094 285.734375 508.59375 285.988281 C 509.304688 286.289062 510.023438 286.554688 510.605469 287.078125 C 510.945312 287.382812 511.332031 287.558594 511.792969 287.566406 C 512.128906 287.570312 512.433594 287.660156 512.726562 287.839844 C 515.742188 289.714844 518.921875 291.292969 522.023438 293.007812 C 522.941406 293.519531 523.597656 294.121094 523.945312 295.121094 C 525.417969 299.335938 526.585938 303.652344 526.894531 308.089844 C 527.386719 315.179688 526.789062 322.214844 525.089844 329.148438 Z M 295.222656 435.796875 C 295.171875 428.503906 295.078125 421.207031 295.519531 413.917969 C 295.53125 412.160156 295.539062 410.40625 295.167969 408.675781 C 294.699219 406.488281 293.695312 405.578125 291.480469 405.503906 C 290.800781 405.480469 290.679688 405.164062 290.550781 404.636719 C 290.257812 403.457031 289.5 402.695312 288.269531 402.585938 C 287.113281 402.484375 286.265625 403.078125 285.738281 404.078125 C 285.414062 404.6875 285.078125 405.371094 284.3125 405.179688 C 283.445312 404.964844 283.792969 404.09375 283.757812 403.496094 C 283.660156 401.859375 283.800781 400.199219 283.34375 398.59375 C 282.820312 396.746094 281.617188 395.773438 279.734375 395.925781 C 278.796875 396.003906 278.398438 395.789062 278.0625 394.882812 C 277.5 393.359375 275.890625 392.703125 274.589844 393.515625 C 273.613281 394.121094 272.578125 394.601562 271.605469 395.195312 C 270.898438 395.625 270.328125 396.230469 269.863281 396.921875 C 269.050781 398.128906 267.929688 402.945312 268.261719 404.367188 C 269.011719 407.574219 269.238281 410.871094 269.96875 414.085938 C 270.304688 415.578125 270.492188 417.070312 270.15625 418.636719 C 269.878906 419.914062 270.046875 421.253906 270.28125 422.5625 C 270.761719 425.234375 271.78125 427.71875 272.824219 430.195312 C 273.546875 431.90625 273.558594 433.71875 273.722656 435.511719 C 273.765625 435.964844 273.601562 436.371094 273.359375 436.753906 C 271.863281 439.148438 272.425781 440.617188 274.167969 442.511719 C 274.90625 443.3125 275.390625 444.144531 275.734375 445.148438 C 276.160156 446.390625 276.59375 447.691406 277.691406 448.511719 C 278.523438 449.136719 279.023438 449.929688 279.453125 450.828125 C 280.144531 452.273438 280.992188 453.617188 282.203125 454.691406 C 283.097656 455.488281 284.089844 456.058594 285.339844 455.636719 C 286.015625 455.40625 286.476562 455.664062 286.960938 456.09375 C 288.03125 457.035156 289.101562 457.972656 290.332031 458.710938 C 292.296875 459.890625 295.945312 458.765625 295.878906 455.523438 C 295.839844 453.546875 295.890625 451.570312 295.777344 449.601562 C 295.515625 445.003906 295.257812 440.402344 295.222656 435.796875 Z M 389.277344 397.875 C 389.347656 395.621094 388.082031 394.464844 385.914062 394.761719 C 385.285156 394.847656 384.722656 394.707031 384.128906 394.628906 C 382.792969 394.464844 381.734375 395.070312 381.269531 396.332031 C 380.835938 397.515625 380.492188 398.722656 380.878906 400.027344 C 381.128906 400.875 381.09375 401.78125 380.953125 402.644531 C 380.554688 405.148438 380.507812 407.6875 380.492188 410.195312 C 380.429688 419.308594 379.90625 428.410156 380.089844 437.523438 C 380.15625 440.824219 379.898438 444.105469 379.636719 447.382812 C 379.042969 454.710938 378.367188 462.027344 377.988281 469.371094 C 377.878906 471.503906 377.816406 473.644531 377.660156 475.777344 C 377.195312 482.234375 376.632812 488.6875 376.746094 496.121094 C 376.28125 500.992188 377.152344 506.664062 378.738281 512.25 C 379.007812 513.199219 379.265625 514.15625 379.734375 515.03125 C 380.273438 516.035156 381.082031 516.621094 382.25 516.574219 C 383.445312 516.527344 384.339844 515.972656 384.867188 514.878906 C 385.179688 514.226562 385.296875 513.519531 385.3125 512.800781 C 385.339844 511.648438 385.324219 510.5 385.226562 509.347656 C 385.023438 506.996094 385.007812 504.632812 385.164062 502.277344 C 385.316406 499.976562 385.589844 497.683594 385.644531 495.382812 C 385.851562 486.988281 385.703125 478.59375 385.953125 470.195312 C 386.128906 464.273438 386.039062 458.339844 386.054688 452.410156 C 386.058594 451.453125 386.125 450.578125 386.953125 449.894531 C 387.640625 449.328125 387.773438 448.488281 387.71875 447.636719 C 387.613281 446.050781 387.433594 444.46875 387.378906 442.878906 C 387.21875 437.886719 387.390625 432.898438 387.636719 427.90625 C 387.835938 423.902344 388.304688 419.929688 388.535156 415.933594 C 388.726562 412.652344 389.179688 409.371094 388.847656 406.074219 C 388.746094 405.085938 388.761719 404.117188 388.871094 403.125 C 389.0625 401.382812 389.222656 399.628906 389.277344 397.875 Z M 389.277344 397.875 " fill-opacity="1" fill-rule="nonzero"/><path fill="#ffefe4" d="M 498.527344 281.070312 C 498.09375 284.15625 496.597656 286.359375 493.515625 287.367188 C 492.359375 287.746094 491.175781 287.984375 489.992188 288.117188 C 488.964844 288.234375 487.925781 287.949219 486.921875 287.691406 C 485.371094 287.289062 483.953125 286.566406 482.554688 285.796875 C 480.820312 284.84375 479.761719 283.378906 479.191406 281.515625 C 479.097656 281.214844 479.152344 280.835938 478.75 280.695312 C 478.347656 280.753906 478.300781 281.125 478.132812 281.390625 C 477.902344 281.761719 477.695312 282.148438 477.445312 282.507812 C 476.210938 284.296875 474.390625 284.574219 472.476562 284.214844 C 469.894531 283.734375 467.296875 283.316406 464.796875 282.429688 C 462.394531 281.578125 460.460938 280.125 458.808594 278.234375 C 458.402344 277.765625 458.207031 277.199219 458 276.628906 C 457.816406 276.128906 457.820312 275.550781 457.507812 275.132812 C 456.953125 275.0625 456.921875 275.472656 456.824219 275.753906 C 456.035156 278.046875 454.3125 278.90625 452.023438 279.03125 C 449.449219 279.167969 447.019531 278.503906 444.589844 277.84375 C 443.375 277.515625 442.164062 277.125 441 276.648438 C 437.734375 275.3125 435.179688 273.191406 433.800781 269.839844 C 433.699219 269.597656 433.679688 269.296875 433.289062 269.183594 C 432.988281 269.847656 432.65625 270.515625 432.375 271.203125 C 431.925781 272.304688 431.050781 272.949219 430.015625 273.367188 C 429.050781 273.753906 428.039062 274.011719 426.984375 274.074219 C 424.722656 274.199219 422.496094 273.976562 420.316406 273.359375 C 418.46875 272.835938 416.664062 272.171875 414.90625 271.402344 C 412.957031 270.550781 411.347656 269.257812 410.128906 267.542969 C 409.597656 267.578125 409.691406 268.007812 409.609375 268.28125 C 409.292969 269.386719 409.007812 270.492188 408.519531 271.550781 C 407.703125 273.316406 406.328125 274.40625 404.578125 275.066406 C 402.195312 275.964844 399.714844 276.332031 397.175781 276.386719 C 394.035156 276.457031 390.945312 276.054688 387.894531 275.363281 C 386.335938 275.007812 384.886719 274.375 383.683594 273.246094 C 382.523438 272.160156 381.765625 270.871094 381.375 269.339844 C 381.28125 268.972656 381.230469 268.585938 380.960938 268.285156 C 380.867188 268.316406 380.710938 268.324219 380.691406 268.378906 C 380.054688 270.152344 378.71875 271.382812 377.402344 272.625 C 376.832031 273.164062 376.109375 273.449219 375.414062 273.769531 C 372.027344 275.316406 368.484375 276.152344 364.742188 276.058594 C 363.046875 276.019531 361.359375 276.070312 359.671875 275.722656 C 357.152344 275.207031 354.886719 274.152344 352.769531 272.75 C 351.371094 271.820312 350.492188 270.554688 350.453125 268.804688 C 350.441406 268.320312 350.441406 267.804688 349.847656 267.445312 C 349.351562 267.792969 348.789062 268.128906 348.292969 268.539062 C 346.566406 269.972656 344.570312 270.84375 342.425781 271.394531 C 340.300781 271.945312 338.171875 272.472656 335.957031 272.445312 C 335.792969 272.445312 335.625 272.457031 335.464844 272.496094 C 333.28125 273.042969 331.234375 272.4375 329.207031 271.742188 C 328.261719 271.417969 327.566406 270.679688 326.746094 270.066406 C 326.15625 270.332031 326.058594 270.917969 325.824219 271.378906 C 325.175781 272.65625 324.492188 273.890625 323.464844 274.921875 C 321.804688 276.601562 319.835938 277.746094 317.566406 278.34375 C 316.085938 278.734375 314.589844 279.105469 313.03125 279.023438 C 312.761719 279.011719 312.46875 278.996094 312.214844 279.070312 C 310.175781 279.6875 308.195312 279.09375 306.203125 278.804688 C 304.652344 278.578125 303.558594 277.800781 303.160156 276.207031 C 303.125 276.058594 303.011719 275.925781 302.914062 275.742188 C 302.332031 275.855469 302.171875 276.386719 301.953125 276.769531 C 300.097656 279.972656 297.25 281.886719 293.867188 283.136719 C 292.003906 283.828125 290.089844 284.277344 288.128906 284.546875 C 286.410156 284.78125 284.734375 284.628906 283.191406 283.726562 C 282.910156 283.5625 282.617188 283.417969 282.25 283.21875 C 281.75 283.722656 281.234375 284.195312 280.769531 284.714844 C 279.628906 285.996094 278.160156 286.742188 276.542969 287.117188 C 273.324219 287.863281 270.042969 288.050781 266.746094 287.886719 C 265.804688 287.839844 264.910156 287.503906 264.082031 287.085938 C 263.070312 286.578125 262.671875 285.601562 262.441406 284.550781 C 262.363281 284.179688 262.566406 283.9375 262.820312 283.703125 C 263.957031 282.640625 265.296875 281.902344 266.722656 281.335938 C 267.515625 281.019531 268.183594 280.605469 268.625 279.851562 C 268.851562 279.464844 269.183594 279.128906 269.648438 279.089844 C 271.296875 278.953125 272.390625 277.785156 273.613281 276.910156 C 274.6875 276.144531 275.746094 275.335938 276.976562 274.902344 C 278.105469 274.503906 278.996094 273.820312 279.863281 273.078125 C 280.992188 272.109375 282.226562 271.324219 283.59375 270.753906 C 284.105469 270.539062 284.609375 270.328125 284.929688 269.847656 C 285.152344 269.519531 285.464844 269.320312 285.800781 269.121094 C 286.769531 268.546875 287.566406 267.714844 288.738281 267.449219 C 289.238281 267.335938 289.699219 266.917969 289.898438 266.355469 C 290.085938 265.835938 290.476562 265.574219 291.003906 265.492188 C 292.300781 265.296875 293.34375 264.507812 294.332031 263.785156 C 295.785156 262.710938 297.398438 261.902344 298.835938 260.824219 C 299.054688 260.660156 299.289062 260.515625 299.5 260.339844 C 299.835938 260.058594 300.125 259.710938 300.492188 259.480469 C 300.953125 259.199219 301.472656 259.007812 301.90625 258.804688 C 302.515625 258.785156 302.511719 259.484375 302.972656 259.5625 C 303.0625 259.5 303.203125 259.453125 303.226562 259.375 C 303.328125 259.007812 303.40625 258.632812 303.480469 258.261719 C 303.675781 257.269531 304.132812 256.527344 305.210938 256.304688 C 305.46875 256.253906 305.785156 256.144531 305.929688 255.953125 C 306.5625 255.117188 307.539062 254.839844 308.390625 254.367188 C 308.726562 254.179688 309.113281 254.066406 309.34375 253.742188 C 309.78125 253.128906 310.347656 252.746094 311.09375 252.625 C 311.199219 252.609375 311.351562 252.578125 311.390625 252.503906 C 311.941406 251.488281 313.046875 251.367188 313.933594 250.890625 C 314.371094 250.652344 314.75 250.34375 314.929688 249.84375 C 315.148438 249.226562 315.585938 248.859375 316.230469 248.707031 C 316.488281 248.644531 316.828125 248.570312 316.964844 248.378906 C 318.015625 246.949219 319.765625 246.5625 321.089844 245.554688 C 321.222656 245.453125 321.375 245.375 321.480469 245.253906 C 322.242188 244.347656 323.339844 243.949219 324.320312 243.316406 C 325.042969 243.730469 325.511719 244.3125 325.898438 244.988281 C 326.238281 245.582031 326.375 246.316406 326.964844 246.734375 C 327.476562 246.503906 327.414062 246.058594 327.5 245.710938 C 328 243.683594 328.585938 241.683594 329.261719 239.710938 C 329.527344 238.945312 329.941406 238.34375 330.613281 237.90625 C 332.171875 236.890625 333.671875 235.792969 335.082031 234.582031 C 336.027344 233.769531 337.144531 233.652344 338.316406 233.738281 C 338.75 233.769531 339.183594 233.835938 339.617188 233.886719 C 341.941406 234.15625 344.09375 234.894531 345.890625 236.421875 C 347.410156 237.710938 348.636719 239.242188 349.464844 241.085938 C 350.070312 242.429688 350.816406 243.710938 351.199219 245.085938 C 351.878906 245.179688 351.921875 244.722656 352.058594 244.394531 C 352.777344 242.671875 353.574219 241 354.714844 239.492188 C 355.332031 238.675781 356 238.390625 356.976562 238.632812 C 357.5 238.765625 358.058594 238.769531 358.601562 238.828125 C 358.980469 238.871094 359.421875 238.808594 359.726562 238.980469 C 360.410156 239.367188 361.085938 239.265625 361.796875 239.191406 C 362.28125 239.140625 362.828125 239.09375 363.261719 239.269531 C 364.148438 239.625 365.074219 239.554688 365.96875 239.71875 C 368.34375 240.15625 370.773438 240.015625 373.128906 240.550781 C 373.558594 240.648438 373.976562 240.773438 374.425781 240.65625 C 375.425781 240.390625 376.121094 240.871094 376.675781 241.628906 C 377.394531 242.605469 377.960938 243.667969 378.398438 244.800781 C 378.695312 245.570312 378.984375 246.339844 379.285156 247.105469 C 379.378906 247.347656 379.417969 247.640625 379.730469 247.734375 C 380.164062 247.632812 380.089844 247.230469 380.179688 246.945312 C 380.75 245.207031 381.527344 243.589844 382.691406 242.167969 C 383.351562 241.363281 384.070312 240.75 385.214844 241.078125 C 385.367188 241.125 385.554688 241.136719 385.703125 241.085938 C 387.09375 240.605469 388.539062 241.011719 389.945312 240.816406 C 390.109375 240.796875 390.285156 240.773438 390.4375 240.816406 C 392.726562 241.46875 395.007812 240.601562 397.292969 240.796875 C 397.507812 240.816406 397.753906 240.828125 397.945312 240.75 C 399.554688 240.09375 401.296875 240.285156 402.949219 239.929688 C 404.035156 239.695312 404.859375 239.96875 405.59375 240.792969 C 406.515625 241.828125 407.253906 242.960938 407.738281 244.269531 C 407.921875 244.765625 407.9375 245.351562 408.394531 245.707031 C 408.875 245.691406 408.921875 245.308594 409.007812 245.019531 C 409.476562 243.367188 410.351562 241.898438 411.074219 240.359375 C 411.46875 239.519531 412.007812 238.882812 412.953125 238.675781 C 413.058594 238.65625 413.175781 238.628906 413.261719 238.566406 C 415.085938 237.257812 417.300781 237.363281 419.351562 236.886719 C 421.050781 236.492188 422.804688 236.324219 424.464844 235.742188 C 424.992188 235.554688 425.433594 235.644531 425.816406 236.03125 C 426.550781 236.769531 427.316406 237.464844 427.921875 238.332031 C 429.871094 241.109375 431.152344 244.175781 432.023438 247.433594 C 432.160156 247.953125 432.191406 248.511719 432.570312 248.949219 C 432.675781 248.875 432.816406 248.832031 432.84375 248.753906 C 433.453125 246.757812 434.796875 245.222656 436.050781 243.628906 C 436.21875 243.414062 436.417969 243.222656 436.617188 243.035156 C 438.046875 241.703125 438.355469 241.640625 440.023438 242.648438 C 441.847656 243.753906 443.601562 244.988281 445.457031 246.042969 C 446.792969 246.800781 448.058594 247.660156 449.363281 248.464844 C 450.34375 249.070312 451.3125 249.691406 452.261719 250.34375 C 452.667969 250.625 453.039062 250.945312 453.527344 251.089844 C 454.328125 251.324219 454.820312 251.890625 455.109375 252.644531 C 455.460938 253.566406 455.808594 254.488281 456.132812 255.417969 C 456.367188 256.085938 456.5625 256.769531 456.777344 257.441406 C 457.296875 257.390625 457.207031 256.96875 457.332031 256.71875 C 457.527344 256.324219 457.636719 255.894531 457.828125 255.5 C 458.488281 254.160156 458.894531 254.078125 460.019531 255.105469 C 460.46875 255.519531 460.929688 255.886719 461.523438 256.074219 C 461.945312 256.207031 462.296875 256.46875 462.617188 256.78125 C 462.804688 256.96875 463.042969 257.171875 463.289062 257.226562 C 464.515625 257.492188 465.363281 258.4375 466.457031 258.9375 C 466.769531 259.078125 467 259.316406 467.144531 259.617188 C 467.515625 260.378906 468.171875 260.683594 468.941406 260.917969 C 469.992188 261.238281 470.992188 261.691406 471.75 262.542969 C 471.820312 262.625 471.898438 262.722656 471.992188 262.761719 C 473.320312 263.28125 474.449219 264.171875 475.71875 264.773438 C 476.382812 265.089844 476.957031 265.4375 477.453125 265.953125 C 478.066406 266.589844 478.6875 267.207031 479.566406 267.472656 C 479.722656 267.519531 479.917969 267.570312 480.003906 267.6875 C 480.671875 268.617188 481.765625 268.953125 482.632812 269.601562 C 483.207031 270.03125 483.753906 270.476562 484.519531 270.507812 C 484.675781 270.511719 484.890625 270.574219 484.96875 270.683594 C 485.574219 271.585938 486.6875 271.832031 487.386719 272.605469 C 487.851562 273.113281 488.398438 273.433594 489.113281 273.425781 C 489.769531 273.417969 490.273438 273.761719 490.660156 274.242188 C 491.566406 275.367188 492.960938 275.914062 493.878906 277.03125 C 494.066406 277.261719 494.441406 277.367188 494.75 277.457031 C 495.566406 277.6875 496.246094 278.105469 496.820312 278.734375 C 497.109375 279.054688 497.449219 279.367188 497.828125 279.5625 C 498.492188 279.898438 498.617188 280.425781 498.527344 281.070312 Z M 408.882812 460.410156 C 406.78125 461.027344 405.757812 462.503906 405.445312 464.582031 C 405.382812 465.015625 405.34375 465.457031 405.238281 465.882812 C 404.503906 468.75 406.5625 472.988281 411.054688 473.351562 C 414.679688 473.644531 417.820312 471.261719 418.695312 467.695312 C 418.867188 466.992188 418.957031 466.289062 418.917969 465.578125 C 418.867188 464.6875 419.144531 463.980469 419.855469 463.414062 C 420.992188 462.511719 421.75 461.300781 422.449219 460.050781 C 422.773438 459.476562 423.0625 458.878906 423.457031 458.355469 C 425.339844 455.84375 426.300781 452.933594 427.152344 449.972656 C 427.957031 447.171875 428.3125 444.28125 428.746094 441.410156 C 428.949219 440.0625 429.03125 438.691406 429.113281 437.324219 C 429.164062 436.503906 429.167969 435.691406 429.34375 434.875 C 429.613281 433.609375 429.460938 432.363281 428.921875 431.171875 C 428.539062 430.328125 427.859375 429.917969 426.964844 429.929688 C 426.085938 429.945312 425.355469 430.324219 424.964844 431.144531 C 424.753906 431.582031 424.664062 432.082031 424.535156 432.554688 C 424.175781 433.894531 424.175781 435.269531 424.15625 436.640625 C 424.152344 436.855469 424.101562 437.085938 423.863281 437.183594 C 423.628906 437.28125 423.441406 437.152344 423.273438 437.011719 C 423.109375 436.867188 422.949219 436.714844 422.792969 436.5625 C 421.757812 435.542969 420.539062 435.027344 419.21875 435.15625 C 418.46875 435.164062 417.851562 435.105469 417.28125 435.339844 C 415.238281 436.183594 413.277344 437.125 412.152344 439.214844 C 410.503906 442.269531 409.191406 445.457031 408.203125 448.78125 C 408.011719 449.421875 408.050781 450.085938 408.078125 450.742188 C 408.105469 451.429688 408.300781 452.078125 408.882812 452.472656 C 409.566406 452.9375 409.65625 453.578125 409.726562 454.320312 C 409.835938 455.460938 409.9375 456.636719 410.292969 457.714844 C 410.964844 459.75 410.527344 459.925781 408.882812 460.410156 Z M 368.226562 440.894531 C 366.257812 436.515625 360.695312 435.84375 357.542969 439.175781 C 355.558594 441.269531 354.890625 443.964844 355.164062 446.796875 C 355.285156 448.050781 355.390625 449.296875 355.402344 450.554688 C 355.40625 450.996094 355.382812 451.4375 355.433594 451.871094 C 355.636719 453.605469 357.011719 454.667969 358.757812 454.402344 C 359.265625 454.324219 359.726562 454.417969 360.214844 454.464844 C 361.789062 454.621094 363.386719 454.917969 364.832031 453.929688 C 365.183594 453.6875 365.558594 453.824219 365.941406 453.855469 C 367.523438 453.980469 368.78125 453.054688 369.253906 451.519531 C 369.601562 450.390625 369.550781 449.246094 369.554688 448.09375 C 369.625 445.601562 369.261719 443.195312 368.226562 440.894531 Z M 429.9375 545.527344 C 429.386719 544.121094 428.535156 542.933594 427.375 541.972656 C 425.0625 540.058594 421.882812 540.738281 420.671875 543.445312 C 420.394531 544.066406 419.996094 544.550781 419.566406 545.046875 C 417.363281 547.621094 416.382812 550.472656 417.574219 553.835938 C 418.433594 556.25 421.210938 558.335938 423.910156 558.351562 C 425.324219 558.160156 426.871094 557.785156 428.144531 556.566406 C 429.546875 555.222656 430.367188 553.601562 430.738281 551.738281 C 430.882812 550.996094 431.175781 550.269531 431.019531 549.476562 C 430.757812 548.128906 430.4375 546.804688 429.9375 545.527344 Z M 361.515625 548.878906 C 363.695312 549.804688 365.867188 549.644531 367.785156 548.292969 C 369.546875 547.058594 370.875 545.449219 370.53125 543.234375 C 370.558594 542.105469 370.535156 541.195312 370.097656 540.316406 C 368.871094 537.859375 366.960938 536.261719 364.320312 535.574219 C 362.996094 535.230469 361.644531 534.964844 360.296875 534.730469 C 358.523438 534.417969 356.707031 535.328125 355.910156 536.945312 C 355.164062 538.460938 354.757812 540.03125 355.496094 541.695312 C 355.78125 542.347656 355.984375 543.039062 356.273438 543.6875 C 357.347656 546.09375 359.097656 547.84375 361.515625 548.878906 Z M 416.675781 509.554688 C 416.128906 508.753906 415.335938 508.109375 414.601562 507.453125 C 413.679688 506.628906 412.535156 506.25 411.492188 506.042969 C 410.015625 506.054688 408.242188 507.167969 407.515625 508.570312 C 407.203125 509.167969 406.816406 509.664062 406.375 510.15625 C 405.300781 511.363281 404.53125 512.730469 404.242188 514.34375 C 403.660156 517.609375 404.859375 521.035156 409.046875 522.117188 C 409.570312 522.253906 410.085938 522.441406 410.65625 522.371094 C 412.511719 522.148438 414.128906 521.414062 415.476562 520.125 C 416.960938 518.714844 417.710938 516.929688 418.089844 514.945312 C 418.480469 512.90625 417.769531 511.15625 416.675781 509.554688 Z M 396.671875 483.992188 C 395.878906 484.886719 395.09375 485.828125 394.496094 486.863281 C 393.164062 489.171875 392.925781 491.605469 394.117188 494.078125 C 395.46875 496.878906 399.320312 498.074219 401.789062 497.496094 C 404.84375 496.78125 407.730469 493.238281 407.398438 490.25 C 407.488281 489.238281 407.257812 488.21875 406.765625 487.289062 C 405.429688 484.757812 403.292969 483.234375 400.53125 482.652344 C 399.042969 482.339844 397.6875 482.847656 396.671875 483.992188 Z M 441.300781 484.65625 C 441.351562 483.910156 441.171875 483.117188 440.953125 482.316406 C 440.519531 480.753906 439.640625 479.414062 438.804688 478.078125 C 437.296875 475.675781 433.867188 475.445312 432.296875 476.734375 C 430.261719 478.402344 428.71875 480.324219 428.007812 482.96875 C 427.246094 485.789062 428.792969 489.921875 432.320312 491.265625 C 434.429688 492.066406 436.464844 491.863281 438.265625 490.613281 C 440.257812 489.234375 441.390625 487.269531 441.300781 484.65625 Z M 459.3125 487.320312 C 458.617188 487.472656 457.945312 487.773438 457.246094 487.828125 C 456.183594 487.910156 455.378906 488.375 454.679688 489.128906 C 454.269531 489.570312 453.808594 489.964844 453.410156 490.417969 C 451.945312 492.085938 451.105469 494.003906 451.183594 496.261719 C 451.3125 500.105469 454.523438 502.886719 457.507812 502.691406 C 458.148438 502.679688 458.746094 502.671875 459.34375 502.539062 C 462.058594 501.949219 464.542969 498.402344 463.835938 495.433594 C 463.660156 494.691406 463.710938 494.035156 464.160156 493.402344 C 464.480469 492.949219 464.625 492.425781 464.664062 491.859375 C 464.871094 488.835938 462.316406 486.65625 459.3125 487.320312 Z M 375.964844 514.203125 C 375.410156 513.675781 374.855469 513.132812 374.375 512.539062 C 372.796875 510.589844 371.097656 510.089844 368.714844 510.929688 C 367.398438 511.394531 366.460938 512.246094 366.003906 513.585938 C 365.488281 515.109375 365.667969 516.734375 365.339844 518.285156 C 365.671875 520.648438 366.253906 522.839844 368.144531 524.570312 C 369.492188 525.800781 370.902344 526.492188 372.585938 526.40625 C 373.359375 526.402344 374.027344 526.449219 374.640625 526.148438 C 377.269531 524.855469 378.742188 522.84375 378.558594 519.902344 C 378.425781 517.722656 377.601562 515.753906 375.964844 514.203125 Z M 395.46875 562.195312 C 394.3125 561.242188 392.878906 560.777344 391.308594 561.382812 C 390.734375 561.601562 390.21875 561.882812 389.785156 562.320312 C 389.285156 562.828125 388.796875 563.347656 388.269531 563.828125 C 386.667969 565.289062 385.914062 567.09375 385.988281 569.265625 C 386.082031 571.902344 387.085938 574.03125 389.460938 575.367188 C 391.128906 576.304688 392.933594 576.472656 394.707031 575.871094 C 397.753906 574.835938 399.039062 572.246094 399.15625 569.5625 C 399.292969 566.457031 397.753906 564.078125 395.46875 562.195312 Z M 370.5 566.304688 C 369.84375 564.59375 368.90625 563.035156 367.71875 561.671875 C 365.261719 558.847656 361.3125 559.9375 360.292969 562.972656 C 360.027344 563.761719 359.625 564.433594 359.101562 565.097656 C 358.164062 566.28125 357.6875 567.628906 357.933594 569.222656 C 358.359375 571.992188 359.976562 573.738281 362.417969 574.878906 C 365.410156 576.273438 368.964844 574.746094 370.179688 572.234375 C 370.695312 571.171875 370.960938 570.070312 370.855469 568.84375 C 370.925781 568.003906 370.820312 567.140625 370.5 566.304688 Z M 351.53125 473.246094 C 353.140625 474.175781 354.9375 474.503906 356.726562 474.644531 C 359.40625 474.855469 361.328125 472.921875 361.324219 470.152344 C 361.367188 469.566406 361.148438 468.933594 361.0625 468.285156 C 360.746094 466 359.347656 464.527344 357.410156 463.542969 C 356.566406 463.109375 355.863281 462.628906 355.234375 461.898438 C 353.964844 460.421875 351.429688 460.011719 349.972656 460.984375 C 348.464844 461.996094 347.527344 463.34375 347.851562 465.28125 C 347.925781 465.710938 348.019531 466.144531 348.148438 466.558594 C 348.347656 467.191406 348.472656 467.824219 348.5 468.492188 C 348.578125 470.660156 349.699219 472.1875 351.53125 473.246094 Z M 329.773438 471.066406 C 329.941406 471.066406 330.105469 471.046875 330.269531 471.066406 C 332.589844 471.335938 335.429688 468.371094 335.363281 466.011719 C 335.292969 463.417969 334.234375 461.457031 332.207031 460.003906 C 330.550781 458.816406 328.695312 458.519531 326.605469 458.683594 C 324.519531 458.847656 322.792969 459.425781 321.371094 460.9375 C 321.222656 461.09375 321.019531 461.207031 320.875 461.367188 C 319.75 462.617188 320.015625 464.328125 321.605469 465.246094 C 322.328125 465.660156 322.710938 466.175781 323.078125 466.882812 C 324.476562 469.570312 326.617188 471.15625 329.773438 471.066406 Z M 401.449219 536.6875 C 401.019531 535.480469 400.203125 534.632812 399.066406 534.105469 C 397.765625 533.503906 396.332031 533.386719 394.953125 533.066406 C 394.753906 533.023438 394.519531 533.097656 394.308594 533.152344 C 392.582031 533.578125 391.367188 534.582031 390.890625 536.335938 C 390.558594 537.546875 390.308594 538.78125 390.03125 540.007812 C 389.984375 540.21875 389.96875 540.445312 389.984375 540.660156 C 390.191406 543.558594 391.972656 545.769531 394.375 546.671875 C 395.078125 546.9375 395.828125 547.195312 396.609375 547.109375 C 399.890625 546.75 402.722656 544.0625 402.457031 540.664062 C 402.65625 539.285156 401.929688 538.019531 401.449219 536.6875 Z M 337.4375 536.652344 C 335.109375 536.5 332.996094 537.066406 331.304688 538.820312 C 330.574219 539.578125 329.976562 540.425781 329.511719 541.359375 C 328.988281 542.414062 328.84375 543.5625 328.980469 544.710938 C 329.3125 547.492188 330.925781 549.503906 333.871094 550.171875 C 335.710938 550.589844 337.351562 550.164062 338.808594 549.0625 C 340.734375 547.605469 341.597656 545.601562 341.578125 543.320312 C 341.621094 541.800781 341.230469 540.472656 340.773438 539.191406 C 340.234375 537.6875 339.054688 536.757812 337.4375 536.652344 Z M 449.648438 524.285156 C 449.097656 523.167969 448.335938 522.25 447.386719 521.515625 C 446.152344 520.570312 444.742188 520.121094 443.253906 520.90625 C 442.273438 521.425781 441.453125 522.199219 441.121094 523.292969 C 440.890625 524.039062 440.5625 524.710938 440.175781 525.371094 C 439.554688 526.433594 439.15625 527.554688 439.328125 528.628906 C 439.328125 529.03125 439.324219 529.25 439.328125 529.46875 C 439.34375 532.265625 441.308594 534.597656 444.0625 535.214844 C 448.082031 536.117188 451.75 532.527344 451.105469 528.4375 C 450.871094 526.957031 450.308594 525.617188 449.648438 524.285156 Z M 331.921875 488.835938 C 333.839844 490.257812 335.996094 490.4375 338.105469 489.398438 C 340.160156 488.394531 341.402344 486.730469 341.25 484.261719 C 341.25 483.46875 341.269531 482.660156 340.898438 481.878906 C 340.199219 480.40625 339.03125 479.476562 337.554688 478.90625 C 336.792969 478.609375 336.011719 478.332031 335.21875 478.15625 C 334.035156 477.894531 332.769531 477.6875 331.707031 478.375 C 330.828125 478.949219 329.902344 479.382812 328.976562 479.847656 C 328.164062 480.257812 327.601562 480.890625 327.226562 481.726562 C 326.035156 484.398438 327.371094 486.894531 329.800781 487.679688 C 330.601562 487.941406 331.253906 488.335938 331.921875 488.835938 Z M 343.613281 511.292969 C 343.09375 510.992188 342.59375 510.65625 342.101562 510.3125 C 340.910156 509.488281 339.628906 509.164062 338.21875 509.625 C 337.648438 509.8125 337.078125 510.015625 336.527344 510.257812 C 334.996094 510.9375 333.960938 512.574219 334.140625 514.234375 C 334.292969 515.644531 334.5 517.070312 335.027344 518.40625 C 335.835938 520.449219 337.199219 521.90625 339.382812 522.546875 C 343.15625 523.65625 346.851562 520.921875 346.855469 516.980469 C 346.851562 514.472656 345.804688 512.5625 343.613281 511.292969 Z M 318.414062 512.570312 C 318.128906 510.832031 316.6875 509.742188 314.921875 509.617188 C 313.929688 509.546875 312.960938 509.671875 311.992188 509.914062 C 310.597656 510.261719 309.699219 511.132812 309.121094 512.394531 C 308.824219 513.042969 308.554688 513.703125 308.277344 514.359375 C 307.492188 516.238281 307.449219 518.144531 308.421875 519.925781 C 309.546875 521.980469 311.109375 523.535156 313.765625 523.449219 C 317.273438 523.882812 320.105469 519.539062 319.328125 516.570312 C 318.980469 515.253906 318.636719 513.929688 318.414062 512.570312 Z M 434.09375 506.507812 C 433.144531 505.972656 432.15625 505.496094 431.164062 505.039062 C 428.546875 503.832031 425.472656 505.617188 425.199219 508.492188 C 425.15625 508.925781 425.191406 509.367188 425.191406 509.796875 C 425.070312 510.984375 425.316406 512.09375 425.796875 513.164062 C 425.953125 513.511719 426.054688 513.886719 426.167969 514.25 C 426.851562 516.5 428.9375 517.796875 431.226562 517.398438 C 431.65625 517.324219 432.089844 517.203125 432.519531 517.195312 C 435.1875 517.160156 437.578125 514.304688 437.324219 511.554688 C 437.125 509.347656 436.058594 507.605469 434.09375 506.507812 Z M 446.480469 470.632812 C 449.324219 470.535156 451.828125 467.894531 451.839844 464.984375 C 451.828125 463.449219 451.332031 462.078125 450.367188 460.898438 C 449.949219 460.390625 449.546875 459.882812 449.234375 459.300781 C 448.269531 457.492188 445.464844 456.410156 443.121094 458.25 C 442.695312 458.585938 442.28125 458.96875 441.953125 459.398438 C 440.304688 461.542969 439.441406 463.839844 440.507812 466.570312 C 441.472656 469.050781 443.847656 470.722656 446.480469 470.632812 Z M 357.789062 502.234375 C 359.699219 501.828125 361.648438 499.332031 361.324219 497.25 C 361.347656 496.5 361.320312 495.738281 360.964844 495.023438 C 360.710938 494.523438 360.648438 493.972656 360.671875 493.421875 C 360.714844 492.421875 360.324219 491.585938 359.667969 490.890625 C 358.734375 489.902344 357.605469 489.171875 356.199219 489.347656 C 355.011719 489.496094 353.851562 489.871094 352.679688 490.148438 C 350.800781 490.589844 349.332031 492.824219 349.925781 495.085938 C 350.191406 496.089844 350.429688 497.101562 350.753906 498.089844 C 350.90625 498.554688 351.082031 499.027344 351.328125 499.449219 C 352.710938 501.835938 355.117188 502.800781 357.789062 502.234375 Z M 312.125 495.097656 C 314.207031 495.128906 316.382812 493.710938 317.085938 492.015625 C 317.472656 491.089844 317.617188 490.160156 317.390625 489.132812 C 316.859375 486.726562 315.292969 485.359375 313.078125 484.617188 C 312.519531 484.429688 311.9375 484.230469 311.308594 484.328125 C 309.550781 484.601562 307.921875 485.222656 306.4375 486.1875 C 305.089844 487.0625 304.472656 488.453125 304.554688 489.984375 C 304.648438 491.753906 305.597656 493.101562 307.328125 493.71875 C 308.5625 494.160156 309.832031 494.511719 311.09375 494.882812 C 311.511719 495.003906 311.945312 495.0625 312.125 495.097656 Z M 296.417969 471.25 C 296.03125 471.082031 295.566406 471.089844 295.234375 471.035156 C 294.800781 471.085938 294.449219 471.0625 294.152344 471.175781 C 292.226562 471.917969 290.789062 473.128906 290.171875 475.210938 C 289.882812 476.171875 290.105469 477.050781 290.253906 477.960938 C 290.585938 479.96875 291.839844 481.128906 293.71875 481.722656 C 294.261719 481.898438 294.792969 481.933594 295.320312 481.710938 C 296.429688 481.242188 297.542969 480.78125 298.628906 480.269531 C 300.066406 479.59375 301.28125 477.195312 300.484375 475.308594 C 299.675781 473.394531 298.308594 472.054688 296.417969 471.25 Z M 296.417969 471.25 " fill-opacity="1" fill-rule="nonzero"/><g clip-path="url(#fda3853e10)"><path fill="#d75443" d="M 528.605469 313.824219 C 528.019531 308.363281 527.261719 302.933594 526.175781 297.554688 C 525.046875 291.988281 523.03125 286.722656 520.699219 281.546875 C 516.789062 272.855469 512.171875 264.589844 506.589844 256.863281 C 502.089844 250.632812 497.304688 244.625 492.546875 238.59375 C 488.738281 233.769531 484.949219 228.933594 480.816406 224.378906 C 478.085938 221.375 475.359375 218.367188 472.699219 215.300781 C 467.117188 208.863281 461.160156 202.8125 454.488281 197.496094 C 448.546875 192.761719 442.292969 188.527344 435.257812 185.550781 C 430.230469 183.421875 424.972656 182.417969 419.542969 182.546875 C 414.917969 182.65625 410.402344 183.570312 405.984375 184.976562 C 401.464844 186.410156 397.25 188.519531 393.046875 190.664062 C 389.785156 192.328125 386.285156 193.207031 382.65625 193.609375 C 379.207031 193.992188 376.042969 192.910156 372.90625 191.714844 C 368.648438 190.097656 364.605469 187.96875 360.316406 186.429688 C 352.722656 183.707031 344.90625 182.949219 336.980469 184.324219 C 328.964844 185.71875 321.773438 189.222656 315.066406 193.738281 C 310.640625 196.71875 306.605469 200.199219 302.71875 203.832031 C 295.375 210.695312 288.511719 218.019531 282.167969 225.824219 C 277.425781 231.660156 272.960938 237.707031 268.496094 243.757812 C 264.160156 249.632812 260.113281 255.707031 255.945312 261.695312 C 251.796875 267.65625 248.195312 273.9375 244.933594 280.410156 C 243.054688 284.140625 241.722656 288.132812 240.910156 292.230469 C 239.003906 301.851562 238.828125 311.628906 238.589844 321.390625 C 238.507812 324.738281 238.730469 328.085938 238.761719 331.429688 C 238.832031 339.175781 239.265625 346.886719 240.109375 354.582031 C 240.8125 360.972656 241.808594 367.308594 243.09375 373.601562 C 244.816406 382.058594 247.167969 390.34375 250.070312 398.472656 C 252.808594 406.136719 255.980469 413.609375 260.253906 420.5625 C 264.109375 426.835938 268.761719 432.289062 275.929688 434.964844 C 276.464844 435.164062 277.011719 435.824219 277.5625 435.339844 C 278.039062 434.921875 277.734375 434.191406 277.691406 433.605469 C 277.65625 433.039062 277.351562 432.566406 277.046875 432.109375 C 275.949219 430.464844 274.855469 428.820312 273.484375 427.382812 C 272.367188 426.207031 271.605469 424.808594 271.050781 423.308594 C 270.363281 421.441406 270.203125 419.523438 271.21875 417.730469 C 271.703125 416.875 271.722656 416.113281 271.472656 415.226562 C 270.554688 411.949219 269.65625 408.667969 268.78125 405.378906 C 268.167969 403.078125 269.210938 401.050781 271.398438 400.179688 C 273.121094 399.496094 275.90625 400.664062 276.761719 402.480469 C 277.042969 403.070312 277.371094 403.554688 278.054688 403.582031 C 279.914062 403.652344 281.042969 404.804688 282.003906 406.199219 C 282.8125 407.371094 283.578125 408.578125 284.378906 409.757812 C 284.613281 410.105469 284.792969 410.648438 285.332031 410.515625 C 286.367188 410.253906 287.363281 410.703125 288.421875 410.535156 C 290.507812 410.203125 291.542969 410.871094 292.539062 412.757812 C 293.734375 415.019531 294.039062 417.449219 293.777344 419.953125 C 293.679688 420.914062 293.792969 421.796875 294.113281 422.691406 C 295.121094 425.480469 296.179688 428.246094 297.335938 430.976562 C 297.957031 432.441406 298.609375 433.898438 299.109375 435.40625 C 299.625 436.976562 298.988281 438.347656 297.589844 439.191406 C 296.417969 439.902344 295.1875 440.136719 293.859375 439.679688 C 293.695312 442.855469 294.058594 443.449219 296.71875 444.558594 C 305.175781 448.097656 313.765625 451.269531 322.546875 453.90625 C 333.175781 457.101562 343.992188 459.441406 354.992188 460.9375 C 359.664062 461.574219 364.355469 462.019531 369.046875 462.453125 C 371.554688 462.683594 374.078125 462.765625 376.597656 462.851562 C 377.859375 462.894531 378.015625 462.730469 378.160156 461.480469 C 378.605469 457.664062 379.105469 453.855469 379.410156 450.027344 C 379.824219 444.78125 380.1875 439.523438 380.371094 434.261719 C 380.613281 427.246094 381.171875 420.238281 381.15625 413.210938 C 381.15625 412.605469 381.183594 412 381.21875 411.398438 C 381.492188 407.121094 381.503906 402.847656 381.222656 398.570312 C 381.125 397.09375 381.027344 395.601562 381.136719 394.128906 C 381.296875 391.953125 383.519531 390.878906 385.394531 391.976562 C 387.128906 392.988281 388.054688 394.339844 388.007812 396.519531 C 387.824219 404.746094 388.035156 412.980469 387.71875 421.214844 C 387.410156 429.21875 387.402344 437.234375 387.304688 445.246094 C 387.246094 450.351562 387.269531 455.457031 387.257812 460.5625 C 387.25 463.171875 387.25 463.171875 389.910156 463.171875 C 395.066406 463.167969 400.210938 462.890625 405.351562 462.554688 C 408.796875 462.328125 412.246094 462.125 415.675781 461.773438 C 423.3125 460.992188 430.914062 459.941406 438.476562 458.605469 C 447.5 457.015625 456.429688 454.996094 465.265625 452.558594 C 466.8125 452.128906 466.882812 452.027344 467.027344 450.429688 C 467.269531 447.808594 467.496094 445.183594 467.742188 442.5625 C 468.363281 435.957031 469.039062 429.351562 469.597656 422.742188 C 470.148438 416.292969 471.125 409.886719 471.386719 403.410156 C 471.484375 401.039062 472.953125 399.878906 475.050781 400.289062 C 475.628906 400.398438 476.101562 400.320312 476.535156 399.859375 C 477.46875 398.859375 478.621094 398.792969 479.875 399.144531 C 481.066406 399.476562 481.257812 399.378906 481.890625 398.382812 C 483.160156 396.390625 484.492188 395.773438 486.730469 396.324219 C 487.683594 396.558594 488.316406 396.449219 489.023438 395.675781 C 490.195312 394.398438 492.171875 394.273438 493.542969 395.179688 C 495.40625 396.40625 496.304688 398.265625 495.765625 400.425781 C 495.097656 403.089844 495.261719 405.773438 495.296875 408.449219 C 495.398438 415.894531 494.71875 423.246094 492.996094 430.496094 C 492.207031 433.8125 491.8125 437.195312 491.273438 440.554688 C 491.214844 440.898438 491.015625 441.324219 491.5625 441.570312 C 492.109375 441.3125 492.46875 440.820312 492.855469 440.367188 C 496.332031 436.253906 499.484375 431.898438 502.417969 427.386719 C 506.671875 420.84375 510.441406 414.035156 513.710938 406.941406 C 517.554688 398.59375 520.679688 389.992188 523.023438 381.105469 C 525.324219 372.386719 526.765625 363.507812 527.855469 354.566406 C 528.488281 349.335938 528.996094 344.082031 529.140625 338.828125 C 529.371094 330.492188 529.5 322.148438 528.605469 313.824219 Z M 363.96875 453.730469 C 361.867188 454.4375 359.410156 453.589844 358.0625 451.597656 C 356.914062 449.898438 356.300781 448.046875 357.171875 446.019531 C 357.824219 444.492188 359.222656 443.632812 360.46875 442.679688 C 361.042969 442.238281 361.839844 442.386719 362.539062 442.566406 C 365.210938 443.238281 367.28125 445.964844 367.257812 448.75 C 367.238281 451.175781 366 453.046875 363.96875 453.730469 Z M 420.097656 451.949219 C 418.785156 453.382812 417.128906 453.515625 415.402344 453.152344 C 413.472656 452.746094 412.042969 450.582031 412.019531 448.242188 C 411.984375 446.574219 412.578125 445.011719 412.957031 443.433594 C 413.339844 441.839844 415.433594 441.21875 417.085938 442.078125 C 419.105469 443.128906 420.597656 444.734375 421.285156 446.921875 C 421.871094 448.78125 421.441406 450.484375 420.097656 451.949219 Z M 421.9375 369.464844 C 425.832031 368.566406 429.730469 368.226562 433.648438 369.464844 C 429.746094 369.464844 425.839844 369.464844 421.9375 369.464844 Z M 515.699219 288.746094 C 514.652344 289.074219 514.59375 289.828125 514.664062 290.699219 C 514.847656 292.996094 514.929688 295.296875 515.089844 297.59375 C 515.304688 300.722656 515.230469 303.832031 515.089844 306.960938 C 514.789062 313.621094 513.6875 320.15625 512.351562 326.664062 C 510.5 335.675781 507.832031 344.425781 503.804688 352.722656 C 501.066406 358.371094 497.726562 363.648438 493.84375 368.585938 C 493.136719 369.488281 492.375 369.890625 491.210938 369.882812 C 484.574219 369.832031 477.933594 370.003906 471.304688 369.796875 C 465.214844 369.609375 459.132812 369.671875 453.046875 369.628906 C 451.898438 369.621094 451.109375 369.382812 450.539062 368.253906 C 449.9375 367.070312 448.679688 366.59375 447.457031 366.222656 C 445.296875 365.5625 443.074219 365.210938 440.839844 364.964844 C 438.007812 364.652344 435.171875 364.367188 432.335938 364.09375 C 431.5625 364.023438 431.042969 363.835938 430.835938 362.929688 C 430.589844 361.839844 429.699219 361.367188 428.605469 361.339844 C 427.949219 361.320312 427.289062 361.34375 426.632812 361.359375 C 426.082031 361.367188 425.53125 361.363281 425.023438 361.109375 C 423.066406 360.128906 421.253906 360.863281 419.519531 361.6875 C 418.335938 362.253906 418.078125 363.226562 418.425781 364.632812 C 418.738281 365.898438 418.742188 365.921875 417.554688 366.199219 C 413.121094 367.242188 408.691406 368.28125 404.253906 369.292969 C 402.140625 369.773438 399.992188 369.476562 397.859375 369.515625 C 397.285156 369.523438 396.964844 369.1875 396.753906 368.691406 C 396.371094 367.777344 395.601562 367.394531 394.691406 367.265625 C 392.898438 367.011719 391.105469 366.789062 389.3125 366.558594 C 387.835938 366.371094 387.632812 366.277344 386.609375 365.144531 C 388.074219 364.769531 389.347656 364.457031 390.613281 364.117188 C 392.214844 363.683594 392.910156 362.980469 392.839844 361.902344 C 392.765625 360.699219 391.773438 359.890625 390.140625 359.761719 C 389.378906 359.703125 388.605469 359.695312 387.839844 359.734375 C 383.40625 359.964844 378.96875 360.160156 374.589844 360.96875 C 374.160156 361.050781 373.726562 361.128906 373.304688 361.253906 C 371.457031 361.800781 370.660156 363.433594 371.347656 365.242188 C 371.789062 366.40625 371.796875 366.414062 370.738281 366.996094 C 369.632812 367.605469 368.511719 368.183594 367.414062 368.804688 C 366.769531 369.167969 366.089844 369.296875 365.363281 369.296875 C 361.414062 369.285156 357.464844 369.28125 353.515625 369.269531 C 352.910156 369.269531 352.320312 369.171875 351.738281 368.984375 C 348.972656 368.082031 346.207031 367.195312 343.441406 366.300781 C 343.128906 366.199219 342.808594 366.121094 342.628906 365.824219 C 342.648438 365.253906 343.128906 364.964844 343.324219 364.515625 C 344.0625 362.84375 343.175781 361.183594 341.359375 361.023438 C 340.476562 360.945312 339.632812 360.824219 338.796875 360.515625 C 338.003906 360.222656 337.175781 360.339844 336.363281 360.507812 C 334.527344 360.886719 332.769531 361.496094 331.039062 362.199219 C 326.914062 363.875 322.9375 365.847656 319.109375 368.113281 C 317.792969 368.894531 316.460938 369.261719 314.914062 369.257812 C 301.804688 369.199219 288.695312 369.179688 275.585938 369.222656 C 273.980469 369.226562 272.941406 368.730469 272.035156 367.410156 C 268.949219 362.914062 266.355469 358.152344 264.023438 353.238281 C 259.445312 343.589844 255.871094 333.570312 253.265625 323.214844 C 251.269531 315.273438 249.851562 307.234375 249.394531 299.035156 C 249.300781 297.339844 249.148438 295.644531 249.109375 293.945312 C 249.101562 293.578125 249.183594 293.164062 248.804688 292.875 C 248.261719 292.78125 248.140625 293.355469 247.769531 293.546875 C 247.457031 293.710938 247.148438 293.804688 246.84375 293.605469 C 246.527344 293.394531 246.53125 293.050781 246.59375 292.714844 C 246.765625 291.84375 247.035156 291.101562 247.832031 290.503906 C 249.800781 289.027344 251.8125 287.617188 253.820312 286.195312 C 256.933594 283.992188 260.28125 282.167969 263.390625 279.976562 C 264.019531 279.535156 264.640625 279.082031 265.460938 279.050781 C 265.804688 279.039062 266.132812 278.890625 266.3125 278.609375 C 267.160156 277.277344 268.613281 276.84375 269.886719 276.128906 C 271.265625 275.355469 272.5625 274.429688 274.089844 273.925781 C 275.054688 273.609375 275.582031 272.6875 276.421875 272.152344 C 277.894531 271.207031 279.316406 270.214844 280.933594 269.523438 C 281.421875 269.316406 281.808594 268.875 282.257812 268.566406 C 287.652344 264.859375 292.960938 261.027344 298.648438 257.765625 C 299.773438 257.121094 300.835938 256.296875 301.839844 255.464844 C 302.652344 254.792969 303.566406 254.316406 304.425781 253.753906 C 305.199219 253.25 305.925781 252.648438 306.675781 252.199219 C 307.648438 251.621094 308.417969 250.78125 309.425781 250.285156 C 311.15625 249.429688 312.597656 248.160156 314.175781 247.085938 C 316.292969 245.644531 318.207031 243.933594 320.457031 242.652344 C 321.769531 241.902344 323.144531 241.027344 324.128906 239.757812 C 324.855469 238.820312 325.894531 238.28125 326.878906 237.699219 C 327.785156 237.167969 328.613281 236.558594 329.371094 235.835938 C 329.886719 235.339844 330.472656 234.902344 331.136719 234.652344 C 331.738281 234.425781 332.140625 234.027344 332.554688 233.582031 C 333.039062 233.066406 333.523438 232.558594 334.152344 232.179688 C 337.617188 230.105469 337.644531 230.101562 341.652344 231.480469 C 343.402344 232.082031 345.171875 232.625 347.003906 232.964844 C 347.796875 233.117188 348.582031 233.457031 349.289062 233.796875 C 352.359375 235.261719 355.699219 235.707031 358.964844 236.175781 C 361.613281 236.558594 364.253906 236.972656 366.894531 237.429688 C 367.761719 237.582031 368.648438 237.679688 369.511719 237.480469 C 370.222656 237.3125 370.894531 237.394531 371.609375 237.457031 C 374.707031 237.722656 377.8125 237.980469 380.910156 238.140625 C 382.742188 238.238281 384.605469 238.242188 386.441406 238.328125 C 389.390625 238.472656 392.316406 238.046875 395.261719 238.210938 C 396.566406 238.285156 397.84375 237.832031 399.164062 237.785156 C 401.714844 237.695312 404.242188 237.183594 406.804688 237.210938 C 407.691406 237.222656 408.476562 236.917969 409.3125 236.609375 C 410.832031 236.046875 412.460938 235.738281 414.074219 235.5 C 414.78125 235.394531 415.464844 235.273438 416.132812 235.03125 C 416.808594 234.789062 417.488281 234.636719 418.210938 234.585938 C 419.757812 234.472656 421.101562 233.613281 422.597656 233.289062 C 423.238281 233.152344 423.855469 232.871094 424.523438 232.929688 C 425.496094 233.007812 426.316406 232.851562 427.046875 232.070312 C 427.636719 231.441406 429.96875 231.585938 430.738281 232.371094 C 431.917969 233.570312 433.601562 233.929688 434.804688 235.09375 C 435.371094 235.644531 436.179688 235.964844 436.617188 236.703125 C 436.820312 237.042969 437.136719 237.253906 437.488281 237.433594 C 439.972656 238.703125 442.121094 240.503906 444.515625 241.917969 C 446.863281 243.300781 449.058594 244.933594 451.496094 246.175781 C 451.738281 246.300781 452.011719 246.421875 452.175781 246.621094 C 453.996094 248.816406 456.71875 249.800781 458.839844 251.609375 C 459.984375 252.585938 461.675781 252.792969 462.820312 253.859375 C 464.160156 255.109375 465.921875 255.617188 467.414062 256.578125 C 469.050781 257.632812 470.523438 258.914062 472.226562 259.898438 C 473.058594 260.382812 473.992188 260.371094 474.777344 260.914062 C 477.140625 262.5625 479.585938 264.082031 481.878906 265.835938 C 483.515625 267.089844 485.363281 268.058594 487.050781 269.25 C 488.863281 270.535156 490.957031 271.390625 492.640625 272.847656 C 493.601562 273.679688 494.546875 274.441406 495.804688 274.757812 C 496.101562 274.832031 496.445312 275.0625 496.585938 275.320312 C 497.046875 276.152344 497.808594 276.605469 498.601562 276.9375 C 500.445312 277.714844 501.738281 279.304688 503.539062 280.148438 C 504.066406 280.394531 504.566406 280.746094 505.113281 281 C 506.296875 281.558594 507.539062 282.03125 508.273438 283.25 C 508.425781 283.507812 508.765625 283.769531 509.050781 283.8125 C 510.863281 284.085938 512.121094 285.429688 513.699219 286.148438 C 514.054688 286.3125 514.390625 286.445312 514.773438 286.515625 C 515.367188 286.621094 515.691406 287.09375 516.003906 287.539062 C 516.351562 288.03125 516.285156 288.5625 515.699219 288.746094 Z M 515.699219 288.746094 " fill-opacity="1" fill-rule="nonzero"/></g><g clip-path="url(#f80c5cc016)"><path fill="#ed9999" d="M 496.898438 395.359375 C 496.898438 393.4375 497.03125 391.503906 496.871094 389.597656 C 496.570312 385.980469 496.640625 382.359375 496.5625 378.742188 C 496.558594 378.464844 496.523438 378.191406 496.496094 377.921875 C 496.207031 374.976562 495.863281 372.035156 495.640625 369.082031 C 495.375 365.628906 494.851562 362.21875 494.046875 358.855469 C 493.09375 354.875 491.4375 351.167969 489.542969 347.566406 C 488.15625 344.929688 486.402344 342.550781 484.375 340.367188 C 481.378906 337.136719 477.6875 334.894531 473.792969 332.941406 C 471.628906 331.859375 469.328125 331.125 467.082031 330.242188 C 462.730469 328.535156 458.191406 327.851562 453.5625 327.835938 C 451.214844 327.828125 448.863281 328.097656 446.527344 328.40625 C 442.605469 328.914062 438.730469 329.65625 434.910156 330.652344 C 430.449219 331.816406 426.101562 333.351562 421.816406 335.058594 C 415.550781 337.550781 409.316406 340.128906 403.050781 342.621094 C 398.359375 344.488281 393.617188 346.1875 388.613281 347.074219 C 384.960938 347.722656 381.289062 347.734375 377.628906 347.425781 C 373.683594 347.09375 369.871094 345.992188 366.109375 344.777344 C 362.714844 343.679688 359.433594 342.300781 356.21875 340.742188 C 352.070312 338.730469 348.097656 336.390625 343.890625 334.496094 C 340.777344 333.097656 337.578125 331.949219 334.289062 331.078125 C 330.472656 330.070312 326.59375 329.390625 322.652344 328.988281 C 320.25 328.746094 317.839844 328.6875 315.441406 328.539062 C 312.550781 328.359375 309.644531 328.671875 306.765625 329.078125 C 303.160156 329.582031 299.691406 330.605469 296.300781 331.882812 C 294.554688 332.539062 292.882812 333.398438 291.371094 334.503906 C 288.84375 336.34375 286.445312 338.3125 284.332031 340.660156 C 281.375 343.949219 278.882812 347.542969 276.804688 351.421875 C 273.308594 357.953125 271.011719 364.925781 269.503906 372.160156 C 268.863281 375.222656 268.402344 378.3125 268.105469 381.429688 C 267.785156 384.816406 267.484375 388.199219 267.507812 391.605469 C 267.53125 394.457031 267.53125 397.3125 267.542969 400.167969 C 267.542969 400.605469 267.519531 401.054688 267.59375 401.484375 C 268.015625 403.871094 267.796875 406.296875 268.121094 408.699219 C 268.507812 411.519531 268.609375 414.378906 268.921875 417.210938 C 269.273438 420.425781 269.703125 423.632812 270.144531 426.835938 C 270.710938 430.964844 271.277344 435.09375 271.929688 439.207031 C 272.582031 443.324219 273.339844 447.425781 274.050781 451.53125 C 275.4375 459.492188 277.390625 467.316406 279.890625 474.992188 C 282.625 483.398438 285.648438 491.699219 289.089844 499.84375 C 291.933594 506.570312 294.882812 513.242188 298.144531 519.777344 C 298.902344 521.296875 299.710938 522.796875 300.53125 524.285156 C 301.800781 526.589844 303.070312 528.898438 304.398438 531.171875 C 307.113281 535.824219 310.171875 540.246094 313.339844 544.59375 C 316.28125 548.632812 319.40625 552.527344 322.820312 556.167969 C 327.589844 561.253906 332.703125 565.96875 338.15625 570.332031 C 346.894531 577.320312 356.609375 582.113281 367.660156 584.09375 C 370.140625 584.535156 372.617188 584.980469 375.136719 585.164062 C 377.703125 585.351562 380.253906 585.738281 382.835938 585.710938 C 386.617188 585.675781 390.394531 585.832031 394.175781 585.433594 C 396.519531 585.183594 398.863281 584.96875 401.175781 584.523438 C 406.308594 583.535156 411.269531 581.992188 416.082031 579.925781 C 421.691406 577.515625 426.667969 574.144531 431.113281 570.003906 C 434.886719 566.492188 438.425781 562.746094 441.765625 558.800781 C 444.816406 555.195312 447.710938 551.476562 450.34375 547.558594 C 454.605469 541.214844 458.210938 534.492188 461.671875 527.691406 C 463.515625 524.078125 465.199219 520.378906 466.890625 516.6875 C 468.835938 512.449219 470.730469 508.1875 472.601562 503.914062 C 474.917969 498.632812 476.867188 493.207031 478.671875 487.734375 C 479.722656 484.554688 480.664062 481.34375 481.691406 478.15625 C 483.53125 472.464844 485.371094 466.769531 487.046875 461.027344 C 489.09375 454.019531 490.792969 446.921875 492.335938 439.785156 C 493.519531 434.316406 494.46875 428.804688 495.1875 423.253906 C 495.472656 421.023438 495.734375 418.789062 495.917969 416.550781 C 496.082031 414.527344 496.226562 412.503906 496.363281 410.480469 C 496.617188 406.761719 496.789062 403.039062 496.90625 399.3125 C 496.949219 397.996094 496.914062 396.675781 496.914062 395.359375 C 496.90625 395.359375 496.902344 395.359375 496.898438 395.359375 Z M 269.429688 404.074219 C 269.300781 403.671875 269.972656 403.21875 270.484375 403.324219 C 271.136719 403.457031 271.710938 403.785156 272.246094 404.175781 C 272.738281 404.535156 273.195312 404.972656 273.421875 405.527344 C 273.867188 406.617188 274.671875 407.441406 275.34375 408.367188 C 275.503906 408.585938 275.640625 408.863281 275.859375 408.992188 C 277.21875 409.804688 277.949219 411.203125 279.003906 412.289062 C 279.714844 413.019531 280.292969 413.933594 281.398438 414.1875 C 281.582031 414.230469 281.8125 414.4375 281.863281 414.613281 C 282.085938 415.378906 282.65625 415.761719 283.3125 416.070312 C 283.363281 416.09375 283.417969 416.117188 283.453125 416.160156 C 284.769531 417.695312 286.746094 418.46875 287.996094 420.082031 C 288.207031 420.351562 288.46875 420.515625 288.792969 420.625 C 290.054688 421.054688 290.582031 422.152344 291.113281 423.234375 C 291.160156 423.328125 291.160156 423.445312 291.183594 423.554688 C 291.230469 424.375 290.371094 425.082031 289.660156 424.734375 C 288.742188 424.28125 287.71875 423.933594 287.226562 422.898438 C 287.15625 422.753906 287.054688 422.582031 286.921875 422.515625 C 285.300781 421.703125 284.292969 420.023438 282.546875 419.394531 C 282.226562 419.277344 281.960938 419.085938 281.78125 418.796875 C 281.3125 418.042969 280.800781 417.355469 279.855469 417.140625 C 279.6875 417.101562 279.503906 416.851562 279.441406 416.660156 C 279.164062 415.847656 278.453125 415.359375 278 414.679688 C 277.878906 414.5 277.730469 414.265625 277.546875 414.214844 C 276.394531 413.890625 275.871094 412.929688 275.199219 412.078125 C 274.777344 411.542969 274.390625 410.890625 273.609375 410.722656 C 273.269531 410.648438 273.089844 410.339844 272.925781 410.050781 C 272.261719 408.910156 271.488281 407.863281 270.53125 406.941406 C 269.734375 406.171875 269.75 405.046875 269.429688 404.074219 Z M 273.691406 425.496094 C 272.203125 424.960938 272.160156 423.363281 271.363281 422.324219 C 270.78125 421.566406 271.152344 420.445312 271.917969 419.878906 C 272.308594 419.585938 272.949219 419.632812 273.242188 420.058594 C 273.519531 420.457031 273.714844 420.917969 273.90625 421.367188 C 274.011719 421.613281 273.992188 421.933594 274.265625 422.070312 C 275.136719 422.507812 275.503906 423.40625 276.121094 424.046875 C 276.960938 424.925781 277.71875 425.914062 278.78125 426.613281 C 279.632812 427.171875 280.347656 427.980469 281.023438 428.761719 C 281.925781 429.800781 282.980469 430.65625 283.992188 431.566406 C 284.671875 432.179688 285.214844 432.9375 285.832031 433.617188 C 286.050781 433.855469 286.269531 434.121094 286.546875 434.277344 C 288.207031 435.226562 289.324219 436.707031 290.453125 438.183594 C 290.710938 438.515625 290.855469 438.832031 290.582031 439.21875 C 290.300781 439.617188 289.910156 439.746094 289.441406 439.460938 C 288.871094 439.117188 288.28125 438.878906 287.632812 438.722656 C 287.332031 438.648438 286.882812 438.460938 286.820312 438.234375 C 286.558594 437.292969 285.722656 437.109375 285.042969 436.71875 C 284.421875 436.371094 284.082031 435.851562 284.066406 435.175781 C 282.761719 434.910156 282.75 434.917969 281.863281 433.699219 C 281.652344 433.414062 281.382812 433.253906 281.085938 433.125 C 280.429688 432.84375 280.703125 431.964844 280.152344 431.664062 C 279.6875 431.414062 279.164062 431.371094 278.722656 430.957031 C 277.25 429.585938 276.050781 427.9375 274.433594 426.714844 C 274.230469 426.558594 274.113281 426.289062 273.972656 426.058594 C 273.863281 425.875 273.832031 425.550781 273.691406 425.496094 Z M 290.699219 453.679688 C 290.226562 453.960938 289.871094 453.691406 289.5 453.441406 C 288.910156 453.039062 288.328125 452.648438 287.957031 451.996094 C 287.597656 451.363281 287.042969 450.945312 286.371094 450.628906 C 285.492188 450.210938 284.554688 449.84375 283.945312 449.007812 C 283.882812 448.921875 283.785156 448.835938 283.6875 448.808594 C 282.292969 448.414062 281.652344 447.046875 280.511719 446.324219 C 280.246094 446.15625 280 445.875 279.871094 445.589844 C 279.613281 445.011719 279.363281 444.492188 278.609375 444.519531 C 278.519531 444.523438 278.402344 444.4375 278.335938 444.359375 C 277.136719 442.9375 275.335938 442.167969 274.316406 440.539062 C 273.945312 439.941406 273.578125 439.425781 273.910156 438.742188 C 274.246094 438.054688 274.960938 438.035156 275.519531 437.898438 C 275.886719 437.925781 276.117188 438.0625 276.304688 438.277344 C 276.875 438.925781 277.316406 439.707031 278.125 440.128906 C 278.308594 441.367188 279.402344 441.640625 280.273438 442.15625 C 280.601562 442.351562 280.851562 442.632812 281.058594 442.976562 C 281.894531 444.386719 283.167969 445.230469 284.601562 446.023438 C 286.089844 446.847656 287.75 447.574219 288.722656 449.144531 C 288.960938 449.523438 289.285156 449.816406 289.742188 449.921875 C 290.121094 450.007812 290.542969 450.078125 290.695312 450.480469 C 290.945312 451.140625 291.429688 451.726562 291.425781 452.46875 C 291.421875 452.992188 291.160156 453.40625 290.699219 453.679688 Z M 295.910156 478.402344 C 295.167969 478.769531 294.539062 478.519531 293.941406 478.078125 C 293.761719 477.941406 293.667969 477.734375 293.695312 477.503906 C 293.773438 476.796875 293.882812 476.097656 294.332031 475.511719 C 294.851562 474.832031 295.683594 474.582031 296.511719 474.855469 C 297.210938 475.085938 297.363281 475.296875 297.375 476.265625 C 297.230469 477.039062 296.898438 477.917969 295.910156 478.402344 Z M 309.535156 372.847656 C 309.613281 372.773438 309.671875 372.679688 309.726562 372.582031 C 309.988281 372.121094 310.078125 371.519531 310.703125 371.347656 C 311.566406 371.113281 312.429688 371.113281 313.285156 371.378906 C 313.503906 371.445312 313.675781 371.578125 313.761719 371.789062 C 313.84375 371.988281 313.84375 372.332031 313.96875 372.382812 C 315.0625 372.824219 314.5 373.582031 314.371094 374.261719 C 314.238281 374.980469 313.589844 375.425781 313.398438 376.113281 C 313.378906 376.195312 313.222656 376.300781 313.144531 376.292969 C 312.511719 376.21875 312.21875 376.8125 311.710938 377.050781 C 311.511719 376.9375 311.34375 376.777344 311.144531 376.730469 C 309.902344 376.417969 309.414062 375.574219 309.269531 374.363281 C 309.203125 373.796875 309.085938 373.296875 309.535156 372.847656 Z M 309.597656 490.113281 C 309.554688 489.328125 310.3125 488.613281 311.203125 488.59375 C 312.039062 488.574219 312.964844 489.460938 312.910156 490.226562 C 312.859375 490.9375 312.144531 491.511719 311.296875 491.515625 C 310.410156 491.519531 309.636719 490.882812 309.597656 490.113281 Z M 315.210938 518.199219 C 314.730469 518.65625 314.328125 519.144531 313.976562 519.707031 C 313.59375 520.316406 313.027344 520.464844 312.414062 520.277344 C 311.757812 520.074219 311.339844 519.519531 311.308594 518.714844 C 311.316406 518.640625 311.28125 518.453125 311.351562 518.320312 C 311.835938 517.40625 312.261719 516.441406 313.175781 515.851562 C 313.78125 515.464844 314.882812 515.765625 315.363281 516.417969 C 315.765625 516.964844 315.746094 517.691406 315.210938 518.199219 Z M 329.144531 465.582031 C 328.773438 465.695312 327.945312 465.402344 327.671875 465.058594 C 326.992188 464.199219 327.386719 462.699219 328.398438 462.316406 C 328.496094 462.277344 328.609375 462.28125 328.714844 462.265625 C 329.453125 462.3125 330.191406 463.015625 330.25 463.726562 C 330.308594 464.421875 329.722656 465.402344 329.144531 465.582031 Z M 332.710938 486.402344 C 332.417969 486.371094 332.195312 486.296875 332.027344 486.042969 C 331.460938 485.195312 331.703125 483.953125 332.546875 483.445312 C 332.871094 483.25 334.332031 482.910156 334.757812 482.933594 C 335.722656 482.980469 336.375 484.097656 335.933594 484.953125 C 335.730469 485.351562 335.445312 485.738281 335.042969 485.882812 C 334.296875 486.148438 333.546875 486.484375 332.710938 486.402344 Z M 336.347656 546.90625 C 335.757812 547.453125 335.269531 547.5 334.410156 547.097656 C 333.871094 546.84375 333.707031 546.539062 333.714844 545.515625 C 333.730469 545.042969 333.957031 544.378906 334.328125 543.769531 C 334.527344 543.445312 334.820312 543.191406 335.179688 543.039062 C 336.179688 542.605469 337.453125 543.347656 337.375 544.40625 C 337.308594 545.316406 337.070312 546.230469 336.347656 546.90625 Z M 337.019531 366.742188 C 336.921875 366.871094 336.816406 367.015625 336.773438 367.167969 C 336.511719 368.035156 335.960938 368.425781 335.160156 368.265625 C 333.503906 368.273438 332.925781 367.65625 332.449219 366.160156 C 332.007812 364.785156 332.703125 363.910156 333.507812 363.140625 C 333.988281 362.683594 334.84375 362.675781 335.515625 362.902344 C 336.839844 363.34375 338.066406 365.359375 337.019531 366.742188 Z M 341.257812 516.1875 C 341.238281 517.136719 340.847656 517.722656 340.199219 517.816406 C 339.242188 517.957031 338.660156 517.609375 338.304688 516.691406 C 337.992188 515.871094 338.160156 515.007812 338.707031 514.625 C 339.3125 514.207031 340.066406 514.269531 340.648438 514.785156 C 341.078125 515.167969 341.296875 515.640625 341.257812 516.1875 Z M 361.78125 372.210938 C 362.03125 372.089844 362.292969 372.027344 362.664062 372.117188 C 363.445312 372.097656 364.074219 372.679688 364.785156 373.054688 C 365.203125 373.277344 365 373.742188 365.109375 374.085938 C 365.21875 374.4375 365.664062 374.734375 365.460938 375.121094 C 365.222656 375.582031 364.898438 376.03125 364.519531 376.382812 C 363.476562 377.359375 361.246094 376.867188 360.683594 375.769531 C 359.855469 374.144531 360.121094 373.035156 361.78125 372.210938 Z M 352.035156 468.972656 C 351.390625 468.46875 351.410156 467.492188 352 466.757812 C 352.464844 466.179688 353.277344 466.015625 353.894531 466.480469 C 354.460938 466.90625 354.976562 467.367188 355.652344 467.652344 C 356.195312 467.882812 356.390625 468.429688 356.382812 468.9375 C 356.425781 470.351562 355.355469 471.070312 354.207031 470.429688 C 353.445312 470.007812 352.71875 469.507812 352.035156 468.972656 Z M 356.535156 499.386719 C 355.59375 499.378906 354.621094 498.570312 354.703125 497.859375 C 354.804688 496.957031 355.457031 496.421875 356.414062 496.449219 C 357.199219 496.46875 358.109375 497.28125 358.101562 497.949219 C 358.09375 498.566406 357.195312 499.390625 356.535156 499.386719 Z M 360.007812 448.328125 C 360.097656 447.941406 360.195312 447.351562 360.378906 446.785156 C 360.625 446.023438 361.484375 445.511719 362.148438 445.664062 C 363.128906 445.894531 363.582031 446.582031 363.375 447.601562 C 363.277344 448.074219 363.15625 448.5625 362.953125 448.996094 C 362.613281 449.71875 361.949219 450.050781 361.230469 449.953125 C 360.371094 449.839844 359.992188 449.398438 360.007812 448.328125 Z M 360.898438 543.507812 C 360.902344 542.484375 361.617188 541.78125 362.648438 541.785156 C 363.332031 541.789062 364.21875 542.597656 364.191406 543.195312 C 364.144531 544.152344 363.453125 544.8125 362.5 544.8125 C 361.691406 544.808594 360.898438 544.160156 360.898438 543.507812 Z M 365.304688 571.570312 C 364.730469 571.804688 364.179688 571.980469 363.601562 571.578125 C 362.804688 571.019531 362.515625 570.234375 362.578125 569.304688 C 362.621094 568.695312 363.332031 568.203125 364.015625 568.257812 C 365.164062 568.347656 365.925781 569.257812 365.914062 570.578125 C 365.917969 570.988281 365.792969 571.367188 365.304688 571.570312 Z M 373.992188 522.261719 C 373.710938 522.832031 373.195312 523.125 372.542969 523.125 C 371.695312 523.125 371.097656 522.675781 370.871094 521.871094 C 370.703125 521.265625 370.914062 520.6875 371.445312 520.316406 C 372.140625 519.828125 373.1875 520.078125 373.695312 520.890625 C 373.953125 521.300781 374.234375 521.769531 373.992188 522.261719 Z M 377.871094 367.609375 C 377.730469 367.445312 377.5625 367.285156 377.375 367.1875 C 376.839844 366.917969 376.257812 366.722656 376.15625 366.003906 C 376.03125 365.121094 376.074219 364.203125 376.492188 363.457031 C 376.78125 362.941406 377.460938 362.640625 378.019531 362.203125 C 378.980469 362.609375 379.875 362.867188 380.609375 363.425781 C 381.242188 363.910156 381.941406 364.328125 382.066406 365.269531 C 382.269531 366.789062 381.773438 367.933594 380.464844 368.679688 C 380.261719 368.792969 380.042969 368.847656 379.847656 368.71875 C 379.214844 368.296875 378.398438 368.21875 377.871094 367.609375 Z M 386.519531 416.472656 C 386.363281 418.429688 386.242188 420.371094 386.304688 422.339844 C 386.355469 423.980469 385.941406 425.59375 385.636719 427.207031 C 385.554688 427.636719 385.316406 428.09375 385.402344 428.484375 C 385.710938 429.941406 385.578125 431.410156 385.625 432.871094 C 385.640625 433.363281 385.714844 433.878906 385.597656 434.34375 C 385.257812 435.699219 385.355469 437.066406 385.359375 438.433594 C 385.363281 439.253906 385.417969 440.074219 384.925781 440.816406 C 384.679688 441.191406 384.640625 441.675781 384.722656 442.097656 C 384.941406 443.191406 384.710938 444.273438 384.710938 445.363281 C 384.710938 446.460938 384.601562 447.546875 384.304688 448.617188 C 384.027344 449.621094 383.976562 450.652344 383.929688 451.695312 C 383.886719 452.640625 384.039062 453.664062 383.398438 454.515625 C 383.214844 454.753906 383.269531 455.039062 383.328125 455.308594 C 383.496094 456.117188 383.324219 456.957031 383.578125 457.757812 C 383.644531 457.960938 383.699219 458.25 383.601562 458.402344 C 382.984375 459.375 383.535156 460.570312 382.96875 461.542969 C 382.851562 461.746094 382.851562 461.992188 382.984375 462.171875 C 383.460938 462.804688 383.191406 463.398438 382.972656 464.03125 C 382.613281 465.0625 382.289062 466.082031 382.621094 467.230469 C 382.777344 467.773438 382.707031 468.472656 382.503906 469.007812 C 382.15625 469.90625 382.273438 470.777344 382.566406 471.578125 C 382.921875 472.542969 382.902344 473.285156 381.820312 473.867188 C 382.71875 474.59375 382.609375 475.410156 382.363281 476.210938 C 381.796875 478.046875 381.980469 479.886719 382.257812 481.734375 C 382.289062 481.949219 382.367188 482.1875 382.3125 482.382812 C 381.84375 484.070312 382.257812 485.742188 382.371094 487.421875 C 382.414062 488.074219 382.445312 488.738281 382.167969 489.367188 C 381.886719 490 381.914062 490.636719 382.15625 491.28125 C 382.3125 491.695312 382.40625 492.125 382.28125 492.570312 C 381.984375 493.644531 382.050781 494.746094 382.050781 495.84375 C 382.046875 496.117188 382.097656 496.414062 382.011719 496.65625 C 381.714844 497.480469 381.710938 498.25 382.1875 499.019531 C 382.429688 499.414062 382.371094 499.871094 382.230469 500.296875 C 382.050781 500.832031 381.988281 501.386719 382.136719 501.921875 C 382.335938 502.628906 382.457031 503.289062 382.042969 503.980469 C 381.921875 504.175781 381.980469 504.515625 382.035156 504.777344 C 382.207031 505.601562 381.757812 506.144531 381.21875 506.632812 C 380.589844 507.203125 379.8125 506.945312 379.5625 506.121094 C 379.460938 505.796875 379.445312 505.46875 379.53125 505.148438 C 379.621094 504.8125 379.621094 504.492188 379.421875 504.199219 C 379.066406 503.671875 379.160156 503.179688 379.484375 502.667969 C 379.589844 502.5 379.671875 502.230469 379.621094 502.050781 C 379.238281 500.769531 379.628906 499.417969 379.230469 498.132812 C 379.089844 497.683594 379.125 497.144531 379.214844 496.667969 C 379.4375 495.515625 379.359375 494.398438 379.023438 493.289062 C 378.941406 493.019531 378.863281 492.734375 379 492.488281 C 379.371094 491.8125 379.175781 491.085938 379.207031 490.386719 C 379.234375 489.789062 379.171875 489.195312 379.316406 488.59375 C 379.402344 488.230469 379.449219 487.792969 379.324219 487.457031 C 378.929688 486.390625 379.238281 485.265625 378.957031 484.199219 C 378.882812 483.925781 378.976562 483.660156 379.09375 483.40625 C 379.1875 483.210938 379.339844 482.996094 379.320312 482.804688 C 379.175781 481.003906 379.671875 479.226562 379.464844 477.425781 C 379.371094 476.613281 379.347656 475.785156 379.746094 475.007812 C 379.839844 474.828125 379.902344 474.546875 379.832031 474.378906 C 379.53125 473.683594 379.769531 472.960938 379.664062 472.289062 C 379.523438 471.386719 379.671875 470.542969 379.761719 469.679688 C 379.875 468.597656 379.9375 467.539062 379.769531 466.433594 C 379.558594 465.074219 379.921875 463.703125 380.195312 462.367188 C 380.328125 461.714844 380.398438 461.074219 380.398438 460.417969 C 380.398438 459.652344 380.398438 458.898438 380.8125 458.1875 C 381.1875 457.539062 381.042969 456.796875 380.929688 456.09375 C 380.867188 455.714844 380.617188 455.292969 380.824219 454.972656 C 381.429688 454.023438 381.101562 453.050781 380.964844 452.105469 C 380.871094 451.4375 380.894531 450.820312 381.015625 450.160156 C 381.40625 447.957031 381.808594 445.757812 381.75 443.492188 C 381.722656 442.464844 381.867188 441.402344 382.109375 440.402344 C 382.386719 439.273438 382.183594 438.089844 382.605469 436.992188 C 382.660156 436.847656 382.671875 436.65625 382.628906 436.507812 C 382.058594 434.605469 382.363281 432.746094 382.816406 430.867188 C 383.007812 430.078125 382.972656 429.234375 383.023438 428.414062 C 383.074219 427.601562 383.089844 426.816406 383.355469 426 C 383.59375 425.277344 383.453125 424.367188 383.269531 423.585938 C 383.089844 422.808594 383.035156 422.082031 383.238281 421.324219 C 383.292969 421.113281 383.359375 420.878906 383.324219 420.675781 C 383.074219 419.160156 383.429688 417.65625 383.390625 416.144531 C 383.359375 414.886719 383.355469 413.628906 383.730469 412.394531 C 383.988281 411.546875 383.84375 410.730469 383.652344 409.839844 C 383.320312 408.320312 382.941406 406.75 383.238281 405.152344 C 383.308594 404.769531 383.40625 404.375 383.21875 404.023438 C 382.722656 403.09375 383 402.082031 382.921875 401.125 C 382.855469 400.273438 383.042969 399.390625 382.960938 398.507812 C 382.914062 398.015625 383.246094 397.695312 383.753906 397.632812 C 384.078125 397.59375 384.414062 397.589844 384.738281 397.625 C 385.324219 397.691406 385.699219 398.035156 385.628906 398.597656 C 385.492188 399.699219 385.730469 400.78125 385.699219 401.875 C 385.679688 402.699219 385.917969 403.527344 385.890625 404.324219 C 385.832031 406.300781 385.964844 408.222656 386.542969 410.117188 C 386.632812 410.402344 386.480469 410.757812 386.441406 411.082031 C 386.351562 411.847656 386.296875 412.605469 386.496094 413.371094 C 386.761719 414.394531 386.605469 415.453125 386.519531 416.472656 Z M 392.632812 573.589844 C 392.484375 573.59375 392.28125 573.550781 392.1875 573.449219 C 391.605469 572.804688 391.003906 572.164062 390.496094 571.457031 C 390.292969 571.175781 390.316406 570.730469 390.285156 570.578125 C 390.296875 569.328125 390.605469 568.78125 391.332031 568.503906 C 392.074219 568.21875 392.847656 568.4375 393.113281 569.164062 C 393.359375 569.84375 393.78125 570.382812 394.144531 570.976562 C 394.8125 572.066406 393.910156 573.5625 392.632812 573.589844 Z M 397.308594 543.3125 C 397.132812 543.460938 396.90625 543.445312 396.351562 543.328125 C 396.316406 543.324219 395.9375 543.207031 395.566406 543.234375 C 394.21875 543.324219 393.640625 542.488281 393.203125 541.40625 C 392.945312 540.769531 393.117188 540.222656 393.5 539.742188 C 393.882812 539.257812 394.710938 539.097656 395.289062 539.460938 C 395.855469 539.816406 396.445312 540 397.078125 540.171875 C 397.757812 540.355469 398.109375 540.933594 398.164062 541.648438 C 398.222656 542.375 397.828125 542.882812 397.308594 543.3125 Z M 400.644531 491.332031 C 399.851562 491.796875 398.988281 492.144531 398.144531 492.519531 C 398.019531 492.574219 397.824219 492.527344 397.675781 492.472656 C 397.0625 492.261719 396.652344 491.84375 396.578125 491.183594 C 396.5 490.5 396.574219 489.816406 397.296875 489.511719 C 398.089844 489.175781 398.925781 488.9375 399.515625 488.734375 C 400.484375 488.726562 400.921875 488.960938 401.097656 489.445312 C 401.402344 490.300781 401.308594 490.9375 400.644531 491.332031 Z M 401.546875 377.480469 C 401.492188 377.570312 401.261719 377.582031 401.113281 377.59375 C 399.945312 377.679688 398.835938 378.050781 397.683594 378.207031 C 397.527344 378.230469 397.378906 378.285156 397.125 378.351562 C 396.921875 377.757812 396.273438 377.601562 395.929688 377.113281 C 394.988281 375.789062 395.9375 373.65625 397.195312 373.347656 C 397.835938 373.191406 398.453125 373.003906 398.996094 372.617188 C 399.242188 372.445312 399.511719 372.492188 399.777344 372.570312 C 400.039062 372.648438 400.296875 372.738281 400.5625 372.785156 C 401.847656 373.011719 402.378906 373.664062 402.574219 374.894531 C 402.75 376.011719 402.003906 376.667969 401.546875 377.480469 Z M 410.445312 516.488281 C 409.554688 516.503906 408.527344 515.464844 408.546875 514.566406 C 408.558594 513.933594 409.382812 513 409.976562 512.972656 C 411.191406 512.921875 412.207031 513.84375 412.179688 514.898438 C 412.214844 515.710938 411.382812 516.472656 410.445312 516.488281 Z M 412.605469 465.792969 C 412.242188 466.902344 412.109375 468.132812 411.265625 469.066406 C 410.59375 469.808594 409.902344 469.9375 409.132812 469.335938 C 408.875 469.136719 408.660156 468.878906 408.4375 468.640625 C 407.390625 467.503906 407.453125 466.753906 408.777344 465.863281 C 409.226562 465.566406 409.402344 465.117188 409.734375 464.765625 C 410.210938 464.261719 410.5625 464.011719 410.945312 463.984375 C 411.859375 463.921875 412.898438 464.898438 412.605469 465.792969 Z M 415.515625 449.769531 C 414.257812 449.847656 413.652344 449.234375 413.660156 447.886719 C 413.671875 446.46875 415.175781 445.257812 416.566406 445.539062 C 417.355469 445.703125 417.898438 446.460938 417.867188 447.363281 C 417.835938 448.28125 416.4375 449.710938 415.515625 449.769531 Z M 420.664062 365.097656 C 420.632812 364.996094 420.625 364.878906 420.632812 364.773438 C 420.683594 364.035156 422.199219 362.734375 422.964844 362.769531 C 424.472656 362.835938 425.839844 364.074219 425.984375 365.5 C 425.988281 365.554688 426 365.652344 425.980469 365.65625 C 425.273438 365.929688 425.609375 366.949219 424.90625 367.195312 C 424.316406 367.398438 423.820312 367.710938 423.0625 367.605469 C 421.488281 367.386719 421.054688 366.316406 420.664062 365.097656 Z M 424.605469 552.253906 C 424.070312 552.199219 423.527344 552.167969 422.992188 552.085938 C 422.355469 551.988281 421.796875 551.496094 421.707031 551.007812 C 421.578125 550.324219 421.84375 549.761719 422.578125 549.429688 C 423.316406 549.097656 424.082031 548.796875 424.863281 548.582031 C 425.792969 548.332031 426.578125 548.808594 426.933594 549.722656 C 426.972656 549.820312 427.007812 549.929688 427.011719 550.035156 C 427.039062 551 425.582031 552.367188 424.605469 552.253906 Z M 430.636719 513.855469 C 430.140625 513.882812 429.664062 513.699219 429.441406 513.222656 C 429.1875 512.683594 429.003906 512.078125 429.398438 511.519531 C 429.648438 511.167969 429.953125 510.847656 430.273438 510.558594 C 430.972656 509.921875 431.988281 510.132812 432.445312 510.980469 C 433.148438 512.28125 432.175781 513.859375 430.636719 513.855469 Z M 435.230469 486.925781 C 434.625 487.148438 433.574219 486.84375 433.207031 486.195312 C 432.898438 485.652344 432.484375 485.257812 432.0625 484.828125 C 431.515625 484.277344 431.449219 483.523438 431.796875 483.035156 C 432.171875 482.507812 432.835938 482.25 433.546875 482.503906 C 434.3125 482.78125 435.066406 483.125 435.765625 483.542969 C 436.316406 483.875 436.417969 484.519531 436.476562 485.074219 C 436.457031 485.863281 435.886719 486.683594 435.230469 486.925781 Z M 443.578125 462.632812 C 443.984375 461.859375 444.953125 461.628906 445.664062 462.148438 C 446.597656 462.832031 446.765625 464.71875 445.988281 465.535156 C 445.410156 466.148438 444.765625 466.132812 444.035156 465.878906 C 443.375 465.648438 443.335938 465.109375 443.292969 464.554688 C 443.28125 464.449219 443.289062 464.335938 443.289062 464.226562 C 443.277344 463.675781 443.3125 463.136719 443.578125 462.632812 Z M 446.167969 532.019531 C 445.949219 532.03125 445.730469 532.023438 445.511719 532.023438 C 445.511719 532.035156 445.511719 532.050781 445.511719 532.066406 C 445.128906 532.03125 444.742188 532.027344 444.367188 531.957031 C 443.632812 531.820312 443.277344 531.316406 443.101562 530.613281 C 442.941406 529.972656 443.222656 529.550781 443.683594 529.199219 C 444.074219 528.898438 444.464844 528.589844 444.890625 528.347656 C 445.777344 527.847656 446.785156 528.160156 447.257812 529.050781 C 447.359375 529.246094 447.433594 529.457031 447.539062 529.644531 C 448.121094 530.691406 447.410156 531.949219 446.167969 532.019531 Z M 453.777344 376.882812 C 453.296875 377.300781 453.023438 377.972656 452.300781 378.113281 C 451.394531 378.292969 450.492188 378.511719 449.585938 378.710938 C 449.480469 378.730469 449.355469 378.757812 449.261719 378.71875 C 448.050781 378.222656 446.707031 378.160156 445.523438 377.5625 C 445.039062 377.316406 444.75 376.9375 444.644531 376.449219 C 444.40625 375.328125 444.207031 374.199219 444.007812 373.070312 C 443.980469 372.917969 443.992188 372.71875 444.070312 372.59375 C 444.445312 372.015625 445.136719 371.863281 445.65625 371.472656 C 446.023438 371.191406 446.484375 371.277344 446.910156 371.449219 C 447.851562 371.824219 448.617188 372.410156 449.136719 373.289062 C 449.25 373.476562 449.335938 373.675781 449.703125 373.777344 C 450.3125 373.429688 451.03125 373.078125 451.886719 373.476562 C 452.90625 373.953125 453.835938 374.433594 453.703125 375.8125 C 453.667969 376.164062 454.113281 376.59375 453.777344 376.882812 Z M 458.761719 496.335938 C 457.925781 496.207031 457.175781 495.589844 457.363281 494.847656 C 457.417969 493.960938 458.25 493.003906 458.933594 493.039062 C 459.578125 493.074219 460.371094 493.964844 460.332031 494.613281 C 460.269531 495.636719 459.542969 496.457031 458.761719 496.335938 Z M 490.117188 439.660156 C 489.101562 440.246094 488.347656 441.09375 487.71875 442.0625 C 487.5 442.394531 487.242188 442.660156 486.855469 442.78125 C 486.523438 442.882812 486.300781 443.105469 486.132812 443.410156 C 486.03125 443.597656 485.902344 443.882812 485.746094 443.910156 C 484.710938 444.078125 484.238281 444.902344 483.625 445.59375 C 483.308594 445.953125 482.859375 446.210938 482.441406 446.464844 C 481.453125 447.070312 480.851562 448.261719 479.535156 448.351562 C 478.941406 449.308594 477.515625 449.238281 477.058594 450.367188 C 476.269531 450.648438 475.71875 451.257812 475.085938 451.769531 C 474.535156 452.214844 473.695312 452.160156 473.25 451.769531 C 472.726562 451.3125 472.476562 450.4375 472.699219 449.828125 C 472.835938 449.445312 473.082031 449.171875 473.488281 449.058594 C 474.671875 448.726562 475.679688 448.117188 476.550781 447.238281 C 476.847656 446.941406 477.328125 446.835938 477.679688 446.585938 C 478.347656 446.113281 479.066406 445.695312 479.574219 445.027344 C 479.949219 444.535156 480.429688 444.082031 481.015625 444 C 482.253906 443.820312 482.828125 442.863281 483.523438 442.054688 C 483.976562 441.527344 484.273438 440.9375 484.996094 440.597656 C 485.589844 440.320312 485.957031 439.585938 486.457031 439.089844 C 487.347656 438.203125 488.292969 437.375 489.15625 436.464844 C 489.566406 436.027344 489.9375 435.675781 490.550781 435.925781 C 491.144531 436.164062 491.257812 436.707031 491.3125 437.332031 C 491.207031 438.21875 491.039062 439.125 490.117188 439.660156 Z M 494.039062 419.773438 C 493.542969 420.519531 493.074219 421.347656 492.132812 421.683594 C 491.882812 421.773438 491.558594 421.882812 491.441406 422.085938 C 490.972656 422.898438 490.152344 423.28125 489.410156 423.699219 C 488.429688 424.257812 487.734375 425.113281 486.972656 425.867188 C 486.367188 426.46875 485.429688 426.722656 485.09375 427.605469 C 485.0625 427.6875 484.929688 427.761719 484.828125 427.785156 C 483.691406 428.046875 482.914062 428.847656 482.238281 429.691406 C 481.726562 430.328125 480.859375 430.328125 480.378906 430.992188 C 479.929688 431.609375 479.261719 431.992188 478.539062 432.300781 C 477.332031 432.820312 476.261719 433.570312 475.332031 434.519531 C 474.832031 435.03125 474.257812 435.457031 473.855469 435.476562 C 472.5625 435.527344 471.511719 434.195312 471.792969 433.328125 C 471.921875 432.929688 472.234375 432.640625 472.628906 432.625 C 473.589844 432.585938 474.1875 431.992188 474.882812 431.4375 C 475.585938 430.875 476.289062 430.234375 477.28125 430.097656 C 477.628906 430.050781 478.0625 429.820312 478.25 429.535156 C 478.929688 428.511719 479.964844 427.957031 480.90625 427.25 C 481.859375 426.53125 482.585938 425.523438 483.5 424.746094 C 484.371094 424.007812 485.3125 423.34375 486.292969 422.757812 C 487.058594 422.296875 487.753906 421.804688 488.222656 421.035156 C 488.574219 420.457031 489.042969 420.039062 489.675781 419.769531 C 490.589844 419.382812 491.328125 418.714844 492.113281 418.125 C 492.777344 417.625 493.257812 417.617188 493.746094 418.007812 C 494.28125 418.429688 494.472656 419.121094 494.039062 419.773438 Z M 495.566406 400.113281 C 494.960938 400.804688 494.484375 401.59375 493.625 402.074219 C 492.441406 402.738281 491.328125 403.496094 490.625 404.773438 C 490.273438 405.414062 489.652344 405.949219 488.988281 406.351562 C 488.609375 406.582031 488.273438 406.84375 488.050781 407.246094 C 487.949219 407.425781 487.785156 407.6875 487.621094 407.707031 C 486.273438 407.871094 485.703125 409.316406 484.441406 409.605469 C 484.390625 409.617188 484.328125 409.648438 484.304688 409.6875 C 483.445312 411.066406 481.703125 411.472656 480.832031 412.839844 C 480.746094 412.976562 480.640625 413.128906 480.507812 413.203125 C 479.28125 413.898438 478.15625 414.796875 476.777344 415.199219 C 475.941406 415.441406 474.894531 414.515625 474.957031 413.601562 C 474.976562 413.316406 475.128906 413.042969 475.402344 412.960938 C 477.175781 412.410156 478.203125 410.710938 479.921875 410.0625 C 480.386719 409.890625 480.621094 409.386719 480.855469 408.953125 C 481.074219 408.550781 481.367188 408.257812 481.839844 408.15625 C 482.660156 407.984375 483.164062 407.1875 484.011719 407.042969 C 484.300781 406.996094 484.410156 406.679688 484.492188 406.417969 C 484.722656 405.691406 485.253906 405.257812 485.871094 404.863281 C 486.417969 404.511719 486.984375 404.128906 487.398438 403.636719 C 488.117188 402.789062 488.941406 402.078125 489.886719 401.539062 C 490.6875 401.082031 491.21875 400.433594 491.691406 399.6875 C 491.894531 399.363281 492.113281 399.042969 492.351562 398.75 C 492.613281 398.429688 492.972656 398.277344 493.378906 398.394531 C 494.007812 398.582031 494.628906 398.789062 495.242188 399.019531 C 495.511719 399.117188 495.664062 399.355469 495.707031 399.703125 C 495.671875 399.8125 495.664062 400 495.566406 400.113281 Z M 495.566406 400.113281 " fill-opacity="1" fill-rule="nonzero"/></g></svg>