<svg xmlns="http://www.w3.org/2000/svg" xmlns:xlink="http://www.w3.org/1999/xlink" width="1024" zoomAndPan="magnify" viewBox="0 0 768 767.999994" height="1024" preserveAspectRatio="xMidYMid meet" version="1.0"><defs><clipPath id="f75ff0e12d"><path d="M 111.726562 111.726562 L 636.601562 111.726562 L 636.601562 636.601562 L 111.726562 636.601562 Z M 111.726562 111.726562 " clip-rule="nonzero"/></clipPath><clipPath id="054227023d"><path d="M 374.164062 111.726562 C 229.222656 111.726562 111.726562 229.222656 111.726562 374.164062 C 111.726562 519.101562 229.222656 636.601562 374.164062 636.601562 C 519.101562 636.601562 636.601562 519.101562 636.601562 374.164062 C 636.601562 229.222656 519.101562 111.726562 374.164062 111.726562 Z M 374.164062 111.726562 " clip-rule="nonzero"/></clipPath></defs><g clip-path="url(#f75ff0e12d)"><g clip-path="url(#054227023d)"><path fill="#3d5966" d="M 111.726562 111.726562 L 636.601562 111.726562 L 636.601562 636.601562 L 111.726562 636.601562 Z M 111.726562 111.726562 " fill-opacity="1" fill-rule="nonzero"/></g></g><path fill="#efb27b" d="M 460.179688 465.988281 C 451.433594 485.339844 421.347656 484.554688 403.390625 485.183594 C 388.382812 485.71875 373.121094 486.890625 358.003906 487.429688 C 340.320312 488.050781 317.695312 492.835938 300.867188 486.007812 C 287.097656 480.421875 277.199219 469.1875 275.847656 454.039062 C 274.4375 438.195312 285.25 426.75 294.457031 415.148438 C 302.25 405.328125 310.222656 395.152344 313.609375 383.136719 C 320.527344 358.792969 326.0625 334.128906 331.109375 309.332031 C 334.878906 290.777344 338.375 283.871094 341.019531 265.183594 C 341.375 262.636719 341.796875 260.164062 342.5 257.976562 C 342.992188 256.386719 343.59375 254.933594 344.441406 253.734375 C 358.832031 246.03125 381.65625 247.835938 397.429688 251.789062 C 398.308594 252.992188 399.046875 254.261719 399.648438 255.675781 C 399.789062 255.921875 399.933594 256.210938 400.035156 256.5625 C 401.414062 262.992188 402.757812 265.375 402.757812 265.375 C 402.757812 265.375 404.554688 269.226562 404.832031 271.132812 C 406.773438 285.972656 409.242188 300.742188 411.503906 315.515625 C 413.054688 325.578125 414.605469 335.652344 416.261719 345.6875 C 417.109375 351.023438 419.300781 357.277344 419.300781 362.683594 C 420.390625 367.03125 421.875 372.113281 424.097656 376.707031 C 424.375 378.511719 424.730469 380.347656 425.1875 382.148438 C 428.433594 394.585938 436.652344 405.082031 444.628906 415.148438 C 453.199219 425.976562 464.230469 439.285156 463.085938 454.054688 C 462.738281 458.597656 461.730469 462.558594 460.179688 465.988281 " fill-opacity="1" fill-rule="nonzero"/><path fill="#dd9c66" d="M 311.773438 405.082031 C 299.996094 424.726562 275.160156 446.417969 291.386719 470.339844 C 296.820312 478.328125 306.128906 482.390625 315.652344 484.050781 C 319.925781 484.648438 322.609375 484.796875 322.886719 485.851562 C 323.171875 486.769531 320.949219 488.679688 315.976562 489.914062 C 305.179688 492.320312 294.417969 489.066406 286.199219 482.246094 C 282.8125 478.574219 279.960938 473.558594 277.769531 466.804688 C 270.183594 443.382812 280.414062 432.816406 294.457031 415.148438 C 302.25 405.328125 310.222656 395.152344 313.609375 383.136719 C 320.527344 358.792969 326.0625 334.128906 331.109375 309.332031 C 334.878906 290.777344 338.375 283.871094 341.019531 265.183594 C 341.375 262.636719 341.796875 260.164062 342.5 257.976562 C 345.144531 279.171875 337.527344 330.601562 331.710938 350.136719 C 325.957031 369.503906 322.324219 387.453125 311.773438 405.082031 " fill-opacity="1" fill-rule="nonzero"/><path fill="#dd9c66" d="M 455.597656 478.003906 C 447.628906 483.875 437.609375 486.554688 427.554688 484.292969 C 422.578125 483.058594 420.390625 481.15625 420.640625 480.238281 C 420.960938 479.171875 423.601562 479.03125 427.871094 478.429688 C 433.585938 477.441406 438.984375 475.820312 444.097656 472.429688 C 445.546875 471.441406 447.027344 470.339844 448.371094 469.035156 C 449.703125 467.726562 451.046875 466.347656 452.140625 464.726562 C 467.980469 441.40625 444.90625 420.804688 433.089844 401.722656 C 411.042969 366.109375 401.023438 270.941406 399.648438 255.675781 C 399.789062 255.921875 399.933594 256.210938 400.035156 256.527344 L 400.035156 256.5625 C 401.023438 261.71875 403.25 262.265625 404.832031 271.132812 C 405.503906 274.914062 406.074219 278.199219 406.390625 280.285156 C 408.964844 297.914062 412.03125 315.441406 415.59375 332.894531 C 418.769531 348.476562 422.542969 365.4375 429.707031 379.746094 C 438.914062 398.125 458.101562 407.664062 467.453125 425.964844 C 477.929688 446.59375 470.0625 467.476562 455.597656 478.003906 " fill-opacity="1" fill-rule="nonzero"/><path fill="#f3c8a0" d="M 446.546875 439.996094 C 446.097656 438.878906 445.5625 437.835938 444.921875 436.902344 C 441.972656 432.554688 437.683594 429.324219 433.476562 426.179688 C 421.230469 417.019531 409.644531 411.085938 404.308594 396.578125 C 394.746094 370.589844 390.742188 342.847656 389.589844 315.277344 C 389.589844 306.117188 389.136719 296.976562 389.3125 287.8125 C 389.40625 283.113281 388.117188 268.085938 387.871094 249.835938 C 376.21875 247.941406 362.84375 247.585938 351.957031 250.730469 C 350.164062 280.375 348.296875 298.992188 347.398438 328.660156 C 346.878906 345.5625 343.089844 361.164062 342.433594 377.847656 C 342.003906 388.683594 340.34375 401.324219 331.785156 409.253906 C 326.257812 414.363281 318.234375 415.175781 311.710938 418.984375 C 296.257812 428.003906 283.03125 442.070312 289.578125 461.042969 C 292.53125 469.605469 298.960938 476.902344 307.066406 480.90625 C 303.980469 469.867188 317.371094 453.46875 327.226562 464.058594 C 336.6875 474.222656 346.421875 484.078125 360.851562 486.664062 C 370.898438 488.464844 381.332031 485.894531 390.480469 481.371094 C 402.027344 475.652344 412.699219 461.238281 426.679688 463.886719 C 432.5625 465 437.496094 472.097656 434.207031 477.113281 C 438.46875 470.617188 445.96875 470.589844 447.597656 461.285156 C 448.667969 455.121094 449.074219 446.34375 446.546875 439.996094 " fill-opacity="1" fill-rule="nonzero"/><path fill="#dd9c66" d="M 425.953125 464.152344 C 414.285156 462.101562 407.628906 464.464844 400.128906 472.410156 C 393.113281 479.832031 384.125 484.199219 373.84375 485.09375 C 358.183594 486.464844 345.542969 479.582031 335.824219 467.871094 C 329.375 460.09375 317.320312 455.777344 307.585938 460.324219 C 294.957031 466.226562 309.519531 465.6875 314.402344 467.007812 C 330.695312 471.636719 337.253906 492.125 365.242188 497.628906 C 389.835938 502.484375 396.140625 484.375 407.503906 477.738281 C 414.691406 473.652344 421.199219 471.6875 426.304688 470.019531 C 429.6875 468.917969 431.71875 468.089844 431.765625 467.019531 C 431.808594 466.011719 429.824219 464.835938 425.953125 464.152344 " fill-opacity="1" fill-rule="nonzero"/><path fill="#f3cead" d="M 387.5 370.941406 C 383.847656 339.808594 382.589844 308.648438 380.175781 277.277344 C 379.148438 263.835938 379.589844 262 380.3125 248.871094 C 373.289062 248.199219 366.007812 248.160156 359.242188 249.15625 C 356.640625 272.851562 354.179688 285.511719 352.371094 309.269531 C 350.769531 330.027344 349.214844 350.78125 347.773438 371.542969 C 346.53125 389.542969 343.648438 407.4375 339.996094 425.097656 C 338.222656 433.710938 333.59375 444.84375 336.027344 454.046875 C 339.609375 467.5625 355.527344 469.894531 367.382812 471.46875 C 378.238281 472.914062 387.054688 471.148438 393.789062 461.550781 C 401.703125 450.285156 395.589844 439.816406 394.191406 427.902344 C 391.960938 408.917969 389.734375 389.933594 387.5 370.941406 " fill-opacity="1" fill-rule="nonzero"/><path fill="#f3d9c2" d="M 375.703125 462.0625 C 402.757812 446.75 389.492188 429.085938 393.753906 426.285156 C 396.652344 424.441406 400.738281 430.183594 402.160156 433.792969 C 412.484375 459.722656 377.980469 478.679688 364.65625 465.125 C 359.441406 459.863281 367.628906 464.945312 375.703125 462.0625 " fill-opacity="1" fill-rule="nonzero"/><path fill="#f3d9c2" d="M 441.515625 441.269531 C 439.964844 438.300781 437.949219 435.765625 435.824219 433.804688 C 434.722656 432.851562 433.667969 431.984375 432.539062 431.324219 C 431.984375 430.996094 431.464844 430.664062 430.921875 430.402344 C 430.371094 430.144531 429.839844 429.917969 429.332031 429.71875 C 428.320312 429.296875 427.300781 429.085938 426.414062 428.945312 C 425.53125 428.796875 424.714844 428.800781 423.996094 428.921875 C 422.578125 429.132812 421.625 429.730469 421.144531 430.648438 C 420.167969 432.546875 421.1875 435.121094 422.65625 438.042969 C 422.835938 438.417969 423.03125 438.789062 423.246094 439.15625 C 423.441406 439.546875 423.644531 439.9375 423.855469 440.339844 C 424.3125 441.105469 424.71875 441.964844 425.207031 442.785156 C 426.125 444.488281 427.097656 446.300781 428.125 448.203125 C 429.078125 450.136719 429.988281 451.980469 430.847656 453.710938 C 431.234375 454.589844 431.703125 455.421875 432.0625 456.238281 C 432.265625 456.636719 432.46875 457.035156 432.667969 457.421875 C 432.84375 457.808594 433.03125 458.183594 433.230469 458.542969 C 434.761719 461.429688 436.28125 463.753906 438.375 464.058594 C 439.414062 464.191406 440.449219 463.757812 441.441406 462.726562 C 441.949219 462.203125 442.433594 461.542969 442.820312 460.730469 C 443.21875 459.929688 443.640625 458.972656 443.875 457.910156 C 444.011719 457.371094 444.128906 456.800781 444.238281 456.207031 C 444.347656 455.609375 444.367188 454.996094 444.417969 454.351562 C 444.539062 453.050781 444.441406 451.6875 444.300781 450.234375 C 443.929688 447.363281 443.039062 444.253906 441.515625 441.269531 " fill-opacity="1" fill-rule="nonzero"/><path fill="#f3d9c2" d="M 375.316406 248.511719 L 377.472656 313.664062 C 377.472656 313.664062 383.351562 376.230469 391.289062 394.785156 C 390.253906 381.277344 384.15625 292.589844 381.570312 249 C 379.503906 248.78125 377.417969 248.617188 375.316406 248.511719 " fill-opacity="1" fill-rule="nonzero"/></svg>