<svg xmlns="http://www.w3.org/2000/svg" xmlns:xlink="http://www.w3.org/1999/xlink" width="1024" zoomAndPan="magnify" viewBox="0 0 768 767.999994" height="1024" preserveAspectRatio="xMidYMid meet" version="1.0"><defs><clipPath id="3a9649cb1c"><path d="M 121.601562 121.601562 L 646.398438 121.601562 L 646.398438 646.398438 L 121.601562 646.398438 Z M 121.601562 121.601562 " clip-rule="nonzero"/></clipPath><clipPath id="a8069d01a9"><path d="M 384 121.601562 C 239.082031 121.601562 121.601562 239.082031 121.601562 384 C 121.601562 528.917969 239.082031 646.398438 384 646.398438 C 528.917969 646.398438 646.398438 528.917969 646.398438 384 C 646.398438 239.082031 528.917969 121.601562 384 121.601562 Z M 384 121.601562 " clip-rule="nonzero"/></clipPath><clipPath id="4ab3164dab"><path d="M 239.363281 336 L 528.863281 336 L 528.863281 484.660156 L 239.363281 484.660156 Z M 239.363281 336 " clip-rule="nonzero"/></clipPath><clipPath id="419b458e50"><path d="M 379 283.660156 L 389 283.660156 L 389 312 L 379 312 Z M 379 283.660156 " clip-rule="nonzero"/></clipPath><clipPath id="bcdaf394cd"><path d="M 239.363281 390 L 528.863281 390 L 528.863281 484.660156 L 239.363281 484.660156 Z M 239.363281 390 " clip-rule="nonzero"/></clipPath><clipPath id="faa615f99b"><path d="M 379 283.660156 L 389 283.660156 L 389 312 L 379 312 Z M 379 283.660156 " clip-rule="nonzero"/></clipPath><clipPath id="9ce21cb352"><path d="M 239.363281 452 L 255 452 L 255 463 L 239.363281 463 Z M 239.363281 452 " clip-rule="nonzero"/></clipPath><clipPath id="fa7e5ee74e"><path d="M 513 452 L 528.863281 452 L 528.863281 463 L 513 463 Z M 513 452 " clip-rule="nonzero"/></clipPath></defs><g clip-path="url(#3a9649cb1c)"><g clip-path="url(#a8069d01a9)"><path fill="#55887c" d="M 121.601562 121.601562 L 646.398438 121.601562 L 646.398438 646.398438 L 121.601562 646.398438 Z M 121.601562 121.601562 " fill-opacity="1" fill-rule="nonzero"/></g></g><g clip-path="url(#4ab3164dab)"><path fill="#ffdccd" d="M 440.800781 363 C 429.835938 363 419.511719 357.984375 412.398438 349.644531 C 405.574219 341.65625 395.367188 336.582031 383.996094 336.582031 C 372.625 336.582031 362.476562 341.65625 355.59375 349.644531 C 348.480469 357.984375 338.15625 363 327.191406 363 L 239.363281 363 L 239.363281 484.304688 L 528.628906 484.304688 L 528.628906 363 Z M 440.800781 363 " fill-opacity="1" fill-rule="nonzero"/></g><path fill="#d75443" d="M 401.609375 379.5625 L 389.828125 359.152344 C 386.796875 353.902344 379.273438 353.902344 376.238281 359.152344 L 364.460938 379.5625 C 362.769531 382.652344 361.777344 386.152344 361.777344 389.941406 C 361.777344 401.664062 371.28125 411.230469 383.0625 411.230469 C 394.785156 411.230469 404.351562 401.722656 404.351562 389.941406 C 404.292969 386.152344 403.300781 382.59375 401.609375 379.5625 Z M 401.609375 379.5625 " fill-opacity="1" fill-rule="nonzero"/><g clip-path="url(#419b458e50)"><path fill="#dce1eb" d="M 383.996094 311.445312 C 381.429688 311.445312 379.332031 309.34375 379.332031 306.78125 L 379.332031 288.351562 C 379.332031 285.785156 381.429688 283.683594 383.996094 283.683594 C 386.5625 283.683594 388.660156 285.785156 388.660156 288.351562 L 388.660156 306.78125 C 388.660156 309.34375 386.5625 311.445312 383.996094 311.445312 Z M 383.996094 311.445312 " fill-opacity="1" fill-rule="nonzero"/></g><path fill="#dce1eb" d="M 412.105469 319.902344 C 411 319.902344 409.832031 319.492188 408.957031 318.675781 C 407.089844 316.925781 406.914062 313.953125 408.664062 312.085938 L 422.3125 297.273438 C 424.0625 295.40625 427.035156 295.230469 428.902344 296.980469 C 430.769531 298.730469 430.945312 301.707031 429.195312 303.570312 L 415.546875 318.386719 C 414.671875 319.375 413.390625 319.902344 412.105469 319.902344 Z M 412.105469 319.902344 " fill-opacity="1" fill-rule="nonzero"/><path fill="#dce1eb" d="M 355.886719 319.902344 C 354.601562 319.902344 353.378906 319.375 352.445312 318.386719 L 338.796875 303.570312 C 337.050781 301.707031 337.164062 298.730469 339.089844 296.980469 C 340.957031 295.230469 343.929688 295.347656 345.679688 297.273438 L 359.328125 312.085938 C 361.078125 313.953125 360.960938 316.925781 359.035156 318.675781 C 358.101562 319.492188 356.996094 319.902344 355.886719 319.902344 Z M 355.886719 319.902344 " fill-opacity="1" fill-rule="nonzero"/><g clip-path="url(#bcdaf394cd)"><path fill="#ffcdbe" d="M 492.414062 410.472656 C 485.0625 398.226562 471.710938 390 456.3125 390 C 440.917969 390 427.503906 398.226562 420.210938 410.472656 C 412.921875 422.777344 399.449219 431 383.996094 431 C 368.601562 431 355.128906 422.777344 347.78125 410.472656 C 340.429688 398.226562 327.078125 390 311.679688 390 C 296.285156 390 282.871094 398.226562 275.578125 410.472656 C 268.289062 422.777344 254.816406 431 239.363281 431 L 239.363281 484.246094 L 528.628906 484.246094 L 528.628906 431 C 513.234375 431 499.761719 422.777344 492.414062 410.472656 Z M 492.414062 410.472656 " fill-opacity="1" fill-rule="nonzero"/></g><g clip-path="url(#faa615f99b)"><path fill="#dce1eb" d="M 383.996094 311.445312 C 381.429688 311.445312 379.332031 309.34375 379.332031 306.78125 L 379.332031 288.351562 C 379.332031 285.785156 381.429688 283.683594 383.996094 283.683594 C 386.5625 283.683594 388.660156 285.785156 388.660156 288.351562 L 388.660156 306.78125 C 388.660156 309.34375 386.5625 311.445312 383.996094 311.445312 Z M 383.996094 311.445312 " fill-opacity="1" fill-rule="nonzero"/></g><path fill="#dce1eb" d="M 412.105469 319.902344 C 411 319.902344 409.832031 319.492188 408.957031 318.675781 C 407.089844 316.925781 406.914062 313.953125 408.664062 312.085938 L 422.3125 297.273438 C 424.0625 295.40625 427.035156 295.230469 428.902344 296.980469 C 430.769531 298.730469 430.945312 301.707031 429.195312 303.570312 L 415.546875 318.386719 C 414.671875 319.375 413.390625 319.902344 412.105469 319.902344 Z M 412.105469 319.902344 " fill-opacity="1" fill-rule="nonzero"/><path fill="#dce1eb" d="M 355.886719 319.902344 C 354.601562 319.902344 353.378906 319.375 352.445312 318.386719 L 338.796875 303.570312 C 337.050781 301.707031 337.164062 298.730469 339.089844 296.980469 C 340.957031 295.230469 343.929688 295.347656 345.679688 297.273438 L 359.328125 312.085938 C 361.078125 313.953125 360.960938 316.925781 359.035156 318.675781 C 358.101562 319.492188 356.996094 319.902344 355.886719 319.902344 Z M 355.886719 319.902344 " fill-opacity="1" fill-rule="nonzero"/><g clip-path="url(#9ce21cb352)"><path fill="#ffbeaa" d="M 239.363281 462.316406 L 249.976562 462.316406 C 252.542969 462.316406 254.644531 460.21875 254.644531 457.652344 C 254.644531 455.085938 252.542969 452.988281 249.976562 452.988281 L 239.363281 452.988281 Z M 239.363281 462.316406 " fill-opacity="1" fill-rule="nonzero"/></g><path fill="#ffbeaa" d="M 279.195312 452.988281 C 276.628906 452.988281 274.53125 455.085938 274.53125 457.652344 C 274.53125 460.21875 276.628906 462.316406 279.195312 462.316406 L 289.808594 462.316406 C 292.375 462.316406 294.476562 460.21875 294.476562 457.652344 C 294.476562 455.085938 292.375 452.988281 289.808594 452.988281 Z M 279.195312 452.988281 " fill-opacity="1" fill-rule="nonzero"/><path fill="#ffbeaa" d="M 314.304688 457.652344 C 314.304688 460.21875 316.402344 462.316406 318.96875 462.316406 L 329.585938 462.316406 C 332.148438 462.316406 334.25 460.21875 334.25 457.652344 C 334.25 455.085938 332.148438 452.988281 329.585938 452.988281 L 318.96875 452.988281 C 316.402344 452.988281 314.304688 455.085938 314.304688 457.652344 Z M 314.304688 457.652344 " fill-opacity="1" fill-rule="nonzero"/><path fill="#ffbeaa" d="M 358.800781 462.316406 L 369.417969 462.316406 C 371.984375 462.316406 374.082031 460.21875 374.082031 457.652344 C 374.082031 455.085938 371.984375 452.988281 369.417969 452.988281 L 358.800781 452.988281 C 356.234375 452.988281 354.136719 455.085938 354.136719 457.652344 C 354.136719 460.21875 356.234375 462.316406 358.800781 462.316406 Z M 358.800781 462.316406 " fill-opacity="1" fill-rule="nonzero"/><path fill="#ffbeaa" d="M 398.632812 462.316406 L 409.25 462.316406 C 411.816406 462.316406 413.914062 460.21875 413.914062 457.652344 C 413.914062 455.085938 411.816406 452.988281 409.25 452.988281 L 398.632812 452.988281 C 396.070312 452.988281 393.96875 455.085938 393.96875 457.652344 C 393.96875 460.21875 396.011719 462.316406 398.632812 462.316406 Z M 398.632812 462.316406 " fill-opacity="1" fill-rule="nonzero"/><path fill="#ffbeaa" d="M 438.410156 462.316406 L 449.023438 462.316406 C 451.589844 462.316406 453.6875 460.21875 453.6875 457.652344 C 453.6875 455.085938 451.589844 452.988281 449.023438 452.988281 L 438.410156 452.988281 C 435.84375 452.988281 433.742188 455.085938 433.742188 457.652344 C 433.742188 460.21875 435.84375 462.316406 438.410156 462.316406 Z M 438.410156 462.316406 " fill-opacity="1" fill-rule="nonzero"/><path fill="#ffbeaa" d="M 478.242188 452.988281 C 475.675781 452.988281 473.574219 455.085938 473.574219 457.652344 C 473.574219 460.21875 475.675781 462.316406 478.242188 462.316406 L 488.855469 462.316406 C 491.421875 462.316406 493.519531 460.21875 493.519531 457.652344 C 493.519531 455.085938 491.421875 452.988281 488.855469 452.988281 Z M 478.242188 452.988281 " fill-opacity="1" fill-rule="nonzero"/><g clip-path="url(#fa7e5ee74e)"><path fill="#ffbeaa" d="M 528.628906 452.988281 L 518.015625 452.988281 C 515.449219 452.988281 513.347656 455.085938 513.347656 457.652344 C 513.347656 460.21875 515.449219 462.316406 518.015625 462.316406 L 528.628906 462.316406 Z M 528.628906 452.988281 " fill-opacity="1" fill-rule="nonzero"/></g></svg>