<svg xmlns="http://www.w3.org/2000/svg" xmlns:xlink="http://www.w3.org/1999/xlink" width="1024" zoomAndPan="magnify" viewBox="0 0 768 767.999994" height="1024" preserveAspectRatio="xMidYMid meet" version="1.0"><defs><clipPath id="cf24d8f7e0"><path d="M 121.523438 121.523438 L 646.476562 121.523438 L 646.476562 646.476562 L 121.523438 646.476562 Z M 121.523438 121.523438 " clip-rule="nonzero"/></clipPath><clipPath id="21b8688246"><path d="M 384 121.523438 C 239.039062 121.523438 121.523438 239.039062 121.523438 384 C 121.523438 528.960938 239.039062 646.476562 384 646.476562 C 528.960938 646.476562 646.476562 528.960938 646.476562 384 C 646.476562 239.039062 528.960938 121.523438 384 121.523438 Z M 384 121.523438 " clip-rule="nonzero"/></clipPath></defs><g clip-path="url(#cf24d8f7e0)"><g clip-path="url(#21b8688246)"><path fill="#e6c7c0" d="M 121.523438 121.523438 L 646.476562 121.523438 L 646.476562 646.476562 L 121.523438 646.476562 Z M 121.523438 121.523438 " fill-opacity="1" fill-rule="nonzero"/></g></g><path fill="#f26552" d="M 269.65625 429.519531 C 269.65625 429.519531 276.226562 415.046875 307.992188 421.109375 C 339.757812 427.175781 365.421875 411.3125 375.238281 394.507812 C 385.050781 377.699219 381.808594 337.574219 375.238281 325.433594 C 375.238281 325.433594 330.875 319.519531 317.183594 277.207031 L 353.328125 255.890625 C 353.328125 255.890625 359.902344 277.128906 370.601562 282.265625 C 370.601562 282.265625 412.160156 226.023438 476.140625 255.890625 C 540.121094 285.757812 537.175781 370.246094 526.011719 404.316406 C 514.851562 438.386719 477.445312 503.726562 412.09375 516.789062 C 346.746094 529.851562 304.234375 513.503906 282.285156 489.953125 C 282.285156 489.953125 268.976562 477.824219 269.675781 464.292969 C 269.675781 464.292969 261.277344 471.058594 262.207031 486.449219 C 263.136719 501.84375 272.25 531.03125 272.25 531.03125 C 272.25 531.03125 265.011719 541.761719 242.601562 540.128906 C 242.601562 540.128906 227.890625 503.027344 232.324219 478.984375 C 236.761719 454.941406 248.40625 428.347656 269.65625 429.519531 Z M 269.65625 429.519531 " fill-opacity="1" fill-rule="nonzero"/><path fill="#e24b3d" d="M 338.148438 279.230469 C 338.148438 279.230469 345.617188 297.121094 352.769531 302.5625 C 359.921875 308.003906 374.402344 315.789062 373.167969 318.742188 C 371.929688 321.699219 364.054688 320.453125 357.128906 317.964844 C 350.207031 315.480469 336.042969 303.582031 333.4375 297.898438 C 330.832031 292.214844 326 279.539062 338.148438 279.230469 Z M 338.148438 279.230469 " fill-opacity="1" fill-rule="nonzero"/><path fill="#f47c6b" d="M 393.167969 322.433594 C 393.167969 322.433594 382.664062 306.328125 387.800781 289.292969 C 392.9375 272.257812 404.636719 262.21875 414.648438 264.296875 C 424.660156 266.378906 434.496094 271.457031 434.957031 299.847656 C 435.414062 328.234375 416.507812 379.363281 409.511719 385.410156 C 402.511719 391.453125 392.925781 397.308594 392.925781 391.242188 C 392.925781 385.179688 398.457031 334.894531 393.167969 322.433594 Z M 393.167969 322.433594 " fill-opacity="1" fill-rule="nonzero"/><path fill="#f9b19d" d="M 396.660156 297.253906 C 396.660156 297.253906 395.875 276.898438 406.828125 275.957031 C 417.78125 275.015625 416.683594 288.558594 414.496094 295.414062 C 412.304688 302.265625 406.71875 314.234375 402.511719 314.234375 C 398.304688 314.234375 395.535156 308.265625 396.660156 297.253906 Z M 396.660156 297.253906 " fill-opacity="1" fill-rule="nonzero"/><path fill="#f47c6b" d="M 288.101562 436.164062 C 288.101562 436.164062 285.996094 428.226562 299.65625 430.449219 C 313.316406 432.671875 321.015625 434.304688 330.589844 431.152344 C 340.164062 427.996094 355.105469 416.917969 360.589844 418.199219 C 366.078125 419.480469 369.113281 422.992188 365.148438 427.132812 C 361.183594 431.269531 340.863281 443.402344 329.054688 445.613281 C 317.25 447.824219 300.335938 448.066406 294.96875 445.613281 C 289.601562 443.160156 288.101562 436.164062 288.101562 436.164062 Z M 288.101562 436.164062 " fill-opacity="1" fill-rule="nonzero"/><path fill="#f47c6b" d="M 241.484375 517.105469 C 241.484375 517.105469 233.816406 490.65625 237.101562 474.945312 C 240.386719 459.234375 251.582031 438.222656 257.804688 439.316406 C 264.023438 440.414062 249.25 460.316406 245.972656 469.183594 C 242.699219 478.054688 243.015625 509.015625 243.78125 513.054688 C 244.550781 517.09375 242.523438 519.132812 241.484375 517.105469 Z M 241.484375 517.105469 " fill-opacity="1" fill-rule="nonzero"/><path fill="#e24b3d" d="M 268.878906 461.410156 L 264.835938 444.914062 C 264.835938 444.914062 254.867188 477.429688 255.183594 484.589844 C 255.503906 491.75 260.003906 517.433594 258.601562 524.101562 C 257.199219 530.769531 247.550781 535.300781 246.148438 535.621094 C 244.746094 535.9375 246.621094 539.121094 256.007812 536.320312 C 265.394531 533.515625 268.21875 530.40625 268.21875 530.40625 C 268.21875 530.40625 258.910156 493.105469 259.304688 484.117188 C 259.699219 475.128906 267.277344 461.476562 268.878906 461.410156 Z M 268.878906 461.410156 " fill-opacity="1" fill-rule="nonzero"/><path fill="#e24c3d" d="M 469.042969 312.359375 C 469.042969 312.359375 452.699219 292.292969 456.433594 279.230469 C 460.171875 266.171875 465.777344 260.621094 478.847656 268.960938 C 491.914062 277.304688 517.609375 317.035156 518.070312 348.304688 C 518.53125 379.574219 508.738281 430.910156 470.972656 464.050781 C 433.203125 497.191406 369.585938 514.925781 347.171875 510.746094 C 324.761719 506.5625 311.214844 497.210938 315.648438 495.8125 C 320.085938 494.410156 389.039062 495.472656 417.683594 478.613281 C 446.324219 461.75 489.121094 414.597656 482.582031 367.464844 C 476.042969 320.332031 469.042969 312.359375 469.042969 312.359375 Z M 469.042969 312.359375 " fill-opacity="1" fill-rule="nonzero"/><path fill="#f2b69e" d="M 352.925781 253.484375 C 353.070312 253.761719 353.183594 254.054688 353.265625 254.363281 C 353.347656 254.671875 353.398438 254.996094 353.414062 255.335938 C 353.433594 255.671875 353.417969 256.023438 353.367188 256.386719 C 353.320312 256.75 353.242188 257.125 353.128906 257.511719 C 353.019531 257.894531 352.875 258.289062 352.699219 258.695312 C 352.523438 259.097656 352.316406 259.511719 352.082031 259.929688 C 351.84375 260.347656 351.578125 260.769531 351.28125 261.199219 C 350.984375 261.625 350.660156 262.058594 350.308594 262.492188 C 349.957031 262.929688 349.578125 263.363281 349.171875 263.800781 C 348.765625 264.238281 348.335938 264.675781 347.882812 265.109375 C 347.425781 265.542969 346.949219 265.976562 346.449219 266.402344 C 345.949219 266.832031 345.429688 267.253906 344.890625 267.671875 C 344.351562 268.089844 343.796875 268.5 343.222656 268.90625 C 342.648438 269.308594 342.058594 269.703125 341.457031 270.089844 C 340.851562 270.472656 340.238281 270.847656 339.609375 271.210938 C 338.984375 271.574219 338.347656 271.921875 337.703125 272.261719 C 337.058594 272.597656 336.410156 272.921875 335.753906 273.230469 C 335.101562 273.539062 334.441406 273.832031 333.78125 274.109375 C 333.121094 274.382812 332.464844 274.644531 331.804688 274.886719 C 331.144531 275.128906 330.492188 275.351562 329.839844 275.558594 C 329.191406 275.761719 328.546875 275.949219 327.910156 276.117188 C 327.273438 276.28125 326.644531 276.429688 326.03125 276.554688 C 325.414062 276.683594 324.808594 276.789062 324.21875 276.871094 C 323.628906 276.957031 323.054688 277.019531 322.496094 277.0625 C 321.9375 277.105469 321.398438 277.125 320.878906 277.125 C 320.355469 277.125 319.855469 277.101562 319.378906 277.058594 C 318.898438 277.015625 318.445312 276.953125 318.011719 276.867188 C 317.578125 276.78125 317.171875 276.675781 316.792969 276.546875 C 316.410156 276.417969 316.058594 276.273438 315.730469 276.105469 C 315.40625 275.9375 315.109375 275.75 314.839844 275.542969 C 314.570312 275.335938 314.332031 275.113281 314.125 274.867188 C 313.917969 274.625 313.742188 274.363281 313.59375 274.085938 C 313.449219 273.808594 313.335938 273.515625 313.253906 273.207031 C 313.171875 272.898438 313.121094 272.574219 313.105469 272.234375 C 313.089844 271.898438 313.105469 271.546875 313.152344 271.183594 C 313.199219 270.820312 313.277344 270.445312 313.390625 270.058594 C 313.503906 269.675781 313.648438 269.28125 313.820312 268.875 C 313.996094 268.472656 314.203125 268.0625 314.441406 267.644531 C 314.675781 267.222656 314.941406 266.800781 315.238281 266.371094 C 315.535156 265.945312 315.859375 265.511719 316.210938 265.078125 C 316.566406 264.640625 316.945312 264.207031 317.347656 263.769531 C 317.753906 263.332031 318.183594 262.898438 318.640625 262.460938 C 319.09375 262.027344 319.570312 261.59375 320.070312 261.167969 C 320.570312 260.738281 321.089844 260.316406 321.628906 259.898438 C 322.167969 259.480469 322.726562 259.070312 323.300781 258.664062 C 323.871094 258.261719 324.460938 257.867188 325.066406 257.484375 C 325.667969 257.097656 326.285156 256.722656 326.910156 256.359375 C 327.535156 255.996094 328.171875 255.648438 328.816406 255.308594 C 329.460938 254.972656 330.109375 254.648438 330.765625 254.339844 C 331.421875 254.03125 332.078125 253.738281 332.738281 253.464844 C 333.398438 253.1875 334.058594 252.925781 334.714844 252.683594 C 335.375 252.441406 336.03125 252.21875 336.679688 252.011719 C 337.332031 251.808594 337.972656 251.621094 338.609375 251.453125 C 339.246094 251.289062 339.875 251.140625 340.492188 251.015625 C 341.105469 250.886719 341.710938 250.78125 342.300781 250.699219 C 342.890625 250.613281 343.464844 250.550781 344.023438 250.507812 C 344.582031 250.464844 345.121094 250.445312 345.644531 250.445312 C 346.164062 250.445312 346.664062 250.46875 347.140625 250.511719 C 347.621094 250.554688 348.078125 250.617188 348.507812 250.703125 C 348.941406 250.789062 349.347656 250.898438 349.726562 251.023438 C 350.109375 251.152344 350.460938 251.300781 350.789062 251.464844 C 351.113281 251.632812 351.414062 251.820312 351.679688 252.027344 C 351.949219 252.234375 352.1875 252.457031 352.394531 252.703125 C 352.605469 252.945312 352.78125 253.207031 352.925781 253.484375 Z M 352.925781 253.484375 " fill-opacity="1" fill-rule="nonzero"/><path fill="#af383c" d="M 347.113281 256.046875 C 347.3125 256.429688 347.421875 256.855469 347.4375 257.324219 C 347.453125 257.796875 347.375 258.300781 347.203125 258.839844 C 347.035156 259.378906 346.773438 259.945312 346.425781 260.535156 C 346.074219 261.121094 345.640625 261.722656 345.125 262.339844 C 344.613281 262.953125 344.023438 263.570312 343.363281 264.1875 C 342.699219 264.804688 341.980469 265.410156 341.195312 266.007812 C 340.414062 266.605469 339.589844 267.179688 338.714844 267.730469 C 337.84375 268.28125 336.941406 268.800781 336.011719 269.289062 C 335.082031 269.777344 334.144531 270.222656 333.191406 270.625 C 332.242188 271.027344 331.300781 271.378906 330.363281 271.683594 C 329.429688 271.988281 328.519531 272.234375 327.632812 272.425781 C 326.75 272.621094 325.90625 272.753906 325.109375 272.824219 C 324.308594 272.898438 323.570312 272.914062 322.886719 272.863281 C 322.203125 272.816406 321.589844 272.710938 321.050781 272.542969 C 320.507812 272.375 320.046875 272.152344 319.671875 271.871094 C 319.292969 271.589844 319.003906 271.257812 318.800781 270.875 C 318.601562 270.496094 318.492188 270.066406 318.476562 269.597656 C 318.460938 269.128906 318.539062 268.621094 318.710938 268.082031 C 318.878906 267.542969 319.140625 266.976562 319.488281 266.390625 C 319.839844 265.800781 320.273438 265.199219 320.785156 264.582031 C 321.300781 263.96875 321.890625 263.351562 322.550781 262.734375 C 323.214844 262.117188 323.933594 261.511719 324.714844 260.914062 C 325.5 260.320312 326.324219 259.746094 327.199219 259.191406 C 328.070312 258.640625 328.972656 258.121094 329.902344 257.632812 C 330.832031 257.148438 331.769531 256.703125 332.722656 256.300781 C 333.671875 255.894531 334.613281 255.542969 335.550781 255.238281 C 336.484375 254.9375 337.394531 254.6875 338.28125 254.496094 C 339.164062 254.304688 340.007812 254.171875 340.804688 254.097656 C 341.605469 254.023438 342.34375 254.011719 343.027344 254.058594 C 343.710938 254.105469 344.324219 254.214844 344.863281 254.378906 C 345.40625 254.546875 345.867188 254.769531 346.242188 255.050781 C 346.621094 255.332031 346.910156 255.664062 347.113281 256.046875 Z M 347.113281 256.046875 " fill-opacity="1" fill-rule="nonzero"/></svg>