<svg xmlns="http://www.w3.org/2000/svg" xmlns:xlink="http://www.w3.org/1999/xlink" width="1024" zoomAndPan="magnify" viewBox="0 0 768 767.999994" height="1024" preserveAspectRatio="xMidYMid meet" version="1.0"><defs><clipPath id="5bc21ea19c"><path d="M 121.8125 121.8125 L 646.1875 121.8125 L 646.1875 646.1875 L 121.8125 646.1875 Z M 121.8125 121.8125 " clip-rule="nonzero"/></clipPath><clipPath id="09abb15544"><path d="M 384 121.8125 C 239.195312 121.8125 121.8125 239.195312 121.8125 384 C 121.8125 528.804688 239.195312 646.1875 384 646.1875 C 528.804688 646.1875 646.1875 528.804688 646.1875 384 C 646.1875 239.195312 528.804688 121.8125 384 121.8125 Z M 384 121.8125 " clip-rule="nonzero"/></clipPath><clipPath id="a469052de1"><path d="M 238 342 L 532 342 L 532 549.011719 L 238 549.011719 Z M 238 342 " clip-rule="nonzero"/></clipPath><clipPath id="373e1882aa"><path d="M 384 184 L 531 184 L 531 549.011719 L 384 549.011719 Z M 384 184 " clip-rule="nonzero"/></clipPath></defs><g clip-path="url(#5bc21ea19c)"><g clip-path="url(#09abb15544)"><path fill="#e6c7c0" d="M 121.8125 121.8125 L 646.1875 121.8125 L 646.1875 646.1875 L 121.8125 646.1875 Z M 121.8125 121.8125 " fill-opacity="1" fill-rule="nonzero"/></g></g><path fill="#ed7b72" d="M 480.855469 369.816406 L 470.226562 359.183594 L 491.480469 348.554688 C 493 347.796875 493 346.277344 492.242188 345.519531 L 481.613281 334.886719 C 480.855469 334.128906 480.097656 334.128906 479.335938 334.128906 L 449.734375 350.074219 C 448.214844 350.832031 448.214844 352.351562 448.972656 353.871094 L 462.636719 367.539062 L 438.347656 378.925781 C 437.585938 379.6875 437.585938 381.207031 439.105469 380.445312 L 480.097656 372.851562 C 481.613281 373.613281 482.375 371.335938 480.855469 369.816406 Z M 480.855469 369.816406 " fill-opacity="1" fill-rule="nonzero"/><path fill="#ed7b72" d="M 285.773438 369.816406 L 296.398438 358.425781 L 275.144531 347.796875 C 273.628906 347.035156 273.628906 345.519531 274.386719 344.757812 L 285.011719 334.128906 C 285.773438 333.371094 286.53125 333.371094 287.289062 333.371094 L 316.894531 349.316406 C 318.414062 350.074219 318.414062 351.59375 317.652344 353.109375 L 303.988281 366.777344 L 328.28125 378.167969 C 329.039062 378.925781 329.039062 380.445312 327.523438 379.6875 L 286.53125 372.09375 C 285.011719 373.613281 284.253906 371.335938 285.773438 369.816406 Z M 285.773438 369.816406 " fill-opacity="1" fill-rule="nonzero"/><g clip-path="url(#a469052de1)"><path fill="#e7b95d" d="M 527.917969 443.46875 C 527.160156 436.632812 523.363281 429.800781 518.050781 424.484375 C 510.460938 416.132812 499.832031 410.058594 489.203125 407.78125 L 443.660156 397.148438 C 433.792969 394.871094 426.203125 370.574219 426.203125 360.703125 L 426.203125 342.480469 L 343.460938 342.480469 L 343.460938 360.703125 C 343.460938 371.335938 336.628906 394.871094 326.003906 397.148438 L 280.457031 407.78125 C 269.074219 410.816406 259.203125 416.132812 251.613281 424.484375 C 247.058594 429.800781 242.503906 435.875 241.746094 443.46875 C 240.988281 454.855469 239.46875 493.582031 238.710938 520.914062 C 237.949219 536.101562 250.855469 549.011719 266.035156 549.011719 L 504.386719 549.011719 C 519.566406 549.011719 531.714844 536.101562 531.714844 520.914062 C 530.953125 493.582031 529.4375 454.855469 527.917969 443.46875 Z M 527.917969 443.46875 " fill-opacity="1" fill-rule="nonzero"/></g><path fill="#ed7b72" d="M 423.164062 387.28125 C 423.164062 388.523438 423.105469 389.761719 422.984375 391 C 422.859375 392.238281 422.679688 393.464844 422.4375 394.6875 C 422.195312 395.90625 421.890625 397.109375 421.53125 398.300781 C 421.171875 399.488281 420.75 400.660156 420.277344 401.808594 C 419.800781 402.957031 419.269531 404.078125 418.683594 405.175781 C 418.097656 406.273438 417.460938 407.335938 416.769531 408.371094 C 416.078125 409.40625 415.339844 410.402344 414.550781 411.363281 C 413.761719 412.324219 412.929688 413.246094 412.050781 414.125 C 411.167969 415.003906 410.25 415.839844 409.289062 416.625 C 408.328125 417.414062 407.332031 418.15625 406.296875 418.847656 C 405.265625 419.535156 404.199219 420.175781 403.101562 420.761719 C 402.007812 421.347656 400.882812 421.878906 399.734375 422.355469 C 398.585938 422.832031 397.417969 423.25 396.230469 423.609375 C 395.039062 423.96875 393.835938 424.273438 392.617188 424.515625 C 391.398438 424.757812 390.167969 424.941406 388.929688 425.0625 C 387.695312 425.183594 386.453125 425.246094 385.210938 425.246094 C 383.96875 425.246094 382.726562 425.183594 381.492188 425.0625 C 380.253906 424.941406 379.027344 424.757812 377.808594 424.515625 C 376.585938 424.273438 375.382812 423.96875 374.195312 423.609375 C 373.003906 423.25 371.835938 422.832031 370.6875 422.355469 C 369.539062 421.878906 368.417969 421.347656 367.320312 420.761719 C 366.222656 420.175781 365.160156 419.535156 364.125 418.847656 C 363.09375 418.15625 362.09375 417.414062 361.132812 416.625 C 360.171875 415.839844 359.253906 415.003906 358.375 414.125 C 357.496094 413.246094 356.660156 412.324219 355.871094 411.363281 C 355.085938 410.402344 354.34375 409.40625 353.652344 408.371094 C 352.964844 407.335938 352.324219 406.273438 351.738281 405.175781 C 351.152344 404.078125 350.621094 402.957031 350.148438 401.808594 C 349.671875 400.660156 349.253906 399.488281 348.890625 398.300781 C 348.53125 397.109375 348.230469 395.90625 347.988281 394.6875 C 347.746094 393.464844 347.5625 392.238281 347.441406 391 C 347.320312 389.761719 347.257812 388.523438 347.257812 387.28125 C 347.257812 386.035156 347.320312 384.796875 347.441406 383.558594 C 347.5625 382.320312 347.746094 381.09375 347.988281 379.871094 C 348.230469 378.652344 348.53125 377.449219 348.890625 376.257812 C 349.253906 375.070312 349.671875 373.898438 350.148438 372.75 C 350.621094 371.601562 351.152344 370.480469 351.738281 369.382812 C 352.324219 368.285156 352.964844 367.222656 353.652344 366.1875 C 354.34375 365.152344 355.085938 364.15625 355.871094 363.195312 C 356.660156 362.234375 357.496094 361.3125 358.375 360.433594 C 359.253906 359.554688 360.171875 358.722656 361.132812 357.933594 C 362.09375 357.144531 363.09375 356.402344 364.125 355.710938 C 365.160156 355.023438 366.222656 354.382812 367.320312 353.796875 C 368.417969 353.210938 369.539062 352.679688 370.6875 352.203125 C 371.835938 351.730469 373.003906 351.308594 374.195312 350.949219 C 375.382812 350.589844 376.585938 350.285156 377.808594 350.042969 C 379.027344 349.800781 380.253906 349.621094 381.492188 349.496094 C 382.726562 349.375 383.96875 349.316406 385.210938 349.316406 C 386.453125 349.316406 387.695312 349.375 388.929688 349.496094 C 390.167969 349.621094 391.398438 349.800781 392.617188 350.042969 C 393.835938 350.285156 395.039062 350.589844 396.230469 350.949219 C 397.417969 351.308594 398.585938 351.730469 399.734375 352.203125 C 400.882812 352.679688 402.007812 353.210938 403.101562 353.796875 C 404.199219 354.382812 405.265625 355.023438 406.296875 355.710938 C 407.332031 356.402344 408.328125 357.144531 409.289062 357.933594 C 410.25 358.722656 411.167969 359.554688 412.050781 360.433594 C 412.929688 361.3125 413.761719 362.234375 414.550781 363.195312 C 415.339844 364.15625 416.078125 365.152344 416.769531 366.1875 C 417.460938 367.222656 418.097656 368.285156 418.683594 369.382812 C 419.269531 370.480469 419.800781 371.601562 420.277344 372.75 C 420.75 373.898438 421.171875 375.070312 421.53125 376.257812 C 421.890625 377.449219 422.195312 378.652344 422.4375 379.871094 C 422.679688 381.09375 422.859375 382.320312 422.984375 383.558594 C 423.105469 384.796875 423.164062 386.035156 423.164062 387.28125 Z M 423.164062 387.28125 " fill-opacity="0.5" fill-rule="nonzero"/><path fill="#ed7b72" d="M 412.539062 387.28125 C 412.539062 388.175781 412.496094 389.066406 412.40625 389.957031 C 412.320312 390.851562 412.1875 391.734375 412.011719 392.613281 C 411.839844 393.492188 411.621094 394.359375 411.363281 395.214844 C 411.101562 396.070312 410.800781 396.914062 410.457031 397.738281 C 410.117188 398.566406 409.734375 399.375 409.3125 400.164062 C 408.890625 400.953125 408.429688 401.722656 407.933594 402.464844 C 407.4375 403.210938 406.902344 403.929688 406.335938 404.621094 C 405.765625 405.3125 405.167969 405.976562 404.535156 406.609375 C 403.902344 407.242188 403.238281 407.839844 402.546875 408.410156 C 401.855469 408.976562 401.136719 409.511719 400.394531 410.007812 C 399.648438 410.503906 398.882812 410.964844 398.09375 411.386719 C 397.304688 411.808594 396.496094 412.191406 395.667969 412.535156 C 394.84375 412.875 394 413.175781 393.144531 413.4375 C 392.289062 413.695312 391.421875 413.914062 390.542969 414.089844 C 389.664062 414.261719 388.78125 414.394531 387.890625 414.484375 C 387 414.570312 386.105469 414.613281 385.210938 414.613281 C 384.316406 414.613281 383.421875 414.570312 382.53125 414.484375 C 381.640625 414.394531 380.757812 414.261719 379.878906 414.089844 C 379.003906 413.914062 378.136719 413.695312 377.277344 413.4375 C 376.421875 413.175781 375.582031 412.875 374.753906 412.535156 C 373.925781 412.191406 373.117188 411.808594 372.328125 411.386719 C 371.539062 410.964844 370.773438 410.503906 370.03125 410.007812 C 369.285156 409.511719 368.566406 408.976562 367.875 408.410156 C 367.183594 407.839844 366.519531 407.242188 365.886719 406.609375 C 365.253906 405.976562 364.65625 405.3125 364.085938 404.621094 C 363.519531 403.929688 362.988281 403.210938 362.488281 402.464844 C 361.992188 401.722656 361.535156 400.953125 361.109375 400.164062 C 360.6875 399.375 360.308594 398.566406 359.964844 397.738281 C 359.621094 396.914062 359.320312 396.070312 359.0625 395.214844 C 358.800781 394.359375 358.585938 393.492188 358.410156 392.613281 C 358.234375 391.734375 358.105469 390.851562 358.015625 389.957031 C 357.929688 389.066406 357.882812 388.175781 357.882812 387.28125 C 357.882812 386.382812 357.929688 385.492188 358.015625 384.601562 C 358.105469 383.710938 358.234375 382.824219 358.410156 381.945312 C 358.585938 381.070312 358.800781 380.203125 359.0625 379.34375 C 359.320312 378.488281 359.621094 377.644531 359.964844 376.820312 C 360.308594 375.992188 360.6875 375.183594 361.109375 374.394531 C 361.535156 373.605469 361.992188 372.835938 362.488281 372.09375 C 362.988281 371.347656 363.519531 370.628906 364.085938 369.9375 C 364.65625 369.246094 365.253906 368.582031 365.886719 367.949219 C 366.519531 367.316406 367.183594 366.71875 367.875 366.148438 C 368.566406 365.582031 369.285156 365.050781 370.03125 364.550781 C 370.773438 364.054688 371.539062 363.59375 372.328125 363.171875 C 373.117188 362.75 373.925781 362.367188 374.753906 362.027344 C 375.582031 361.683594 376.421875 361.382812 377.277344 361.121094 C 378.136719 360.863281 379.003906 360.644531 379.878906 360.46875 C 380.757812 360.296875 381.640625 360.164062 382.53125 360.078125 C 383.421875 359.988281 384.316406 359.945312 385.210938 359.945312 C 386.105469 359.945312 387 359.988281 387.890625 360.078125 C 388.78125 360.164062 389.664062 360.296875 390.542969 360.46875 C 391.421875 360.644531 392.289062 360.863281 393.144531 361.121094 C 394 361.382812 394.84375 361.683594 395.667969 362.027344 C 396.496094 362.367188 397.304688 362.75 398.09375 363.171875 C 398.882812 363.59375 399.648438 364.054688 400.394531 364.550781 C 401.136719 365.050781 401.855469 365.582031 402.546875 366.148438 C 403.238281 366.71875 403.902344 367.316406 404.535156 367.949219 C 405.167969 368.582031 405.765625 369.246094 406.335938 369.9375 C 406.902344 370.628906 407.4375 371.347656 407.933594 372.09375 C 408.429688 372.835938 408.890625 373.605469 409.3125 374.394531 C 409.734375 375.183594 410.117188 375.992188 410.457031 376.820312 C 410.800781 377.644531 411.101562 378.488281 411.363281 379.34375 C 411.621094 380.203125 411.839844 381.070312 412.011719 381.945312 C 412.1875 382.824219 412.320312 383.710938 412.40625 384.601562 C 412.496094 385.492188 412.539062 386.382812 412.539062 387.28125 Z M 412.539062 387.28125 " fill-opacity="0.5" fill-rule="nonzero"/><path fill="#ed7b72" d="M 401.152344 387.28125 C 401.152344 387.800781 401.125 388.324219 401.074219 388.84375 C 401.023438 389.363281 400.949219 389.878906 400.847656 390.390625 C 400.742188 390.902344 400.617188 391.410156 400.464844 391.90625 C 400.3125 392.40625 400.136719 392.898438 399.9375 393.382812 C 399.738281 393.863281 399.515625 394.335938 399.269531 394.796875 C 399.023438 395.257812 398.753906 395.703125 398.464844 396.136719 C 398.175781 396.574219 397.863281 396.992188 397.535156 397.394531 C 397.203125 397.796875 396.851562 398.183594 396.484375 398.554688 C 396.113281 398.921875 395.726562 399.273438 395.324219 399.605469 C 394.921875 399.9375 394.5 400.246094 394.066406 400.539062 C 393.632812 400.828125 393.1875 401.097656 392.726562 401.34375 C 392.265625 401.589844 391.792969 401.8125 391.3125 402.011719 C 390.828125 402.210938 390.339844 402.386719 389.839844 402.539062 C 389.339844 402.691406 388.832031 402.816406 388.320312 402.917969 C 387.808594 403.019531 387.292969 403.097656 386.773438 403.148438 C 386.253906 403.199219 385.734375 403.226562 385.210938 403.226562 C 384.6875 403.226562 384.167969 403.199219 383.648438 403.148438 C 383.128906 403.097656 382.613281 403.019531 382.101562 402.917969 C 381.589844 402.816406 381.082031 402.691406 380.585938 402.539062 C 380.085938 402.386719 379.59375 402.210938 379.109375 402.011719 C 378.628906 401.8125 378.15625 401.589844 377.695312 401.34375 C 377.238281 401.097656 376.789062 400.828125 376.355469 400.539062 C 375.921875 400.246094 375.503906 399.9375 375.097656 399.605469 C 374.695312 399.273438 374.308594 398.921875 373.941406 398.554688 C 373.570312 398.183594 373.21875 397.796875 372.890625 397.394531 C 372.558594 396.992188 372.246094 396.574219 371.957031 396.136719 C 371.667969 395.703125 371.398438 395.257812 371.152344 394.796875 C 370.90625 394.335938 370.683594 393.863281 370.484375 393.382812 C 370.285156 392.898438 370.109375 392.40625 369.957031 391.90625 C 369.804688 391.410156 369.679688 390.902344 369.578125 390.390625 C 369.476562 389.878906 369.398438 389.363281 369.347656 388.84375 C 369.296875 388.324219 369.269531 387.800781 369.269531 387.28125 C 369.269531 386.757812 369.296875 386.234375 369.347656 385.714844 C 369.398438 385.195312 369.476562 384.679688 369.578125 384.167969 C 369.679688 383.65625 369.804688 383.152344 369.957031 382.652344 C 370.109375 382.152344 370.285156 381.660156 370.484375 381.175781 C 370.683594 380.695312 370.90625 380.222656 371.152344 379.761719 C 371.398438 379.300781 371.667969 378.855469 371.957031 378.421875 C 372.246094 377.988281 372.558594 377.566406 372.890625 377.164062 C 373.21875 376.761719 373.570312 376.375 373.941406 376.003906 C 374.308594 375.636719 374.695312 375.285156 375.097656 374.953125 C 375.503906 374.621094 375.921875 374.3125 376.355469 374.019531 C 376.789062 373.730469 377.238281 373.464844 377.695312 373.21875 C 378.15625 372.972656 378.628906 372.746094 379.109375 372.546875 C 379.59375 372.347656 380.085938 372.171875 380.585938 372.019531 C 381.082031 371.871094 381.589844 371.742188 382.101562 371.640625 C 382.613281 371.539062 383.128906 371.460938 383.648438 371.410156 C 384.167969 371.359375 384.6875 371.335938 385.210938 371.335938 C 385.734375 371.335938 386.253906 371.359375 386.773438 371.410156 C 387.292969 371.460938 387.808594 371.539062 388.320312 371.640625 C 388.832031 371.742188 389.339844 371.871094 389.839844 372.019531 C 390.339844 372.171875 390.828125 372.347656 391.3125 372.546875 C 391.792969 372.746094 392.265625 372.972656 392.726562 373.21875 C 393.1875 373.464844 393.632812 373.730469 394.066406 374.019531 C 394.5 374.3125 394.921875 374.621094 395.324219 374.953125 C 395.726562 375.285156 396.113281 375.636719 396.484375 376.003906 C 396.851562 376.375 397.203125 376.761719 397.535156 377.164062 C 397.863281 377.566406 398.175781 377.988281 398.464844 378.421875 C 398.753906 378.855469 399.023438 379.300781 399.269531 379.761719 C 399.515625 380.222656 399.738281 380.695312 399.9375 381.175781 C 400.136719 381.660156 400.3125 382.152344 400.464844 382.652344 C 400.617188 383.152344 400.742188 383.65625 400.847656 384.167969 C 400.949219 384.679688 401.023438 385.195312 401.074219 385.714844 C 401.125 386.234375 401.152344 386.757812 401.152344 387.28125 Z M 401.152344 387.28125 " fill-opacity="1" fill-rule="nonzero"/><path fill="#ffcc66" d="M 444.417969 277.179688 L 447.457031 261.234375 L 438.347656 234.660156 L 385.96875 230.863281 L 384.453125 230.863281 L 332.074219 234.660156 L 322.96875 261.996094 L 326.003906 277.941406 C 321.449219 274.902344 313.097656 271.105469 313.097656 280.21875 C 313.097656 292.367188 315.375 294.644531 319.171875 304.515625 C 322.96875 313.628906 323.726562 326.535156 330.558594 320.460938 L 331.316406 337.925781 C 331.316406 337.925781 329.796875 350.074219 348.015625 363.742188 C 352.570312 367.539062 360.160156 371.335938 366.234375 374.371094 C 372.308594 377.410156 378.378906 378.925781 384.453125 378.925781 C 390.523438 378.925781 397.355469 377.410156 402.671875 374.371094 C 409.5 371.335938 416.332031 366.777344 420.886719 363.742188 C 439.105469 350.074219 437.585938 337.925781 437.585938 337.925781 L 438.347656 320.460938 C 445.179688 326.535156 445.9375 314.386719 449.734375 304.515625 C 453.527344 294.644531 455.804688 292.367188 455.804688 280.21875 C 457.324219 270.347656 448.972656 274.144531 444.417969 277.179688 Z M 444.417969 277.179688 " fill-opacity="1" fill-rule="nonzero"/><path fill="#666666" d="M 451.25 233.140625 C 442.140625 215.679688 451.25 216.4375 433.035156 203.53125 C 414.816406 190.621094 405.707031 182.269531 386.730469 186.066406 C 367.753906 190.621094 338.148438 192.898438 332.835938 204.289062 C 326.761719 215.679688 326.003906 221.753906 326.003906 221.753906 C 326.003906 221.753906 314.617188 236.9375 315.375 253.644531 C 316.136719 270.347656 324.484375 273.386719 324.484375 280.976562 C 324.484375 287.050781 326.761719 294.644531 328.28125 296.921875 C 328.28125 297.683594 329.039062 297.683594 329.039062 297.683594 C 329.796875 297.683594 331.316406 296.921875 331.316406 296.164062 C 330.558594 290.089844 329.796875 274.144531 332.835938 268.070312 C 336.628906 260.476562 324.484375 239.976562 342.703125 236.9375 C 360.921875 233.902344 369.269531 249.085938 377.621094 255.921875 C 385.96875 261.996094 428.480469 258.957031 432.273438 256.679688 C 436.070312 253.644531 433.792969 261.996094 433.792969 268.070312 C 433.792969 272.625 433.792969 294.644531 433.792969 301.480469 C 433.792969 302.238281 434.550781 302.996094 435.308594 302.996094 L 437.585938 302.996094 C 438.347656 302.996094 439.105469 302.238281 439.105469 301.480469 C 439.863281 297.683594 442.140625 286.292969 448.214844 274.144531 C 455.046875 258.957031 460.359375 249.847656 451.25 233.140625 Z M 451.25 233.140625 " fill-opacity="1" fill-rule="nonzero"/><path fill="#ffffff" d="M 455.804688 443.46875 L 442.140625 451.058594 L 459.601562 467.003906 C 461.121094 467.765625 460.359375 469.285156 459.601562 470.042969 L 446.695312 476.875 C 445.9375 477.636719 445.179688 476.875 444.417969 476.875 L 420.128906 453.339844 C 419.371094 452.578125 419.371094 450.300781 420.128906 449.542969 L 437.585938 440.429688 L 417.09375 422.207031 C 416.332031 421.449219 417.09375 419.929688 417.851562 420.6875 L 455.046875 438.910156 C 457.324219 440.429688 457.324219 442.707031 455.804688 443.46875 Z M 455.804688 443.46875 " fill-opacity="1" fill-rule="nonzero"/><path fill="#ffffff" d="M 316.894531 444.984375 L 329.796875 453.339844 L 310.820312 468.523438 C 309.304688 469.285156 309.304688 470.800781 310.820312 471.5625 L 323.726562 479.914062 C 324.484375 480.671875 325.246094 480.671875 326.003906 479.914062 L 351.8125 457.894531 C 353.332031 457.136719 352.570312 454.855469 351.8125 454.097656 L 335.113281 443.46875 L 356.367188 426.761719 C 357.125 426.003906 356.367188 424.484375 355.605469 425.246094 L 316.894531 441.191406 C 316.136719 441.191406 315.375 443.46875 316.894531 444.984375 Z M 316.894531 444.984375 " fill-opacity="1" fill-rule="nonzero"/><g clip-path="url(#373e1882aa)"><path fill="#666666" d="M 527.917969 443.46875 C 527.160156 436.632812 523.363281 429.800781 518.050781 424.484375 C 510.460938 416.132812 499.832031 410.058594 489.203125 407.78125 L 443.660156 397.148438 C 433.792969 394.871094 426.203125 370.574219 426.203125 360.703125 L 426.203125 359.183594 C 439.105469 347.035156 438.347656 337.164062 438.347656 337.164062 L 439.105469 319.703125 C 445.9375 325.777344 446.695312 313.628906 450.492188 303.757812 C 454.289062 293.886719 456.566406 291.609375 456.566406 279.460938 C 456.566406 271.867188 451.25 273.386719 446.695312 275.664062 C 446.695312 274.902344 447.457031 274.144531 447.457031 273.386719 C 455.046875 258.957031 460.359375 249.847656 451.25 232.382812 C 442.140625 214.917969 451.25 215.679688 433.035156 202.769531 C 414.816406 189.863281 405.707031 181.511719 386.730469 185.304688 C 385.96875 185.304688 385.210938 185.304688 384.453125 186.066406 L 384.453125 549.011719 L 503.628906 549.011719 C 518.808594 549.011719 530.953125 536.101562 530.953125 520.914062 C 530.953125 493.582031 529.4375 454.855469 527.917969 443.46875 Z M 527.917969 443.46875 " fill-opacity="0.15" fill-rule="nonzero"/></g></svg>