<svg xmlns="http://www.w3.org/2000/svg" xmlns:xlink="http://www.w3.org/1999/xlink" width="1024" zoomAndPan="magnify" viewBox="0 0 768 767.999994" height="1024" preserveAspectRatio="xMidYMid meet" version="1.0"><defs><clipPath id="d974c458b4"><path d="M 140.199219 140.199219 L 627.699219 140.199219 L 627.699219 627.699219 L 140.199219 627.699219 Z M 140.199219 140.199219 " clip-rule="nonzero"/></clipPath></defs><g clip-path="url(#d974c458b4)"><path fill="#000000" d="M 383.949219 140.199219 C 379.960938 140.199219 375.972656 140.296875 371.988281 140.492188 C 368.003906 140.6875 364.027344 140.980469 360.058594 141.375 C 356.085938 141.765625 352.128906 142.253906 348.183594 142.835938 C 344.238281 143.421875 340.308594 144.105469 336.394531 144.882812 C 332.484375 145.660156 328.59375 146.535156 324.722656 147.503906 C 320.851562 148.472656 317.011719 149.539062 313.191406 150.695312 C 309.375 151.851562 305.589844 153.105469 301.832031 154.449219 C 298.078125 155.792969 294.355469 157.226562 290.671875 158.753906 C 286.984375 160.28125 283.339844 161.898438 279.734375 163.601562 C 276.125 165.308594 272.566406 167.101562 269.046875 168.980469 C 265.527344 170.863281 262.058594 172.828125 258.636719 174.878906 C 255.214844 176.929688 251.847656 179.0625 248.527344 181.277344 C 245.210938 183.496094 241.953125 185.792969 238.746094 188.167969 C 235.542969 190.542969 232.398438 192.996094 229.316406 195.527344 C 226.234375 198.058594 223.210938 200.664062 220.257812 203.34375 C 217.300781 206.023438 214.414062 208.769531 211.59375 211.59375 C 208.769531 214.414062 206.023438 217.300781 203.34375 220.257812 C 200.664062 223.210938 198.058594 226.234375 195.527344 229.316406 C 192.996094 232.398438 190.542969 235.542969 188.167969 238.746094 C 185.792969 241.953125 183.496094 245.210938 181.277344 248.527344 C 179.0625 251.847656 176.929688 255.214844 174.878906 258.636719 C 172.828125 262.058594 170.863281 265.527344 168.980469 269.046875 C 167.101562 272.566406 165.308594 276.125 163.601562 279.734375 C 161.898438 283.339844 160.28125 286.984375 158.753906 290.671875 C 157.226562 294.355469 155.792969 298.078125 154.449219 301.832031 C 153.105469 305.589844 151.851562 309.375 150.695312 313.191406 C 149.539062 317.011719 148.472656 320.851562 147.503906 324.722656 C 146.535156 328.59375 145.660156 332.484375 144.882812 336.394531 C 144.105469 340.308594 143.421875 344.238281 142.835938 348.183594 C 142.253906 352.128906 141.765625 356.089844 141.375 360.058594 C 140.980469 364.027344 140.6875 368.003906 140.492188 371.988281 C 140.296875 375.972656 140.199219 379.960938 140.199219 383.949219 C 140.199219 387.9375 140.296875 391.925781 140.492188 395.910156 C 140.6875 399.894531 140.980469 403.871094 141.375 407.839844 C 141.765625 411.8125 142.253906 415.769531 142.835938 419.714844 C 143.421875 423.660156 144.105469 427.589844 144.882812 431.503906 C 145.660156 435.414062 146.535156 439.304688 147.503906 443.175781 C 148.472656 447.046875 149.539062 450.890625 150.695312 454.707031 C 151.851562 458.523438 153.105469 462.308594 154.449219 466.066406 C 155.792969 469.824219 157.226562 473.542969 158.753906 477.230469 C 160.28125 480.914062 161.898438 484.558594 163.601562 488.164062 C 165.308594 491.773438 167.101562 495.335938 168.980469 498.851562 C 170.863281 502.371094 172.828125 505.839844 174.878906 509.261719 C 176.929688 512.683594 179.0625 516.054688 181.277344 519.371094 C 183.496094 522.6875 185.792969 525.945312 188.167969 529.152344 C 190.542969 532.355469 192.996094 535.5 195.527344 538.582031 C 198.058594 541.667969 200.664062 544.6875 203.34375 547.640625 C 206.023438 550.597656 208.769531 553.484375 211.59375 556.308594 C 214.414062 559.128906 217.300781 561.878906 220.257812 564.554688 C 223.210938 567.234375 226.234375 569.839844 229.316406 572.371094 C 232.398438 574.902344 235.542969 577.355469 238.746094 579.730469 C 241.953125 582.109375 245.210938 584.402344 248.527344 586.621094 C 251.847656 588.835938 255.214844 590.96875 258.636719 593.019531 C 262.058594 595.070312 265.527344 597.039062 269.046875 598.917969 C 272.566406 600.796875 276.125 602.589844 279.734375 604.296875 C 283.339844 606.003906 286.984375 607.617188 290.671875 609.144531 C 294.355469 610.671875 298.078125 612.105469 301.832031 613.449219 C 305.589844 614.792969 309.375 616.046875 313.191406 617.203125 C 317.011719 618.363281 320.851562 619.425781 324.722656 620.394531 C 328.59375 621.363281 332.484375 622.238281 336.394531 623.015625 C 340.308594 623.792969 344.238281 624.476562 348.183594 625.0625 C 352.128906 625.648438 356.085938 626.132812 360.058594 626.527344 C 364.027344 626.917969 368.003906 627.210938 371.988281 627.40625 C 375.972656 627.601562 379.960938 627.699219 383.949219 627.699219 C 387.9375 627.699219 391.925781 627.601562 395.910156 627.40625 C 399.894531 627.210938 403.871094 626.917969 407.839844 626.527344 C 411.8125 626.132812 415.769531 625.648438 419.714844 625.0625 C 423.660156 624.476562 427.589844 623.792969 431.503906 623.015625 C 435.414062 622.238281 439.304688 621.363281 443.175781 620.394531 C 447.046875 619.425781 450.890625 618.363281 454.707031 617.203125 C 458.523438 616.046875 462.308594 614.792969 466.066406 613.449219 C 469.824219 612.105469 473.542969 610.671875 477.230469 609.144531 C 480.914062 607.617188 484.558594 606.003906 488.164062 604.296875 C 491.773438 602.589844 495.335938 600.796875 498.851562 598.917969 C 502.371094 597.039062 505.839844 595.070312 509.261719 593.019531 C 512.683594 590.96875 516.054688 588.835938 519.371094 586.621094 C 522.6875 584.402344 525.945312 582.109375 529.152344 579.730469 C 532.355469 577.355469 535.5 574.902344 538.582031 572.371094 C 541.667969 569.839844 544.6875 567.234375 547.640625 564.554688 C 550.597656 561.878906 553.484375 559.128906 556.308594 556.308594 C 559.128906 553.484375 561.878906 550.597656 564.554688 547.640625 C 567.234375 544.6875 569.839844 541.667969 572.371094 538.582031 C 574.902344 535.5 577.355469 532.355469 579.730469 529.152344 C 582.109375 525.945312 584.402344 522.6875 586.621094 519.371094 C 588.835938 516.054688 590.96875 512.683594 593.019531 509.261719 C 595.070312 505.839844 597.039062 502.371094 598.917969 498.851562 C 600.796875 495.335938 602.589844 491.773438 604.296875 488.164062 C 606.003906 484.558594 607.617188 480.914062 609.144531 477.230469 C 610.671875 473.542969 612.105469 469.824219 613.449219 466.066406 C 614.792969 462.308594 616.046875 458.523438 617.203125 454.707031 C 618.363281 450.890625 619.425781 447.046875 620.394531 443.175781 C 621.363281 439.304688 622.238281 435.414062 623.015625 431.503906 C 623.792969 427.589844 624.476562 423.660156 625.0625 419.714844 C 625.648438 415.769531 626.132812 411.8125 626.527344 407.839844 C 626.917969 403.871094 627.210938 399.894531 627.40625 395.910156 C 627.601562 391.925781 627.699219 387.9375 627.699219 383.949219 C 627.695312 379.960938 627.59375 375.976562 627.394531 371.992188 C 627.195312 368.011719 626.898438 364.035156 626.503906 360.066406 C 626.109375 356.097656 625.617188 352.140625 625.027344 348.195312 C 624.4375 344.253906 623.753906 340.324219 622.972656 336.414062 C 622.191406 332.503906 621.316406 328.613281 620.34375 324.746094 C 619.371094 320.878906 618.304688 317.039062 617.144531 313.222656 C 615.984375 309.40625 614.730469 305.621094 613.386719 301.867188 C 612.039062 298.113281 610.601562 294.394531 609.074219 290.710938 C 607.546875 287.027344 605.929688 283.382812 604.222656 279.777344 C 602.515625 276.175781 600.722656 272.613281 598.839844 269.097656 C 596.960938 265.582031 594.992188 262.113281 592.941406 258.695312 C 590.890625 255.273438 588.757812 251.90625 586.539062 248.589844 C 584.324219 245.277344 582.027344 242.015625 579.652344 238.8125 C 577.273438 235.609375 574.820312 232.46875 572.289062 229.386719 C 569.761719 226.304688 567.15625 223.285156 564.476562 220.332031 C 561.800781 217.375 559.050781 214.488281 556.230469 211.667969 C 553.410156 208.847656 550.523438 206.097656 547.570312 203.421875 C 544.613281 200.742188 541.59375 198.136719 538.511719 195.609375 C 535.429688 193.078125 532.289062 190.625 529.085938 188.25 C 525.882812 185.871094 522.625 183.574219 519.308594 181.359375 C 515.992188 179.140625 512.625 177.007812 509.207031 174.957031 C 505.785156 172.90625 502.316406 170.9375 498.800781 169.058594 C 495.285156 167.175781 491.722656 165.382812 488.121094 163.675781 C 484.515625 161.96875 480.871094 160.351562 477.1875 158.824219 C 473.503906 157.296875 469.785156 155.859375 466.03125 154.511719 C 462.277344 153.167969 458.492188 151.914062 454.675781 150.753906 C 450.863281 149.59375 447.019531 148.527344 443.152344 147.554688 C 439.285156 146.582031 435.394531 145.707031 431.484375 144.925781 C 427.574219 144.144531 423.644531 143.460938 419.703125 142.871094 C 415.757812 142.28125 411.800781 141.792969 407.832031 141.398438 C 403.863281 141.003906 399.890625 140.707031 395.90625 140.503906 C 391.921875 140.304688 387.9375 140.203125 383.949219 140.199219 Z M 471.003906 401.359375 L 401.359375 401.359375 L 401.359375 471.003906 C 401.359375 471.574219 401.332031 472.140625 401.277344 472.710938 C 401.21875 473.277344 401.136719 473.839844 401.027344 474.398438 C 400.914062 474.960938 400.777344 475.511719 400.609375 476.058594 C 400.445312 476.601562 400.253906 477.140625 400.035156 477.664062 C 399.816406 478.191406 399.574219 478.707031 399.304688 479.210938 C 399.035156 479.714844 398.742188 480.203125 398.425781 480.675781 C 398.109375 481.148438 397.769531 481.609375 397.40625 482.046875 C 397.046875 482.488281 396.664062 482.910156 396.261719 483.3125 C 395.859375 483.71875 395.433594 484.101562 394.996094 484.460938 C 394.554688 484.824219 394.097656 485.164062 393.621094 485.480469 C 393.148438 485.796875 392.660156 486.089844 392.15625 486.359375 C 391.652344 486.625 391.140625 486.871094 390.613281 487.089844 C 390.085938 487.308594 389.550781 487.5 389.003906 487.664062 C 388.457031 487.828125 387.90625 487.96875 387.347656 488.078125 C 386.785156 488.191406 386.222656 488.273438 385.65625 488.328125 C 385.089844 488.386719 384.519531 488.414062 383.949219 488.414062 C 383.378906 488.414062 382.808594 488.386719 382.242188 488.328125 C 381.675781 488.273438 381.113281 488.191406 380.554688 488.078125 C 379.992188 487.96875 379.441406 487.828125 378.894531 487.664062 C 378.351562 487.5 377.8125 487.308594 377.285156 487.089844 C 376.761719 486.871094 376.246094 486.625 375.742188 486.359375 C 375.238281 486.089844 374.75 485.796875 374.277344 485.480469 C 373.800781 485.164062 373.34375 484.824219 372.902344 484.460938 C 372.464844 484.101562 372.042969 483.71875 371.636719 483.3125 C 371.234375 482.910156 370.851562 482.488281 370.492188 482.046875 C 370.128906 481.609375 369.789062 481.148438 369.472656 480.675781 C 369.15625 480.203125 368.863281 479.714844 368.59375 479.210938 C 368.324219 478.707031 368.082031 478.191406 367.863281 477.664062 C 367.644531 477.140625 367.453125 476.601562 367.289062 476.058594 C 367.121094 475.511719 366.984375 474.960938 366.875 474.398438 C 366.761719 473.839844 366.679688 473.277344 366.621094 472.710938 C 366.566406 472.140625 366.539062 471.574219 366.539062 471.003906 L 366.539062 401.359375 L 296.894531 401.359375 C 296.324219 401.359375 295.757812 401.332031 295.1875 401.277344 C 294.621094 401.21875 294.058594 401.136719 293.5 401.027344 C 292.941406 400.914062 292.386719 400.777344 291.84375 400.609375 C 291.296875 400.445312 290.761719 400.253906 290.234375 400.035156 C 289.707031 399.816406 289.191406 399.574219 288.6875 399.304688 C 288.1875 399.035156 287.695312 398.742188 287.222656 398.425781 C 286.75 398.109375 286.292969 397.769531 285.851562 397.40625 C 285.410156 397.046875 284.988281 396.664062 284.585938 396.261719 C 284.179688 395.859375 283.800781 395.433594 283.4375 394.996094 C 283.074219 394.554688 282.734375 394.097656 282.417969 393.621094 C 282.101562 393.148438 281.808594 392.660156 281.542969 392.15625 C 281.273438 391.652344 281.027344 391.140625 280.808594 390.613281 C 280.59375 390.085938 280.402344 389.550781 280.234375 389.003906 C 280.070312 388.457031 279.929688 387.90625 279.820312 387.347656 C 279.707031 386.785156 279.625 386.222656 279.570312 385.65625 C 279.511719 385.089844 279.484375 384.519531 279.484375 383.949219 C 279.484375 383.378906 279.511719 382.808594 279.570312 382.242188 C 279.625 381.675781 279.707031 381.113281 279.820312 380.554688 C 279.929688 379.992188 280.070312 379.441406 280.234375 378.894531 C 280.402344 378.351562 280.59375 377.8125 280.808594 377.285156 C 281.027344 376.761719 281.273438 376.246094 281.542969 375.742188 C 281.808594 375.238281 282.101562 374.75 282.417969 374.277344 C 282.734375 373.800781 283.074219 373.34375 283.4375 372.902344 C 283.800781 372.464844 284.179688 372.042969 284.585938 371.636719 C 284.988281 371.234375 285.410156 370.851562 285.851562 370.492188 C 286.292969 370.128906 286.75 369.789062 287.222656 369.472656 C 287.695312 369.15625 288.1875 368.863281 288.6875 368.59375 C 289.191406 368.324219 289.707031 368.082031 290.234375 367.863281 C 290.761719 367.644531 291.296875 367.453125 291.84375 367.289062 C 292.386719 367.121094 292.941406 366.984375 293.5 366.875 C 294.058594 366.761719 294.621094 366.679688 295.1875 366.621094 C 295.757812 366.566406 296.324219 366.539062 296.894531 366.539062 L 366.539062 366.539062 L 366.539062 296.894531 C 366.539062 296.324219 366.566406 295.757812 366.621094 295.1875 C 366.679688 294.621094 366.761719 294.058594 366.875 293.5 C 366.984375 292.941406 367.121094 292.386719 367.289062 291.84375 C 367.453125 291.296875 367.644531 290.761719 367.863281 290.234375 C 368.082031 289.707031 368.324219 289.191406 368.59375 288.6875 C 368.863281 288.1875 369.15625 287.695312 369.472656 287.222656 C 369.789062 286.75 370.128906 286.292969 370.492188 285.851562 C 370.851562 285.410156 371.234375 284.988281 371.636719 284.585938 C 372.042969 284.179688 372.464844 283.800781 372.902344 283.4375 C 373.34375 283.074219 373.800781 282.734375 374.277344 282.417969 C 374.75 282.101562 375.238281 281.808594 375.742188 281.542969 C 376.246094 281.273438 376.761719 281.027344 377.285156 280.808594 C 377.8125 280.59375 378.351562 280.402344 378.894531 280.234375 C 379.441406 280.070312 379.992188 279.929688 380.554688 279.820312 C 381.113281 279.707031 381.675781 279.625 382.242188 279.570312 C 382.808594 279.511719 383.378906 279.484375 383.949219 279.484375 C 384.519531 279.484375 385.089844 279.511719 385.65625 279.570312 C 386.222656 279.625 386.785156 279.707031 387.347656 279.820312 C 387.90625 279.929688 388.457031 280.070312 389.003906 280.234375 C 389.550781 280.402344 390.085938 280.59375 390.613281 280.808594 C 391.140625 281.027344 391.652344 281.273438 392.15625 281.542969 C 392.660156 281.808594 393.148438 282.101562 393.621094 282.417969 C 394.097656 282.734375 394.554688 283.074219 394.996094 283.4375 C 395.433594 283.800781 395.859375 284.179688 396.261719 284.585938 C 396.664062 284.988281 397.046875 285.410156 397.40625 285.851562 C 397.769531 286.292969 398.109375 286.75 398.425781 287.222656 C 398.742188 287.695312 399.035156 288.1875 399.304688 288.6875 C 399.574219 289.191406 399.816406 289.707031 400.035156 290.234375 C 400.253906 290.761719 400.445312 291.296875 400.609375 291.84375 C 400.777344 292.386719 400.914062 292.941406 401.027344 293.5 C 401.136719 294.058594 401.21875 294.621094 401.277344 295.1875 C 401.332031 295.757812 401.359375 296.324219 401.359375 296.894531 L 401.359375 366.539062 L 471.003906 366.539062 C 471.574219 366.539062 472.140625 366.566406 472.710938 366.621094 C 473.277344 366.679688 473.839844 366.761719 474.398438 366.875 C 474.960938 366.984375 475.511719 367.121094 476.058594 367.289062 C 476.601562 367.453125 477.140625 367.644531 477.664062 367.863281 C 478.191406 368.082031 478.707031 368.324219 479.210938 368.59375 C 479.714844 368.863281 480.203125 369.15625 480.675781 369.472656 C 481.148438 369.789062 481.609375 370.128906 482.046875 370.492188 C 482.488281 370.851562 482.910156 371.234375 483.3125 371.636719 C 483.71875 372.042969 484.101562 372.464844 484.460938 372.902344 C 484.824219 373.34375 485.164062 373.800781 485.480469 374.277344 C 485.796875 374.75 486.089844 375.238281 486.359375 375.742188 C 486.625 376.246094 486.871094 376.761719 487.089844 377.285156 C 487.304688 377.8125 487.5 378.351562 487.664062 378.894531 C 487.828125 379.441406 487.96875 379.992188 488.078125 380.554688 C 488.191406 381.113281 488.273438 381.675781 488.328125 382.242188 C 488.386719 382.808594 488.414062 383.378906 488.414062 383.949219 C 488.414062 384.519531 488.386719 385.089844 488.328125 385.65625 C 488.273438 386.222656 488.191406 386.785156 488.078125 387.347656 C 487.96875 387.90625 487.828125 388.457031 487.664062 389.003906 C 487.5 389.550781 487.304688 390.085938 487.089844 390.613281 C 486.871094 391.140625 486.625 391.652344 486.359375 392.15625 C 486.089844 392.660156 485.796875 393.148438 485.480469 393.621094 C 485.164062 394.097656 484.824219 394.554688 484.460938 394.996094 C 484.101562 395.433594 483.71875 395.859375 483.3125 396.261719 C 482.910156 396.664062 482.488281 397.046875 482.046875 397.40625 C 481.609375 397.769531 481.148438 398.109375 480.675781 398.425781 C 480.203125 398.742188 479.714844 399.035156 479.210938 399.304688 C 478.707031 399.574219 478.191406 399.816406 477.664062 400.035156 C 477.140625 400.253906 476.601562 400.445312 476.058594 400.609375 C 475.511719 400.777344 474.960938 400.914062 474.398438 401.027344 C 473.839844 401.136719 473.277344 401.21875 472.710938 401.277344 C 472.140625 401.332031 471.574219 401.359375 471.003906 401.359375 Z M 471.003906 401.359375 " fill-opacity="1" fill-rule="nonzero"/></g></svg>