<svg xmlns="http://www.w3.org/2000/svg" xmlns:xlink="http://www.w3.org/1999/xlink" width="1024" zoomAndPan="magnify" viewBox="0 0 768 767.999994" height="1024" preserveAspectRatio="xMidYMid meet" version="1.0"><defs><clipPath id="eb52edc2b0"><path d="M 139.84375 139.84375 L 628.09375 139.84375 L 628.09375 628.09375 L 139.84375 628.09375 Z M 139.84375 139.84375 " clip-rule="nonzero"/></clipPath></defs><g clip-path="url(#eb52edc2b0)"><path fill="#000000" d="M 383.96875 139.84375 C 379.972656 139.84375 375.980469 139.941406 371.988281 140.136719 C 368 140.332031 364.015625 140.625 360.039062 141.019531 C 356.0625 141.410156 352.097656 141.898438 348.148438 142.484375 C 344.195312 143.070312 340.257812 143.753906 336.339844 144.53125 C 332.421875 145.3125 328.523438 146.1875 324.648438 147.160156 C 320.773438 148.128906 316.925781 149.195312 313.101562 150.355469 C 309.277344 151.515625 305.484375 152.765625 301.722656 154.113281 C 297.960938 155.457031 294.234375 156.894531 290.542969 158.425781 C 286.851562 159.953125 283.203125 161.574219 279.589844 163.28125 C 275.980469 164.988281 272.410156 166.785156 268.886719 168.667969 C 265.363281 170.550781 261.890625 172.519531 258.460938 174.574219 C 255.035156 176.628906 251.660156 178.765625 248.339844 180.984375 C 245.015625 183.203125 241.75 185.503906 238.542969 187.882812 C 235.332031 190.265625 232.183594 192.722656 229.097656 195.257812 C 226.007812 197.789062 222.984375 200.398438 220.023438 203.082031 C 217.0625 205.765625 214.167969 208.519531 211.34375 211.34375 C 208.519531 214.167969 205.765625 217.0625 203.082031 220.023438 C 200.398438 222.984375 197.789062 226.007812 195.257812 229.097656 C 192.722656 232.183594 190.265625 235.332031 187.882812 238.542969 C 185.503906 241.75 183.203125 245.015625 180.984375 248.339844 C 178.765625 251.660156 176.628906 255.035156 174.574219 258.460938 C 172.519531 261.890625 170.550781 265.363281 168.667969 268.886719 C 166.785156 272.410156 164.988281 275.980469 163.28125 279.589844 C 161.574219 283.203125 159.953125 286.851562 158.425781 290.542969 C 156.894531 294.234375 155.457031 297.960938 154.113281 301.722656 C 152.765625 305.484375 151.515625 309.277344 150.355469 313.101562 C 149.195312 316.925781 148.128906 320.773438 147.160156 324.648438 C 146.1875 328.523438 145.3125 332.421875 144.53125 336.339844 C 143.753906 340.257812 143.070312 344.195312 142.484375 348.148438 C 141.898438 352.097656 141.410156 356.0625 141.019531 360.039062 C 140.625 364.015625 140.332031 368 140.136719 371.988281 C 139.941406 375.980469 139.84375 379.972656 139.84375 383.96875 C 139.84375 387.960938 139.941406 391.957031 140.136719 395.945312 C 140.332031 399.9375 140.625 403.917969 141.019531 407.894531 C 141.410156 411.871094 141.898438 415.835938 142.484375 419.789062 C 143.070312 423.738281 143.753906 427.675781 144.53125 431.59375 C 145.3125 435.511719 146.1875 439.410156 147.160156 443.285156 C 148.128906 447.160156 149.195312 451.007812 150.355469 454.832031 C 151.515625 458.65625 152.765625 462.449219 154.113281 466.210938 C 155.457031 469.972656 156.894531 473.699219 158.425781 477.390625 C 159.953125 481.082031 161.574219 484.730469 163.28125 488.34375 C 164.988281 491.957031 166.785156 495.523438 168.667969 499.046875 C 170.550781 502.570312 172.519531 506.046875 174.574219 509.472656 C 176.628906 512.898438 178.765625 516.273438 180.984375 519.597656 C 183.203125 522.917969 185.503906 526.183594 187.882812 529.390625 C 190.265625 532.601562 192.722656 535.75 195.257812 538.839844 C 197.789062 541.925781 200.398438 544.953125 203.082031 547.910156 C 205.765625 550.871094 208.519531 553.765625 211.34375 556.589844 C 214.167969 559.414062 217.0625 562.167969 220.023438 564.851562 C 222.984375 567.535156 226.007812 570.144531 229.097656 572.679688 C 232.183594 575.214844 235.332031 577.671875 238.542969 580.050781 C 241.75 582.429688 245.015625 584.730469 248.339844 586.949219 C 251.660156 589.167969 255.035156 591.304688 258.460938 593.359375 C 261.890625 595.414062 265.363281 597.382812 268.886719 599.265625 C 272.410156 601.148438 275.980469 602.945312 279.589844 604.652344 C 283.203125 606.363281 286.851562 607.980469 290.542969 609.507812 C 294.234375 611.039062 297.960938 612.476562 301.722656 613.820312 C 305.484375 615.167969 309.277344 616.421875 313.101562 617.582031 C 316.925781 618.738281 320.773438 619.804688 324.648438 620.777344 C 328.523438 621.746094 332.421875 622.621094 336.339844 623.402344 C 340.257812 624.179688 344.195312 624.863281 348.148438 625.449219 C 352.097656 626.035156 356.0625 626.523438 360.039062 626.917969 C 364.015625 627.308594 368 627.601562 371.988281 627.796875 C 375.980469 627.996094 379.972656 628.09375 383.96875 628.09375 C 387.960938 628.09375 391.957031 627.996094 395.945312 627.796875 C 399.9375 627.601562 403.917969 627.308594 407.894531 626.917969 C 411.871094 626.523438 415.835938 626.035156 419.789062 625.449219 C 423.738281 624.863281 427.675781 624.179688 431.59375 623.402344 C 435.511719 622.621094 439.410156 621.746094 443.285156 620.777344 C 447.160156 619.804688 451.007812 618.738281 454.832031 617.582031 C 458.65625 616.421875 462.449219 615.167969 466.210938 613.820312 C 469.972656 612.476562 473.699219 611.039062 477.390625 609.507812 C 481.082031 607.980469 484.730469 606.363281 488.34375 604.652344 C 491.957031 602.945312 495.523438 601.148438 499.046875 599.265625 C 502.570312 597.382812 506.046875 595.414062 509.472656 593.359375 C 512.898438 591.304688 516.273438 589.167969 519.597656 586.949219 C 522.917969 584.730469 526.183594 582.429688 529.390625 580.050781 C 532.601562 577.671875 535.75 575.214844 538.839844 572.679688 C 541.925781 570.144531 544.949219 567.535156 547.910156 564.851562 C 550.871094 562.167969 553.765625 559.414062 556.589844 556.589844 C 559.414062 553.765625 562.167969 550.871094 564.851562 547.910156 C 567.535156 544.953125 570.144531 541.925781 572.679688 538.839844 C 575.214844 535.75 577.671875 532.601562 580.050781 529.390625 C 582.429688 526.183594 584.730469 522.917969 586.949219 519.597656 C 589.167969 516.273438 591.304688 512.898438 593.359375 509.472656 C 595.414062 506.046875 597.382812 502.570312 599.265625 499.046875 C 601.148438 495.523438 602.945312 491.957031 604.652344 488.34375 C 606.363281 484.730469 607.980469 481.082031 609.507812 477.390625 C 611.039062 473.699219 612.476562 469.972656 613.820312 466.210938 C 615.167969 462.449219 616.421875 458.65625 617.582031 454.832031 C 618.738281 451.007812 619.804688 447.160156 620.777344 443.285156 C 621.746094 439.410156 622.621094 435.511719 623.402344 431.59375 C 624.179688 427.675781 624.863281 423.738281 625.449219 419.789062 C 626.035156 415.835938 626.523438 411.871094 626.917969 407.894531 C 627.308594 403.917969 627.601562 399.9375 627.796875 395.945312 C 627.996094 391.957031 628.09375 387.960938 628.09375 383.96875 C 628.09375 379.972656 627.996094 375.980469 627.796875 371.988281 C 627.601562 368 627.308594 364.015625 626.917969 360.039062 C 626.523438 356.0625 626.035156 352.097656 625.449219 348.148438 C 624.863281 344.195312 624.179688 340.257812 623.402344 336.339844 C 622.621094 332.421875 621.746094 328.523438 620.777344 324.648438 C 619.804688 320.773438 618.738281 316.925781 617.582031 313.101562 C 616.421875 309.277344 615.167969 305.484375 613.820312 301.722656 C 612.476562 297.960938 611.039062 294.234375 609.507812 290.542969 C 607.980469 286.851562 606.363281 283.203125 604.652344 279.589844 C 602.945312 275.980469 601.148438 272.410156 599.265625 268.886719 C 597.382812 265.363281 595.414062 261.890625 593.359375 258.460938 C 591.304688 255.035156 589.167969 251.660156 586.949219 248.339844 C 584.730469 245.015625 582.429688 241.75 580.050781 238.542969 C 577.671875 235.332031 575.214844 232.183594 572.679688 229.097656 C 570.144531 226.007812 567.535156 222.984375 564.851562 220.023438 C 562.167969 217.0625 559.414062 214.167969 556.589844 211.34375 C 553.765625 208.519531 550.871094 205.765625 547.910156 203.082031 C 544.949219 200.398438 541.925781 197.789062 538.839844 195.257812 C 535.75 192.722656 532.601562 190.265625 529.390625 187.882812 C 526.183594 185.503906 522.917969 183.203125 519.597656 180.984375 C 516.273438 178.765625 512.898438 176.628906 509.472656 174.574219 C 506.046875 172.519531 502.570312 170.550781 499.046875 168.667969 C 495.523438 166.785156 491.957031 164.988281 488.34375 163.28125 C 484.730469 161.574219 481.082031 159.953125 477.390625 158.425781 C 473.699219 156.894531 469.972656 155.457031 466.210938 154.113281 C 462.449219 152.765625 458.65625 151.515625 454.832031 150.355469 C 451.007812 149.195312 447.160156 148.128906 443.285156 147.160156 C 439.410156 146.1875 435.511719 145.3125 431.59375 144.53125 C 427.675781 143.753906 423.738281 143.070312 419.789062 142.484375 C 415.835938 141.898438 411.871094 141.410156 407.894531 141.019531 C 403.917969 140.625 399.9375 140.332031 395.945312 140.136719 C 391.957031 139.941406 387.960938 139.84375 383.96875 139.84375 Z M 383.96875 595.542969 C 380.503906 595.542969 377.042969 595.457031 373.585938 595.289062 C 370.128906 595.117188 366.675781 594.863281 363.230469 594.523438 C 359.785156 594.183594 356.347656 593.761719 352.921875 593.253906 C 349.496094 592.746094 346.085938 592.152344 342.691406 591.476562 C 339.292969 590.800781 335.917969 590.042969 332.558594 589.203125 C 329.199219 588.359375 325.863281 587.4375 322.550781 586.433594 C 319.238281 585.425781 315.949219 584.339844 312.691406 583.175781 C 309.429688 582.007812 306.199219 580.761719 303 579.4375 C 299.800781 578.113281 296.636719 576.710938 293.507812 575.230469 C 290.378906 573.75 287.285156 572.191406 284.230469 570.558594 C 281.175781 568.925781 278.164062 567.222656 275.195312 565.441406 C 272.226562 563.660156 269.300781 561.808594 266.421875 559.886719 C 263.542969 557.960938 260.714844 555.96875 257.933594 553.90625 C 255.152344 551.84375 252.421875 549.714844 249.746094 547.515625 C 247.070312 545.320312 244.449219 543.058594 241.882812 540.734375 C 239.316406 538.410156 236.808594 536.023438 234.359375 533.574219 C 231.914062 531.125 229.527344 528.617188 227.199219 526.050781 C 224.875 523.488281 222.613281 520.867188 220.417969 518.1875 C 218.222656 515.511719 216.089844 512.785156 214.027344 510.003906 C 211.964844 507.222656 209.972656 504.390625 208.050781 501.511719 C 206.125 498.632812 204.273438 495.707031 202.492188 492.738281 C 200.714844 489.769531 199.007812 486.757812 197.375 483.703125 C 195.742188 480.648438 194.1875 477.558594 192.707031 474.425781 C 191.226562 471.296875 189.824219 468.132812 188.496094 464.933594 C 187.171875 461.734375 185.925781 458.503906 184.761719 455.246094 C 183.59375 451.984375 182.507812 448.699219 181.503906 445.382812 C 180.496094 442.070312 179.574219 438.734375 178.734375 435.375 C 177.890625 432.015625 177.132812 428.640625 176.457031 425.242188 C 175.78125 421.847656 175.191406 418.4375 174.683594 415.011719 C 174.175781 411.585938 173.75 408.152344 173.410156 404.707031 C 173.070312 401.257812 172.816406 397.808594 172.648438 394.347656 C 172.476562 390.890625 172.390625 387.429688 172.390625 383.96875 C 172.390625 380.503906 172.476562 377.042969 172.648438 373.585938 C 172.816406 370.128906 173.070312 366.675781 173.410156 363.230469 C 173.75 359.785156 174.175781 356.347656 174.683594 352.921875 C 175.191406 349.496094 175.78125 346.085938 176.457031 342.691406 C 177.132812 339.296875 177.890625 335.917969 178.734375 332.558594 C 179.574219 329.199219 180.496094 325.863281 181.503906 322.550781 C 182.507812 319.238281 183.59375 315.949219 184.761719 312.691406 C 185.925781 309.429688 187.171875 306.199219 188.496094 303 C 189.824219 299.800781 191.226562 296.636719 192.707031 293.507812 C 194.1875 290.378906 195.742188 287.285156 197.375 284.230469 C 199.007812 281.179688 200.714844 278.164062 202.492188 275.195312 C 204.273438 272.226562 206.125 269.300781 208.050781 266.421875 C 209.972656 263.542969 211.964844 260.714844 214.027344 257.933594 C 216.089844 255.152344 218.222656 252.421875 220.417969 249.746094 C 222.613281 247.070312 224.875 244.449219 227.199219 241.882812 C 229.527344 239.316406 231.914062 236.808594 234.359375 234.359375 C 236.808594 231.914062 239.316406 229.527344 241.882812 227.199219 C 244.449219 224.875 247.070312 222.613281 249.746094 220.417969 C 252.421875 218.222656 255.152344 216.089844 257.933594 214.027344 C 260.714844 211.964844 263.542969 209.972656 266.421875 208.050781 C 269.300781 206.125 272.226562 204.273438 275.195312 202.492188 C 278.164062 200.714844 281.175781 199.007812 284.230469 197.375 C 287.285156 195.742188 290.378906 194.1875 293.507812 192.707031 C 296.636719 191.226562 299.800781 189.824219 303 188.496094 C 306.199219 187.171875 309.429688 185.925781 312.691406 184.761719 C 315.949219 183.59375 319.238281 182.507812 322.550781 181.503906 C 325.863281 180.496094 329.199219 179.574219 332.558594 178.734375 C 335.917969 177.890625 339.292969 177.132812 342.691406 176.457031 C 346.085938 175.78125 349.496094 175.191406 352.921875 174.683594 C 356.347656 174.175781 359.785156 173.75 363.230469 173.410156 C 366.675781 173.070312 370.128906 172.816406 373.585938 172.648438 C 377.042969 172.476562 380.503906 172.390625 383.96875 172.390625 C 387.429688 172.390625 390.890625 172.476562 394.347656 172.648438 C 397.808594 172.816406 401.257812 173.070312 404.707031 173.410156 C 408.152344 173.75 411.585938 174.175781 415.011719 174.683594 C 418.4375 175.191406 421.847656 175.78125 425.242188 176.457031 C 428.640625 177.132812 432.015625 177.890625 435.375 178.734375 C 438.734375 179.574219 442.070312 180.496094 445.382812 181.503906 C 448.699219 182.507812 451.984375 183.59375 455.246094 184.761719 C 458.503906 185.925781 461.734375 187.171875 464.933594 188.496094 C 468.132812 189.824219 471.296875 191.226562 474.425781 192.707031 C 477.558594 194.1875 480.648438 195.742188 483.703125 197.375 C 486.757812 199.007812 489.769531 200.714844 492.738281 202.492188 C 495.707031 204.273438 498.632812 206.125 501.511719 208.050781 C 504.390625 209.972656 507.222656 211.964844 510.003906 214.027344 C 512.785156 216.089844 515.511719 218.222656 518.1875 220.417969 C 520.867188 222.613281 523.488281 224.875 526.050781 227.199219 C 528.617188 229.527344 531.125 231.914062 533.574219 234.359375 C 536.023438 236.808594 538.410156 239.316406 540.734375 241.882812 C 543.058594 244.449219 545.320312 247.070312 547.515625 249.746094 C 549.714844 252.421875 551.84375 255.152344 553.90625 257.933594 C 555.96875 260.714844 557.960938 263.542969 559.886719 266.421875 C 561.808594 269.300781 563.660156 272.226562 565.441406 275.195312 C 567.222656 278.164062 568.925781 281.179688 570.558594 284.230469 C 572.191406 287.285156 573.75 290.378906 575.230469 293.507812 C 576.710938 296.636719 578.113281 299.800781 579.4375 303 C 580.761719 306.199219 582.007812 309.429688 583.175781 312.691406 C 584.339844 315.949219 585.425781 319.238281 586.433594 322.550781 C 587.4375 325.863281 588.359375 329.199219 589.203125 332.558594 C 590.042969 335.917969 590.800781 339.296875 591.476562 342.691406 C 592.152344 346.085938 592.742188 349.496094 593.253906 352.921875 C 593.761719 356.347656 594.183594 359.785156 594.523438 363.230469 C 594.863281 366.675781 595.117188 370.128906 595.289062 373.585938 C 595.457031 377.042969 595.542969 380.503906 595.542969 383.96875 C 595.542969 387.429688 595.457031 390.890625 595.289062 394.347656 C 595.117188 397.808594 594.863281 401.257812 594.523438 404.707031 C 594.183594 408.152344 593.761719 411.585938 593.253906 415.011719 C 592.742188 418.4375 592.152344 421.847656 591.476562 425.242188 C 590.800781 428.640625 590.042969 432.015625 589.203125 435.375 C 588.359375 438.734375 587.4375 442.070312 586.433594 445.382812 C 585.425781 448.699219 584.339844 451.984375 583.175781 455.246094 C 582.007812 458.503906 580.761719 461.734375 579.4375 464.933594 C 578.113281 468.132812 576.710938 471.296875 575.230469 474.425781 C 573.75 477.558594 572.191406 480.648438 570.558594 483.703125 C 568.925781 486.757812 567.222656 489.769531 565.441406 492.738281 C 563.660156 495.707031 561.808594 498.632812 559.886719 501.511719 C 557.960938 504.390625 555.96875 507.222656 553.90625 510.003906 C 551.84375 512.785156 549.714844 515.511719 547.515625 518.1875 C 545.320312 520.867188 543.058594 523.488281 540.734375 526.050781 C 538.410156 528.617188 536.023438 531.125 533.574219 533.574219 C 531.125 536.023438 528.617188 538.410156 526.050781 540.734375 C 523.488281 543.058594 520.867188 545.320312 518.1875 547.515625 C 515.511719 549.714844 512.785156 551.84375 510.003906 553.90625 C 507.222656 555.96875 504.390625 557.960938 501.511719 559.886719 C 498.632812 561.808594 495.707031 563.660156 492.738281 565.441406 C 489.769531 567.222656 486.757812 568.925781 483.703125 570.558594 C 480.648438 572.191406 477.558594 573.75 474.425781 575.230469 C 471.296875 576.710938 468.132812 578.113281 464.933594 579.4375 C 461.734375 580.761719 458.503906 582.007812 455.246094 583.175781 C 451.984375 584.339844 448.699219 585.425781 445.382812 586.433594 C 442.070312 587.4375 438.734375 588.359375 435.375 589.203125 C 432.015625 590.042969 428.640625 590.800781 425.242188 591.476562 C 421.847656 592.152344 418.4375 592.746094 415.011719 593.253906 C 411.585938 593.761719 408.152344 594.183594 404.707031 594.523438 C 401.257812 594.863281 397.808594 595.117188 394.347656 595.289062 C 390.890625 595.457031 387.429688 595.542969 383.96875 595.542969 Z M 383.96875 595.542969 " fill-opacity="1" fill-rule="nonzero"/></g><path fill="#000000" d="M 416.515625 253.765625 L 367.691406 253.765625 L 367.691406 286.316406 L 416.515625 286.316406 C 417.582031 286.316406 418.648438 286.34375 419.710938 286.394531 C 420.777344 286.449219 421.835938 286.527344 422.898438 286.628906 C 423.957031 286.734375 425.015625 286.867188 426.070312 287.023438 C 427.125 287.179688 428.171875 287.359375 429.21875 287.566406 C 430.261719 287.777344 431.300781 288.007812 432.335938 288.269531 C 433.367188 288.527344 434.394531 288.8125 435.414062 289.121094 C 436.433594 289.429688 437.445312 289.765625 438.449219 290.121094 C 439.453125 290.480469 440.445312 290.863281 441.429688 291.273438 C 442.414062 291.679688 443.386719 292.113281 444.351562 292.566406 C 445.3125 293.023438 446.265625 293.5 447.207031 294.003906 C 448.144531 294.507812 449.070312 295.03125 449.984375 295.578125 C 450.898438 296.125 451.800781 296.695312 452.683594 297.289062 C 453.570312 297.878906 454.441406 298.492188 455.296875 299.128906 C 456.152344 299.761719 456.992188 300.417969 457.816406 301.09375 C 458.640625 301.769531 459.445312 302.464844 460.234375 303.179688 C 461.023438 303.898438 461.796875 304.632812 462.550781 305.382812 C 463.304688 306.136719 464.039062 306.910156 464.753906 307.699219 C 465.46875 308.488281 466.164062 309.292969 466.839844 310.117188 C 467.515625 310.941406 468.171875 311.78125 468.804688 312.636719 C 469.441406 313.492188 470.054688 314.363281 470.644531 315.25 C 471.238281 316.136719 471.808594 317.035156 472.355469 317.949219 C 472.902344 318.863281 473.429688 319.789062 473.929688 320.730469 C 474.433594 321.667969 474.910156 322.621094 475.367188 323.582031 C 475.824219 324.546875 476.253906 325.519531 476.660156 326.503906 C 477.070312 327.488281 477.453125 328.484375 477.8125 329.484375 C 478.171875 330.488281 478.503906 331.5 478.8125 332.519531 C 479.125 333.539062 479.40625 334.566406 479.667969 335.597656 C 479.925781 336.632812 480.160156 337.671875 480.367188 338.71875 C 480.574219 339.761719 480.757812 340.8125 480.914062 341.863281 C 481.070312 342.917969 481.199219 343.976562 481.304688 345.035156 C 481.40625 346.097656 481.488281 347.160156 481.539062 348.222656 C 481.589844 349.285156 481.617188 350.351562 481.617188 351.417969 C 481.617188 352.484375 481.589844 353.546875 481.539062 354.613281 C 481.488281 355.675781 481.40625 356.738281 481.304688 357.796875 C 481.199219 358.859375 481.070312 359.914062 480.914062 360.96875 C 480.757812 362.023438 480.574219 363.074219 480.367188 364.117188 C 480.160156 365.164062 479.925781 366.203125 479.667969 367.234375 C 479.40625 368.269531 479.125 369.296875 478.8125 370.316406 C 478.503906 371.335938 478.171875 372.34375 477.8125 373.347656 C 477.453125 374.351562 477.070312 375.34375 476.660156 376.328125 C 476.253906 377.3125 475.824219 378.289062 475.367188 379.25 C 474.910156 380.214844 474.433594 381.164062 473.929688 382.105469 C 473.429688 383.042969 472.902344 383.972656 472.355469 384.886719 C 471.808594 385.800781 471.238281 386.699219 470.644531 387.585938 C 470.054688 388.46875 469.441406 389.339844 468.804688 390.195312 C 468.171875 391.054688 467.515625 391.894531 466.839844 392.714844 C 466.164062 393.539062 465.46875 394.347656 464.753906 395.136719 C 464.039062 395.925781 463.304688 396.695312 462.550781 397.449219 C 461.796875 398.203125 461.023438 398.9375 460.234375 399.652344 C 459.445312 400.367188 458.640625 401.0625 457.816406 401.738281 C 456.992188 402.417969 456.152344 403.070312 455.296875 403.707031 C 454.441406 404.339844 453.570312 404.953125 452.683594 405.546875 C 451.800781 406.136719 450.898438 406.707031 449.984375 407.253906 C 449.070312 407.804688 448.144531 408.328125 447.207031 408.832031 C 446.265625 409.332031 445.3125 409.8125 444.351562 410.265625 C 443.386719 410.722656 442.414062 411.152344 441.429688 411.5625 C 440.445312 411.96875 439.453125 412.351562 438.449219 412.710938 C 437.445312 413.070312 436.433594 413.40625 435.414062 413.714844 C 434.394531 414.023438 433.367188 414.308594 432.335938 414.566406 C 431.300781 414.824219 430.261719 415.058594 429.21875 415.265625 C 428.171875 415.472656 427.125 415.65625 426.070312 415.8125 C 425.015625 415.96875 423.957031 416.097656 422.898438 416.203125 C 421.835938 416.308594 420.777344 416.386719 419.710938 416.4375 C 418.648438 416.492188 417.582031 416.515625 416.515625 416.515625 L 309.914062 416.515625 L 342.464844 383.96875 L 318.867188 361.507812 L 258.488281 422.050781 L 247.09375 433.441406 L 258.8125 445.160156 L 318.867188 505.703125 L 341.816406 482.757812 L 308.453125 449.066406 L 416.515625 449.066406 C 418.117188 449.066406 419.710938 449.027344 421.308594 448.949219 C 422.90625 448.871094 424.5 448.753906 426.089844 448.597656 C 427.679688 448.441406 429.265625 448.246094 430.84375 448.011719 C 432.425781 447.777344 434 447.503906 435.566406 447.191406 C 437.136719 446.878906 438.695312 446.527344 440.246094 446.140625 C 441.792969 445.753906 443.335938 445.328125 444.863281 444.863281 C 446.394531 444.398438 447.910156 443.898438 449.414062 443.359375 C 450.917969 442.820312 452.410156 442.246094 453.886719 441.632812 C 455.363281 441.023438 456.824219 440.375 458.269531 439.691406 C 459.710938 439.007812 461.140625 438.289062 462.550781 437.535156 C 463.957031 436.785156 465.347656 435.996094 466.71875 435.175781 C 468.089844 434.351562 469.441406 433.5 470.769531 432.609375 C 472.097656 431.722656 473.402344 430.800781 474.6875 429.851562 C 475.972656 428.898438 477.230469 427.914062 478.464844 426.902344 C 479.699219 425.886719 480.910156 424.84375 482.09375 423.769531 C 483.277344 422.699219 484.4375 421.597656 485.566406 420.464844 C 486.695312 419.335938 487.796875 418.179688 488.871094 416.996094 C 489.945312 415.8125 490.988281 414.601562 492 413.367188 C 493.015625 412.128906 494 410.871094 494.949219 409.585938 C 495.902344 408.304688 496.824219 406.996094 497.710938 405.667969 C 498.597656 404.339844 499.453125 402.988281 500.273438 401.621094 C 501.097656 400.25 501.882812 398.859375 502.636719 397.449219 C 503.390625 396.039062 504.109375 394.613281 504.792969 393.167969 C 505.476562 391.722656 506.121094 390.261719 506.734375 388.785156 C 507.34375 387.308594 507.921875 385.820312 508.457031 384.316406 C 508.996094 382.808594 509.5 381.292969 509.960938 379.761719 C 510.425781 378.234375 510.851562 376.695312 511.242188 375.144531 C 511.628906 373.59375 511.980469 372.035156 512.289062 370.46875 C 512.601562 368.902344 512.875 367.328125 513.109375 365.746094 C 513.34375 364.164062 513.539062 362.578125 513.695312 360.988281 C 513.855469 359.398438 513.972656 357.804688 514.050781 356.207031 C 514.128906 354.613281 514.167969 353.015625 514.167969 351.417969 C 514.167969 349.820312 514.128906 348.222656 514.050781 346.625 C 513.972656 345.03125 513.855469 343.4375 513.695312 341.847656 C 513.539062 340.253906 513.34375 338.667969 513.109375 337.089844 C 512.875 335.507812 512.601562 333.933594 512.289062 332.367188 C 511.980469 330.800781 511.628906 329.242188 511.242188 327.691406 C 510.851562 326.140625 510.425781 324.601562 509.960938 323.070312 C 509.5 321.542969 508.996094 320.023438 508.457031 318.519531 C 507.921875 317.015625 507.34375 315.523438 506.734375 314.046875 C 506.121094 312.570312 505.476562 311.109375 504.792969 309.667969 C 504.109375 308.222656 503.390625 306.792969 502.636719 305.386719 C 501.882812 303.976562 501.097656 302.585938 500.273438 301.214844 C 499.453125 299.84375 498.597656 298.496094 497.710938 297.164062 C 496.824219 295.835938 495.902344 294.53125 494.949219 293.246094 C 494 291.964844 493.015625 290.703125 492 289.46875 C 490.988281 288.234375 489.945312 287.023438 488.871094 285.839844 C 487.796875 284.65625 486.695312 283.5 485.566406 282.367188 C 484.4375 281.238281 483.277344 280.136719 482.09375 279.0625 C 480.910156 277.988281 479.699219 276.945312 478.464844 275.933594 C 477.230469 274.917969 475.972656 273.9375 474.6875 272.984375 C 473.402344 272.03125 472.097656 271.113281 470.769531 270.222656 C 469.441406 269.335938 468.089844 268.480469 466.71875 267.660156 C 465.347656 266.839844 463.957031 266.050781 462.550781 265.296875 C 461.140625 264.542969 459.710938 263.824219 458.269531 263.144531 C 456.824219 262.460938 455.363281 261.8125 453.886719 261.199219 C 452.410156 260.589844 450.917969 260.015625 449.414062 259.476562 C 447.910156 258.9375 446.394531 258.4375 444.863281 257.972656 C 443.335938 257.507812 441.792969 257.082031 440.246094 256.695312 C 438.695312 256.304688 437.136719 255.957031 435.566406 255.644531 C 434 255.332031 432.425781 255.058594 430.84375 254.824219 C 429.265625 254.589844 427.679688 254.394531 426.089844 254.238281 C 424.5 254.082031 422.90625 253.964844 421.308594 253.886719 C 419.710938 253.804688 418.117188 253.765625 416.515625 253.765625 Z M 416.515625 253.765625 " fill-opacity="1" fill-rule="nonzero"/></svg>