<svg xmlns="http://www.w3.org/2000/svg" xmlns:xlink="http://www.w3.org/1999/xlink" width="1024" zoomAndPan="magnify" viewBox="0 0 768 767.999994" height="1024" preserveAspectRatio="xMidYMid meet" version="1.0"><defs><clipPath id="2c1f7a0fd7"><path d="M 140.242188 140.242188 L 627.742188 140.242188 L 627.742188 627.742188 L 140.242188 627.742188 Z M 140.242188 140.242188 " clip-rule="nonzero"/></clipPath></defs><g clip-path="url(#2c1f7a0fd7)"><path fill="#000000" d="M 383.992188 175.734375 C 498.824219 175.734375 592.25 269.15625 592.25 383.992188 C 592.25 498.824219 498.824219 592.25 383.992188 592.25 C 269.15625 592.25 175.734375 498.824219 175.734375 383.992188 C 175.734375 269.15625 269.15625 175.734375 383.992188 175.734375 Z M 383.992188 627.742188 C 518.394531 627.742188 627.742188 518.394531 627.742188 383.992188 C 627.742188 249.585938 518.394531 140.242188 383.992188 140.242188 C 249.585938 140.242188 140.242188 249.585938 140.242188 383.992188 C 140.242188 518.394531 249.585938 627.742188 383.992188 627.742188 " fill-opacity="1" fill-rule="nonzero"/></g><path fill="#000000" d="M 295.320312 472.664062 C 299.476562 476.820312 304.925781 478.902344 310.375 478.902344 C 315.824219 478.902344 321.273438 476.820312 325.433594 472.664062 L 383.992188 414.105469 L 442.546875 472.664062 C 446.707031 476.820312 452.15625 478.902344 457.605469 478.902344 C 463.058594 478.902344 468.507812 476.820312 472.664062 472.664062 C 480.980469 464.34375 480.980469 450.867188 472.664062 442.546875 L 414.105469 383.992188 L 472.664062 325.433594 C 480.980469 317.117188 480.980469 303.636719 472.664062 295.320312 C 464.347656 287.003906 450.867188 287 442.546875 295.320312 L 383.992188 353.875 L 325.433594 295.320312 C 317.117188 287.003906 303.632812 287.003906 295.320312 295.320312 C 287 303.636719 287 317.117188 295.320312 325.433594 L 353.875 383.992188 L 295.320312 442.546875 C 287 450.867188 287 464.34375 295.320312 472.664062 " fill-opacity="1" fill-rule="nonzero"/></svg>