<svg xmlns="http://www.w3.org/2000/svg" xmlns:xlink="http://www.w3.org/1999/xlink" width="1024" zoomAndPan="magnify" viewBox="0 0 768 767.999994" height="1024" preserveAspectRatio="xMidYMid meet" version="1.0"><defs><clipPath id="b5ee7bacd0"><path d="M 140.046875 140.046875 L 628.296875 140.046875 L 628.296875 628.296875 L 140.046875 628.296875 Z M 140.046875 140.046875 " clip-rule="nonzero"/></clipPath></defs><g clip-path="url(#b5ee7bacd0)"><path fill="#000000" d="M 384.171875 140.046875 C 249.25 140.046875 140.046875 249.230469 140.046875 384.171875 C 140.046875 519.09375 249.230469 628.296875 384.171875 628.296875 C 519.09375 628.296875 628.296875 519.109375 628.296875 384.171875 C 628.296875 249.25 519.109375 140.046875 384.171875 140.046875 Z M 384.171875 599.574219 C 265.398438 599.574219 168.765625 502.945312 168.765625 384.171875 C 168.765625 265.398438 265.398438 168.765625 384.171875 168.765625 C 502.945312 168.765625 599.574219 265.398438 599.574219 384.171875 C 599.574219 502.945312 502.945312 599.574219 384.171875 599.574219 Z M 384.171875 599.574219 " fill-opacity="1" fill-rule="nonzero"/></g><path fill="#000000" d="M 513.414062 470.332031 L 367.339844 470.332031 C 361.414062 453.617188 345.449219 441.613281 326.730469 441.613281 C 308.007812 441.613281 292.046875 453.617188 286.117188 470.332031 L 254.929688 470.332031 C 246.996094 470.332031 240.566406 476.761719 240.566406 484.695312 C 240.566406 492.625 246.996094 499.054688 254.929688 499.054688 L 286.117188 499.054688 C 292.046875 515.769531 308.007812 527.773438 326.730469 527.773438 C 345.449219 527.773438 361.414062 515.769531 367.339844 499.054688 L 513.414062 499.054688 C 521.34375 499.054688 527.773438 492.625 527.773438 484.695312 C 527.773438 476.761719 521.34375 470.332031 513.414062 470.332031 Z M 513.414062 470.332031 " fill-opacity="1" fill-rule="nonzero"/><path fill="#000000" d="M 513.414062 283.648438 L 367.339844 283.648438 C 361.414062 266.933594 345.449219 254.929688 326.730469 254.929688 C 308.007812 254.929688 292.046875 266.933594 286.117188 283.648438 L 254.929688 283.648438 C 246.996094 283.648438 240.566406 290.078125 240.566406 298.007812 C 240.566406 305.941406 246.996094 312.371094 254.929688 312.371094 L 286.117188 312.371094 C 292.046875 329.085938 308.007812 341.089844 326.730469 341.089844 C 345.449219 341.089844 361.414062 329.085938 367.339844 312.371094 L 513.414062 312.371094 C 521.34375 312.371094 527.773438 305.941406 527.773438 298.007812 C 527.773438 290.078125 521.34375 283.648438 513.414062 283.648438 Z M 513.414062 283.648438 " fill-opacity="1" fill-rule="nonzero"/><path fill="#000000" d="M 513.414062 369.8125 L 482.222656 369.8125 C 476.296875 353.097656 460.332031 341.089844 441.613281 341.089844 C 422.890625 341.089844 406.929688 353.097656 401 369.8125 L 254.929688 369.8125 C 246.996094 369.8125 240.566406 376.242188 240.566406 384.171875 C 240.566406 392.101562 246.996094 398.53125 254.929688 398.53125 L 401 398.53125 C 406.929688 415.246094 422.890625 427.253906 441.613281 427.253906 C 460.332031 427.253906 476.296875 415.246094 482.222656 398.53125 L 513.414062 398.53125 C 521.34375 398.53125 527.773438 392.101562 527.773438 384.171875 C 527.773438 376.242188 521.34375 369.8125 513.414062 369.8125 Z M 513.414062 369.8125 " fill-opacity="1" fill-rule="nonzero"/></svg>