<svg xmlns="http://www.w3.org/2000/svg" xmlns:xlink="http://www.w3.org/1999/xlink" width="1024" zoomAndPan="magnify" viewBox="0 0 768 767.999994" height="1024" preserveAspectRatio="xMidYMid meet" version="1.0"><defs><clipPath id="a2292c20ed"><path d="M 140.765625 140.765625 L 627.515625 140.765625 L 627.515625 627.515625 L 140.765625 627.515625 Z M 140.765625 140.765625 " clip-rule="nonzero"/></clipPath></defs><g clip-path="url(#a2292c20ed)"><path fill="#173a27" d="M 627.515625 384.140625 C 627.515625 518.582031 518.582031 627.515625 384.140625 627.515625 C 249.703125 627.515625 140.765625 518.582031 140.765625 384.140625 C 140.765625 249.703125 249.703125 140.765625 384.140625 140.765625 C 518.582031 140.765625 627.515625 249.703125 627.515625 384.140625 Z M 627.515625 384.140625 " fill-opacity="1" fill-rule="nonzero"/></g><path fill="#ffffff" d="M 537.859375 354.351562 C 537.859375 441.09375 414.613281 513.132812 388.816406 527.34375 C 385.894531 529 382.292969 529 379.371094 527.34375 C 353.574219 513.226562 230.328125 441.1875 230.328125 354.351562 C 230.328125 353.769531 230.328125 353.085938 230.328125 352.503906 C 230.328125 352.113281 230.328125 351.628906 230.328125 351.238281 C 230.328125 349 230.425781 346.761719 230.523438 344.519531 C 233.640625 300.617188 266.738281 266.058594 307.136719 266.058594 C 349.582031 266.058594 384.046875 304.21875 384.046875 351.238281 C 384.046875 304.21875 418.507812 266.058594 460.953125 266.058594 C 501.742188 266.058594 535.132812 301.199219 537.664062 345.6875 C 537.761719 347.539062 537.859375 349.386719 537.859375 351.238281 L 537.859375 351.335938 C 537.859375 352.40625 537.859375 353.378906 537.859375 354.351562 Z M 537.859375 354.351562 " fill-opacity="1" fill-rule="nonzero"/></svg>