<svg xmlns="http://www.w3.org/2000/svg" xmlns:xlink="http://www.w3.org/1999/xlink" width="1024" zoomAndPan="magnify" viewBox="0 0 768 767.999994" height="1024" preserveAspectRatio="xMidYMid meet" version="1.0"><defs><clipPath id="87d8f75da5"><path d="M 140.277344 140.277344 L 627.777344 140.277344 L 627.777344 627.777344 L 140.277344 627.777344 Z M 140.277344 140.277344 " clip-rule="nonzero"/></clipPath></defs><path fill="#000000" d="M 438.664062 276.164062 C 443.195312 271.628906 443.195312 264.28125 438.664062 259.75 C 434.128906 255.214844 426.78125 255.214844 422.246094 259.75 L 306.175781 375.820312 C 301.644531 380.351562 301.644531 387.703125 306.175781 392.234375 L 422.246094 508.308594 C 426.78125 512.839844 434.128906 512.839844 438.664062 508.308594 C 443.195312 503.773438 443.195312 496.425781 438.664062 491.890625 L 330.800781 384.027344 Z M 438.664062 276.164062 " fill-opacity="1" fill-rule="nonzero"/><g clip-path="url(#87d8f75da5)"><path fill="#000000" d="M 384.027344 140.277344 C 249.40625 140.277344 140.277344 249.40625 140.277344 384.027344 C 140.277344 518.648438 249.40625 627.777344 384.027344 627.777344 C 518.648438 627.777344 627.777344 518.648438 627.777344 384.027344 C 627.777344 249.40625 518.648438 140.277344 384.027344 140.277344 Z M 163.492188 384.027344 C 163.492188 262.230469 262.230469 163.492188 384.027344 163.492188 C 505.824219 163.492188 604.5625 262.230469 604.5625 384.027344 C 604.5625 505.824219 505.824219 604.5625 384.027344 604.5625 C 262.230469 604.5625 163.492188 505.824219 163.492188 384.027344 Z M 163.492188 384.027344 " fill-opacity="1" fill-rule="evenodd"/></g></svg>