<svg xmlns="http://www.w3.org/2000/svg" xmlns:xlink="http://www.w3.org/1999/xlink" width="1024" zoomAndPan="magnify" viewBox="0 0 768 767.999994" height="1024" preserveAspectRatio="xMidYMid meet" version="1.0"><defs><clipPath id="c14ffac699"><path d="M 147.175781 129.144531 L 639.175781 129.144531 L 639.175781 621.144531 L 147.175781 621.144531 Z M 147.175781 129.144531 " clip-rule="nonzero"/></clipPath></defs><g clip-path="url(#c14ffac699)"><path fill="#000000" d="M 393.175781 129.144531 C 257.3125 129.144531 147.175781 239.28125 147.175781 375.144531 C 147.175781 511.003906 257.3125 621.144531 393.175781 621.144531 C 529.035156 621.144531 639.175781 511.003906 639.175781 375.144531 C 639.175781 239.28125 529.035156 129.144531 393.175781 129.144531 Z M 393.175781 164.832031 C 509.140625 164.832031 603.488281 259.179688 603.488281 375.144531 C 603.488281 491.109375 509.140625 585.457031 393.175781 585.457031 C 277.210938 585.457031 182.867188 491.109375 182.867188 375.144531 C 182.867188 259.179688 277.210938 164.832031 393.175781 164.832031 " fill-opacity="1" fill-rule="nonzero"/></g><path fill="#000000" d="M 484.453125 392.984375 L 301.898438 392.984375 C 292.039062 392.984375 284.050781 385 284.050781 375.136719 C 284.050781 365.285156 292.039062 357.292969 301.898438 357.292969 L 484.453125 357.292969 C 494.3125 357.292969 502.300781 365.285156 502.300781 375.136719 C 502.300781 385 494.3125 392.984375 484.453125 392.984375 " fill-opacity="1" fill-rule="nonzero"/><path fill="#000000" d="M 484.453125 309.710938 L 301.898438 309.710938 C 292.039062 309.710938 284.050781 301.726562 284.050781 291.867188 C 284.050781 282.011719 292.039062 274.023438 301.898438 274.023438 L 484.453125 274.023438 C 494.3125 274.023438 502.300781 282.011719 502.300781 291.867188 C 502.300781 301.726562 494.3125 309.710938 484.453125 309.710938 " fill-opacity="1" fill-rule="nonzero"/><path fill="#000000" d="M 484.453125 476.261719 L 301.898438 476.261719 C 292.039062 476.261719 284.050781 468.273438 284.050781 458.414062 C 284.050781 448.558594 292.039062 440.570312 301.898438 440.570312 L 484.453125 440.570312 C 494.3125 440.570312 502.300781 448.558594 502.300781 458.414062 C 502.300781 468.273438 494.3125 476.261719 484.453125 476.261719 " fill-opacity="1" fill-rule="nonzero"/></svg>