<svg xmlns="http://www.w3.org/2000/svg" xmlns:xlink="http://www.w3.org/1999/xlink" width="1024" zoomAndPan="magnify" viewBox="0 0 768 767.999994" height="1024" preserveAspectRatio="xMidYMid meet" version="1.0"><defs><clipPath id="ca7ad964f3"><path d="M 142.429688 138.269531 L 629.929688 138.269531 L 629.929688 625.769531 L 142.429688 625.769531 Z M 142.429688 138.269531 " clip-rule="nonzero"/></clipPath></defs><g clip-path="url(#ca7ad964f3)"><path fill="#54582f" d="M 629.902344 382.027344 C 629.902344 386.019531 629.800781 390.003906 629.605469 393.988281 C 629.410156 397.972656 629.117188 401.949219 628.726562 405.921875 C 628.335938 409.890625 627.847656 413.847656 627.261719 417.792969 C 626.675781 421.742188 625.996094 425.667969 625.21875 429.582031 C 624.4375 433.496094 623.566406 437.386719 622.59375 441.253906 C 621.625 445.125 620.5625 448.96875 619.40625 452.785156 C 618.246094 456.601562 616.996094 460.390625 615.652344 464.144531 C 614.308594 467.902344 612.871094 471.621094 611.347656 475.308594 C 609.820312 478.992188 608.203125 482.640625 606.496094 486.246094 C 604.792969 489.851562 603 493.414062 601.117188 496.933594 C 599.238281 500.449219 597.273438 503.921875 595.222656 507.339844 C 593.171875 510.761719 591.039062 514.132812 588.820312 517.449219 C 586.605469 520.765625 584.308594 524.027344 581.933594 527.230469 C 579.554688 530.433594 577.101562 533.578125 574.570312 536.664062 C 572.042969 539.746094 569.4375 542.765625 566.757812 545.722656 C 564.078125 548.675781 561.328125 551.566406 558.507812 554.386719 C 555.6875 557.207031 552.796875 559.957031 549.84375 562.636719 C 546.886719 565.316406 543.867188 567.917969 540.785156 570.449219 C 537.699219 572.980469 534.554688 575.433594 531.351562 577.8125 C 528.148438 580.1875 524.886719 582.484375 521.570312 584.699219 C 518.253906 586.917969 514.882812 589.050781 511.464844 591.101562 C 508.042969 593.152344 504.570312 595.117188 501.054688 596.996094 C 497.535156 598.878906 493.972656 600.671875 490.367188 602.375 C 486.761719 604.082031 483.113281 605.699219 479.429688 607.226562 C 475.742188 608.75 472.023438 610.1875 468.265625 611.53125 C 464.511719 612.875 460.726562 614.125 456.90625 615.285156 C 453.089844 616.441406 449.246094 617.503906 445.375 618.472656 C 441.507812 619.445312 437.617188 620.316406 433.703125 621.09375 C 429.792969 621.875 425.863281 622.554688 421.917969 623.140625 C 417.96875 623.726562 414.011719 624.214844 410.042969 624.605469 C 406.074219 624.996094 402.09375 625.289062 398.109375 625.484375 C 394.125 625.679688 390.140625 625.777344 386.152344 625.777344 C 382.160156 625.777344 378.175781 625.679688 374.191406 625.484375 C 370.207031 625.289062 366.230469 624.996094 362.257812 624.605469 C 358.289062 624.214844 354.332031 623.726562 350.386719 623.140625 C 346.4375 622.554688 342.507812 621.875 338.597656 621.09375 C 334.683594 620.316406 330.792969 619.445312 326.925781 618.472656 C 323.054688 617.503906 319.210938 616.441406 315.394531 615.285156 C 311.578125 614.125 307.789062 612.875 304.035156 611.53125 C 300.277344 610.1875 296.558594 608.75 292.871094 607.226562 C 289.1875 605.699219 285.539062 604.082031 281.933594 602.375 C 278.328125 600.671875 274.765625 598.878906 271.246094 596.996094 C 267.730469 595.117188 264.257812 593.152344 260.839844 591.101562 C 257.417969 589.050781 254.046875 586.917969 250.730469 584.699219 C 247.414062 582.484375 244.152344 580.1875 240.949219 577.8125 C 237.746094 575.433594 234.601562 572.980469 231.515625 570.449219 C 228.433594 567.917969 225.414062 565.316406 222.457031 562.636719 C 219.503906 559.957031 216.613281 557.207031 213.792969 554.386719 C 210.972656 551.566406 208.222656 548.675781 205.542969 545.722656 C 202.863281 542.765625 200.261719 539.746094 197.730469 536.664062 C 195.199219 533.578125 192.746094 530.433594 190.367188 527.230469 C 187.992188 524.027344 185.695312 520.765625 183.480469 517.449219 C 181.261719 514.132812 179.128906 510.761719 177.078125 507.339844 C 175.027344 503.921875 173.0625 500.449219 171.183594 496.933594 C 169.300781 493.414062 167.507812 489.851562 165.804688 486.246094 C 164.097656 482.640625 162.480469 478.992188 160.953125 475.308594 C 159.429688 471.621094 157.992188 467.902344 156.648438 464.144531 C 155.304688 460.390625 154.054688 456.601562 152.894531 452.785156 C 151.738281 448.96875 150.675781 445.125 149.707031 441.253906 C 148.734375 437.386719 147.863281 433.496094 147.085938 429.582031 C 146.304688 425.667969 145.625 421.742188 145.039062 417.792969 C 144.453125 413.847656 143.964844 409.890625 143.574219 405.921875 C 143.183594 401.949219 142.890625 397.972656 142.695312 393.988281 C 142.5 390.003906 142.402344 386.019531 142.402344 382.027344 C 142.402344 378.039062 142.5 374.054688 142.695312 370.070312 C 142.890625 366.085938 143.183594 362.105469 143.574219 358.136719 C 143.964844 354.167969 144.453125 350.210938 145.039062 346.261719 C 145.625 342.316406 146.304688 338.386719 147.085938 334.476562 C 147.863281 330.5625 148.734375 326.671875 149.707031 322.800781 C 150.675781 318.933594 151.738281 315.089844 152.894531 311.273438 C 154.054688 307.453125 155.304688 303.667969 156.648438 299.914062 C 157.992188 296.15625 159.429688 292.433594 160.953125 288.75 C 162.480469 285.066406 164.097656 281.417969 165.804688 277.8125 C 167.507812 274.207031 169.300781 270.644531 171.183594 267.125 C 173.0625 263.609375 175.027344 260.136719 177.078125 256.714844 C 179.128906 253.296875 181.261719 249.925781 183.480469 246.609375 C 185.695312 243.292969 187.992188 240.03125 190.367188 236.828125 C 192.746094 233.625 195.199219 230.480469 197.730469 227.394531 C 200.261719 224.3125 202.863281 221.292969 205.542969 218.335938 C 208.222656 215.382812 210.972656 212.492188 213.792969 209.671875 C 216.613281 206.851562 219.503906 204.101562 222.457031 201.421875 C 225.414062 198.742188 228.433594 196.136719 231.515625 193.609375 C 234.601562 191.078125 237.746094 188.625 240.949219 186.246094 C 244.152344 183.871094 247.414062 181.574219 250.730469 179.359375 C 254.046875 177.140625 257.417969 175.007812 260.839844 172.957031 C 264.257812 170.90625 267.730469 168.941406 271.246094 167.0625 C 274.765625 165.179688 278.328125 163.386719 281.933594 161.683594 C 285.539062 159.976562 289.1875 158.359375 292.871094 156.832031 C 296.558594 155.308594 300.277344 153.871094 304.035156 152.527344 C 307.789062 151.183594 311.578125 149.933594 315.394531 148.773438 C 319.210938 147.617188 323.054688 146.554688 326.925781 145.585938 C 330.792969 144.613281 334.683594 143.742188 338.597656 142.960938 C 342.507812 142.183594 346.4375 141.503906 350.386719 140.917969 C 354.332031 140.332031 358.289062 139.84375 362.257812 139.453125 C 366.230469 139.0625 370.207031 138.769531 374.191406 138.574219 C 378.175781 138.378906 382.160156 138.277344 386.152344 138.277344 C 390.140625 138.277344 394.125 138.378906 398.109375 138.574219 C 402.09375 138.769531 406.074219 139.0625 410.042969 139.453125 C 414.011719 139.84375 417.96875 140.332031 421.917969 140.917969 C 425.863281 141.503906 429.792969 142.183594 433.703125 142.960938 C 437.617188 143.742188 441.507812 144.613281 445.375 145.585938 C 449.246094 146.554688 453.089844 147.617188 456.90625 148.773438 C 460.726562 149.933594 464.511719 151.183594 468.265625 152.527344 C 472.023438 153.871094 475.742188 155.308594 479.429688 156.832031 C 483.113281 158.359375 486.761719 159.976562 490.367188 161.683594 C 493.972656 163.386719 497.535156 165.179688 501.054688 167.0625 C 504.570312 168.941406 508.042969 170.90625 511.464844 172.957031 C 514.882812 175.007812 518.253906 177.140625 521.570312 179.359375 C 524.886719 181.574219 528.148438 183.871094 531.351562 186.246094 C 534.554688 188.625 537.699219 191.078125 540.785156 193.609375 C 543.867188 196.136719 546.886719 198.742188 549.84375 201.421875 C 552.796875 204.101562 555.6875 206.851562 558.507812 209.671875 C 561.328125 212.492188 564.078125 215.382812 566.757812 218.335938 C 569.4375 221.292969 572.042969 224.3125 574.570312 227.394531 C 577.101562 230.480469 579.554688 233.625 581.933594 236.828125 C 584.308594 240.03125 586.605469 243.292969 588.820312 246.609375 C 591.039062 249.925781 593.171875 253.296875 595.222656 256.714844 C 597.273438 260.136719 599.238281 263.609375 601.117188 267.125 C 603 270.644531 604.792969 274.207031 606.496094 277.8125 C 608.203125 281.417969 609.820312 285.066406 611.347656 288.75 C 612.871094 292.433594 614.308594 296.15625 615.652344 299.914062 C 616.996094 303.667969 618.246094 307.453125 619.40625 311.273438 C 620.5625 315.089844 621.625 318.933594 622.59375 322.800781 C 623.566406 326.671875 624.4375 330.5625 625.21875 334.476562 C 625.996094 338.386719 626.675781 342.316406 627.261719 346.261719 C 627.847656 350.210938 628.335938 354.167969 628.726562 358.136719 C 629.117188 362.105469 629.410156 366.085938 629.605469 370.070312 C 629.800781 374.054688 629.902344 378.039062 629.902344 382.027344 Z M 629.902344 382.027344 " fill-opacity="1" fill-rule="nonzero"/></g><path fill="#ffffff" d="M 524.5 393.0625 L 247.800781 393.0625 C 241.484375 393.0625 236.34375 398.203125 236.34375 404.519531 L 236.34375 484.871094 C 236.34375 491.1875 241.484375 496.328125 247.800781 496.328125 L 268.988281 496.328125 L 278.109375 480.53125 C 281.433594 474.773438 287.628906 471.195312 294.28125 471.195312 L 478.019531 471.195312 C 484.667969 471.195312 490.867188 474.773438 494.191406 480.53125 L 503.3125 496.328125 L 524.5 496.328125 C 530.816406 496.328125 535.957031 491.1875 535.957031 484.871094 L 535.957031 404.519531 C 535.957031 398.203125 530.816406 393.0625 524.5 393.0625 Z M 524.5 393.0625 " fill-opacity="1" fill-rule="nonzero"/><path fill="#ffffff" d="M 478.019531 476.933594 L 294.28125 476.933594 C 289.675781 476.933594 285.382812 479.414062 283.082031 483.402344 L 275.617188 496.328125 L 496.683594 496.328125 L 489.21875 483.402344 C 486.917969 479.414062 482.625 476.933594 478.019531 476.933594 Z M 478.019531 476.933594 " fill-opacity="1" fill-rule="nonzero"/><path fill="#ffffff" d="M 477.421875 265.425781 L 294.878906 265.425781 L 294.878906 387.324219 L 477.421875 387.324219 Z M 446.191406 373.59375 L 326.109375 373.59375 C 324.527344 373.59375 323.242188 372.308594 323.242188 370.722656 C 323.242188 369.136719 324.527344 367.851562 326.109375 367.851562 L 446.191406 367.851562 C 447.773438 367.851562 449.058594 369.136719 449.058594 370.722656 C 449.058594 372.308594 447.777344 373.59375 446.191406 373.59375 Z M 446.191406 349.507812 L 326.109375 349.507812 C 324.527344 349.507812 323.242188 348.222656 323.242188 346.636719 C 323.242188 345.054688 324.527344 343.769531 326.109375 343.769531 L 446.191406 343.769531 C 447.773438 343.769531 449.058594 345.054688 449.058594 346.636719 C 449.058594 348.222656 447.777344 349.507812 446.191406 349.507812 Z M 446.191406 325.425781 L 326.109375 325.425781 C 324.527344 325.425781 323.242188 324.140625 323.242188 322.554688 C 323.242188 320.96875 324.527344 319.683594 326.109375 319.683594 L 446.191406 319.683594 C 447.773438 319.683594 449.058594 320.96875 449.058594 322.554688 C 449.058594 324.140625 447.777344 325.425781 446.191406 325.425781 Z M 446.191406 301.339844 L 326.109375 301.339844 C 324.527344 301.339844 323.242188 300.054688 323.242188 298.46875 C 323.242188 296.886719 324.527344 295.601562 326.109375 295.601562 L 446.191406 295.601562 C 447.773438 295.601562 449.058594 296.886719 449.058594 298.46875 C 449.058594 300.054688 447.777344 301.339844 446.191406 301.339844 Z M 446.191406 301.339844 " fill-opacity="1" fill-rule="nonzero"/></svg>