<svg xmlns="http://www.w3.org/2000/svg" xmlns:xlink="http://www.w3.org/1999/xlink" width="1024" zoomAndPan="magnify" viewBox="0 0 768 767.999994" height="1024" preserveAspectRatio="xMidYMid meet" version="1.0"><defs><clipPath id="07586ba987"><path d="M 138.757812 138.757812 L 629.257812 138.757812 L 629.257812 629.257812 L 138.757812 629.257812 Z M 138.757812 138.757812 " clip-rule="nonzero"/></clipPath></defs><path fill="#000000" d="M 329.035156 492.535156 C 324.476562 497.097656 324.476562 504.492188 329.035156 509.050781 C 333.59375 513.613281 340.992188 513.613281 345.550781 509.050781 L 462.335938 392.265625 C 466.898438 387.703125 466.898438 380.308594 462.335938 375.75 L 345.550781 258.960938 C 340.992188 254.402344 333.59375 254.402344 329.035156 258.960938 C 324.476562 263.523438 324.476562 270.917969 329.035156 275.480469 L 437.5625 384.007812 Z M 329.035156 492.535156 " fill-opacity="1" fill-rule="nonzero"/><g clip-path="url(#07586ba987)"><path fill="#000000" d="M 384.007812 629.257812 C 519.457031 629.257812 629.257812 519.457031 629.257812 384.007812 C 629.257812 248.558594 519.457031 138.757812 384.007812 138.757812 C 248.558594 138.757812 138.757812 248.558594 138.757812 384.007812 C 138.757812 519.457031 248.558594 629.257812 384.007812 629.257812 Z M 605.898438 384.007812 C 605.898438 506.554688 506.554688 605.898438 384.007812 605.898438 C 261.460938 605.898438 162.113281 506.554688 162.113281 384.007812 C 162.113281 261.460938 261.460938 162.113281 384.007812 162.113281 C 506.554688 162.113281 605.898438 261.460938 605.898438 384.007812 Z M 605.898438 384.007812 " fill-opacity="1" fill-rule="evenodd"/></g></svg>