<svg xmlns="http://www.w3.org/2000/svg" xmlns:xlink="http://www.w3.org/1999/xlink" width="1024" zoomAndPan="magnify" viewBox="0 0 768 767.999994" height="1024" preserveAspectRatio="xMidYMid meet" version="1.0"><path fill="#000000" d="M 337.632812 140.648438 C 227.875 141.847656 139.871094 231.820312 141.078125 341.582031 C 142.277344 451.324219 232.238281 539.335938 342.003906 538.128906 C 382.539062 537.691406 421.964844 524.851562 455.015625 501.351562 L 568.53125 614.847656 C 581.527344 627.675781 602.484375 627.542969 615.3125 614.527344 C 628.011719 601.65625 628.011719 580.949219 615.3125 568.0625 L 501.796875 454.566406 C 565.417969 365.125 544.464844 241.03125 455.015625 177.410156 C 420.746094 153.0625 379.660156 140.183594 337.632812 140.648438 Z M 335.242188 175.046875 C 425.886719 172.515625 501.425781 243.929688 503.957031 334.585938 C 503.996094 336.179688 504.03125 337.777344 504.03125 339.367188 C 504.066406 430.042969 430.578125 503.585938 339.910156 503.636719 C 249.230469 503.671875 175.679688 430.203125 175.636719 339.515625 C 175.636719 339.46875 175.636719 339.425781 175.636719 339.375 C 175.539062 250.410156 246.304688 177.535156 335.242188 175.046875 Z M 335.242188 175.046875 " fill-opacity="1" fill-rule="nonzero"/><path fill="#000000" d="M 295.503906 217.605469 C 304.492188 214.390625 314.382812 219.058594 317.605469 228.042969 C 320.804688 236.96875 316.222656 246.804688 307.328125 250.097656 C 269.789062 263.761719 244.800781 299.441406 244.800781 339.382812 C 244.800781 348.9375 237.0625 356.675781 227.515625 356.675781 C 217.972656 356.675781 210.234375 348.9375 210.234375 339.382812 C 210.238281 284.90625 244.308594 236.238281 295.503906 217.605469 Z M 295.503906 217.605469 " fill-opacity="1" fill-rule="nonzero"/></svg>